<svg width="88" height="64" viewBox="0 0 88 64" fill="none" xmlns="http://www.w3.org/2000/svg">
<path d="M87.6515 50.6641L82.6719 15.6698C81.3927 6.66994 73.672 0 64.5808 0H23.1907C14.0995 0 6.37877 6.66994 5.09961 15.6698L0.119996 50.6641C-0.885063 57.6995 4.55139 63.9583 11.6325 63.9583C14.739 63.9583 17.6628 62.7248 19.8557 60.532L30.1804 50.253H57.5911L67.8701 60.532C70.063 62.7248 73.0325 63.9583 76.0933 63.9583C83.2201 63.9583 88.6566 57.6995 87.6515 50.6641ZM78.0577 53.9534C77.6923 54.3646 77.0984 54.8214 76.139 54.8214C75.4537 54.8214 74.8142 54.5473 74.3573 54.0905L61.3829 41.1161H26.3886L13.4142 54.0905C12.9573 54.5473 12.3178 54.8214 11.6325 54.8214C10.6731 54.8214 10.0792 54.3646 9.71374 53.9534C9.34826 53.5422 8.98279 52.9027 9.11984 51.9433L14.0995 16.949C14.7847 12.5176 18.6679 9.1369 23.1907 9.1369H64.5808C69.1036 9.1369 72.9868 12.5176 73.6264 16.9946L78.606 51.989C78.743 52.9027 78.3775 53.5422 78.0577 53.9534Z" fill="white"/>
<path d="M30.1805 13.7053H25.612V22.8422H16.4751V27.4107H25.612V36.5476H30.1805V27.4107H39.3174V22.8422H30.1805V13.7053Z" fill="white"/>
<path d="M66.7279 36.5476C69.251 36.5476 71.2963 34.5022 71.2963 31.9792C71.2963 29.4561 69.251 27.4107 66.7279 27.4107C64.2048 27.4107 62.1594 29.4561 62.1594 31.9792C62.1594 34.5022 64.2048 36.5476 66.7279 36.5476Z" fill="white"/>
<path d="M57.5912 22.8422C60.1142 22.8422 62.1596 20.7969 62.1596 18.2738C62.1596 15.7507 60.1142 13.7053 57.5912 13.7053C55.0681 13.7053 53.0227 15.7507 53.0227 18.2738C53.0227 20.7969 55.0681 22.8422 57.5912 22.8422Z" fill="white"/>
</svg>
