<svg width="49" height="62" viewBox="0 0 49 62" fill="none" xmlns="http://www.w3.org/2000/svg">
<path d="M16 37.291H7C5.067 37.291 3.5 38.858 3.5 40.791V56.791C3.5 58.724 5.067 60.291 7 60.291H16C17.933 60.291 19.5 58.724 19.5 56.791V40.791C19.5 38.858 17.933 37.291 16 37.291Z" fill="#45BB32" stroke="white"/>
<path d="M24.1838 25.5H15.1838C13.2508 25.5 11.6838 27.067 11.6838 29V45C11.6838 46.933 13.2508 48.5 15.1838 48.5H24.1838C26.1168 48.5 27.6838 46.933 27.6838 45V29C27.6838 27.067 26.1168 25.5 24.1838 25.5Z" fill="#2673E8" stroke="white"/>
<path d="M33.1838 14.5H24.1838C22.2508 14.5 20.6838 16.067 20.6838 18V34C20.6838 35.933 22.2508 37.5 24.1838 37.5H33.1838C35.1168 37.5 36.6838 35.933 36.6838 34V18C36.6838 16.067 35.1168 14.5 33.1838 14.5Z" fill="#E82626" stroke="white"/>
<path d="M42.1838 2.5H33.1838C31.2508 2.5 29.6838 4.067 29.6838 6V22C29.6838 23.933 31.2508 25.5 33.1838 25.5H42.1838C44.1168 25.5 45.6838 23.933 45.6838 22V6C45.6838 4.067 44.1168 2.5 42.1838 2.5Z" fill="#E8BD26" stroke="white"/>
</svg>
