<svg width="123" height="118" viewBox="0 0 123 118" fill="none" xmlns="http://www.w3.org/2000/svg">
<rect x="3.37344" y="29.9155" width="57.3217" height="81.4006" rx="12.5" transform="rotate(-27.5832 3.37344 29.9155)" fill="#9F2467" stroke="white" stroke-width="5"/>
<rect x="34.7423" y="14.792" width="57.3217" height="81.4006" rx="12.5" transform="rotate(-2.80227 34.7423 14.792)" fill="#9F2467" stroke="white" stroke-width="5"/>
<rect x="63.7893" y="21.4752" width="57.3217" height="81.4006" rx="12.5" transform="rotate(15 63.7893 21.4752)" fill="#9F2467" stroke="white" stroke-width="5"/>
<path d="M71.8622 68.3257C71.9398 69.508 71.8764 70.53 71.6719 71.3916C71.4797 72.2393 71.2074 72.9618 70.8551 73.5591C70.502 74.1434 70.0892 74.6141 69.6168 74.9714C69.1574 75.3277 68.7059 75.6053 68.2622 75.804C67.8177 75.9898 67.4087 76.121 67.0353 76.1977C66.6611 76.2614 66.383 76.2993 66.2011 76.3112L60.7636 76.6681L59.8209 62.3045L64.1475 62.0205C65.3559 61.9412 66.4276 62.0666 67.3627 62.3967C68.3099 62.7129 69.1032 63.1698 69.7427 63.7672C70.3951 64.3638 70.8976 65.0615 71.2502 65.8605C71.6019 66.6464 71.8059 67.4681 71.8622 68.3257ZM65.309 74.6473C66.8941 74.5433 68.0042 73.9615 68.6393 72.902C69.2745 71.8425 69.5289 70.3513 69.4027 68.4284C69.3635 67.8307 69.2532 67.2442 69.0719 66.6689C68.8906 66.0936 68.5767 65.5857 68.1303 65.1453C67.6959 64.691 67.1186 64.3439 66.3982 64.1041C65.677 63.8513 64.7577 63.7616 63.6403 63.835L62.276 63.9245L62.9898 74.7995L65.309 74.6473ZM86.8907 67.6721C86.97 68.8804 86.884 69.9561 86.6327 70.899C86.3944 71.8411 86.0225 72.6354 85.5169 73.2819C85.0242 73.9275 84.4244 74.4301 83.7172 74.7897C83.0231 75.1484 82.2472 75.3559 81.3897 75.4122C80.5322 75.4685 79.7294 75.3646 78.9813 75.1005C78.2462 74.8356 77.5858 74.4157 77 73.8409C76.4272 73.2652 75.9547 72.5263 75.5823 71.6243C75.2229 70.7214 75.0036 69.6658 74.9243 68.4574C74.845 67.2491 74.9249 66.1804 75.164 65.2513C75.4153 64.3083 75.7873 63.514 76.2799 62.8684C76.7855 62.2219 77.3854 61.7193 78.0795 61.3606C78.7858 60.988 79.5677 60.7736 80.4253 60.7173C81.2828 60.661 82.0795 60.7718 82.8154 61.0497C83.5635 61.3138 84.2239 61.7337 84.7967 62.3094C85.3825 62.8843 85.8551 63.6231 86.2145 64.526C86.586 65.415 86.8114 66.4637 86.8907 67.6721ZM81.2059 73.5061C81.6866 73.4746 82.1354 73.3538 82.5522 73.1437C82.9812 72.9198 83.3505 72.5824 83.6602 72.1315C83.9829 71.6797 84.219 71.1031 84.3687 70.4017C84.5176 69.6873 84.5657 68.8294 84.513 67.8281C84.4361 66.8545 84.278 66.0363 84.0387 65.3734C83.8116 64.6968 83.5147 64.1486 83.1479 63.729C82.7941 63.3086 82.3964 63.015 81.9548 62.8482C81.5263 62.6806 81.0781 62.6122 80.6104 62.6429C80.1296 62.6744 79.6743 62.7957 79.2445 63.0066C78.8277 63.2166 78.4584 63.554 78.1366 64.0188C77.8269 64.4697 77.5972 65.0459 77.4475 65.7473C77.2978 66.4487 77.2493 67.3001 77.302 68.3014C77.3789 69.275 77.5309 70.1002 77.758 70.7768C77.9981 71.4527 78.2951 72.0008 78.6489 72.4212C79.0148 72.8278 79.4125 73.1214 79.8419 73.302C80.2835 73.4688 80.7381 73.5368 81.2059 73.5061ZM98.5289 70.2357C98.563 70.7554 98.4858 71.2694 98.2973 71.7776C98.121 72.272 97.8503 72.7204 97.4853 73.1227C97.1194 73.5121 96.6578 73.836 96.1006 74.0944C95.5434 74.3528 94.901 74.5059 94.1734 74.5536C93.8616 74.5741 93.5355 74.5759 93.1951 74.5591C92.8686 74.5545 92.5339 74.5242 92.1909 74.4684C91.848 74.4127 91.5164 74.33 91.196 74.2206C90.8878 74.0973 90.6168 73.9454 90.3832 73.765L90.6824 72.0621C90.8712 72.1541 91.1054 72.2431 91.385 72.3291C91.6768 72.4013 91.9752 72.4731 92.28 72.5444C92.5839 72.6028 92.887 72.6481 93.1893 72.6805C93.4915 72.7128 93.7726 72.7205 94.0324 72.7034C94.825 72.6514 95.4172 72.4299 95.8091 72.0388C96.2131 71.6338 96.3913 71.0676 96.3435 70.34C96.3145 69.8982 96.1404 69.5312 95.8211 69.239C95.5018 68.9468 95.1067 68.6922 94.6357 68.4752C94.1769 68.2443 93.6795 68.0225 93.1436 67.8097C92.6068 67.584 92.1 67.3171 91.6231 67.0092C91.1453 66.6882 90.7416 66.3036 90.4121 65.8555C90.0826 65.4074 89.8948 64.8325 89.8487 64.1309C89.807 63.4942 89.8868 62.9214 90.0883 62.4123C90.2897 61.9032 90.5743 61.467 90.9419 61.1036C91.3216 60.7263 91.7654 60.4297 92.2732 60.2137C92.794 59.9968 93.3467 59.8692 93.9314 59.8309C94.529 59.7916 95.137 59.8104 95.7554 59.8873C96.3729 59.9512 96.8781 60.0942 97.2711 60.3163C97.2042 60.4903 97.1256 60.6847 97.0353 60.8994C96.9442 61.1011 96.8591 61.2959 96.7801 61.4838C96.7002 61.6586 96.6317 61.8067 96.5744 61.9279C96.5171 62.0491 96.4824 62.1166 96.4702 62.1305C96.3897 62.0966 96.2953 62.0506 96.1871 61.9924C96.0919 61.9335 95.9512 61.8774 95.7651 61.8244C95.5789 61.7714 95.3356 61.7417 95.035 61.7353C94.7345 61.7289 94.3516 61.7606 93.8864 61.8303C93.6283 61.8733 93.3865 61.9675 93.1612 62.1128C92.935 62.245 92.7369 62.4081 92.5669 62.6019C92.397 62.7958 92.2677 63.013 92.1791 63.2537C92.0897 63.4814 92.0518 63.6992 92.0654 63.9071C92.0995 64.4268 92.2766 64.8393 92.5968 65.1445C92.9161 65.4367 93.3047 65.6918 93.7627 65.9096C94.2198 66.1145 94.7159 66.3168 95.2509 66.5166C95.7852 66.7034 96.2838 66.9447 96.7469 67.2405C97.223 67.5355 97.6266 67.92 97.9578 68.3941C98.2882 68.8553 98.4786 69.4691 98.5289 70.2357ZM102.872 69.9115L101.138 70.0253L100.144 59.658L102.522 59.5019L102.872 69.9115ZM103.592 72.5262C103.618 72.916 103.503 73.2563 103.248 73.547C102.993 73.8378 102.671 73.9959 102.281 74.0215C101.891 74.0471 101.551 73.9324 101.26 73.6775C100.982 73.4217 100.831 73.0989 100.805 72.7091C100.78 72.3193 100.895 71.9855 101.15 71.7078C101.405 71.417 101.721 71.2593 102.098 71.2346C102.488 71.209 102.828 71.3236 103.119 71.5786C103.409 71.8205 103.567 72.1364 103.592 72.5262Z" fill="white"/>
</svg>
