<svg width="202" height="95" viewBox="0 0 202 95" fill="none" xmlns="http://www.w3.org/2000/svg">
<path d="M29.0129 77.6124L24.0354 60.8826L35.3084 57.5287L36.1761 60.4449L28.4402 62.7465L29.6262 66.7329L36.7821 64.6039L37.6498 67.5202L30.4939 69.6492L31.6823 73.6438L39.4509 71.3325L40.3186 74.2487L29.0129 77.6124ZM54.6243 58.1573L51.0463 59.2219C50.8432 58.7784 50.5875 58.4069 50.279 58.1074C49.969 57.8025 49.618 57.5691 49.2259 57.4071C48.8339 57.2451 48.4107 57.1576 47.9563 57.1446C47.5074 57.13 47.0433 57.1939 46.564 57.3365C45.6981 57.5942 45.0079 58.0337 44.4933 58.6551C43.977 59.2711 43.6634 60.0401 43.5525 60.9623C43.4399 61.8791 43.5562 62.9175 43.9013 64.0774C44.2562 65.2701 44.7313 66.2195 45.3267 66.9256C45.9275 67.6301 46.6108 68.0937 47.3766 68.3164C48.1424 68.5391 48.9473 68.5249 49.7914 68.2737C50.2652 68.1328 50.685 67.9397 51.0507 67.6946C51.4219 67.4478 51.7297 67.1576 51.9743 66.824C52.2173 66.485 52.3904 66.1104 52.4936 65.7003C52.6023 65.2886 52.6311 64.8473 52.5799 64.3764L56.1627 63.3282C56.2986 64.1236 56.2875 64.9331 56.1294 65.7567C55.9752 66.5733 55.6711 67.3543 55.2171 68.1C54.767 68.8385 54.1631 69.4984 53.4053 70.0795C52.6513 70.6536 51.7379 71.1002 50.6651 71.4194C49.1729 71.8634 47.7382 71.9227 46.361 71.5974C44.9892 71.2704 43.7725 70.5683 42.711 69.4911C41.655 68.4122 40.8564 66.9633 40.3152 65.1444C39.7724 63.32 39.6537 61.6659 39.9592 60.1819C40.2646 58.698 40.9058 57.4461 41.8828 56.4263C42.8582 55.401 44.0811 54.6696 45.5515 54.2322C46.5209 53.9438 47.46 53.8126 48.3688 53.8386C49.283 53.863 50.1392 54.041 50.9374 54.3726C51.7339 54.6988 52.4455 55.1777 53.0721 55.8093C53.7041 56.4393 54.2215 57.222 54.6243 58.1573ZM73.2806 55.3366C73.8234 57.1609 73.9393 58.8159 73.6285 60.3015C73.3231 61.7854 72.6772 63.0416 71.6909 64.0701C70.7084 65.0916 69.4793 65.8218 68.0034 66.2609C66.5167 66.7033 65.082 66.7626 63.6993 66.4389C62.3167 66.1152 61.0919 65.4155 60.0249 64.3399C58.958 63.2642 58.1539 61.817 57.6127 59.998C57.07 58.1737 56.9513 56.5195 57.2567 55.0356C57.5621 53.5516 58.2061 52.2989 59.1885 51.2775C60.1694 50.2506 61.4032 49.516 62.8899 49.0737C64.3657 48.6346 65.795 48.5769 67.1777 48.9006C68.5642 49.2172 69.7909 49.9133 70.8578 50.989C71.9302 52.063 72.7378 53.5122 73.2806 55.3366ZM69.6945 56.4035C69.3429 55.2217 68.8694 54.2778 68.274 53.5717C67.684 52.8639 67.0081 52.3952 66.2461 52.1654C65.4842 51.9356 64.6757 51.948 63.8207 52.2023C62.9657 52.4567 62.282 52.8884 61.7696 53.4973C61.2572 54.1062 60.9447 54.869 60.8322 55.7858C60.725 56.7009 60.8473 57.7493 61.1989 58.9311C61.5505 60.1129 62.0212 61.0576 62.6112 61.7653C63.2066 62.4715 63.8853 62.9394 64.6472 63.1692C65.4091 63.3989 66.2176 63.3866 67.0726 63.1323C67.9276 62.8779 68.6113 62.4462 69.1237 61.8373C69.6361 61.2284 69.9459 60.4664 70.053 59.5513C70.1656 58.6345 70.0461 57.5853 69.6945 56.4035ZM73.412 46.1921L77.7742 44.8943L85.7256 54.7639L85.9217 54.7055L87.1847 42.0945L91.5469 40.7966L96.5243 57.5264L93.0934 58.5472L89.8537 47.6581L89.7148 47.6994L88.6007 59.7949L86.2644 60.49L78.7074 50.9299L78.5685 50.9712L81.8204 61.9011L78.3895 62.9219L73.412 46.1921ZM94.4611 39.9296L98.8233 38.6318L106.775 48.5014L106.971 48.443L108.234 35.832L112.596 34.5341L117.573 51.2639L114.142 52.2847L110.903 41.3956L110.764 41.4369L109.65 53.5324L107.314 54.2275L99.7565 44.6674L99.6176 44.7087L102.869 55.6386L99.4386 56.6594L94.4611 39.9296ZM120.488 50.3969L115.51 33.6671L126.783 30.3132L127.651 33.2294L119.915 35.531L121.101 39.5174L128.257 37.3884L129.125 40.3047L121.969 42.4337L123.157 46.4283L130.926 44.117L131.793 47.0332L120.488 50.3969ZM134.573 46.2063L129.595 29.4765L136.196 27.5127C137.459 27.1368 138.605 27.042 139.632 27.2283C140.664 27.4075 141.536 27.8386 142.249 28.5216C142.966 29.1976 143.489 30.0883 143.818 31.1938C144.148 32.3048 144.193 33.3318 143.952 34.2749C143.709 35.2126 143.196 36.0291 142.413 36.7245C141.636 37.4182 140.604 37.9563 139.319 38.3387L134.9 39.6535L134.054 36.8108L137.901 35.6661C138.577 35.4651 139.11 35.2057 139.501 34.8877C139.893 34.5696 140.142 34.1931 140.25 33.7579C140.363 33.3212 140.338 32.8278 140.174 32.2777C140.009 31.7223 139.758 31.2871 139.421 30.9724C139.09 30.6559 138.669 30.467 138.159 30.4054C137.652 30.3368 137.059 30.4037 136.378 30.6062L133.993 31.3159L138.11 45.1539L134.573 46.2063ZM141.342 35.9049L147.765 42.2812L143.861 43.4429L137.528 37.0399L141.342 35.9049ZM161.195 26.4505L157.617 27.515C157.414 27.0715 157.158 26.7001 156.85 26.4006C156.54 26.0957 156.189 25.8622 155.797 25.7002C155.405 25.5382 154.982 25.4508 154.527 25.4377C154.078 25.4231 153.614 25.4871 153.135 25.6297C152.269 25.8873 151.579 26.3268 151.064 26.9482C150.548 27.5642 150.234 28.3333 150.123 29.2555C150.011 30.1722 150.127 31.2106 150.472 32.3706C150.827 33.5632 151.302 34.5126 151.897 35.2188C152.498 35.9233 153.182 36.3869 153.947 36.6096C154.713 36.8322 155.518 36.818 156.362 36.5669C156.836 36.4259 157.256 36.2329 157.621 35.9877C157.993 35.7409 158.301 35.4508 158.545 35.1172C158.788 34.7781 158.961 34.4035 159.064 33.9934C159.173 33.5817 159.202 33.1404 159.151 32.6695L162.734 31.6214C162.869 32.4168 162.858 33.2263 162.7 34.0499C162.546 34.8664 162.242 35.6475 161.788 36.3931C161.338 37.1317 160.734 37.7915 159.976 38.3727C159.222 38.9467 158.309 39.3934 157.236 39.7126C155.744 40.1565 154.309 40.2158 152.932 39.8905C151.56 39.5636 150.343 38.8615 149.282 37.7842C148.226 36.7054 147.427 35.2565 146.886 33.4375C146.343 31.6132 146.225 29.959 146.53 28.4751C146.835 26.9911 147.477 25.7392 148.454 24.7194C149.429 23.6941 150.652 22.9628 152.122 22.5253C153.092 22.2369 154.031 22.1057 154.94 22.1317C155.854 22.1561 156.71 22.3341 157.508 22.6657C158.305 22.9919 159.016 23.4708 159.643 24.1024C160.275 24.7325 160.792 25.5151 161.195 26.4505ZM166.966 36.5686L161.989 19.8388L173.262 16.4848L174.13 19.4011L166.394 21.7027L167.58 25.6891L174.736 23.5601L175.603 26.4764L168.447 28.6054L169.636 32.6L177.404 30.2887L178.272 33.2049L166.966 36.5686Z" fill="black"/>
<line x1="12" y1="43" x2="12" y2="95" stroke="black" stroke-width="4"/>
<line x1="62" y1="93" x2="10" y2="93" stroke="black" stroke-width="4"/>
<line x1="189" y1="52" x2="189" y2="-2.62268e-07" stroke="black" stroke-width="4"/>
<line x1="139" y1="2" x2="191" y2="2.00001" stroke="black" stroke-width="4"/>
</svg>
