<svg width="359" height="359" viewBox="0 0 359 359" fill="none" xmlns="http://www.w3.org/2000/svg">
<path d="M159.354 182.738C172.325 186.685 186.862 188.75 199.979 182.979C200.168 183.087 200.342 183.176 200.472 183.242C202.148 219.151 210.677 243.671 218.912 259.307C223.064 267.191 227.133 272.802 230.192 276.464C230.497 276.829 230.792 277.174 231.076 277.5H128.62C129.082 276.94 129.579 276.326 130.102 275.656C133.267 271.601 137.459 265.519 141.644 257.343C149.963 241.085 158.227 216.58 158.334 183.326C158.6 183.162 158.835 183.04 159.259 182.796C159.29 182.778 159.321 182.758 159.354 182.738Z" fill="white" stroke="black" stroke-width="5"/>
<path d="M240 293.5C246.351 293.5 251.5 298.649 251.5 305C251.5 311.351 246.351 316.5 240 316.5C239.916 316.5 210.082 316.5 180.249 316.498C165.332 316.497 150.415 316.496 139.218 316.495C127.975 316.494 120.587 316.492 120.587 316.492C114.428 316.276 109.5 311.213 109.5 305C109.5 298.787 114.428 293.723 120.587 293.507C120.587 293.507 127.975 293.506 139.218 293.505C150.415 293.504 165.332 293.503 180.249 293.502C210.082 293.501 239.916 293.5 240 293.5Z" fill="white" stroke="black" stroke-width="5"/>
<path d="M180 173.5C203.906 173.633 218.131 161.905 223 138.5C225.618 125.915 218.413 111.451 210 98.5C210 98.5 188 133 182.5 132C176.349 130.882 176.296 130.591 173.5 125C171 120 199.5 84 199.5 84L189 71H171C171 71 131.372 111.518 137 138.5C141.852 161.762 156.238 173.368 180 173.5Z" fill="white" stroke="black" stroke-width="5"/>
<circle cx="180" cy="58" r="14.5" fill="white" stroke="black" stroke-width="5"/>
</svg>
