<svg width="359" height="359" viewBox="0 0 359 359" fill="none" xmlns="http://www.w3.org/2000/svg">
<path d="M253 279.13C253 286.862 246.732 293.13 239 293.13C238.832 293.13 119.666 293.126 119.5 293.121C111.999 292.857 106 286.694 106 279.129C106 271.565 111.999 265.401 119.5 265.138C119.666 265.132 238.832 265.13 239 265.13C246.732 265.13 253 271.398 253 279.13Z" fill="black"/>
<path d="M125.001 256.125H233.501C233.501 256.125 269.723 144.625 246.501 106.625C219.001 61.6254 193.501 66.125 193.501 66.125H145.501C145.501 66.125 145.501 71.6255 148.001 74.6255C153.323 81.0124 151.518 88.0161 149.001 94.6255C145.001 105.125 119.5 129.125 119.5 147.625C119.5 159.125 125.161 162.714 133 165.125C146 169.125 178.893 141.125 186 141.125C189.5 141.125 191.922 142.247 193 146.125C198 164.125 176.5 185.125 160 200.625C137.113 222.125 125.001 256.125 125.001 256.125Z" fill="black"/>
</svg>
