<svg width="359" height="359" viewBox="0 0 359 359" fill="none" xmlns="http://www.w3.org/2000/svg">
<path d="M172 67.4993C154 71.9995 151 85.4993 151 85.4993L208.5 85.4995C208.5 85.4995 205 70.9995 189 67.4993C188.5 67.3899 189 51.9993 189 51.9993H200.5C200.5 51.9993 207.5 50.9995 207.5 43.4995C207.5 35.9995 200.5 34.9995 200.5 34.9995H189V21.4995C189 21.4995 186.508 15.9999 180.5 16C175 16.0001 172 21.4995 172 21.4995V34.9995H160C160 34.9995 153 36.4993 153 43.4995C153 50.4997 160 51.9993 160 51.9993H172C172 51.9993 172.5 67.3743 172 67.4993Z" fill="white" stroke="black" stroke-width="5"/>
<path d="M179.737 208.502C186.324 208.504 192.901 208.504 199.257 208.504C199.302 208.539 199.341 208.571 199.376 208.596C199.76 208.878 200.209 209.108 200.472 209.242C202.148 245.15 210.677 269.67 218.911 285.306C223.063 293.191 227.133 298.801 230.192 302.463C230.497 302.828 230.792 303.173 231.076 303.5H128.62C129.082 302.94 129.579 302.326 130.102 301.656C133.267 297.601 137.459 291.519 141.644 283.342C149.963 267.085 158.227 242.579 158.334 209.326C158.6 209.161 158.835 209.039 159.259 208.795C159.405 208.711 159.571 208.611 159.748 208.5C166.273 208.5 173.011 208.501 179.737 208.502Z" fill="white" stroke="black" stroke-width="5"/>
<path d="M240 319.5C246.351 319.5 251.5 324.648 251.5 331C251.5 337.351 246.351 342.499 240 342.5C239.916 342.5 210.082 342.499 180.249 342.498C165.332 342.497 150.415 342.496 139.218 342.495C127.975 342.493 120.587 342.491 120.587 342.492C114.428 342.275 109.5 337.213 109.5 331C109.5 324.786 114.428 319.723 120.587 319.506C120.587 319.507 127.975 319.505 139.218 319.504C150.415 319.503 165.332 319.502 180.249 319.501C210.082 319.5 239.916 319.5 240 319.5Z" fill="white" stroke="black" stroke-width="5"/>
<path d="M217.429 177.5C220.434 177.5 223.5 180.482 223.5 185C223.5 189.517 220.434 192.499 217.429 192.5C217.378 192.5 199.112 192.499 180.847 192.498C162.523 192.496 144.369 192.494 144.367 192.495C141.437 192.375 138.5 189.409 138.5 185C138.5 180.589 141.437 177.624 144.367 177.503C144.368 177.504 162.522 177.501 180.847 177.5C199.112 177.5 217.378 177.5 217.429 177.5Z" fill="white" stroke="black" stroke-width="5"/>
<path d="M136.5 108.5C141.838 131.181 150 164.498 150 164.498H211.5C211.5 164.498 220 132 225.5 108.5C226.929 102.394 222.203 94.9977 216.5 94.998C196.5 94.9994 175.923 94.998 148 94.998C139.5 94.998 134.265 98.9995 136.5 108.5Z" fill="white" stroke="black" stroke-width="5"/>
</svg>
