<svg width="359" height="359" viewBox="0 0 359 359" fill="none" xmlns="http://www.w3.org/2000/svg">
<path fill-rule="evenodd" clip-rule="evenodd" d="M218.5 109.5C218.5 130.763 201.263 148 180 148C158.737 148 141.5 130.763 141.5 109.5C141.5 88.2368 158.737 71 180 71C201.263 71 218.5 88.2368 218.5 109.5ZM160.5 158.498C160.5 157.729 161.239 157.247 161.991 156.757C162.359 156.517 162.731 156.274 163.02 155.996C174 160 186 162 196.5 156.001C196.525 156.404 197.004 156.688 197.486 156.976C197.983 157.271 198.484 157.568 198.5 158C201 225.498 226 249.5 226 249.5H134C134 249.5 160.5 220.5 160.5 158.498ZM240 289C247.732 289 254 282.732 254 275C254 267.269 247.732 261 240 261C239.832 261 120.666 261.003 120.5 261.009C112.999 261.272 107 267.436 107 275C107 282.564 112.999 288.728 120.5 288.991C120.666 288.997 239.832 289 240 289Z" fill="black"/>
</svg>
