<svg width="359" height="359" viewBox="0 0 359 359" fill="none" xmlns="http://www.w3.org/2000/svg">
<mask id="path-1-inside-1_5477_380" fill="white">
<path d="M239 261.001C246.732 261.001 253 267.269 253 275.001C253 282.733 246.732 289.001 239 289.001C238.833 289.001 119.802 288.997 119.5 288.991C112 288.728 106 282.565 106 275C106 267.435 112 261.272 119.5 261.009C119.802 261.003 238.833 261.001 239 261.001ZM162.02 155.996C173 160 185 162 195.5 156.001C195.551 156.818 197.468 157.149 197.5 158C200 225.498 225 249.5 225 249.5H133C133 249.5 159.5 220.5 159.5 158.497C159.5 157.352 161.142 156.843 162.02 155.996ZM179 71C200.263 71 217.5 88.237 217.5 109.5C217.5 130.763 200.263 148 179 148C157.737 148 140.5 130.763 140.5 109.5C140.5 88.237 157.737 71 179 71Z"/>
</mask>
<path d="M239 261.001C246.732 261.001 253 267.269 253 275.001C253 282.733 246.732 289.001 239 289.001C238.833 289.001 119.802 288.997 119.5 288.991C112 288.728 106 282.565 106 275C106 267.435 112 261.272 119.5 261.009C119.802 261.003 238.833 261.001 239 261.001ZM162.02 155.996C173 160 185 162 195.5 156.001C195.551 156.818 197.468 157.149 197.5 158C200 225.498 225 249.5 225 249.5H133C133 249.5 159.5 220.5 159.5 158.497C159.5 157.352 161.142 156.843 162.02 155.996ZM179 71C200.263 71 217.5 88.237 217.5 109.5C217.5 130.763 200.263 148 179 148C157.737 148 140.5 130.763 140.5 109.5C140.5 88.237 157.737 71 179 71Z" fill="white"/>
<path d="M239 261.001L239 256.001H239V261.001ZM253 275.001L258 275.001V275.001H253ZM239 289.001V294.001H239L239 289.001ZM119.5 288.991L119.325 293.988L119.364 293.99L119.404 293.99L119.5 288.991ZM119.5 261.009L119.404 256.01L119.364 256.01L119.325 256.012L119.5 261.009ZM162.02 155.996L163.733 151.299L160.795 150.228L158.546 152.399L162.02 155.996ZM195.5 156.001L200.49 155.689L199.99 147.677L193.02 151.66L195.5 156.001ZM197.5 158L192.503 158.185V158.185L197.5 158ZM225 249.5V254.5H237.427L228.463 245.893L225 249.5ZM133 249.5L129.309 246.127L121.658 254.5H133V249.5ZM159.5 158.497L154.5 158.496V158.497H159.5ZM239 261.001L239 266.001C243.97 266.001 248 270.031 248 275.001H253H258C258 264.508 249.493 256.001 239 256.001L239 261.001ZM253 275.001L248 275.001C248 279.971 243.97 284.001 239 284.001L239 289.001L239 294.001C249.493 294.001 258 285.494 258 275.001L253 275.001ZM239 289.001V284.001C238.917 284.001 209.117 284 179.301 283.998C164.393 283.997 149.48 283.996 138.276 283.995C132.674 283.995 127.999 283.994 124.716 283.993C121.37 283.993 119.571 283.992 119.596 283.992L119.5 288.991L119.404 293.99C119.769 293.997 238.896 294.001 239 294.001V289.001ZM119.5 288.991L119.675 283.994C114.857 283.825 111 279.862 111 275H106H101C101 285.267 109.142 293.631 119.325 293.988L119.5 288.991ZM106 275H111C111 270.138 114.857 266.175 119.675 266.006L119.5 261.009L119.325 256.012C109.142 256.369 101 264.733 101 275H106ZM119.5 261.009L119.596 266.008C119.57 266.008 121.37 266.007 124.715 266.007C127.999 266.006 132.674 266.006 138.276 266.005C149.48 266.004 164.392 266.003 179.301 266.003C209.117 266.001 238.916 266.001 239 266.001V261.001V256.001C238.896 256.001 119.769 256.003 119.404 256.01L119.5 261.009ZM162.02 155.996L160.306 160.693C171.659 164.834 185.498 167.474 197.98 160.342L195.5 156.001L193.02 151.66C184.503 156.526 174.34 155.167 163.733 151.299L162.02 155.996ZM195.5 156.001L190.51 156.313C190.65 158.557 192.045 159.884 192.593 160.349C192.922 160.629 193.234 160.839 193.442 160.973C193.647 161.105 193.853 161.227 193.951 161.285C194.012 161.321 194.051 161.344 194.083 161.364C194.114 161.383 194.125 161.39 194.124 161.389C194.122 161.388 194.098 161.372 194.058 161.343C194.019 161.314 193.953 161.263 193.87 161.19C193.64 160.986 192.57 159.983 192.503 158.185L197.5 158L202.497 157.815C202.414 155.592 201.093 154.228 200.493 153.697C200.153 153.397 199.83 153.173 199.61 153.028C199.39 152.884 199.177 152.758 199.063 152.69C198.917 152.603 198.878 152.58 198.852 152.563C198.829 152.548 198.924 152.607 199.066 152.727C199.239 152.874 200.376 153.853 200.49 155.689L195.5 156.001ZM197.5 158L192.503 158.185C193.776 192.542 200.787 216.062 207.636 231.131C211.057 238.659 214.428 244.054 216.999 247.619C218.284 249.401 219.367 250.724 220.155 251.626C220.549 252.077 220.869 252.423 221.104 252.668C221.221 252.791 221.316 252.888 221.389 252.961C221.426 252.998 221.456 253.028 221.481 253.052C221.493 253.064 221.504 253.075 221.514 253.084C221.518 253.089 221.523 253.093 221.527 253.097C221.528 253.098 221.531 253.101 221.532 253.102C221.535 253.104 221.537 253.107 225 249.5C228.463 245.893 228.465 245.895 228.467 245.898C228.468 245.898 228.47 245.9 228.471 245.901C228.474 245.904 228.476 245.906 228.477 245.907C228.481 245.91 228.482 245.912 228.483 245.913C228.484 245.913 228.478 245.908 228.467 245.897C228.445 245.875 228.4 245.829 228.334 245.76C228.201 245.62 227.981 245.385 227.686 245.047C227.098 244.373 226.208 243.294 225.11 241.771C222.916 238.727 219.88 233.903 216.739 226.993C210.464 213.186 203.724 190.956 202.497 157.815L197.5 158ZM225 249.5V244.5H133V249.5V254.5H225V249.5ZM133 249.5C136.691 252.873 136.693 252.871 136.695 252.869C136.696 252.868 136.698 252.866 136.699 252.864C136.702 252.86 136.706 252.856 136.71 252.852C136.718 252.843 136.727 252.833 136.738 252.821C136.761 252.796 136.789 252.764 136.823 252.725C136.892 252.647 136.986 252.54 137.102 252.404C137.334 252.132 137.656 251.744 138.057 251.239C138.858 250.229 139.97 248.75 141.287 246.794C143.923 242.882 147.382 237.061 150.824 229.27C157.713 213.67 164.5 190.234 164.5 158.497H159.5H154.5C154.5 188.763 148.037 210.828 141.676 225.229C138.493 232.438 135.327 237.743 132.994 241.206C131.827 242.938 130.869 244.209 130.22 245.027C129.896 245.436 129.65 245.731 129.494 245.914C129.415 246.006 129.36 246.069 129.329 246.105C129.313 246.122 129.303 246.133 129.3 246.137C129.298 246.139 129.298 246.139 129.3 246.137C129.3 246.136 129.302 246.135 129.303 246.134C129.304 246.133 129.305 246.131 129.306 246.131C129.307 246.129 129.309 246.127 133 249.5ZM159.5 158.497L164.5 158.498C164.5 158.97 164.412 159.427 164.258 159.841C164.107 160.245 163.916 160.549 163.76 160.756C163.607 160.958 163.475 161.085 163.413 161.14C163.352 161.196 163.324 161.213 163.361 161.186C163.398 161.159 163.461 161.116 163.581 161.037C163.662 160.985 163.878 160.844 164.027 160.745C164.35 160.53 164.932 160.134 165.493 159.593L162.02 155.996L158.546 152.399C158.668 152.282 158.716 152.267 158.484 152.422C158.393 152.482 157.859 152.824 157.501 153.083C156.914 153.508 154.501 155.242 154.5 158.496L159.5 158.497ZM179 71V76C197.502 76 212.5 90.9985 212.5 109.5H217.5H222.5C222.5 85.4756 203.024 66 179 66V71ZM217.5 109.5H212.5C212.5 128.002 197.502 143 179 143V148V153C203.024 153 222.5 133.524 222.5 109.5H217.5ZM179 148V143C160.498 143 145.5 128.002 145.5 109.5H140.5H135.5C135.5 133.524 154.976 153 179 153V148ZM140.5 109.5H145.5C145.5 90.9985 160.498 76 179 76V71V66C154.976 66 135.5 85.4756 135.5 109.5H140.5Z" fill="black" mask="url(#path-1-inside-1_5477_380)"/>
</svg>
