<svg width="359" height="359" viewBox="0 0 359 359" fill="none" xmlns="http://www.w3.org/2000/svg">
<path d="M199.257 193.505C199.302 193.54 199.341 193.571 199.376 193.597C199.76 193.878 200.209 194.108 200.472 194.242C202.148 230.151 210.677 254.671 218.911 270.307C223.063 278.191 227.133 283.802 230.192 287.464C230.497 287.829 230.792 288.174 231.076 288.5H128.62C129.082 287.94 129.579 287.326 130.102 286.656C133.267 282.601 137.459 276.519 141.644 268.343C149.963 252.085 158.227 227.58 158.334 194.326C158.6 194.162 158.835 194.04 159.259 193.796C159.405 193.712 159.571 193.612 159.748 193.5C173.103 193.5 185.554 193.5 199.257 193.505Z" fill="white" stroke="black" stroke-width="5"/>
<path d="M240 304.5C246.351 304.5 251.5 309.649 251.5 316C251.5 322.351 246.351 327.5 240 327.5C239.916 327.5 210.082 327.5 180.249 327.498C165.332 327.497 150.415 327.496 139.218 327.495C127.975 327.494 120.587 327.492 120.587 327.492C114.428 327.276 109.5 322.213 109.5 316C109.5 309.787 114.428 304.723 120.587 304.507C120.587 304.507 127.975 304.506 139.218 304.505C150.415 304.504 165.332 304.503 180.249 304.502C210.082 304.501 239.916 304.5 240 304.5Z" fill="white" stroke="black" stroke-width="5"/>
<path d="M217.429 162.5C220.434 162.5 223.5 165.483 223.5 170C223.5 174.518 220.434 177.5 217.429 177.5C217.378 177.5 199.112 177.499 180.847 177.498C162.523 177.497 144.369 177.494 144.367 177.495C141.437 177.375 138.5 174.41 138.5 170C138.5 165.59 141.437 162.624 144.367 162.504C144.368 162.505 162.522 162.502 180.847 162.501C199.112 162.5 217.378 162.5 217.429 162.5Z" fill="white" stroke="black" stroke-width="5"/>
<path d="M181.5 85.0225C182.074 85.0628 183.064 85.1772 184.055 85.5039C187.477 86.6332 191.181 94.1705 197.29 99.6123C199.359 101.455 200.922 101.056 202.89 99.1084C204.926 97.0929 206.125 94.9348 208.489 93.0625C213.58 89.0315 223.253 89.0313 224.78 89.5352C227.305 90.3687 225.289 93.5659 224.271 97.0928C222.094 104.632 221.528 104.983 220.197 112.713C218.561 122.218 220.199 128.333 219.689 136.396C219.368 141.483 216.647 149.963 216.635 150H146.5C146.492 149.972 143.816 141.051 143.5 136C142.999 128 144.608 121.932 143.001 112.5C141.694 104.829 141.139 104.482 139.001 97C138.001 93.5002 136.02 90.3271 138.5 89.5C140 89 149.501 89 154.501 93C156.823 94.8579 158.001 96.9999 160.001 99C161.934 100.933 163.469 101.329 165.501 99.5C171.501 94.1 175.139 86.6205 178.501 85.5C179.468 85.1777 180.435 85.0632 181 85.0225V85C181 85 181.092 84.9995 181.252 85.0068C181.409 84.9995 181.499 85 181.501 85L181.5 85.0225Z" fill="white"/>
<path d="M181.5 85.0225L179.002 84.9139L178.897 87.3455L181.325 87.5163L181.5 85.0225ZM184.055 85.5039L184.838 83.1298L184.838 83.1298L184.055 85.5039ZM197.29 99.6123L195.627 101.479L195.627 101.479L197.29 99.6123ZM202.89 99.1084L204.648 100.885V100.885L202.89 99.1084ZM208.489 93.0625L206.937 91.1026L206.937 91.1026L208.489 93.0625ZM224.78 89.5352L225.564 87.1612L225.564 87.161L224.78 89.5352ZM224.271 97.0928L221.869 96.3994L221.869 96.3994L224.271 97.0928ZM220.197 112.713L217.734 112.289V112.289L220.197 112.713ZM219.689 136.396L222.184 136.553V136.553L219.689 136.396ZM216.635 150V152.5H218.458L219.015 150.764L216.635 150ZM146.5 150L144.105 150.718L144.64 152.5H146.5V150ZM143.5 136L141.005 136.156V136.156L143.5 136ZM143.001 112.5L145.465 112.08L143.001 112.5ZM139.001 97L136.597 97.6868L136.597 97.6868L139.001 97ZM138.5 89.5L137.709 87.1283L137.709 87.1284L138.5 89.5ZM154.501 93L156.063 91.0478L156.063 91.0478L154.501 93ZM160.001 99L158.233 100.768L158.233 100.768L160.001 99ZM165.501 99.5L167.173 101.358V101.358L165.501 99.5ZM178.501 85.5L177.71 83.1283L177.71 83.1283L178.501 85.5ZM181 85.0225L181.18 87.516L183.5 87.3489V85.0225H181ZM181 85L180.985 82.5L178.5 82.5145V85H181ZM181.252 85.0068L181.137 87.5042L181.253 87.5095L181.368 87.5041L181.252 85.0068ZM181.501 85L183.999 85.1086L184.112 82.4991L181.5 82.5L181.501 85ZM181.5 85.0225L181.325 87.5163C181.796 87.5495 182.557 87.6424 183.271 87.878L184.055 85.5039L184.838 83.1298C183.572 82.7119 182.352 82.5762 181.675 82.5286L181.5 85.0225ZM184.055 85.5039L183.271 87.878C183.536 87.9652 184.062 88.2847 184.915 89.1622C185.732 90.0025 186.629 91.1179 187.696 92.4817C189.769 95.1303 192.37 98.5771 195.627 101.479L197.29 99.6123L198.953 97.7456C196.102 95.2057 193.796 92.163 191.634 89.4002C190.584 88.0582 189.531 86.7374 188.5 85.6769C187.505 84.6534 186.285 83.6073 184.838 83.1298L184.055 85.5039ZM197.29 99.6123L195.627 101.479C196.941 102.649 198.544 103.501 200.44 103.262C202.185 103.042 203.567 101.956 204.648 100.885L202.89 99.1084L201.131 97.3316C200.244 98.2091 199.861 98.2958 199.815 98.3016C199.811 98.3021 199.81 98.3022 199.805 98.3014C199.798 98.3004 199.767 98.2953 199.707 98.2708C199.577 98.2178 199.33 98.0811 198.953 97.7456L197.29 99.6123ZM202.89 99.1084L204.648 100.885C205.781 99.7643 206.705 98.5755 207.491 97.627C208.309 96.6404 209.067 95.7938 210.041 95.0224L208.489 93.0625L206.937 91.1026C205.547 92.2035 204.524 93.3721 203.641 94.4365C202.728 95.539 202.035 96.437 201.131 97.3316L202.89 99.1084ZM208.489 93.0625L210.041 95.0224C212.06 93.4241 215.214 92.4958 218.308 92.0755C219.81 91.8714 221.203 91.7997 222.29 91.8068C222.834 91.8104 223.281 91.8335 223.612 91.8653C223.994 91.902 224.083 91.9375 223.997 91.9093L224.78 89.5352L225.564 87.161C225.096 87.0068 224.548 86.9322 224.089 86.8881C223.579 86.8392 222.98 86.8112 222.323 86.8069C221.007 86.7983 219.378 86.8842 217.634 87.121C214.237 87.5826 210.009 88.6699 206.937 91.1026L208.489 93.0625ZM224.78 89.5352L223.997 91.9091C224.04 91.9235 223.943 91.8994 223.809 91.773C223.664 91.636 223.571 91.4693 223.527 91.3293C223.466 91.14 223.55 91.1805 223.42 91.7323C223.302 92.2378 223.086 92.8558 222.784 93.6902C222.5 94.4741 222.151 95.4211 221.869 96.3994L224.271 97.0928L226.672 97.7862C226.899 97.001 227.184 96.2258 227.485 95.3923C227.769 94.6092 228.091 93.7145 228.288 92.8757C228.474 92.0831 228.652 90.9477 228.291 89.8141C227.861 88.459 226.829 87.5789 225.564 87.1612L224.78 89.5352ZM224.271 97.0928L221.869 96.3994C219.746 103.751 219.096 104.377 217.734 112.289L220.197 112.713L222.661 113.137C223.961 105.589 224.442 105.514 226.672 97.7861L224.271 97.0928ZM220.197 112.713L217.734 112.289C216.873 117.285 216.878 121.385 217.023 125.19C217.168 129.035 217.439 132.373 217.194 136.238L219.689 136.396L222.184 136.553C222.45 132.356 222.156 128.605 222.019 125.001C221.881 121.357 221.885 117.646 222.661 113.137L220.197 112.713ZM219.689 136.396L217.194 136.238C217.05 138.521 216.346 141.712 215.627 144.459C214.921 147.158 214.253 149.239 214.254 149.236L216.635 150L219.015 150.764C219.028 150.723 219.727 148.546 220.465 145.724C221.19 142.95 222.007 139.357 222.184 136.553L219.689 136.396ZM216.635 150V147.5H146.5V150V152.5H216.635V150ZM146.5 150L148.895 149.282C148.896 149.287 148.238 147.093 147.542 144.283C146.834 141.423 146.138 138.123 145.995 135.844L143.5 136L141.005 136.156C141.178 138.928 141.978 142.614 142.689 145.485C143.412 148.405 144.095 150.685 144.105 150.718L146.5 150ZM143.5 136L145.995 135.844C145.755 132.009 146.021 128.696 146.164 124.881C146.306 121.105 146.31 117.037 145.465 112.08L143.001 112.5L140.537 112.92C141.299 117.395 141.303 121.077 141.167 124.693C141.033 128.27 140.744 131.991 141.005 136.156L143.5 136ZM143.001 112.5L145.465 112.08C144.127 104.229 143.489 103.609 141.405 96.3132L139.001 97L136.597 97.6868C138.788 105.354 139.26 105.43 140.537 112.92L143.001 112.5ZM139.001 97L141.405 96.3132C141.127 95.3423 140.784 94.4025 140.505 93.6246C140.209 92.7966 139.997 92.1832 139.88 91.6814C139.753 91.1337 139.835 91.0921 139.776 91.2791C139.732 91.4177 139.64 91.5858 139.493 91.7258C139.357 91.8558 139.256 91.8834 139.291 91.8716L138.5 89.5L137.709 87.1284C136.447 87.5491 135.43 88.4329 135.007 89.7782C134.653 90.9022 134.827 92.0276 135.01 92.814C135.204 93.6464 135.52 94.5342 135.799 95.3114C136.095 96.1385 136.375 96.9078 136.597 97.6868L139.001 97ZM138.5 89.5L139.291 91.8717C139.199 91.9021 139.28 91.8674 139.654 91.8311C139.977 91.7998 140.414 91.7769 140.946 91.7734C142.01 91.7663 143.376 91.8372 144.848 92.0393C147.881 92.4555 150.967 93.3742 152.939 94.9522L154.501 93L156.063 91.0478C153.035 88.6258 148.871 87.5445 145.528 87.0857C143.813 86.8503 142.209 86.7649 140.913 86.7735C140.266 86.7778 139.675 86.8056 139.172 86.8544C138.72 86.8982 138.176 86.9729 137.709 87.1283L138.5 89.5ZM154.501 93L152.939 94.9522C153.893 95.7151 154.636 96.5531 155.439 97.5321C156.21 98.4725 157.12 99.654 158.233 100.768L160.001 99L161.769 97.2323C160.882 96.3459 160.203 95.4564 159.305 94.3613C158.438 93.3048 157.431 92.1428 156.063 91.0478L154.501 93ZM160.001 99L158.233 100.768C159.295 101.829 160.662 102.92 162.398 103.141C164.289 103.381 165.881 102.522 167.173 101.358L165.501 99.5L163.829 97.6418C163.46 97.9731 163.222 98.105 163.102 98.1544C163.047 98.1771 163.022 98.1805 163.021 98.1806C163.02 98.1808 163.022 98.1805 163.025 98.1805C163.028 98.1805 163.03 98.1807 163.03 98.1807C163.006 98.1777 162.64 98.1039 161.769 97.2323L160.001 99ZM165.501 99.5L167.173 101.358C170.376 98.4762 172.932 95.0536 174.967 92.4262C176.015 91.0727 176.896 89.967 177.697 89.1343C178.535 88.2632 179.046 87.9537 179.292 87.8717L178.501 85.5L177.71 83.1283C176.276 83.6066 175.071 84.6522 174.094 85.6674C173.08 86.7211 172.045 88.0328 171.014 89.3642C168.89 92.1067 166.626 95.1238 163.829 97.6418L165.501 99.5ZM178.501 85.5L179.292 87.8717C179.982 87.6415 180.72 87.5491 181.18 87.516L181 85.0225L180.82 82.5289C180.15 82.5772 178.954 82.7139 177.71 83.1283L178.501 85.5ZM181 85.0225H183.5V85H181H178.5V85.0225H181ZM181 85C181.015 87.5 181.014 87.5 181.014 87.5C181.014 87.5 181.014 87.5 181.014 87.5C181.014 87.5 181.014 87.5 181.014 87.5C181.013 87.5 181.013 87.5 181.013 87.5C181.012 87.5 181.012 87.5 181.011 87.5C181.01 87.5 181.009 87.5 181.009 87.5C181.007 87.5 181.005 87.5 181.004 87.5C181.002 87.5 181.002 87.5 181.002 87.5C181.003 87.5 181.009 87.5 181.02 87.5002C181.042 87.5006 181.081 87.5016 181.137 87.5042L181.252 85.0068L181.367 82.5095C181.262 82.5047 181.176 82.5023 181.112 82.5011C181.079 82.5005 181.053 82.5002 181.031 82.5001C181.021 82.5 181.012 82.5 181.004 82.5C181 82.5 180.997 82.5 180.994 82.5C180.992 82.5 180.991 82.5 180.989 82.5C180.989 82.5 180.988 82.5 180.987 82.5C180.987 82.5 180.987 82.5 180.986 82.5C180.986 82.5 180.986 82.5 180.986 82.5C180.986 82.5 180.986 82.5 180.986 82.5C180.986 82.5 180.985 82.5 181 85ZM181.252 85.0068L181.368 87.5041C181.422 87.5016 181.461 87.5006 181.482 87.5002C181.492 87.5 181.498 87.5 181.499 87.5C181.499 87.5 181.499 87.5 181.497 87.5C181.496 87.5 181.495 87.5 181.494 87.5C181.493 87.5 181.493 87.5 181.493 87.5C181.492 87.5 181.493 87.5 181.493 87.5C181.493 87.5 181.494 87.5 181.495 87.5C181.495 87.5 181.498 87.5 181.502 87.5L181.501 85L181.5 82.5C181.51 82.5 181.489 82.5 181.468 82.5001C181.447 82.5002 181.42 82.5005 181.388 82.5011C181.324 82.5023 181.239 82.5047 181.135 82.5096L181.252 85.0068ZM181.501 85L179.003 84.8914L179.002 84.9139L181.5 85.0225L183.998 85.1311L183.999 85.1086L181.501 85Z" fill="black"/>
<path d="M181 52.5C181 52.5 214.972 52.0004 218.969 78.0723L218.971 78.0869C219.025 78.4411 219.125 79.0938 217.969 79.0938C209.476 79.0939 204.48 82.6731 200.483 85.7393C199.881 86.2016 199.64 85.951 199.484 85.7393C190.492 73.4706 181 75.0039 181 75.0039V74.999C181 74.999 171.5 73.4992 162.5 85.499C162.345 85.7062 162.103 85.9514 161.5 85.499C157.5 82.4999 152.5 78.9991 144 78.999C142.842 78.999 142.942 78.361 142.997 78.0146L143 78C147 52.4991 181 52.499 181 52.499V52.5Z" fill="white"/>
<path d="M181 52.5H178.5V55.037L181.037 54.9997L181 52.5ZM218.969 78.0723L221.447 77.7419L221.444 77.7176L221.44 77.6934L218.969 78.0723ZM218.971 78.0869L216.493 78.4173L216.496 78.4424L216.5 78.4675L218.971 78.0869ZM217.969 79.0938V76.5938H217.969L217.969 79.0938ZM200.483 85.7393L202.005 87.7229L202.005 87.7227L200.483 85.7393ZM199.484 85.7393L197.468 87.2172L197.468 87.2173L199.484 85.7393ZM181 75.0039H178.5V77.9402L181.399 77.4719L181 75.0039ZM181 74.999H183.5V72.8627L181.39 72.5296L181 74.999ZM162.5 85.499L160.5 83.999L160.5 83.999L162.5 85.499ZM161.5 85.499L160 87.4992L160 87.4993L161.5 85.499ZM144 78.999L144 76.499H144V78.999ZM142.997 78.0146L140.546 77.5244L140.536 77.5747L140.528 77.6254L142.997 78.0146ZM143 78L145.451 78.4903L145.462 78.4391L145.47 78.3874L143 78ZM181 52.499H183.5V49.999L181 49.999L181 52.499ZM181 52.5C181.037 54.9997 181.036 54.9997 181.035 54.9998C181.035 54.9998 181.035 54.9998 181.035 54.9998C181.034 54.9998 181.035 54.9998 181.035 54.9998C181.037 54.9997 181.041 54.9997 181.046 54.9996C181.057 54.9995 181.076 54.9994 181.103 54.9994C181.157 54.9992 181.242 54.9994 181.355 55.0006C181.583 55.0031 181.925 55.0099 182.368 55.0275C183.254 55.0627 184.537 55.1412 186.095 55.314C189.219 55.661 193.395 56.3826 197.663 57.8699C206.217 60.8512 214.698 66.7101 216.498 78.4511L218.969 78.0723L221.44 77.6934C219.243 63.3626 208.739 56.4354 199.308 53.1484C194.583 51.5017 190.016 50.7187 186.646 50.3446C184.956 50.1569 183.554 50.0707 182.567 50.0314C182.073 50.0118 181.682 50.0039 181.41 50.0009C181.273 49.9994 181.167 49.9992 181.092 49.9994C181.054 49.9995 181.025 49.9996 181.003 49.9998C180.992 49.9999 180.984 50 180.977 50.0001C180.974 50.0001 180.971 50.0002 180.969 50.0002C180.967 50.0002 180.966 50.0002 180.966 50.0002C180.964 50.0003 180.963 50.0003 181 52.5ZM218.969 78.0723L216.491 78.4027L216.493 78.4173L218.971 78.0869L221.449 77.7565L221.447 77.7419L218.969 78.0723ZM218.971 78.0869L216.5 78.4675C216.517 78.5768 216.499 78.4918 216.5 78.3707C216.501 78.2372 216.522 77.9065 216.727 77.5294C216.957 77.1074 217.303 76.8342 217.618 76.6961C217.885 76.5794 218.046 76.5938 217.969 76.5938V79.0938V81.5938C218.934 81.5938 220.365 81.3064 221.12 79.9169C221.701 78.8482 221.444 77.7216 221.442 77.7063L218.971 78.0869ZM217.969 79.0938L217.969 76.5938C208.627 76.5939 203.076 80.599 198.962 83.7558L200.483 85.7393L202.005 87.7227C205.883 84.7471 210.325 81.5939 217.969 81.5938L217.969 79.0938ZM200.483 85.7393L198.962 83.7556C198.885 83.8145 199.419 83.3612 200.311 83.5415C200.742 83.6285 201.055 83.8302 201.246 83.9935C201.337 84.0714 201.401 84.1411 201.44 84.1855C201.477 84.2292 201.5 84.2605 201.501 84.2612L199.484 85.7393L197.468 87.2173C197.57 87.3557 198.158 88.2076 199.321 88.4425C200.524 88.6855 201.479 88.1263 202.005 87.7229L200.483 85.7393ZM199.484 85.7393L201.501 84.2613C196.707 77.7214 191.66 74.7148 187.651 73.396C185.663 72.7422 183.969 72.516 182.74 72.4587C182.125 72.4301 181.626 72.4437 181.264 72.4672C181.082 72.479 180.935 72.4932 180.824 72.506C180.768 72.5124 180.721 72.5184 180.684 72.5235C180.666 72.5261 180.65 72.5285 180.636 72.5306C180.629 72.5316 180.622 72.5326 180.617 72.5335C180.614 72.5339 180.611 72.5343 180.609 72.5347C180.607 72.5349 180.605 72.5352 180.605 72.5353C180.603 72.5356 180.601 72.5359 181 75.0039C181.399 77.4719 181.397 77.4722 181.395 77.4724C181.395 77.4725 181.393 77.4728 181.392 77.4729C181.39 77.4732 181.388 77.4735 181.387 77.4738C181.383 77.4743 181.38 77.4748 181.378 77.4751C181.373 77.4758 181.371 77.4762 181.371 77.4762C181.37 77.4763 181.378 77.4752 181.394 77.4734C181.426 77.4697 181.491 77.463 181.587 77.4567C181.779 77.4443 182.092 77.434 182.507 77.4533C183.338 77.492 184.579 77.6492 186.089 78.1457C189.073 79.1274 193.269 81.4885 197.468 87.2172L199.484 85.7393ZM181 75.0039H183.5V74.999H181H178.5V75.0039H181ZM181 74.999C181.39 72.5296 181.388 72.5293 181.386 72.5291C181.386 72.529 181.384 72.5287 181.383 72.5285C181.38 72.5281 181.378 72.5277 181.375 72.5273C181.369 72.5264 181.363 72.5255 181.356 72.5245C181.342 72.5225 181.326 72.5202 181.308 72.5177C181.271 72.5127 181.225 72.5069 181.17 72.5007C181.06 72.4883 180.913 72.4745 180.732 72.463C180.371 72.4401 179.874 72.4269 179.261 72.4548C178.036 72.5105 176.345 72.731 174.36 73.369C170.357 74.6558 165.304 77.5939 160.5 83.999L162.5 85.499L164.5 86.9991C168.696 81.4044 172.893 79.0924 175.89 78.1292C177.405 77.6422 178.652 77.4876 179.489 77.4496C179.907 77.4306 180.222 77.4407 180.416 77.453C180.513 77.4591 180.579 77.4658 180.612 77.4695C180.629 77.4714 180.637 77.4725 180.637 77.4725C180.637 77.4725 180.635 77.4721 180.63 77.4715C180.628 77.4712 180.625 77.4708 180.622 77.4702C180.62 77.47 180.618 77.4697 180.616 77.4694C180.615 77.4693 180.614 77.469 180.613 77.4689C180.612 77.4687 180.61 77.4684 181 74.999ZM162.5 85.499L160.5 83.999C160.501 83.9978 160.524 83.9662 160.563 83.9223C160.603 83.8777 160.668 83.8086 160.76 83.7319C160.953 83.5704 161.263 83.3768 161.684 83.2937C162.552 83.1223 163.072 83.5528 163 83.4988L161.5 85.499L160 87.4993C160.532 87.8976 161.474 88.4317 162.652 88.1989C163.802 87.972 164.391 87.1438 164.5 86.999L162.5 85.499ZM161.5 85.499L163 83.4989C158.878 80.408 153.331 76.4991 144 76.499L144 78.999L144 81.499C151.67 81.4991 156.123 84.5919 160 87.4992L161.5 85.499ZM144 78.999V76.499C143.917 76.499 144.07 76.4841 144.33 76.5952C144.638 76.7268 144.991 76.9935 145.228 77.421C145.443 77.8058 145.466 78.1475 145.468 78.2908C145.469 78.4199 145.45 78.5117 145.467 78.4039L142.997 78.0146L140.528 77.6254C140.526 77.6348 140.26 78.7749 140.86 79.8525C141.627 81.2308 143.059 81.499 144 81.499V78.999ZM142.997 78.0146L145.449 78.5049L145.451 78.4903L143 78L140.549 77.5097L140.546 77.5244L142.997 78.0146ZM143 78L145.47 78.3874C147.266 66.9403 155.741 61.087 164.335 58.0432C168.613 56.528 172.798 55.7628 175.929 55.3789C177.49 55.1876 178.776 55.0925 179.664 55.0453C180.108 55.0217 180.451 55.0102 180.679 55.0045C180.793 55.0016 180.878 55.0003 180.933 54.9996C180.96 54.9993 180.979 54.9991 180.99 54.9991C180.996 54.999 181 54.999 181.001 54.999C181.002 54.999 181.002 54.999 181.002 54.999C181.002 54.999 181.001 54.999 181.001 54.999C181.001 54.999 181 54.999 181 52.499C181 49.999 180.999 49.999 180.998 49.999C180.997 49.999 180.996 49.999 180.995 49.999C180.993 49.999 180.99 49.999 180.986 49.999C180.98 49.9991 180.971 49.9991 180.96 49.9992C180.939 49.9993 180.91 49.9995 180.872 50C180.797 50.0009 180.691 50.0026 180.555 50.006C180.283 50.0128 179.892 50.0261 179.399 50.0524C178.412 50.1048 177.01 50.2089 175.321 50.4161C171.952 50.8291 167.387 51.6577 162.666 53.3301C153.259 56.6616 142.735 63.5587 140.53 77.6126L143 78ZM181 52.499H178.5V52.5H181H183.5V52.499H181Z" fill="black"/>
<circle cx="181" cy="44" r="11.5" fill="white" stroke="black" stroke-width="5"/>
</svg>
