<svg width="190" height="190" viewBox="0 0 190 190" fill="none" xmlns="http://www.w3.org/2000/svg">
<ellipse cx="127.122" cy="94.9449" rx="8.93227" ry="22.8666" transform="rotate(-62.787 127.122 94.9449)" fill="url(#paint0_radial_5560_845)"/>
<ellipse cx="146.585" cy="117.931" rx="8.93227" ry="22.8666" transform="rotate(-13.9845 146.585 117.931)" fill="url(#paint1_radial_5560_845)"/>
<ellipse cx="126.454" cy="144.117" rx="12.5" ry="19.0458" transform="rotate(-40.4674 126.454 144.117)" fill="url(#paint2_radial_5560_845)"/>
<ellipse cx="138.974" cy="162.503" rx="12.5" ry="19.9364" transform="rotate(-34.3374 138.974 162.503)" fill="url(#paint3_radial_5560_845)"/>
<ellipse cx="102.924" cy="115.851" rx="26" ry="32" transform="rotate(9.49692 102.924 115.851)" fill="url(#paint4_radial_5560_845)"/>
<ellipse cx="91.883" cy="141.375" rx="12.5" ry="19.0458" transform="rotate(28.9002 91.883 141.375)" fill="url(#paint5_radial_5560_845)"/>
<ellipse cx="78.5134" cy="167.985" rx="12.5" ry="19.9364" transform="rotate(20.9299 78.5134 167.985)" fill="url(#paint6_radial_5560_845)"/>
<path d="M109.933 31.2476C125.803 47.3999 126.818 69.3326 109.09 86.7502C91.3614 104.168 61.6035 110.475 45.7341 94.3225C28.2133 76.4894 26.735 55.5117 44.4631 38.094C62.1913 20.6764 94.0641 15.0953 109.933 31.2476Z" fill="url(#paint7_radial_5560_845)"/>
<ellipse cx="9.86958" cy="22.5314" rx="9.86958" ry="22.5314" transform="matrix(0.754087 0.656775 -0.545074 0.838388 85.4467 87.623)" fill="url(#paint8_radial_5560_845)"/>
<ellipse cx="8.59705" cy="25.7229" rx="8.59705" ry="25.7229" transform="matrix(0.923112 0.384531 -0.297712 0.954656 68.2496 113.227)" fill="url(#paint9_radial_5560_845)"/>
<path d="M56.4259 58.4315C56.5219 58.2648 56.7479 58.2031 56.9593 58.1905C57.022 58.1887 57.0948 58.3325 57.1428 58.3367C57.236 58.3451 57.251 58.2374 57.3505 58.2557C57.3838 58.2625 57.5098 58.4825 57.5414 58.4849C57.7123 58.4976 57.7897 58.3612 57.9271 58.3267C58.6365 58.1331 59.2377 57.8063 59.8625 57.4854C60.066 57.3812 60.4296 57.3957 60.5581 57.1752C60.5733 57.1491 60.4279 56.9817 60.4213 56.9639C60.3212 56.6906 60.5658 57.065 60.645 57.0799C60.9571 57.1392 61.1568 57.0155 61.2736 56.8217C61.3205 56.7405 60.9881 56.4406 61.2054 56.5859C61.2203 56.5956 61.3433 56.7968 61.3773 56.8026C61.4541 56.8155 61.5114 56.7202 61.5564 56.7097C61.6439 56.6905 61.6534 56.6804 61.7172 56.636C61.8074 56.5754 61.9735 56.5967 62.0323 56.4861C62.0443 56.462 61.8744 56.2886 61.8804 56.2329C61.8865 56.1772 61.9804 56.1322 62.0421 56.1567C62.1039 56.1814 62.2058 56.3414 62.2367 56.3724C62.4972 56.6344 62.2868 56.1584 62.2909 56.1397C62.3798 55.8055 62.7478 55.8897 62.951 55.7353C63.1063 55.6165 63.2195 55.4113 63.3744 55.3103C63.5608 55.1899 63.7937 55.1769 63.9503 55.0297C63.9671 55.0143 63.7747 54.8051 63.7949 54.7858C64.0107 54.5804 64.2635 54.4266 64.6139 54.3993C64.6492 54.3968 64.7697 54.6174 64.814 54.6266C65.0832 54.678 65.6079 54.8941 65.0355 53.9698C65.1583 53.9289 65.3042 53.8718 65.5233 53.9785C65.6648 54.0468 65.7754 54.3032 65.7738 54.1587C65.7736 54.1264 65.609 53.954 65.6196 53.9197C65.6646 53.7757 65.8188 53.7542 65.8413 53.5822C65.8455 53.5468 65.7104 53.3828 65.6927 53.3482C65.5507 53.0665 65.9412 53.4119 65.981 53.4282C66.2799 53.548 66.3079 53.3883 66.4329 53.3002C66.462 53.2798 66.2542 53.0798 66.2759 53.0522C66.391 52.9113 66.5498 52.8192 66.7642 52.8129C66.8123 52.8121 66.9335 53.0257 66.9641 53.0351C67.0973 53.0742 66.8297 52.7008 66.952 52.7313C66.9775 52.7373 67.0979 52.9072 67.1143 52.9234C67.3717 53.1776 67.0916 52.7515 67.0942 52.7353C67.1199 52.5209 67.523 52.8794 67.5929 52.7295C67.6009 52.7111 67.4076 52.5281 67.44 52.4892C67.6549 52.2291 67.9735 52.0711 68.3601 52.0346C68.42 52.0286 68.5139 52.2063 68.5315 52.2235C68.8083 52.4904 68.5189 52.0687 68.5199 52.0433C68.5368 51.8539 68.8979 52.114 68.5902 51.5823C69.1017 51.4215 69.3286 50.9054 69.936 50.8722C70.0013 50.8667 70.0707 50.8669 70.1446 50.8737C70.1542 50.8742 70.2994 51.0798 70.3178 51.08C70.5404 51.0851 70.2732 50.7983 70.0778 50.3462C70.0297 50.232 70.4492 50.6382 70.4802 50.6679C70.5963 50.7756 70.7968 51.0926 70.8224 51.1111C71.0249 51.2557 70.2769 50.2706 70.3658 50.2048C70.3697 50.2045 70.4927 50.3965 70.5135 50.4094C70.5781 50.4502 70.5473 50.3607 70.6156 50.408C70.7733 50.5176 71.14 50.994 71.0128 50.6553C70.9963 50.6114 70.575 50.0499 70.6741 50.0208C70.7136 50.0096 70.8479 49.9021 70.9132 49.9129C70.9783 49.9235 71.0781 50.129 71.0865 50.1352C71.3587 50.3119 71.3883 50.4415 71.6853 50.7752C71.9798 51.1087 71.3837 50.2424 71.3404 50.1302C71.2975 50.0182 71.5105 50.1734 71.5757 50.2333C71.6412 50.293 71.6963 50.4286 71.7393 50.4585C72.0204 50.6543 71.5042 49.9889 71.4511 49.8246C71.3274 49.4345 71.8148 50.0491 71.9332 50.0654C71.9656 50.0696 71.8543 49.9296 71.8649 49.9035C71.9089 49.8017 72.0813 49.9815 72.0537 49.7376C72.0488 49.6981 71.8813 49.2519 72.1037 49.5202C72.1355 49.559 72.2159 49.7373 72.2709 49.7553C72.3534 49.7825 72.4628 49.7679 72.4835 49.6812C72.4989 49.617 72.2944 49.3651 72.3939 49.4227C72.4381 49.4487 72.4901 49.6347 72.565 49.67C72.6396 49.7055 72.7404 49.6394 72.7774 49.6115C72.8141 49.5836 72.6746 49.3832 72.6699 49.3671C72.6441 49.2742 72.6663 49.1284 72.6735 49.1248C73.0128 48.9059 73.5233 49.1051 73.8084 48.8176C73.8312 48.7953 73.7023 48.573 73.7047 48.5673C73.7526 48.4254 73.9723 49.0751 74.1342 49.2505C73.9019 48.7854 73.9805 48.8522 74.0218 48.7699C74.0416 48.7298 73.9391 48.5556 73.9332 48.5356C73.8514 48.2363 74.0514 48.5789 74.0935 48.6484C74.2492 48.9037 74.136 48.5693 74.2401 48.7401C74.343 48.9098 74.417 49.1973 74.477 49.1657C74.4174 48.9884 74.1687 48.5674 74.1842 48.4738C74.2462 48.1172 74.7452 48.3163 74.9069 48.2922C75.0703 48.2667 75.1051 48.2156 75.2167 48.2428C75.4175 48.2928 75.2258 47.9812 75.2628 47.7887C75.3006 47.5963 75.5778 48.4412 75.6616 48.6132C75.7447 48.7855 75.6879 48.5969 75.7429 48.6879C75.7977 48.779 75.809 48.9139 75.8623 48.9354C75.9152 48.9568 75.8999 48.5991 75.8431 48.4073C75.7222 48.001 75.5141 47.6055 75.6774 47.7102C75.6868 47.7165 75.7495 47.9423 75.7814 47.9555C76.0308 48.0532 76.2277 47.9932 76.4672 48.0771C76.5001 48.089 76.5638 48.3419 76.5838 48.3517C76.7917 48.4547 76.5917 48.0609 76.5186 47.5716C76.7109 48.1899 76.8862 48.548 77.002 48.5128C77.0728 48.4915 76.9704 48.2278 76.953 48.0234C76.9478 47.9618 77.0593 48.1293 77.0265 48.0001C76.9199 47.5777 76.7191 47.1316 76.9044 47.2746C76.9127 47.2816 76.9694 47.5133 76.9926 47.5208C77.1424 47.5712 77.0169 47.134 77.1324 47.0395C77.2242 46.965 77.4931 47.1718 77.6229 47.1799C77.8312 47.877 77.8906 47.6852 77.793 47.1909C77.8736 47.1884 77.951 47.1363 78.0442 47.1816C78.0763 47.197 78.1177 47.4043 78.1272 47.4253C78.2745 47.7545 78.1732 47.2759 78.1847 47.2527C78.3137 47.0228 78.5544 47.3402 78.6342 46.9447C78.6368 46.9305 78.517 46.4393 78.6581 46.7838C78.6675 46.8076 78.6697 47.0449 78.755 47.0407C78.8414 47.0363 79.0563 47.2604 79.1123 47.0048C79.1256 46.9433 79.0964 46.5276 79.2293 46.825C79.2472 46.8654 79.2739 47.0081 79.3039 47.0838C79.3995 47.325 79.2965 46.8242 79.4396 47.236C79.5828 47.6478 79.7391 47.9443 79.7787 47.6272C79.78 47.6179 79.714 47.2174 79.7514 47.2152C79.811 47.2121 79.9106 47.2756 79.9687 47.2597C79.9965 47.2519 79.9227 47.0109 79.9266 47.0053C80.0851 46.8248 80.271 47.0134 80.4956 47.0652C80.5364 47.0753 80.5742 46.7171 80.7 46.9681C80.8381 47.2429 81.0041 48.4685 81.1245 48.1444C81.1715 48.0151 80.967 46.4593 81.2501 47.2314C81.4752 46.984 81.7765 47.352 81.99 47.0252C81.9993 47.0107 81.9642 46.5734 81.9925 46.5748C82.0345 46.5777 82.0893 46.7757 82.1197 46.7844C82.2526 46.8252 82.3403 46.6346 82.4598 46.6439C82.505 46.6471 82.5214 46.8582 82.5745 46.8622C82.6303 46.8656 82.6273 46.5849 82.7195 46.7073C82.7894 46.8007 82.9228 47.3559 83.0004 47.4121C82.9259 46.8563 82.9746 46.8611 83.0469 46.702C83.0604 46.6712 83.0159 46.4803 83.021 46.4557C83.0413 46.3515 83.0933 46.5078 83.1103 46.3951C83.1145 46.368 83.09 46.1781 83.0921 46.1452C83.1095 45.8585 83.2485 46.2751 83.2729 46.3477C83.3686 46.6227 83.3652 46.3722 83.4235 46.4781C83.481 46.5842 83.4322 46.7313 83.4915 46.7927C83.61 46.9202 83.7456 46.8735 83.8516 46.8709C83.8933 46.8688 83.8377 46.6177 83.843 46.6114C83.9164 46.5383 84.0468 46.7984 84.0422 46.2872C84.2323 47.5915 84.0754 46.1554 84.2379 46.405C84.2502 46.4253 84.3189 47.0443 84.289 47.1388C84.2581 47.2333 84.1808 47.0452 84.146 47.1918C84.1373 47.2262 84.1256 47.8137 84.1195 47.8499C84.0712 48.1325 83.9636 47.2083 83.9546 47.1579C83.8539 46.6139 83.8344 47.2483 83.8165 47.294C83.729 47.504 83.6335 47.3835 83.5629 47.5351C83.5169 47.6331 83.5857 48.2388 83.5386 48.2258C83.3883 48.1825 83.2292 47.3459 83.1852 48.0957C83.1769 48.2555 83.2929 48.9119 83.1219 48.4068C83.1114 48.3749 82.9681 47.9111 82.9655 48.2177C82.9653 48.2563 82.993 48.4484 82.988 48.4657C82.9534 48.5772 82.8976 48.429 82.8528 48.5106C82.8079 48.5921 82.7646 48.7103 82.6933 48.6546C82.651 48.6213 82.5474 48.2714 82.5153 48.1868C82.4243 47.9429 82.4345 48.3648 82.353 48.0651C82.2718 47.7638 82.2585 47.2882 82.1431 47.1038C82.2212 47.6021 82.2977 48.1141 82.3749 48.6155C82.1981 48.6264 81.9843 48.4977 81.8131 48.5512C81.7915 48.5585 81.8624 48.8212 81.8406 48.8358C81.7494 48.8961 81.6213 48.7233 81.5336 48.8184C81.4658 48.893 81.4334 49.1918 81.3642 49.2793C81.2009 48.7232 81.1103 48.9414 81.0125 48.9078C80.9775 48.8965 80.9482 48.7451 80.9154 48.7006C80.7921 48.5364 80.9369 49.0272 80.9303 49.1106C80.9026 49.4666 80.6529 48.3395 80.5365 48.394C80.5293 48.3967 80.5856 49.0144 80.5841 49.054C80.5728 49.3125 80.5268 48.8473 80.4756 48.8122C80.3818 48.748 80.2955 48.6168 80.2457 48.8133C80.2311 48.8714 80.2556 49.2594 80.1367 48.9827C80.121 48.9465 80.0781 48.7476 80.0699 48.7373C79.9263 48.5672 80.0727 49.1894 80.0692 49.4128C80.0663 49.6361 79.878 49.228 79.8298 49.109C79.7055 48.8008 79.8311 48.9638 79.8258 48.9319C79.7636 48.5517 79.7165 48.6313 79.6603 48.6118C79.5027 48.0052 79.4424 48.059 79.6025 48.5941C79.6201 48.6525 79.6437 48.5864 79.6603 48.6118C79.7655 49.2191 79.7137 49.3132 79.49 48.7773C79.3858 48.526 79.3439 48.2125 79.2564 48.3537C79.2166 48.4176 79.3455 48.8299 79.3293 48.9557C79.2935 49.2424 79.0527 48.8902 78.9599 48.9815C78.9272 49.0143 79.0275 49.2317 79.0075 49.2619C78.9549 49.3429 78.8455 49.1894 78.7994 49.2968C78.7953 49.3068 78.8781 49.5403 78.8572 49.5495C78.7003 49.6239 78.5106 49.5143 78.3387 49.5616C78.255 49.5846 78.147 49.7606 78.0528 49.7616C77.8924 49.7637 77.5991 49.4811 77.4984 49.6069C77.433 49.6878 77.5302 49.916 77.549 50.0875C77.5872 50.4193 77.2807 49.9062 77.2339 49.8266C77.2323 49.824 77.2837 49.7445 77.2046 49.6376C77.096 49.3952 77.2342 49.8253 77.2339 49.8266C77.2043 49.7749 77.0447 49.7714 77.0324 49.826C77.0259 49.8557 77.113 50.0734 77.1082 50.0848C76.9909 50.3491 76.8326 50.4711 76.6077 50.4399C76.6027 50.4367 76.5139 50.1901 76.5033 50.1858C76.3527 50.1188 76.3982 50.4453 76.3822 50.6564C76.3655 50.8677 76.275 50.8357 76.0528 50.4405C76.0079 50.5199 75.8369 50.3755 75.7345 50.2877C75.632 50.1999 75.8233 50.6729 75.8226 50.6841C75.8018 51.0437 75.6031 50.8116 75.431 50.8385C75.349 50.8503 75.2363 50.9829 75.1831 51.0693C75.1413 51.1383 75.0537 51.0474 75.0303 51.1431C75.0272 51.1559 75.1322 51.3574 75.1337 51.3664C75.189 51.6411 74.9795 51.1258 74.9239 51.0425C74.7215 50.7395 74.6071 50.5813 74.5996 50.7737C74.5972 50.8181 74.8962 51.562 74.8852 51.6196C74.8693 51.6937 74.7576 51.4292 74.744 51.5137C74.7427 51.5207 74.8226 51.6783 74.7919 51.685C74.6506 51.7182 74.4652 51.6982 74.3432 51.7833C74.3264 51.7943 74.4808 52.0297 74.459 52.0494C74.3564 52.1419 74.2242 52.2027 74.0458 52.1528C74.0014 52.1398 73.9222 51.959 73.8874 51.9117C73.6749 51.6266 73.8747 52.1029 73.8715 52.116C73.7893 52.4477 73.3931 52.1446 73.3024 52.4624C73.2971 52.481 73.5091 52.9973 73.2169 52.6251C73.1978 52.6001 72.8973 52.2202 73.0436 52.5184C73.0529 52.5369 73.2115 52.7297 73.1574 52.7349C73.1029 52.7404 73.1312 52.9204 72.9241 52.7311C72.8593 52.6712 72.5462 52.3023 72.71 52.6548C72.7203 52.6801 73.1368 53.446 72.7671 52.9748C72.7063 52.8973 72.3473 52.3758 72.4718 52.6852C72.4964 52.7448 72.5991 52.845 72.6195 52.9387C72.6519 53.0823 72.4906 52.9895 72.6009 53.2582C72.6202 53.306 72.8352 53.681 72.6086 53.4433C72.573 53.4061 72.4567 53.2293 72.425 53.2234C72.2732 53.1952 72.2727 53.3734 72.0997 53.3232C72.0385 53.306 71.8426 53.0255 71.7541 52.9788C71.7015 52.9511 71.638 52.9337 71.6086 52.9554C71.5857 52.9724 71.5789 53.0075 71.6031 53.0695C71.6626 53.2219 72.045 53.6131 72.0149 53.6931C71.8834 54.0409 71.4349 53.9902 71.1562 54.1518C71.1147 54.1758 71.2667 54.304 71.2142 54.3504C71.0206 54.5225 70.7857 54.9408 70.3537 54.7539C70.0085 54.6037 70.0288 54.2666 69.8384 54.2447C69.747 54.2346 70.0821 54.7763 70.0819 54.8018C70.0847 55.0569 69.8267 54.903 69.7697 55.0568C69.758 55.0887 69.9384 55.2732 69.9267 55.2981C69.8879 55.3849 69.7479 55.3491 69.6976 55.415C69.6754 55.445 69.8012 55.5953 69.7658 55.6038C69.6824 55.6258 69.5765 55.604 69.4027 55.5066C69.3869 55.4978 69.2744 55.2764 69.2227 55.3052C69.1395 55.3524 68.9354 55.2817 68.9642 55.4962C68.9732 55.5605 69.247 55.9149 69.0023 55.7134C68.9512 55.6713 68.636 55.2353 68.8571 55.6518C68.8938 55.7211 69.1705 56.2996 68.8701 56.0213C68.7911 55.9481 68.4861 55.6279 68.4978 55.7062C68.5004 55.7182 68.6644 55.8954 68.6533 55.9337C68.6114 56.0654 68.5015 56.1181 68.4553 56.249C68.4432 56.2843 68.6322 56.4529 68.6093 56.4993C68.5465 56.6273 68.3825 56.6739 68.2353 56.689C68.1809 56.694 68.0803 56.5112 68.0639 56.4955C67.7984 56.2394 68.0739 56.649 68.0772 56.6827C68.0939 56.8869 67.8857 56.7552 67.842 56.866C67.8296 56.8961 67.9886 57.0701 67.9969 57.0901C68.0754 57.2879 67.8527 56.927 67.7952 56.9126C67.6336 56.8707 67.5526 56.9567 67.4879 57.0442C67.4642 57.0766 67.6643 57.2664 67.6412 57.293C67.5071 57.455 67.3245 57.5619 67.0736 57.5647C67.0262 57.5647 66.9177 57.3837 66.8824 57.3503C66.6361 57.1168 66.8508 57.528 66.8628 57.5736C66.9178 57.7817 66.7799 57.6537 66.7431 57.7252C66.5633 58.0791 66.1405 58.2462 65.825 58.39C65.419 58.5751 65.0277 58.6206 64.7233 58.9148C64.7039 58.9332 64.8932 59.1399 64.8786 59.1587C64.6854 59.3884 64.3829 59.4794 64.1979 59.7188C64.1824 59.7381 64.3687 59.9289 64.3492 59.967C64.3092 60.0473 64.2178 60.0978 64.1025 60.0786C64.0464 60.0698 63.9528 59.8563 63.8992 59.8511C63.7742 59.8385 63.6842 59.8823 63.6348 59.9721C63.6141 60.0109 63.8243 60.1914 63.7845 60.2251C63.5104 60.4636 63.2562 60.7113 62.7609 60.6432C62.7276 60.638 62.3807 60.2109 62.4009 60.3273C62.4887 60.4521 62.596 60.596 62.6919 60.7279C62.3292 61.1071 61.7964 61.2647 61.3602 61.55C61.3418 61.5622 61.5455 61.7739 61.5106 61.7986C61.3145 61.938 61.1665 62.1473 60.7895 62.0652C60.7524 62.0574 60.4588 61.6372 60.4457 61.743C60.4431 61.7625 60.3977 61.8807 60.4403 61.9874C60.4469 62.0033 60.6056 62.1835 60.5795 62.2114C60.4284 62.3674 60.222 62.451 59.9693 62.4548C59.9269 62.4561 59.8065 62.2285 59.7751 62.2276C59.5584 62.2185 59.5297 62.4793 59.2568 62.392C59.0784 62.3293 58.8465 61.9535 58.5487 61.6342C58.5115 61.5856 58.4414 61.6246 58.2944 61.4198C57.9151 60.9116 57.531 60.3324 57.1237 59.7929C57.035 59.6774 57.0687 59.8467 56.8928 59.5397C56.8902 59.5124 56.8606 59.3897 56.8107 59.2784C56.7696 59.2063 56.6053 59.0086 56.5584 58.9121C56.5121 58.8154 56.6569 58.9758 56.6177 58.8508C56.5784 58.7241 56.387 58.5026 56.4259 58.4315ZM75.2726 49.8983C75.1227 49.6964 75.4744 50.5219 75.4435 50.3012C75.4416 50.2896 75.2801 49.9082 75.2726 49.8983ZM81.8712 47.8309C81.7298 47.4538 81.7814 48.0358 81.8859 48.3277C81.9889 48.6195 81.9145 47.9451 81.8712 47.8309ZM82.6012 47.4192C82.4677 47.1238 82.6476 48.3835 82.6989 48.1155C82.7019 48.1004 82.6089 47.4364 82.6012 47.4192ZM58.6937 61.3758C58.6887 61.3648 58.6373 61.3879 58.6439 61.3977C58.7895 61.6442 58.8869 61.6017 58.6937 61.3758ZM83.3345 46.9999C83.2865 46.8324 83.2335 47.0396 83.2945 47.2475C83.3434 47.4148 83.3941 47.2081 83.3345 46.9999ZM72.1664 50.4361C72.1586 50.4253 72.1232 50.4331 72.1638 50.4969C72.2946 50.7022 72.298 50.6191 72.1664 50.4361ZM84.6636 46.8503C84.4669 46.8163 84.2615 45.7794 84.487 45.8802C84.529 45.8985 84.4307 46.2208 84.4867 46.3115C84.593 46.4764 84.6145 45.8131 84.73 46.1606C84.758 46.2237 84.6734 46.8545 84.6634 46.8518C84.6635 46.8513 84.6636 46.8508 84.6636 46.8503ZM74.8123 48.9233C74.8065 48.9128 74.7584 48.9216 74.7621 48.9328C74.8531 49.2039 74.9489 49.1869 74.8123 48.9233ZM70.1938 51.1479C70.1881 51.1423 70.1741 51.1435 70.1579 51.1486C70.1233 51.1589 70.0785 51.187 70.0866 51.201C70.244 51.4557 70.3841 51.5069 70.3754 51.4195C70.3707 51.3697 70.3186 51.2749 70.1938 51.1479ZM77.6303 47.1979C77.5981 46.9083 77.6504 46.8574 77.7927 47.1906C77.7373 47.1871 77.686 47.1995 77.6303 47.1979Z" fill="black"/>
<path d="M66.8478 37.5359C67.0255 37.6193 67.1216 37.8602 67.1412 38.0623C67.1501 38.1283 67.0099 38.2085 67.0107 38.2589C67.0104 38.355 67.1107 38.3537 67.1012 38.4579C67.0972 38.4927 66.8835 38.6295 66.8838 38.6623C66.8858 38.8399 67.0125 38.8942 67.0582 39.0365C67.2677 39.7195 67.5865 40.2973 67.8795 40.9019C67.9775 41.1027 67.9416 41.4486 68.1531 41.5792C68.1781 41.5944 68.351 41.4558 68.3689 41.4496C68.6446 41.358 68.2612 41.5883 68.2411 41.6637C68.1607 41.9605 68.2725 42.163 68.4491 42.2752C68.5256 42.324 68.8461 42.0124 68.6867 42.2184C68.676 42.2324 68.4683 42.344 68.4599 42.3768C68.4413 42.4508 68.5304 42.5104 68.537 42.5547C68.548 42.6395 68.5563 42.6479 68.5933 42.7102C68.6421 42.7963 68.6074 42.9587 68.7099 43.0213C68.7325 43.0344 68.9195 42.8798 68.9739 42.8892C69.0283 42.8987 69.0617 42.9901 69.0308 43.0479C68.9999 43.1055 68.8321 43.194 68.7983 43.2218C68.5125 43.4549 69.0013 43.2813 69.0198 43.2875C69.3419 43.4027 69.2076 43.7389 69.3348 43.9527C69.4293 44.1102 69.6119 44.2351 69.6894 44.3979C69.7787 44.5883 69.7524 44.8088 69.8708 44.9787C69.883 44.9966 70.1192 44.8388 70.1346 44.8605C70.2979 45.091 70.405 45.3592 70.3625 45.6949C70.3581 45.7288 70.1205 45.81 70.1028 45.8504C70.0004 46.098 69.6778 46.5501 70.6936 46.1649C70.7072 46.2883 70.7305 46.437 70.5783 46.6245C70.4802 46.7449 70.208 46.8028 70.3472 46.8267C70.3783 46.8323 70.5823 46.7092 70.6128 46.7255C70.7413 46.7942 70.7255 46.9429 70.8855 46.9981C70.9185 47.0091 71.109 46.9149 71.1466 46.9052C71.4525 46.8293 71.0253 47.1272 70.9995 47.1606C70.8101 47.4159 70.9551 47.4743 71.0069 47.6107C71.0188 47.6424 71.2647 47.4923 71.2856 47.5189C71.3907 47.6591 71.4361 47.8298 71.3822 48.0316C71.3695 48.0767 71.1319 48.1377 71.1142 48.1638C71.039 48.2774 71.4707 48.1203 71.4068 48.2269C71.3938 48.2491 71.1975 48.3187 71.1774 48.3299C70.8612 48.5047 71.3469 48.3507 71.3617 48.3575C71.558 48.4361 71.0976 48.7156 71.2171 48.8175C71.232 48.8297 71.4644 48.7002 71.4912 48.7405C71.6713 49.0082 71.7177 49.3495 71.6177 49.7096C71.6025 49.7654 71.4042 49.7965 71.3821 49.8073C71.0369 49.9754 71.5304 49.8418 71.5537 49.8508C71.7244 49.9248 71.3527 50.1655 71.9572 50.0599C71.9562 50.0733 71.9556 50.0865 71.9552 50.0997C71.9267 50.6069 72.3779 50.9487 72.0469 51.5803C72.0432 51.5883 71.804 51.6662 71.7976 51.6819C71.7188 51.8731 72.0743 51.7085 72.5556 51.6295C72.6763 51.6093 72.1652 51.8873 72.1284 51.9091C71.992 51.9884 71.634 52.0995 71.6088 52.1181C71.4131 52.2687 72.5618 51.8106 72.5949 51.8941C72.594 51.8975 72.3777 51.9695 72.3595 51.9848C72.302 52.0329 72.3948 52.0218 72.3304 52.0721C72.1813 52.188 71.63 52.4281 71.9856 52.3757C72.0316 52.3685 72.6772 52.0938 72.6766 52.1813C72.6758 52.2165 72.7408 52.345 72.714 52.3995C72.6872 52.454 72.4676 52.514 72.4596 52.5204C72.2245 52.735 72.0941 52.7436 71.7062 52.9636C71.3201 53.1838 72.2858 52.7674 72.4028 52.7431C72.5194 52.7188 72.3225 52.8876 72.2511 52.9391C72.1797 52.9905 72.0376 53.0231 71.9997 53.0582C71.7529 53.2896 72.5009 52.9036 72.6695 52.8742C73.0683 52.803 72.3777 53.1716 72.3406 53.279C72.3305 53.3079 72.4865 53.221 72.5096 53.2329C72.599 53.2803 72.3946 53.4208 72.6352 53.4146C72.6745 53.4138 73.133 53.2922 72.8366 53.4731C72.7939 53.4992 72.6083 53.5598 72.582 53.6083C72.5425 53.6808 72.5406 53.7816 72.6221 53.8049C72.6823 53.822 72.9562 53.6499 72.8857 53.7363C72.8543 53.7748 72.6663 53.8131 72.6215 53.8793C72.5767 53.9453 72.6283 54.0401 72.6511 54.0747C72.6739 54.1092 72.886 53.9888 72.9023 53.9851C72.9959 53.9647 73.1346 53.987 73.1372 53.9933C73.3067 54.2944 73.0723 54.7594 73.3411 55.0068C73.3619 55.0264 73.5851 54.8996 73.5907 54.9015C73.7268 54.9369 73.0818 55.167 72.9042 55.3237C73.3685 55.0899 73.3001 55.1648 73.3794 55.1979C73.418 55.2136 73.5918 55.1107 73.6116 55.1043C73.9066 55.0121 73.5652 55.2129 73.4962 55.2557C73.2422 55.413 73.5724 55.289 73.4029 55.3946C73.2349 55.4997 72.9512 55.5848 72.9819 55.639C73.1566 55.5728 73.5734 55.3183 73.6647 55.3256C74.0087 55.351 73.8131 55.8146 73.8417 55.9591C73.8699 56.1031 73.9209 56.1275 73.8987 56.2322C73.8584 56.4209 74.1548 56.208 74.3438 56.2147C74.5328 56.2213 73.7229 56.5873 73.5593 56.6864C73.3957 56.7854 73.5769 56.7084 73.4912 56.771C73.4056 56.8336 73.2739 56.8614 73.2567 56.9138C73.2395 56.9664 73.5894 56.9042 73.7727 56.8242C74.161 56.6549 74.5332 56.4091 74.441 56.5697C74.4355 56.5791 74.2198 56.6702 74.2091 56.7007C74.132 56.9418 74.2081 57.1104 74.1505 57.3406C74.1423 57.3725 73.9028 57.4752 73.8954 57.4951C73.8182 57.7034 74.1803 57.452 74.6473 57.294C74.0679 57.583 73.7401 57.8099 73.7906 57.9119C73.8207 57.9732 74.064 57.8289 74.2601 57.7728C74.3192 57.7558 74.1712 57.8901 74.2922 57.8345C74.6879 57.6527 75.0946 57.3821 74.9786 57.5746C74.9729 57.5834 74.7562 57.6829 74.7518 57.705C74.7224 57.8482 75.1285 57.6437 75.2353 57.7241C75.319 57.7872 75.1578 58.0691 75.1707 58.1853C74.5331 58.5359 74.7289 58.5453 75.188 58.3384C75.2048 58.4108 75.2669 58.4639 75.2399 58.5574C75.2308 58.5895 75.0395 58.6791 75.0211 58.6928C74.7321 58.9075 75.1727 58.6953 75.1968 58.6991C75.4389 58.75 75.1848 59.0519 75.5775 59.0105C75.5916 59.009 76.0349 58.7661 75.7354 58.9857C75.7146 59.0007 75.4891 59.0696 75.5105 59.1428C75.5322 59.2166 75.365 59.4695 75.6213 59.4449C75.6828 59.4387 76.0697 59.288 75.8178 59.4927C75.7836 59.5204 75.6544 59.5867 75.5896 59.6357C75.3833 59.7922 75.8336 59.5504 75.4771 59.8007C75.1205 60.0509 74.8791 60.2823 75.1898 60.2203C75.1989 60.2184 75.5612 60.0359 75.5725 60.0679C75.5904 60.1193 75.5559 60.227 75.5862 60.2731C75.6008 60.2951 75.8088 60.1528 75.8151 60.1544C76.0259 60.2343 75.8954 60.4536 75.9108 60.6688C75.9131 60.7084 76.2581 60.617 76.0598 60.8132C75.8436 61.0293 74.7453 61.5986 75.0875 61.5964C75.2251 61.5966 76.6091 60.8587 75.9792 61.3843C76.2732 61.4802 76.0371 61.8889 76.4082 61.9422C76.4248 61.9449 76.8142 61.7433 76.8225 61.7679C76.8342 61.8049 76.6717 61.9304 76.6744 61.9602C76.6807 62.0864 76.883 62.0801 76.919 62.1882C76.9327 62.2284 76.7463 62.3289 76.7625 62.3766C76.7787 62.424 77.0309 62.3025 76.9517 62.4284C76.8914 62.5245 76.441 62.8757 76.4214 62.9682C76.8956 62.6689 76.911 62.7147 77.0785 62.7018C77.1109 62.6991 77.2665 62.5802 77.2903 62.5735C77.3909 62.5439 77.2687 62.6531 77.376 62.6176C77.4021 62.6096 77.5635 62.5064 77.5938 62.4939C77.8584 62.384 77.5394 62.6842 77.4837 62.7363C77.2726 62.9345 77.4948 62.8194 77.4216 62.9127C77.3483 63.0059 77.1994 63.0339 77.1666 63.1086C77.1022 63.268 77.1991 63.3603 77.242 63.4418C77.2633 63.4785 77.4613 63.3143 77.4693 63.3163C77.5711 63.3533 77.3882 63.57 77.8362 63.3243C76.7668 64.0942 77.9729 63.2997 77.8155 63.5391C77.8025 63.5581 77.2906 63.9126 77.1953 63.9345C77.1003 63.9565 77.2307 63.801 77.0835 63.8367C77.05 63.8466 76.5276 64.1142 76.4928 64.1256C76.2227 64.2176 76.9939 63.6969 77.0346 63.6658C77.4704 63.3248 76.901 63.6025 76.8535 63.6092C76.6356 63.6395 76.6938 63.4888 76.5321 63.5004C76.4268 63.5067 75.912 63.8329 75.9046 63.7872C75.8791 63.6338 76.5655 63.1292 75.8755 63.4185C75.7277 63.4792 75.1818 63.8621 75.5675 63.4927C75.5918 63.4694 75.9544 63.1467 75.6738 63.2702C75.6385 63.2859 75.4746 63.3899 75.4571 63.3927C75.3427 63.4093 75.4563 63.2997 75.3655 63.2947C75.2747 63.2897 75.1468 63.2938 75.1692 63.2058C75.1826 63.1532 75.4621 62.9181 75.5287 62.8577C75.7195 62.6818 75.3374 62.8595 75.5833 62.6701C75.8305 62.4798 76.2618 62.2803 76.3898 62.1067C75.9604 62.3712 75.5175 62.6393 75.0845 62.9036C75.0033 62.7397 75.0519 62.5084 74.9387 62.3668C74.9242 62.3495 74.7052 62.511 74.6836 62.4959C74.5929 62.4305 74.7126 62.2556 74.5935 62.2082C74.5003 62.1717 74.2087 62.2446 74.1021 62.2082C74.5678 61.863 74.3373 61.8601 74.3359 61.7554C74.3352 61.7189 74.4685 61.6414 74.5001 61.5962C74.6159 61.4276 74.1988 61.7238 74.1179 61.7449C73.7718 61.8337 74.7582 61.2339 74.6729 61.1464C74.6689 61.1419 74.1015 61.3915 74.0631 61.4019C73.8143 61.4722 74.2418 61.2833 74.2597 61.2244C74.2925 61.1167 74.3922 60.9966 74.1911 61.0102C74.1318 61.0147 73.7688 61.154 73.9984 60.9591C74.0285 60.9336 74.2059 60.834 74.2134 60.8232C74.3357 60.6393 73.7833 60.9606 73.5683 61.0215C73.3533 61.0826 73.6911 60.7858 73.7923 60.7069C74.0537 60.502 73.9315 60.6667 73.9606 60.6525C74.3073 60.4845 74.2188 60.4639 74.2228 60.4061C74.7614 60.0857 74.6955 60.047 74.2248 60.3475C74.1735 60.3804 74.2428 60.3835 74.2228 60.4061C73.67 60.6784 73.564 60.6526 74.0205 60.294C74.2346 60.1262 74.5244 60.0004 74.3684 59.9595C74.2977 59.9407 73.9335 60.1728 73.8086 60.1915C73.5234 60.2337 73.8045 59.9142 73.6951 59.8498C73.6553 59.8263 73.4691 59.9768 73.4348 59.9647C73.343 59.9327 73.4671 59.7921 73.3526 59.7738C73.342 59.7723 73.1344 59.9076 73.1207 59.8896C73.0124 59.7558 73.0762 59.5453 72.9942 59.3885C72.9546 59.313 72.7609 59.2441 72.7417 59.152C72.7066 58.9922 72.9323 58.6546 72.7931 58.5806C72.7031 58.5314 72.4943 58.6652 72.3283 58.7124C72.0065 58.8036 72.4618 58.4145 72.5339 58.357C72.5363 58.3552 72.6229 58.3936 72.7161 58.2986C72.9385 58.1536 72.5353 58.3572 72.5339 58.357C72.5798 58.3189 72.5604 58.1629 72.5049 58.1591C72.4746 58.1571 72.2718 58.2747 72.2599 58.2716C71.9821 58.1952 71.8346 58.0421 71.8392 57.813C71.8418 57.8077 72.0769 57.6918 72.08 57.6808C72.1301 57.5241 71.8111 57.6048 71.5973 57.6052C71.3837 57.6055 71.405 57.5069 71.7801 57.2519C71.6965 57.2125 71.8271 57.03 71.9081 56.9223C71.9891 56.8148 71.5294 57.0361 71.518 57.0358C71.1552 57.0324 71.3731 56.8148 71.338 56.6409C71.3222 56.558 71.1846 56.4451 71.0956 56.3894C71.0245 56.3459 71.1138 56.2558 71.0168 56.2306C71.0038 56.2271 70.803 56.3336 70.7939 56.335C70.5175 56.3872 71.0331 56.1782 71.116 56.1218C71.4177 55.9168 71.577 55.8048 71.3845 55.7952C71.3404 55.7931 70.5916 56.0802 70.5325 56.0646C70.4571 56.0439 70.7244 55.9388 70.6389 55.9203C70.6319 55.9186 70.4723 55.9949 70.4653 55.9618C70.4308 55.8089 70.4536 55.6141 70.3713 55.4774C70.3606 55.4583 70.1175 55.6008 70.0978 55.5751C70.0059 55.4545 69.9479 55.3016 70.0087 55.1162C70.0245 55.0702 70.2128 55.0103 70.2629 54.9795C70.5658 54.7927 70.0706 54.9406 70.0571 54.9343C69.7243 54.7916 70.069 54.4215 69.7603 54.2603C69.7428 54.2523 69.1921 54.3609 69.6067 54.1311C69.6342 54.1155 70.0596 53.8833 69.7385 53.9699C69.7184 53.9753 69.5014 54.0998 69.5037 54.0397C69.5061 53.9798 69.3191 53.9615 69.5428 53.7884C69.6132 53.7337 70.0372 53.5002 69.6556 53.5795C69.6293 53.586 68.7841 53.8084 69.3241 53.5481C69.4131 53.5054 70.0028 53.2757 69.6704 53.3185C69.606 53.3268 69.4858 53.4065 69.3881 53.3996C69.2376 53.389 69.3634 53.2463 69.0715 53.2742C69.0199 53.2795 68.5977 53.3794 68.8839 53.2154C68.9287 53.1899 69.1309 53.1268 69.1437 53.0944C69.2057 52.9405 69.0283 52.8722 69.1218 52.7056C69.1546 52.6468 69.4822 52.5475 69.5522 52.4735C69.6222 52.3995 69.6737 52.2853 69.5112 52.2954C69.3483 52.3049 68.8552 52.5415 68.7895 52.4888C68.5033 52.2571 68.702 51.8586 68.6469 51.5453C68.6388 51.4989 68.4661 51.597 68.4409 51.5326C68.4101 51.4545 68.356 51.3628 68.3094 51.2627C68.2278 51.0998 68.1741 50.9107 68.397 50.7061C68.6626 50.4601 68.9615 50.5516 69.0518 50.4003C69.0941 50.3262 68.4775 50.4812 68.4546 50.4761C68.2215 50.425 68.4551 50.2472 68.3346 50.1695C68.3097 50.1537 68.0772 50.2647 68.0587 50.2504C67.9936 50.2031 68.0753 50.0952 68.0324 50.0418C68.0126 50.018 67.8316 50.0933 67.8362 50.063C67.8449 49.9912 67.9012 49.909 68.049 49.7831C68.0624 49.7715 68.3035 49.7185 68.2942 49.6703C68.2787 49.5928 68.4104 49.4344 68.2027 49.4206C68.1403 49.4168 67.7257 49.5858 67.9901 49.4155C68.0452 49.3799 68.5481 49.1888 68.0931 49.3042C68.0171 49.3225 67.3966 49.4628 67.7477 49.2561C67.8401 49.2016 68.2306 48.9953 68.1542 48.9926C68.1423 48.9929 67.9279 49.1033 67.896 49.0882C67.7869 49.0328 67.7711 48.9321 67.6634 48.8746C67.6342 48.8595 67.4219 48.9947 67.3858 48.9693C67.2862 48.8996 67.2916 48.7573 67.3193 48.6308C67.3301 48.5842 67.5284 48.522 67.5477 48.5102C67.8606 48.3171 67.402 48.4989 67.3698 48.4978C67.1754 48.4873 67.3557 48.3266 67.2642 48.2765C67.2396 48.2626 67.0344 48.3781 67.0135 48.3829C66.8083 48.4279 67.2045 48.2788 67.2335 48.2315C67.3159 48.0984 67.2566 48.0188 67.1917 47.9543C67.1675 47.9307 66.9385 48.0823 66.9197 48.06C66.8041 47.9304 66.7503 47.7649 66.8086 47.5493C66.8201 47.5086 67.0156 47.4303 67.0552 47.4026C67.3327 47.2093 66.896 47.3599 66.8506 47.367C66.6428 47.398 66.7951 47.2892 66.7365 47.2519C66.4461 47.0688 66.3806 46.693 66.3083 46.4117C66.2128 46.0453 66.2388 45.696 66.012 45.4222C65.9979 45.4048 65.7711 45.5689 65.756 45.5559C65.5688 45.3779 65.5349 45.1179 65.3312 44.9491C65.3151 44.9353 65.1081 45.1025 65.0749 45.0854C65.0052 45.0512 64.9723 44.9737 65.0069 44.8721C65.0228 44.8219 65.2375 44.7357 65.2495 44.6876C65.2778 44.5751 65.2472 44.4943 65.1679 44.4513C65.1338 44.4334 64.9363 44.6251 64.9096 44.5904C64.7227 44.3572 64.5203 44.1429 64.6328 43.6934C64.6407 43.6628 65.08 43.3317 64.9683 43.3562C64.8417 43.4415 64.6952 43.5451 64.5611 43.6379C64.2362 43.3298 64.1339 42.8686 63.8895 42.5008C63.8792 42.4855 63.6672 42.6878 63.6463 42.6592C63.5263 42.4956 63.3414 42.3901 63.4344 42.0426C63.4437 42.0088 63.8503 41.6968 63.7518 41.6978C63.7354 41.6999 63.6207 41.6664 63.5191 41.7179C63.504 41.7259 63.3289 41.8897 63.3045 41.8707C63.1699 41.7623 63.0978 41.5892 63.0969 41.3617C63.098 41.3258 63.3109 41.1831 63.3134 41.156C63.3232 40.9583 63.0798 40.9725 63.1663 40.7212C63.2303 40.5587 63.5747 40.2835 63.8663 39.9594C63.9086 39.915 63.8765 39.8649 64.0614 39.6936C64.5242 39.26 65.0591 38.8162 65.5502 38.3517C65.6585 38.2542 65.4692 38.2802 65.7726 38.0903C65.7948 38.0794 65.9338 38.0588 66.0293 37.9866C66.0978 37.9394 66.2751 37.753 66.3688 37.6992C66.4618 37.6449 66.3251 37.8144 66.4425 37.7598C66.5611 37.7041 66.7665 37.4959 66.8478 37.5359ZM72.2703 56.4407C72.4652 56.2824 71.6578 56.674 71.8768 56.6324C71.8884 56.6299 72.2608 56.4486 72.2703 56.4407ZM75.6276 62.1522C75.9275 61.8846 75.4063 62.148 75.1726 62.3513C74.9392 62.5547 75.5369 62.2336 75.6276 62.1522ZM76.2647 62.6273C76.4841 62.3902 75.3998 63.0562 75.666 62.9962C75.6811 62.9929 76.2519 62.6411 76.2647 62.6273ZM64.1111 40.0501C64.1195 40.0415 64.1021 40.0039 64.0927 40.0112C63.8647 40.1833 63.8986 40.2572 64.1111 40.0501ZM76.9231 63.0751C77.0538 62.9602 76.8451 63.0031 76.683 63.1467C76.5529 63.2626 76.7607 63.2184 76.9231 63.0751ZM71.9388 53.4536C71.9508 53.4475 71.9495 53.4139 71.8802 53.4442C71.6572 53.5418 71.7377 53.5553 71.9388 53.4536ZM77.6161 64.1003C77.5506 63.918 78.3708 63.2534 78.378 63.477C78.3812 63.5201 78.0556 63.5982 78.0018 63.688C77.9106 63.8617 78.4878 63.5371 78.2373 63.7972C78.1977 63.854 77.623 64.1198 77.6147 64.1009C77.6151 64.1007 77.6156 64.1004 77.6161 64.1003ZM73.2213 55.9327C73.2315 55.9265 73.2222 55.8826 73.2112 55.8869C72.9455 55.9922 72.9642 56.0812 73.2213 55.9327ZM71.7773 51.5596C71.8001 51.5485 71.7882 51.448 71.7652 51.4528C71.3098 51.5644 71.3339 51.7717 71.7773 51.5596ZM75.1546 58.1962C75.4276 58.0977 75.4841 58.1298 75.1882 58.3381C75.1819 58.2875 75.1616 58.2452 75.1546 58.1962Z" fill="black"/>
<path d="M90.2162 43.5066C90.3556 43.386 90.564 43.4145 90.7535 43.4808C90.814 43.5009 90.8295 43.6616 90.8698 43.6833C90.9469 43.7261 90.9852 43.6345 91.0704 43.6873C91.0988 43.7056 91.139 43.9559 91.1673 43.9694C91.3158 44.0438 91.4093 43.9515 91.5485 43.9687C92.2089 44.0612 92.8223 43.9934 93.4542 43.944C93.6695 43.9257 93.9592 44.0855 94.1443 43.9335C94.1648 43.9158 94.0946 43.7056 94.0944 43.6868C94.094 43.3985 94.184 43.8364 94.2452 43.8816C94.4881 44.0599 94.7037 44.0247 94.8576 43.8966C94.9241 43.8412 94.7376 43.4358 94.8762 43.6546C94.8857 43.6693 94.9253 43.9016 94.9525 43.9204C95.0139 43.9627 95.0938 43.8986 95.1357 43.907C95.2168 43.9243 95.2259 43.9195 95.293 43.905C95.3847 43.8872 95.5221 43.9724 95.6076 43.8956C95.6257 43.8785 95.5381 43.6525 95.5616 43.6042C95.5853 43.5559 95.6795 43.5529 95.7224 43.6005C95.7659 43.648 95.8001 43.8345 95.8161 43.8752C95.9493 44.2189 95.9256 43.7018 95.9358 43.6863C96.124 43.418 96.3993 43.6463 96.6243 43.589C96.7969 43.5444 96.9541 43.4069 97.1204 43.3791C97.3194 43.3467 97.5143 43.4329 97.697 43.365C97.7164 43.3581 97.6257 43.089 97.6493 43.08C97.9017 42.9842 98.1633 42.9524 98.467 43.0758C98.4975 43.0884 98.5222 43.338 98.5561 43.3651C98.7625 43.5254 99.1229 43.9437 98.9674 42.8688C99.0847 42.8843 99.225 42.896 99.3704 43.0858C99.4641 43.208 99.4663 43.4855 99.5154 43.3553C99.5266 43.3262 99.4502 43.1007 99.4711 43.0746C99.5592 42.9647 99.695 43.0121 99.7746 42.8679C99.7907 42.838 99.7366 42.6325 99.7341 42.5938C99.7159 42.28 99.9179 42.7588 99.945 42.7907C100.151 43.028 100.231 42.8976 100.366 42.8735C100.397 42.8681 100.297 42.5984 100.325 42.5831C100.471 42.5078 100.637 42.4953 100.816 42.5847C100.856 42.6052 100.879 42.8493 100.901 42.8712C100.996 42.9652 100.912 42.5138 101.001 42.5953C101.02 42.6119 101.058 42.8167 101.065 42.8384C101.185 43.1793 101.109 42.6754 101.117 42.662C101.218 42.4826 101.418 42.9816 101.53 42.8799C101.544 42.8672 101.452 42.6178 101.493 42.5978C101.767 42.4632 102.09 42.4673 102.42 42.6123C102.471 42.6345 102.48 42.8347 102.488 42.858C102.613 43.2209 102.537 42.7154 102.547 42.6935C102.633 42.5338 102.828 42.9303 102.781 42.319C103.31 42.424 103.731 41.9908 104.318 42.4319C104.326 42.4369 104.362 42.6858 104.377 42.6947C104.551 42.8048 104.449 42.4267 104.457 41.9387C104.46 41.816 104.642 42.3685 104.657 42.4088C104.71 42.5574 104.754 42.9295 104.768 42.9576C104.878 43.178 104.638 41.9648 104.728 41.9474C104.731 41.9489 104.762 42.1749 104.773 42.1957C104.782 42.2105 104.788 42.2172 104.794 42.2195C104.814 42.2275 104.824 42.1845 104.853 42.2408C104.938 42.4093 105.069 42.9961 105.083 42.6374C105.084 42.5909 104.937 41.9048 105.022 41.9223C105.056 41.9299 105.192 41.8912 105.239 41.9281C105.287 41.965 105.304 42.192 105.309 42.2011C105.471 42.4737 105.456 42.603 105.595 43.0265C105.735 43.4482 105.514 42.42 105.513 42.3006C105.511 42.1816 105.637 42.4079 105.673 42.488C105.709 42.5682 105.714 42.7138 105.74 42.758C105.916 43.0459 105.686 42.2365 105.689 42.0655C105.696 41.6607 105.92 42.4107 106.016 42.4689C106.041 42.4846 105.988 42.3144 106.003 42.2942C106.066 42.2163 106.162 42.4447 106.202 42.2082C106.209 42.1696 106.18 41.6963 106.297 42.0232C106.314 42.0703 106.336 42.2642 106.378 42.2999C106.44 42.3534 106.536 42.3761 106.574 42.3013C106.602 42.246 106.49 41.9427 106.559 42.0294C106.59 42.0682 106.59 42.2598 106.645 42.3173C106.7 42.3747 106.801 42.344 106.838 42.329C106.876 42.3139 106.802 42.0816 106.801 42.0649C106.8 41.9692 106.849 41.8383 106.855 41.8371C107.177 41.7346 107.577 42.0623 107.868 41.8535C107.891 41.8374 107.814 41.5924 107.817 41.5873C107.879 41.4623 107.969 42.1409 108.083 42.348C107.953 41.8447 108.011 41.9276 108.058 41.8575C108.081 41.8232 108.018 41.6315 108.016 41.6108C107.987 41.3032 108.11 41.6796 108.137 41.7562C108.236 42.0379 108.184 41.6892 108.251 41.8774C108.317 42.0641 108.341 42.359 108.399 42.341C108.371 42.1563 108.212 41.6946 108.238 41.6072C108.334 41.277 108.737 41.5696 108.88 41.5739C109.024 41.5781 109.059 41.5337 109.154 41.5787C109.325 41.6601 109.184 41.3241 109.229 41.1418C109.274 40.9594 109.456 41.8294 109.516 42.0108C109.577 42.1921 109.541 41.9986 109.583 42.096C109.624 42.1934 109.624 42.3277 109.67 42.3562C109.717 42.3847 109.731 42.0301 109.693 41.8338C109.612 41.4179 109.455 41.0007 109.59 41.1262C109.598 41.1337 109.64 41.3641 109.667 41.3813C109.88 41.5108 110.055 41.4754 110.265 41.5831C110.294 41.5983 110.341 41.8545 110.359 41.8661C110.542 41.9884 110.377 41.5795 110.325 41.0897C110.479 41.7186 110.625 42.089 110.732 42.0637C110.797 42.0485 110.711 41.7789 110.699 41.5755C110.695 41.5142 110.792 41.6887 110.765 41.5583C110.676 41.1321 110.504 40.6751 110.664 40.8316C110.671 40.8392 110.72 41.0725 110.74 41.0818C110.871 41.143 110.762 40.7017 110.86 40.6169C110.937 40.5505 111.174 40.7712 111.288 40.7855C111.486 41.4857 111.537 41.2977 111.437 40.8045C111.508 40.8056 111.573 40.7571 111.657 40.805C111.685 40.8213 111.73 41.0279 111.739 41.0489C111.881 41.3793 111.774 40.9022 111.783 40.8797C111.886 40.6559 112.115 40.9742 112.162 40.5831C112.164 40.569 112.028 40.082 112.173 40.424C112.183 40.4477 112.199 40.6826 112.274 40.679C112.349 40.6752 112.554 40.8967 112.586 40.6426C112.593 40.5814 112.534 40.1707 112.674 40.4632C112.693 40.503 112.728 40.6438 112.761 40.7183C112.865 40.9553 112.733 40.4615 112.893 40.8663C113.054 41.271 113.22 41.5602 113.231 41.2438C113.232 41.2345 113.136 40.8402 113.169 40.8368C113.222 40.8317 113.317 40.8908 113.367 40.8725C113.391 40.8636 113.301 40.6282 113.304 40.6225C113.424 40.4379 113.61 40.6146 113.815 40.6523C113.853 40.6594 113.839 40.3044 113.985 40.5426C114.144 40.8033 114.446 42.0026 114.517 41.6712C114.547 41.5382 114.147 40.0222 114.51 40.7577C114.673 40.4941 115.005 40.8225 115.136 40.4769C115.142 40.4616 115.036 40.0364 115.06 40.0346C115.099 40.0321 115.183 40.2194 115.212 40.2239C115.338 40.2469 115.373 40.0508 115.483 40.0429C115.525 40.0392 115.578 40.2439 115.628 40.2396C115.678 40.2352 115.619 39.9614 115.723 40.0683C115.801 40.15 116.028 40.6732 116.114 40.7139C115.936 40.1822 115.983 40.1783 116.009 40.0129C116.014 39.9808 115.936 39.8014 115.935 39.7767C115.93 39.6722 116.007 39.8167 115.997 39.7045C115.994 39.6775 115.932 39.4962 115.927 39.464C115.881 39.1816 116.096 39.5632 116.132 39.6298C116.274 39.8824 116.214 39.6394 116.286 39.733C116.359 39.8267 116.352 39.9776 116.415 40.0275C116.557 40.1275 116.655 40.0604 116.752 40.0355C116.79 40.0244 116.68 39.7924 116.683 39.7852C116.74 39.6963 116.896 39.9297 116.773 39.4328C117.269 40.6541 116.778 39.2957 116.969 39.5073C116.985 39.524 117.207 40.1061 117.203 40.2044C117.204 40.3011 117.091 40.1349 117.092 40.2858C117.092 40.3211 117.222 40.8941 117.228 40.9296C117.257 41.2125 116.936 40.3389 116.916 40.2918C116.694 39.7852 116.821 40.407 116.819 40.4535C116.8 40.6713 116.674 40.5767 116.645 40.737C116.627 40.8403 116.822 41.4179 116.777 41.4138C116.624 41.4012 116.303 40.6126 116.421 41.3514C116.445 41.5092 116.687 42.1305 116.421 41.6677C116.405 41.6385 116.178 41.2094 116.237 41.5094C116.244 41.5473 116.307 41.7311 116.306 41.7488C116.295 41.8637 116.216 41.7272 116.19 41.8141C116.165 41.9007 116.136 42.027 116.061 41.9826C116.015 41.9563 115.858 41.6275 115.814 41.5488C115.688 41.3219 115.771 41.7351 115.645 41.4515C115.518 41.1664 115.426 40.7003 115.287 40.5349C115.443 41.0146 115.6 41.5082 115.755 41.9912C115.587 42.028 115.37 41.9275 115.214 42.0016C115.195 42.0113 115.3 42.2625 115.281 42.2795C115.203 42.3503 115.062 42.1927 114.987 42.2976C114.931 42.3794 114.939 42.6782 114.882 42.7723C114.66 42.2374 114.6 42.4621 114.501 42.4379C114.467 42.4297 114.422 42.2821 114.386 42.2406C114.253 42.0878 114.442 42.5628 114.445 42.6461C114.455 43.0022 114.101 41.9032 113.999 41.9649C113.994 41.9676 114.104 42.5779 114.107 42.6172C114.12 42.8749 114.033 42.4159 113.981 42.3843C113.887 42.3267 113.794 42.2014 113.764 42.3994C113.756 42.4579 113.809 42.8426 113.674 42.5737C113.657 42.5385 113.601 42.343 113.592 42.3332C113.442 42.1716 113.629 42.7827 113.64 43.0056C113.651 43.2283 113.443 42.8305 113.39 42.7138C113.252 42.4119 113.382 42.5693 113.374 42.5378C113.29 42.162 113.251 42.2429 113.197 42.2253C113.009 41.6275 112.958 41.6822 113.142 42.2095C113.162 42.2671 113.18 42.2006 113.197 42.2253C113.336 42.8256 113.289 42.9221 113.047 42.3949C112.934 42.1476 112.877 41.8369 112.805 41.9786C112.771 42.0426 112.914 42.4505 112.904 42.576C112.883 42.8624 112.639 42.515 112.555 42.6058C112.525 42.6386 112.627 42.8548 112.609 42.885C112.561 42.966 112.452 42.8131 112.41 42.9199C112.407 42.9298 112.491 43.1628 112.471 43.172C112.319 43.2461 112.135 43.1344 111.969 43.1773C111.889 43.1983 111.781 43.3705 111.689 43.368C111.534 43.3642 111.26 43.0674 111.159 43.1858C111.093 43.2621 111.176 43.4956 111.186 43.6677C111.206 44.0009 110.934 43.469 110.894 43.3859C110.893 43.3831 110.947 43.308 110.876 43.1956C110.785 42.9463 110.895 43.3845 110.894 43.3859C110.868 43.3323 110.715 43.3158 110.7 43.3689C110.691 43.3979 110.761 43.6218 110.755 43.6326C110.622 43.886 110.453 43.9926 110.234 43.9369C110.23 43.9332 110.168 43.6785 110.158 43.6729C110.019 43.5892 110.03 43.9175 109.988 44.1252C109.945 44.3328 109.856 44.2898 109.691 43.8678C109.637 43.9402 109.489 43.7726 109.403 43.67C109.317 43.5671 109.435 44.0637 109.432 44.0747C109.356 44.4267 109.195 44.1661 109.023 44.1619C108.94 44.1593 108.806 44.2681 108.736 44.3425C108.681 44.4021 108.613 44.2955 108.57 44.3844C108.565 44.3963 108.626 44.6152 108.626 44.6243C108.621 44.9049 108.524 44.357 108.487 44.264C108.352 43.9254 108.277 43.7459 108.23 43.9315C108.219 43.974 108.345 44.7658 108.319 44.82C108.285 44.8889 108.237 44.6057 108.203 44.685C108.2 44.6915 108.241 44.8634 108.209 44.863C108.058 44.8635 107.877 44.7995 107.733 44.8505C107.713 44.8568 107.801 45.1243 107.773 45.138C107.642 45.2017 107.487 45.2257 107.324 45.1273C107.283 45.1022 107.262 44.9058 107.242 44.8505C107.122 44.5156 107.169 45.0299 107.161 45.0418C106.966 45.3363 106.679 44.923 106.471 45.1914C106.46 45.2069 106.464 45.7671 106.322 45.3151C106.312 45.285 106.17 44.822 106.194 45.1535C106.195 45.1742 106.274 45.4116 106.218 45.3971C106.161 45.3827 106.111 45.5618 105.988 45.3082C105.949 45.2284 105.804 44.7668 105.811 45.156C105.812 45.183 105.874 46.0541 105.724 45.4739C105.699 45.3784 105.586 44.7558 105.568 45.0896C105.565 45.1543 105.619 45.2877 105.595 45.3819C105.562 45.5168 105.462 45.3957 105.429 45.6119C105.427 45.6282 105.426 45.6464 105.424 45.6669C105.421 45.7182 105.45 46.15 105.348 45.8374C105.332 45.7884 105.305 45.5785 105.279 45.5594C105.154 45.4676 105.07 45.6274 104.936 45.5045C104.888 45.4614 104.843 45.1223 104.786 45.0401C104.728 44.958 104.632 44.8871 104.621 45.0483C104.61 45.2097 104.759 45.7351 104.706 45.7899C104.476 46.0279 104.148 45.7682 103.871 45.7775C103.829 45.7788 103.902 45.9629 103.844 45.9786C103.63 46.0373 103.297 46.2938 103.023 45.9294C102.803 45.6374 102.94 45.35 102.796 45.2427C102.727 45.1918 102.8 45.8235 102.79 45.8459C102.702 46.0719 102.552 45.8177 102.452 45.9275C102.432 45.9503 102.51 46.1957 102.492 46.2123C102.431 46.2712 102.332 46.1756 102.269 46.2109C102.241 46.2274 102.289 46.4175 102.258 46.4088C102.184 46.3904 102.107 46.323 102.002 46.1582C101.993 46.1432 101.98 45.8964 101.929 45.8985C101.845 45.9027 101.706 45.7482 101.655 45.9514C101.64 46.0125 101.737 46.4496 101.611 46.1611C101.584 46.1009 101.482 45.5728 101.515 46.0414C101.521 46.1194 101.544 46.7565 101.399 46.3753C101.36 46.275 101.225 45.8546 101.207 45.9295C101.205 45.9413 101.277 46.1718 101.255 46.2008C101.176 46.2992 101.07 46.2973 100.988 46.3933C100.966 46.4195 101.061 46.653 101.027 46.6842C100.934 46.7703 100.786 46.7395 100.663 46.6881C100.617 46.6687 100.597 46.4617 100.589 46.4405C100.461 46.0956 100.546 46.5817 100.537 46.6132C100.482 46.8026 100.358 46.594 100.286 46.6739C100.266 46.6954 100.336 46.92 100.336 46.9415C100.334 47.1523 100.274 46.7331 100.232 46.6951C100.115 46.5875 100.022 46.6288 99.9403 46.6791C99.9103 46.6979 100.01 46.9542 99.9822 46.968C99.8201 47.0547 99.6368 47.0717 99.4331 46.9663C99.3945 46.946 99.3655 46.7372 99.3477 46.6923C99.2234 46.3775 99.2635 46.838 99.2584 46.8841C99.2352 47.0942 99.1646 46.9205 99.1112 46.969C98.8527 47.209 98.4518 47.1808 98.1483 47.1779C97.7557 47.1746 97.4172 47.0538 97.0786 47.193C97.0567 47.2017 97.148 47.4663 97.13 47.4773C96.8946 47.6063 96.6257 47.5624 96.3937 47.7053C96.3748 47.7165 96.4701 47.965 96.442 47.9916C96.3846 48.0479 96.2975 48.0555 96.2082 47.9914C96.1642 47.9607 96.1528 47.7292 96.1096 47.7029C96.0091 47.641 95.9201 47.6446 95.8508 47.7064C95.8215 47.7332 95.9407 47.9817 95.8974 47.9962C95.6045 48.1 95.3238 48.2217 94.924 47.965C94.897 47.9473 94.7381 47.4207 94.7209 47.5343C94.7566 47.6827 94.8027 47.8561 94.843 48.0141C94.4233 48.2161 93.949 48.1458 93.4962 48.238C93.4778 48.2417 93.5852 48.5144 93.5501 48.5231C93.3368 48.5765 93.1622 48.7078 92.8712 48.4874C92.8432 48.4657 92.7177 47.9688 92.6783 48.06C92.6744 48.0757 92.5926 48.1691 92.5985 48.2829C92.5997 48.3 92.6805 48.5258 92.6519 48.5409C92.49 48.6232 92.2935 48.621 92.0758 48.53C92.041 48.5147 92.0026 48.261 91.9774 48.248C91.8106 48.1541 91.6929 48.3883 91.5021 48.2019C91.3641 48.0791 91.278 47.6459 91.1153 47.2415C91.099 47.1826 91.0257 47.1933 90.9595 46.95C90.7788 46.3422 90.6134 45.6674 90.4178 45.0203C90.3767 44.8807 90.3495 45.0515 90.2892 44.7029C90.3001 44.6753 90.3045 44.5526 90.2972 44.4306C90.2861 44.348 90.1988 44.1062 90.1875 43.9996C90.1756 43.8933 90.2537 44.0946 90.2556 43.9651C90.2579 43.8338 90.1645 43.5571 90.2162 43.5066ZM109.019 43.2102C108.908 42.9855 109.118 43.858 109.122 43.6356C109.122 43.6239 109.025 43.2212 109.019 43.2102ZM115.163 41.283C114.973 40.9288 115.107 41.4973 115.25 41.7721C115.393 42.0466 115.221 41.3903 115.163 41.283ZM115.755 40.7825C115.576 40.5131 115.968 41.724 115.972 41.4513C115.972 41.4359 115.765 40.7981 115.755 40.7825ZM91.3071 47.0591C91.3028 47.0479 91.2563 47.0489 91.2589 47.0605C91.3133 47.3412 91.4056 47.3391 91.3071 47.0591ZM116.329 40.2548C116.249 40.1003 116.242 40.3126 116.343 40.5044C116.424 40.6586 116.428 40.4468 116.329 40.2548ZM106.107 42.8973C106.104 42.8843 106.071 42.8788 106.087 42.9526C106.139 43.1906 106.166 43.1146 106.107 42.8973ZM117.463 39.8366C117.28 39.8528 116.817 38.9022 117.039 38.9478C117.078 38.9568 117.087 39.2871 117.16 39.3616C117.287 39.4991 117.123 38.8562 117.314 39.1625C117.361 39.2139 117.466 39.8412 117.464 39.838C117.464 39.8376 117.463 39.8371 117.463 39.8366ZM108.729 42.172C108.725 42.1608 108.681 42.1601 108.683 42.1718C108.729 42.4537 108.818 42.4552 108.729 42.172ZM104.253 42.6945C104.246 42.6701 104.145 42.6657 104.146 42.6892C104.186 43.1561 104.389 43.1666 104.253 42.6945ZM111.295 40.8037C111.26 40.5156 111.303 40.4683 111.437 40.8042C111.388 40.7983 111.344 40.8081 111.295 40.8037Z" fill="black"/>
<path d="M103.164 28.7792C103.327 28.9113 103.365 29.1589 103.344 29.3698C103.338 29.4349 103.183 29.4829 103.173 29.5313C103.153 29.6284 103.252 29.6518 103.219 29.7493C103.207 29.782 102.968 29.8681 102.961 29.8997C102.926 30.0778 103.034 30.1531 103.048 30.3064C103.096 31.0194 103.265 31.6485 103.401 32.3032C103.447 32.5237 103.326 32.8466 103.496 33.0195C103.516 33.0396 103.718 32.9488 103.737 32.9472C104.026 32.9243 103.598 33.0536 103.559 33.1214C103.41 33.3945 103.461 33.6018 103.605 33.7606C103.667 33.8274 104.056 33.6079 103.849 33.7648C103.835 33.7755 103.606 33.8313 103.59 33.8603C103.552 33.9256 103.622 34.003 103.617 34.0464C103.606 34.1301 103.612 34.1413 103.632 34.211C103.658 34.3091 103.58 34.4503 103.663 34.5351C103.681 34.5529 103.902 34.4524 103.952 34.4745C104.001 34.4967 104.011 34.5948 103.966 34.6426C103.921 34.6904 103.736 34.7325 103.696 34.7507C103.36 34.9026 103.876 34.8569 103.892 34.8677C104.171 35.0535 103.955 35.3478 104.019 35.5788C104.07 35.7582 104.211 35.9178 104.242 36.0924C104.279 36.3023 104.193 36.4974 104.261 36.6905C104.268 36.7109 104.538 36.6214 104.547 36.6464C104.642 36.9083 104.673 37.1901 104.541 37.496C104.528 37.5269 104.277 37.5426 104.249 37.5763C104.084 37.7821 103.652 38.1302 104.733 38.0261C104.712 38.1459 104.694 38.2914 104.497 38.4302C104.371 38.5195 104.093 38.5031 104.221 38.5626C104.249 38.576 104.479 38.5125 104.503 38.5355C104.608 38.6328 104.553 38.7686 104.692 38.8617C104.721 38.8806 104.929 38.8408 104.968 38.8413C105.283 38.8481 104.792 39.0202 104.758 39.0454C104.507 39.2381 104.63 39.3288 104.643 39.4707C104.646 39.5035 104.924 39.4253 104.936 39.4557C105 39.6151 104.998 39.7885 104.892 39.9636C104.868 40.0026 104.622 39.9994 104.598 40.0195C104.495 40.1071 104.953 40.0694 104.863 40.1534C104.845 40.171 104.637 40.1863 104.615 40.1918C104.263 40.2758 104.773 40.2554 104.785 40.2656C104.953 40.3912 104.435 40.5348 104.523 40.6612C104.534 40.6764 104.793 40.6136 104.808 40.6582C104.843 40.7592 104.861 40.8647 104.862 40.9727C104.862 41.1693 104.802 41.3759 104.681 41.5815C104.653 41.6299 104.453 41.6153 104.429 41.6204C104.054 41.7015 104.565 41.6843 104.585 41.6973C104.733 41.7995 104.317 41.9468 104.93 41.9699C104.765 42.4816 105.151 42.9351 104.656 43.4748C104.65 43.4816 104.399 43.4946 104.389 43.5081C104.262 43.6713 104.649 43.6046 105.134 43.6565C105.255 43.6695 104.689 43.8006 104.647 43.8114C104.494 43.8508 104.12 43.8619 104.091 43.8729C103.861 43.9633 105.091 43.8322 105.1 43.9229C105.099 43.9259 104.871 43.9362 104.849 43.946C104.781 43.9766 104.873 43.9913 104.797 44.0221C104.622 44.0929 104.026 44.1706 104.382 44.2178C104.428 44.2236 105.125 44.1393 105.1 44.2238C105.089 44.2573 105.115 44.3988 105.074 44.4434C105.033 44.4879 104.805 44.4827 104.796 44.4865C104.509 44.6239 104.381 44.5952 103.946 44.6931C103.513 44.7909 104.558 44.6719 104.677 44.6823C104.796 44.6928 104.558 44.7965 104.475 44.8245C104.391 44.8525 104.246 44.8425 104.199 44.8646C103.895 45.0111 104.724 44.8632 104.894 44.8844C105.296 44.9342 104.527 45.081 104.459 45.1702C104.441 45.1944 104.616 45.1586 104.634 45.1766C104.705 45.248 104.468 45.3192 104.699 45.3854C104.736 45.3962 105.21 45.4206 104.872 45.5015C104.824 45.5131 104.628 45.514 104.588 45.5516C104.528 45.6078 104.495 45.7014 104.565 45.7481C104.617 45.7825 104.931 45.7051 104.837 45.7646C104.795 45.7911 104.605 45.7693 104.541 45.8175C104.478 45.8655 104.497 45.9698 104.508 46.0091C104.518 46.0484 104.758 46.0018 104.774 46.0034C104.869 46.0134 104.994 46.078 104.994 46.0848C105.059 46.4229 104.684 46.7798 104.853 47.0984C104.866 47.1235 105.119 47.0796 105.124 47.0831C105.24 47.1614 104.555 47.1615 104.335 47.2477C104.851 47.1847 104.761 47.2314 104.825 47.2884C104.856 47.3158 105.054 47.2783 105.075 47.279C105.383 47.2921 104.994 47.3644 104.915 47.3809C104.622 47.4416 104.975 47.4374 104.779 47.4783C104.585 47.5191 104.29 47.503 104.3 47.5628C104.487 47.5603 104.966 47.4649 105.049 47.5024C105.363 47.6429 105.018 48.0075 104.993 48.1497C104.969 48.2919 105.007 48.3331 104.949 48.4215C104.844 48.5809 105.197 48.489 105.371 48.5622C105.545 48.6356 104.657 48.6855 104.469 48.7188C104.281 48.7519 104.477 48.7451 104.375 48.7721C104.272 48.7991 104.14 48.7785 104.104 48.8201C104.069 48.8617 104.418 48.9276 104.617 48.9196C105.041 48.9025 105.477 48.8095 105.332 48.9244C105.324 48.931 105.09 48.9375 105.069 48.9617C104.909 49.1555 104.917 49.337 104.778 49.526C104.758 49.552 104.498 49.5587 104.483 49.5742C104.334 49.7351 104.763 49.6371 105.256 49.6643C104.61 49.7159 104.221 49.8027 104.229 49.9132C104.234 49.9795 104.514 49.9377 104.716 49.9588C104.778 49.9651 104.59 50.0326 104.723 50.0267C105.158 50.0075 105.637 49.9115 105.456 50.0446C105.448 50.0505 105.209 50.0605 105.197 50.0791C105.115 50.1995 105.568 50.1615 105.636 50.2769C105.689 50.3668 105.432 50.5637 105.399 50.6745C104.675 50.7514 104.852 50.8333 105.355 50.819C105.342 50.8898 105.379 50.9634 105.317 51.038C105.296 51.0637 105.085 51.0715 105.063 51.0769C104.713 51.1607 105.201 51.1375 105.222 51.1503C105.425 51.2928 105.071 51.4597 105.448 51.5785C105.461 51.5826 105.965 51.5361 105.603 51.6182C105.578 51.6237 105.343 51.5976 105.334 51.6727C105.324 51.7477 105.07 51.9143 105.314 51.9878C105.372 52.0055 105.787 52.0216 105.474 52.1077C105.432 52.1192 105.287 52.1279 105.208 52.1465C104.956 52.2062 105.465 52.1667 105.038 52.2512C104.611 52.3357 104.296 52.4477 104.605 52.5156C104.614 52.5179 105.019 52.497 105.016 52.5293C105.011 52.5813 104.935 52.6605 104.944 52.7158C104.948 52.7416 105.197 52.697 105.202 52.701C105.361 52.8599 105.152 53.006 105.076 53.198C105.061 53.2347 105.413 53.2951 105.151 53.3909C104.864 53.4958 103.629 53.561 103.94 53.6918C104.064 53.7444 105.63 53.6503 104.837 53.8643C105.064 54.0744 104.675 54.3355 104.987 54.5347C105.001 54.5436 105.439 54.5265 105.435 54.5511C105.43 54.5878 105.229 54.6294 105.219 54.6586C105.171 54.7784 105.356 54.8588 105.34 54.9645C105.335 55.0044 105.124 55.0149 105.117 55.0622C105.111 55.1122 105.391 55.1142 105.265 55.1948C105.169 55.2558 104.61 55.3693 104.552 55.44C105.109 55.3797 105.102 55.4187 105.259 55.4851C105.289 55.4976 105.481 55.4583 105.505 55.4631C105.609 55.4819 105.451 55.5282 105.563 55.5437C105.59 55.5475 105.78 55.5259 105.813 55.5278C106.099 55.5431 105.68 55.6679 105.607 55.6891C105.329 55.7704 105.579 55.7648 105.473 55.8193C105.366 55.8727 105.22 55.8283 105.157 55.8834C105.029 56.0009 105.072 56.1 105.076 56.209C105.078 56.2485 105.329 56.1922 105.335 56.1972C105.409 56.2726 105.147 56.3711 105.658 56.3627C104.357 56.5723 105.791 56.4015 105.542 56.5391C105.522 56.5498 104.905 56.6327 104.81 56.6113C104.716 56.5899 104.903 56.5162 104.756 56.4822C104.721 56.4731 104.134 56.4753 104.098 56.4725C103.816 56.4389 104.739 56.3206 104.789 56.3114C105.332 56.2073 104.699 56.1974 104.653 56.1797C104.445 56.1131 104.565 56.0184 104.415 55.9522C104.317 55.9086 103.711 55.9722 103.725 55.9318C103.771 55.794 104.611 55.6485 103.863 55.5997C103.704 55.5914 103.045 55.6942 103.554 55.5391C103.587 55.5294 104.054 55.4031 103.748 55.3952C103.71 55.3942 103.517 55.4165 103.5 55.4113C103.39 55.3761 103.54 55.3266 103.46 55.2822C103.38 55.2379 103.264 55.194 103.323 55.1285C103.358 55.0894 103.712 55.0034 103.798 54.9765C104.046 54.9 103.625 54.8956 103.928 54.8303C104.233 54.7647 104.709 54.771 104.899 54.6681C104.397 54.7224 103.882 54.7747 103.378 54.8277C103.377 54.663 103.519 54.4698 103.478 54.3039C103.472 54.2836 103.205 54.3353 103.192 54.3143C103.139 54.2253 103.322 54.1203 103.234 54.0283C103.165 53.9563 102.87 53.9047 102.789 53.8343C103.357 53.7214 103.149 53.6249 103.192 53.5312C103.206 53.4985 103.36 53.4833 103.407 53.4557C103.583 53.3521 103.08 53.4479 102.998 53.434C102.647 53.3772 103.793 53.2416 103.752 53.1328C103.751 53.1271 103.131 53.1228 103.092 53.1169C102.836 53.0807 103.303 53.0825 103.344 53.0373C103.418 52.9548 103.559 52.8863 103.37 52.8199C103.314 52.8014 102.926 52.785 103.216 52.7041C103.254 52.6935 103.456 52.6744 103.467 52.668C103.655 52.5538 103.019 52.622 102.798 52.5928C102.577 52.5636 103.006 52.4319 103.131 52.401C103.453 52.3204 103.274 52.4193 103.307 52.4181C103.692 52.4037 103.619 52.3507 103.646 52.3007C104.268 52.2248 104.224 52.1639 103.672 52.249C103.612 52.2585 103.674 52.2882 103.646 52.3007C103.031 52.3272 102.945 52.2664 103.507 52.1265C103.771 52.0608 104.087 52.0604 103.96 51.9634C103.903 51.9192 103.477 51.986 103.355 51.9547C103.077 51.8839 103.462 51.704 103.388 51.6091C103.361 51.5743 103.13 51.6366 103.103 51.6136C103.032 51.5529 103.202 51.4734 103.104 51.4145C103.095 51.4092 102.851 51.4515 102.845 51.4304C102.799 51.2716 102.94 51.1092 102.926 50.9421C102.92 50.8606 102.768 50.7289 102.786 50.6404C102.815 50.4853 103.154 50.2698 103.053 50.1529C102.989 50.077 102.745 50.1216 102.573 50.1045C102.241 50.0717 102.81 49.8878 102.898 49.8618C102.901 49.861 102.967 49.9258 103.089 49.8743C103.349 49.8238 102.899 49.8625 102.898 49.8618C102.955 49.8445 102.996 49.6991 102.946 49.6762C102.919 49.6638 102.687 49.6974 102.677 49.6905C102.448 49.5258 102.368 49.3402 102.457 49.1388C102.461 49.1349 102.722 49.1121 102.729 49.1034C102.833 48.9809 102.507 48.9442 102.308 48.873C102.109 48.8018 102.165 48.7223 102.606 48.6204C102.543 48.5566 102.73 48.4382 102.844 48.3686C102.958 48.2993 102.45 48.345 102.439 48.3411C102.102 48.2192 102.383 48.0981 102.411 47.9308C102.425 47.8513 102.336 47.7071 102.271 47.6295C102.22 47.5683 102.335 47.5161 102.252 47.4633C102.241 47.4561 102.016 47.488 102.007 47.4864C101.73 47.4467 102.286 47.4218 102.383 47.3975C102.736 47.3093 102.924 47.258 102.746 47.1886C102.705 47.1727 101.904 47.1972 101.854 47.1655C101.79 47.1242 102.077 47.1125 102.003 47.0701C101.996 47.0664 101.821 47.0855 101.825 47.0541C101.844 46.9082 101.931 46.7423 101.898 46.5959C101.894 46.5758 101.618 46.6304 101.607 46.6019C101.56 46.4683 101.555 46.3169 101.672 46.1699C101.702 46.1337 101.899 46.1344 101.957 46.1213C102.303 46.0418 101.787 46.0316 101.776 46.0223C101.506 45.8024 101.949 45.5682 101.704 45.3412C101.69 45.3289 101.133 45.2793 101.597 45.1855C101.628 45.1792 102.103 45.0851 101.771 45.0769C101.75 45.0764 101.506 45.1299 101.526 45.0771C101.546 45.0244 101.373 44.9599 101.638 44.8639C101.721 44.8336 102.194 44.7346 101.806 44.7074C101.779 44.7058 100.907 44.6905 101.498 44.596C101.596 44.5804 102.226 44.5247 101.896 44.4784C101.832 44.4697 101.694 44.5106 101.602 44.4799C101.461 44.433 101.622 44.3368 101.334 44.2904C101.283 44.2824 100.85 44.2693 101.171 44.1937C101.221 44.1818 101.432 44.1744 101.454 44.1489C101.556 44.0274 101.404 43.9271 101.538 43.7997C101.586 43.7549 101.928 43.7425 102.015 43.6922C102.102 43.6419 102.182 43.5501 102.022 43.5218C101.862 43.4934 101.325 43.5927 101.275 43.532C101.06 43.2695 101.351 42.9557 101.372 42.6713C101.375 42.629 101.184 42.6816 101.175 42.6207C101.139 42.3919 100.921 42.0193 101.315 41.7816C101.631 41.5927 101.901 41.7701 102.024 41.6367C102.083 41.5725 101.447 41.5659 101.426 41.5536C101.26 41.461 101.385 41.3683 101.405 41.2779C101.411 41.2535 101.408 41.2293 101.387 41.2056C101.367 41.1838 101.113 41.2301 101.099 41.2115C101.049 41.1485 101.156 41.0673 101.129 41.0054C101.116 40.9777 100.921 41.0026 100.934 40.975C100.961 40.9091 101.037 40.8455 101.213 40.7644C101.229 40.7569 101.476 40.7686 101.48 40.7206C101.485 40.6427 101.654 40.5249 101.458 40.4587C101.399 40.4391 100.954 40.4922 101.254 40.3992C101.317 40.3797 101.852 40.3284 101.383 40.3205C101.305 40.3182 100.67 40.2914 101.064 40.1863C101.167 40.1584 101.598 40.0636 101.526 40.0409C101.514 40.0381 101.278 40.0874 101.251 40.0645C101.161 39.9835 101.173 39.8846 101.085 39.8027C101.061 39.7811 100.82 39.8539 100.792 39.8207C100.715 39.7306 100.758 39.5945 100.819 39.4832C100.842 39.4421 101.05 39.4345 101.072 39.4283C101.425 39.3268 100.934 39.3802 100.904 39.371C100.72 39.3112 100.937 39.2069 100.862 39.1361C100.842 39.1163 100.614 39.1726 100.592 39.1717C100.383 39.1608 100.804 39.1226 100.845 39.0851C100.96 38.9796 100.925 38.8905 100.88 38.8134C100.863 38.7851 100.602 38.869 100.59 38.8433C100.514 38.6939 100.506 38.5208 100.621 38.3349C100.644 38.2997 100.853 38.2758 100.898 38.2599C101.218 38.149 100.757 38.1799 100.712 38.1752C100.503 38.1523 100.679 38.0871 100.633 38.0367C100.404 37.7935 100.443 37.4235 100.45 37.1428C100.457 36.7754 100.576 36.4552 100.432 36.1428C100.423 36.1227 100.161 36.2219 100.15 36.2057C100.019 35.9966 100.054 35.739 99.9049 35.5386C99.8932 35.5222 99.6498 35.6293 99.6226 35.6059C99.565 35.558 99.5532 35.4754 99.6132 35.3879C99.6419 35.3452 99.8707 35.3142 99.8951 35.2724C99.9523 35.1746 99.9453 35.0946 99.8802 35.035C99.8519 35.0097 99.612 35.1441 99.5952 35.1048C99.4763 34.8404 99.3401 34.5994 99.5642 34.2022C99.5797 34.1751 100.087 33.9629 99.9732 33.9602C99.8296 34.0117 99.662 34.076 99.5092 34.133C99.2778 33.7743 99.2979 33.3213 99.1553 32.9254C99.1492 32.9089 98.8951 33.0543 98.8821 33.0231C98.8087 32.8468 98.6569 32.7087 98.8327 32.4041C98.85 32.3745 99.3169 32.163 99.2222 32.1445C99.2052 32.1416 99.1033 32.0876 98.9935 32.1164C98.9771 32.1211 98.769 32.2399 98.7504 32.2178C98.6483 32.0909 98.6181 31.9093 98.6761 31.7048C98.6848 31.6694 98.9241 31.5774 98.9321 31.551C98.9897 31.3692 98.7513 31.3354 98.8957 31.1204C98.9897 30.9703 99.3926 30.7883 99.742 30.5263C99.7907 30.4883 99.7753 30.4426 99.9892 30.3092C100.53 29.9779 101.146 29.6561 101.721 29.3003C101.847 29.227 101.646 29.1971 101.991 29.0884C102.011 29.0753 102.155 29.0899 102.264 29.0403C102.342 29.0096 102.552 28.861 102.657 28.8308C102.763 28.8029 102.591 28.9352 102.717 28.9072C102.846 28.8797 103.095 28.7267 103.164 28.7792ZM103.354 48.0564C103.592 47.9781 102.699 48.0643 102.918 48.0988C102.93 48.1004 103.342 48.0604 103.354 48.0564ZM104.192 54.3972C104.577 54.2826 103.994 54.2994 103.696 54.3839C103.398 54.4682 104.075 54.432 104.192 54.3972ZM104.56 55.0751C104.861 54.9615 103.596 55.0936 103.861 55.1484C103.876 55.1516 104.543 55.0818 104.56 55.0751ZM99.9576 30.6581C99.9676 30.6514 99.9575 30.6091 99.9469 30.6143C99.6871 30.7334 99.7063 30.8158 99.9576 30.6581ZM104.954 55.7464C105.122 55.7026 104.917 55.6538 104.708 55.7091C104.539 55.754 104.745 55.8012 104.954 55.7464ZM104.023 45.2163C104.037 45.2141 104.046 45.1825 103.97 45.1906C103.728 45.217 103.801 45.2525 104.023 45.2163ZM105.108 56.9428C105.135 56.7617 106.166 56.5316 106.071 56.7401C106.054 56.7808 105.728 56.6954 105.64 56.7564C105.479 56.8633 106.141 56.8425 105.798 56.9575C105.737 56.9883 105.105 56.9597 105.106 56.9426C105.107 56.9427 105.107 56.9427 105.108 56.9428ZM104.422 47.9131C104.434 47.9108 104.441 47.8674 104.429 47.8676C104.143 47.8746 104.129 47.9621 104.422 47.9131ZM104.401 43.3854C104.426 43.3806 104.44 43.2805 104.416 43.2796C103.948 43.273 103.918 43.4757 104.401 43.3854ZM105.38 50.6783C105.67 50.6927 105.709 50.7434 105.355 50.8187C105.369 50.7716 105.367 50.7258 105.38 50.6783Z" fill="black"/>
<defs>
<radialGradient id="paint0_radial_5560_845" cx="0" cy="0" r="1" gradientTransform="matrix(-8.73377 23.1455 -9.0412 -26.9339 129.008 82.6751)" gradientUnits="userSpaceOnUse">
<stop stop-color="#D9FF60"/>
<stop offset="0.192308" stop-color="#D9FF60"/>
<stop offset="0.8125" stop-color="#126630"/>
<stop offset="0.9375" stop-color="#126630"/>
</radialGradient>
<radialGradient id="paint1_radial_5560_845" cx="0" cy="0" r="1" gradientTransform="matrix(-8.73377 23.1455 -9.0412 -26.9339 148.471 105.661)" gradientUnits="userSpaceOnUse">
<stop stop-color="#D9FF60"/>
<stop offset="0.192308" stop-color="#D9FF60"/>
<stop offset="0.8125" stop-color="#126630"/>
<stop offset="0.9375" stop-color="#126630"/>
</radialGradient>
<radialGradient id="paint2_radial_5560_845" cx="0" cy="0" r="1" gradientTransform="matrix(-12.2222 19.278 -12.6524 -22.4335 129.093 133.897)" gradientUnits="userSpaceOnUse">
<stop stop-color="#D9FF60"/>
<stop offset="0.192308" stop-color="#D9FF60"/>
<stop offset="0.8125" stop-color="#126630"/>
<stop offset="0.9375" stop-color="#126630"/>
</radialGradient>
<radialGradient id="paint3_radial_5560_845" cx="0" cy="0" r="1" gradientTransform="matrix(-12.2222 20.1796 -12.6524 -23.4825 141.613 151.805)" gradientUnits="userSpaceOnUse">
<stop stop-color="#D9FF60"/>
<stop offset="0.192308" stop-color="#D9FF60"/>
<stop offset="0.8125" stop-color="#126630"/>
<stop offset="0.9375" stop-color="#126630"/>
</radialGradient>
<radialGradient id="paint4_radial_5560_845" cx="0" cy="0" r="1" gradientTransform="matrix(-25.4222 32.3902 -26.3171 -37.6919 108.412 98.6805)" gradientUnits="userSpaceOnUse">
<stop stop-color="#D9FF60"/>
<stop offset="0.192308" stop-color="#D9FF60"/>
<stop offset="0.8125" stop-color="#126630"/>
<stop offset="0.9375" stop-color="#126630"/>
</radialGradient>
<radialGradient id="paint5_radial_5560_845" cx="0" cy="0" r="1" gradientTransform="matrix(-12.2222 19.278 -12.6524 -22.4335 94.5219 131.155)" gradientUnits="userSpaceOnUse">
<stop stop-color="#D9FF60"/>
<stop offset="0.192308" stop-color="#D9FF60"/>
<stop offset="0.8125" stop-color="#126630"/>
<stop offset="0.9375" stop-color="#126630"/>
</radialGradient>
<radialGradient id="paint6_radial_5560_845" cx="0" cy="0" r="1" gradientTransform="matrix(-12.2222 20.1796 -12.6524 -23.4825 81.1523 157.287)" gradientUnits="userSpaceOnUse">
<stop stop-color="#D9FF60"/>
<stop offset="0.192308" stop-color="#D9FF60"/>
<stop offset="0.8125" stop-color="#126630"/>
<stop offset="0.9375" stop-color="#126630"/>
</radialGradient>
<radialGradient id="paint7_radial_5560_845" cx="0" cy="0" r="1" gradientUnits="userSpaceOnUse" gradientTransform="translate(69.1921 40.434) rotate(92.181) scale(60.4835 66.3843)">
<stop stop-color="#D9FF60"/>
<stop offset="0.192308" stop-color="#D9FF60"/>
<stop offset="0.8125" stop-color="#126630"/>
<stop offset="0.9375" stop-color="#126630"/>
</radialGradient>
<radialGradient id="paint8_radial_5560_845" cx="0" cy="0" r="1" gradientTransform="matrix(-9.65026 22.8061 -9.98994 -26.539 11.9532 10.4414)" gradientUnits="userSpaceOnUse">
<stop stop-color="#D9FF60"/>
<stop offset="0.192308" stop-color="#D9FF60"/>
<stop offset="0.8125" stop-color="#126630"/>
<stop offset="0.9375" stop-color="#126630"/>
</radialGradient>
<radialGradient id="paint9_radial_5560_845" cx="0" cy="0" r="1" gradientTransform="matrix(-8.40601 26.0366 -8.70189 -30.2982 10.412 11.9204)" gradientUnits="userSpaceOnUse">
<stop stop-color="#D9FF60"/>
<stop offset="0.192308" stop-color="#D9FF60"/>
<stop offset="0.8125" stop-color="#126630"/>
<stop offset="0.9375" stop-color="#126630"/>
</radialGradient>
</defs>
</svg>
