<svg width="134" height="308" viewBox="0 0 134 308" fill="none" xmlns="http://www.w3.org/2000/svg">
<circle cx="40.0001" cy="10" r="9.5" fill="url(#paint0_radial_5595_102)" stroke="#99A637"/>
<circle cx="67" cy="10" r="9.5" fill="url(#paint1_radial_5595_102)" stroke="#99A637"/>
<circle cx="93.9999" cy="10" r="9.5" fill="url(#paint2_radial_5595_102)" stroke="#99A637"/>
<path d="M67 33.5C83.9961 33.5 100.11 47.8741 112.124 72.7979C124.052 97.5448 131.5 131.908 131.5 170V305H2.5V170C2.5 131.908 9.94764 97.5448 21.876 72.7979C33.8896 47.8741 50.0039 33.5 67 33.5Z" stroke="#3F3F3F" stroke-width="5"/>
<path d="M113.5 33.5C113.686 33.5 114.417 33.6417 115.603 35.2891C116.732 36.8596 117.925 39.3358 119.118 42.7646C121.494 49.5915 123.676 59.6077 125.522 72.1494C129.21 97.195 131.5 131.881 131.5 170.251V305.5H95.5V170.251C95.5 131.881 97.7904 97.195 101.478 72.1494C103.324 59.6077 105.506 49.5915 107.882 42.7646C109.075 39.3358 110.268 36.8596 111.397 35.2891C112.583 33.6417 113.314 33.5 113.5 33.5Z" fill="#4F4630" stroke="#ACAE15" stroke-width="5"/>
<defs>
<radialGradient id="paint0_radial_5595_102" cx="0" cy="0" r="1" gradientUnits="userSpaceOnUse" gradientTransform="translate(40.0001 10) rotate(90) scale(10)">
<stop offset="0.245192" stop-color="#91FF85"/>
<stop offset="0.850962" stop-color="#23611C"/>
</radialGradient>
<radialGradient id="paint1_radial_5595_102" cx="0" cy="0" r="1" gradientUnits="userSpaceOnUse" gradientTransform="translate(67 10) rotate(90) scale(10)">
<stop offset="0.245192" stop-color="#91FF85"/>
<stop offset="0.850962" stop-color="#23611C"/>
</radialGradient>
<radialGradient id="paint2_radial_5595_102" cx="0" cy="0" r="1" gradientUnits="userSpaceOnUse" gradientTransform="translate(93.9999 10) rotate(90) scale(10)">
<stop offset="0.245192" stop-color="#91FF85"/>
<stop offset="0.850962" stop-color="#23611C"/>
</radialGradient>
</defs>
</svg>
