<svg width="134" height="277" viewBox="0 0 134 277" fill="none" xmlns="http://www.w3.org/2000/svg">
<path d="M67 2.5C83.9961 2.5 100.11 16.8741 112.124 41.7979C124.052 66.5448 131.5 100.908 131.5 139V274H2.5V139C2.5 100.908 9.94764 66.5448 21.876 41.7979C33.8896 16.8741 50.0039 2.5 67 2.5Z" stroke="#3F3F3F" stroke-width="5"/>
<path d="M113.5 2.5C113.686 2.5 114.417 2.64173 115.603 4.28906C116.732 5.85962 117.925 8.33575 119.118 11.7646C121.494 18.5915 123.676 28.6077 125.523 41.1494C129.21 66.195 131.5 100.881 131.5 139.251V274.5H95.5001V139.251C95.5001 100.881 97.7905 66.195 101.478 41.1494C103.324 28.6077 105.506 18.5915 107.882 11.7646C109.075 8.33575 110.268 5.85962 111.398 4.28906C112.583 2.64175 113.314 2.5 113.5 2.5Z" fill="#806624" stroke="#ACAE15" stroke-width="5"/>
</svg>
