<svg width="190" height="192" viewBox="0 0 190 192" fill="none" xmlns="http://www.w3.org/2000/svg">
<ellipse cx="121.115" cy="103.459" rx="8.93227" ry="22.8666" transform="rotate(-26.2158 121.115 103.459)" fill="url(#paint0_radial_5554_765)"/>
<ellipse cx="134.958" cy="135.605" rx="8.93227" ry="22.8666" transform="rotate(-37.2796 134.958 135.605)" fill="url(#paint1_radial_5554_765)"/>
<ellipse cx="116.648" cy="148.944" rx="12.5" ry="19.0458" transform="rotate(-10.1045 116.648 148.944)" fill="url(#paint2_radial_5554_765)"/>
<ellipse cx="123.656" cy="172.04" rx="12.5" ry="19.9364" transform="rotate(-8.06581 123.656 172.04)" fill="url(#paint3_radial_5554_765)"/>
<ellipse cx="102.923" cy="115.851" rx="26" ry="32" transform="rotate(9.49692 102.923 115.851)" fill="url(#paint4_radial_5554_765)"/>
<ellipse cx="92.1973" cy="144.412" rx="12.5" ry="19.0458" transform="rotate(22.2085 92.1973 144.412)" fill="url(#paint5_radial_5554_765)"/>
<ellipse cx="82.0194" cy="172.398" rx="12.5" ry="19.9364" transform="rotate(14.2382 82.0194 172.398)" fill="url(#paint6_radial_5554_765)"/>
<path d="M151.53 48.4344C155.329 70.757 143.634 89.3392 119.134 93.5093C94.6333 97.6795 66.6053 85.8585 62.8058 63.5359C58.6109 38.8903 69.38 20.8272 93.8805 16.6571C118.381 12.4869 147.73 26.1118 151.53 48.4344Z" fill="url(#paint7_radial_5554_765)"/>
<ellipse cx="102.97" cy="48.5595" rx="14" ry="16.5" transform="rotate(-35.4023 102.97 48.5595)" fill="black"/>
<ellipse cx="132.787" cy="43.6716" rx="11.6164" ry="14.6344" transform="rotate(5.34039 132.787 43.6716)" fill="black"/>
<circle cx="107.457" cy="43.7959" r="3" transform="rotate(-9.65961 107.457 43.7959)" fill="white"/>
<circle cx="134.557" cy="36.1396" r="3" transform="rotate(-9.65961 134.557 36.1396)" fill="white"/>
<ellipse cx="9.86958" cy="22.5314" rx="9.86958" ry="22.5314" transform="matrix(0.995592 0.0937889 0.0461126 0.998936 85.3282 92.5918)" fill="url(#paint8_radial_5554_765)"/>
<ellipse cx="8.59705" cy="25.7229" rx="8.59705" ry="25.7229" transform="matrix(0.457475 -0.889222 0.927642 0.373472 89 132.289)" fill="url(#paint9_radial_5554_765)"/>
<defs>
<radialGradient id="paint0_radial_5554_765" cx="0" cy="0" r="1" gradientTransform="matrix(-8.73377 23.1455 -9.0412 -26.9339 123.001 91.1894)" gradientUnits="userSpaceOnUse">
<stop stop-color="#D9FF60"/>
<stop offset="0.192308" stop-color="#D9FF60"/>
<stop offset="0.8125" stop-color="#126630"/>
<stop offset="0.9375" stop-color="#126630"/>
</radialGradient>
<radialGradient id="paint1_radial_5554_765" cx="0" cy="0" r="1" gradientTransform="matrix(-8.73377 23.1455 -9.0412 -26.9339 136.843 123.335)" gradientUnits="userSpaceOnUse">
<stop stop-color="#D9FF60"/>
<stop offset="0.192308" stop-color="#D9FF60"/>
<stop offset="0.8125" stop-color="#126630"/>
<stop offset="0.9375" stop-color="#126630"/>
</radialGradient>
<radialGradient id="paint2_radial_5554_765" cx="0" cy="0" r="1" gradientTransform="matrix(-12.2222 19.278 -12.6524 -22.4335 119.286 138.724)" gradientUnits="userSpaceOnUse">
<stop stop-color="#D9FF60"/>
<stop offset="0.192308" stop-color="#D9FF60"/>
<stop offset="0.8125" stop-color="#126630"/>
<stop offset="0.9375" stop-color="#126630"/>
</radialGradient>
<radialGradient id="paint3_radial_5554_765" cx="0" cy="0" r="1" gradientTransform="matrix(-12.2222 20.1796 -12.6524 -23.4825 126.295 161.342)" gradientUnits="userSpaceOnUse">
<stop stop-color="#D9FF60"/>
<stop offset="0.192308" stop-color="#D9FF60"/>
<stop offset="0.8125" stop-color="#126630"/>
<stop offset="0.9375" stop-color="#126630"/>
</radialGradient>
<radialGradient id="paint4_radial_5554_765" cx="0" cy="0" r="1" gradientTransform="matrix(-25.4222 32.3902 -26.3171 -37.6919 108.412 98.6805)" gradientUnits="userSpaceOnUse">
<stop stop-color="#D9FF60"/>
<stop offset="0.192308" stop-color="#D9FF60"/>
<stop offset="0.8125" stop-color="#126630"/>
<stop offset="0.9375" stop-color="#126630"/>
</radialGradient>
<radialGradient id="paint5_radial_5554_765" cx="0" cy="0" r="1" gradientTransform="matrix(-12.2222 19.278 -12.6524 -22.4335 94.8362 134.193)" gradientUnits="userSpaceOnUse">
<stop stop-color="#D9FF60"/>
<stop offset="0.192308" stop-color="#D9FF60"/>
<stop offset="0.8125" stop-color="#126630"/>
<stop offset="0.9375" stop-color="#126630"/>
</radialGradient>
<radialGradient id="paint6_radial_5554_765" cx="0" cy="0" r="1" gradientTransform="matrix(-12.2222 20.1796 -12.6524 -23.4825 84.6583 161.701)" gradientUnits="userSpaceOnUse">
<stop stop-color="#D9FF60"/>
<stop offset="0.192308" stop-color="#D9FF60"/>
<stop offset="0.8125" stop-color="#126630"/>
<stop offset="0.9375" stop-color="#126630"/>
</radialGradient>
<radialGradient id="paint7_radial_5554_765" cx="0" cy="0" r="1" gradientUnits="userSpaceOnUse" gradientTransform="translate(112.842 32.703) rotate(127.015) scale(60.4835 66.3843)">
<stop stop-color="#D9FF60"/>
<stop offset="0.192308" stop-color="#D9FF60"/>
<stop offset="0.8125" stop-color="#126630"/>
<stop offset="0.9375" stop-color="#126630"/>
</radialGradient>
<radialGradient id="paint8_radial_5554_765" cx="0" cy="0" r="1" gradientTransform="matrix(-9.65026 22.8061 -9.98994 -26.539 11.9532 10.4414)" gradientUnits="userSpaceOnUse">
<stop stop-color="#D9FF60"/>
<stop offset="0.192308" stop-color="#D9FF60"/>
<stop offset="0.8125" stop-color="#126630"/>
<stop offset="0.9375" stop-color="#126630"/>
</radialGradient>
<radialGradient id="paint9_radial_5554_765" cx="0" cy="0" r="1" gradientTransform="matrix(-8.40601 26.0366 -8.70189 -30.2982 10.412 11.9204)" gradientUnits="userSpaceOnUse">
<stop stop-color="#D9FF60"/>
<stop offset="0.192308" stop-color="#D9FF60"/>
<stop offset="0.8125" stop-color="#126630"/>
<stop offset="0.9375" stop-color="#126630"/>
</radialGradient>
</defs>
</svg>
