<svg width="190" height="195" viewBox="0 0 190 195" fill="none" xmlns="http://www.w3.org/2000/svg">
<ellipse cx="96.9236" cy="157.834" rx="26" ry="32" transform="rotate(9.49692 96.9236 157.834)" fill="url(#paint0_radial_5588_372)"/>
<path d="M145.53 90.4188C149.329 112.741 137.634 131.324 113.134 135.494C88.6334 139.664 60.6053 127.843 56.8058 105.52C52.611 80.8747 63.3801 62.8116 87.8805 58.6415C112.381 54.4713 141.73 68.0961 145.53 90.4188Z" fill="url(#paint1_radial_5588_372)"/>
<ellipse cx="96.9701" cy="90.5439" rx="14" ry="16.5" transform="rotate(-35.4023 96.9701 90.5439)" fill="black"/>
<ellipse cx="126.788" cy="85.6559" rx="11.6164" ry="14.6344" transform="rotate(5.34039 126.788 85.6559)" fill="black"/>
<circle cx="101.457" cy="85.7803" r="3" transform="rotate(-9.65961 101.457 85.7803)" fill="white"/>
<circle cx="128.557" cy="78.124" r="3" transform="rotate(-9.65961 128.557 78.124)" fill="white"/>
<ellipse cx="9.86958" cy="22.5314" rx="9.86958" ry="22.5314" transform="matrix(0.918111 0.396322 -0.264275 0.964447 83.9089 118)" fill="url(#paint2_radial_5588_372)"/>
<ellipse cx="8.59705" cy="25.7229" rx="8.59705" ry="25.7229" transform="matrix(-0.543186 -0.839612 0.785908 -0.618343 81.3396 173.25)" fill="url(#paint3_radial_5588_372)"/>
<ellipse cx="113.985" cy="160.05" rx="12.5" ry="19.0458" transform="rotate(-51.7216 113.985 160.05)" fill="url(#paint4_radial_5588_372)"/>
<ellipse cx="112.757" cy="178.119" rx="12.5" ry="19.9364" transform="rotate(51.6832 112.757 178.119)" fill="url(#paint5_radial_5588_372)"/>
<ellipse cx="91.5675" cy="162.694" rx="12.5" ry="19.0458" transform="rotate(-56.6412 91.5675 162.694)" fill="url(#paint6_radial_5588_372)"/>
<ellipse cx="89.0084" cy="178.909" rx="12.5" ry="19.9364" transform="rotate(54.5811 89.0084 178.909)" fill="url(#paint7_radial_5588_372)"/>
<defs>
<radialGradient id="paint0_radial_5588_372" cx="0" cy="0" r="1" gradientTransform="matrix(-25.4222 32.3902 -26.3171 -37.6919 102.413 140.663)" gradientUnits="userSpaceOnUse">
<stop stop-color="#60FFC1"/>
<stop offset="0.192308" stop-color="#60FFC1"/>
<stop offset="0.8125" stop-color="#126630"/>
<stop offset="0.9375" stop-color="#126630"/>
</radialGradient>
<radialGradient id="paint1_radial_5588_372" cx="0" cy="0" r="1" gradientUnits="userSpaceOnUse" gradientTransform="translate(106.842 74.6874) rotate(127.015) scale(60.4835 66.3843)">
<stop stop-color="#60FFC1"/>
<stop offset="0.192308" stop-color="#60FFC1"/>
<stop offset="0.8125" stop-color="#126630"/>
<stop offset="0.9375" stop-color="#126630"/>
</radialGradient>
<radialGradient id="paint2_radial_5588_372" cx="0" cy="0" r="1" gradientTransform="matrix(-9.65026 22.8061 -9.98994 -26.539 11.9532 10.4414)" gradientUnits="userSpaceOnUse">
<stop stop-color="#60FFC1"/>
<stop offset="0.192308" stop-color="#60FFC1"/>
<stop offset="0.8125" stop-color="#126630"/>
<stop offset="0.9375" stop-color="#126630"/>
</radialGradient>
<radialGradient id="paint3_radial_5588_372" cx="0" cy="0" r="1" gradientTransform="matrix(-8.40601 26.0366 -8.70189 -30.2982 10.412 11.9204)" gradientUnits="userSpaceOnUse">
<stop stop-color="#60FFC1"/>
<stop offset="0.192308" stop-color="#60FFC1"/>
<stop offset="0.8125" stop-color="#126630"/>
<stop offset="0.9375" stop-color="#126630"/>
</radialGradient>
<radialGradient id="paint4_radial_5588_372" cx="0" cy="0" r="1" gradientTransform="matrix(-12.2222 19.278 -12.6524 -22.4335 116.624 149.831)" gradientUnits="userSpaceOnUse">
<stop stop-color="#60FFC1"/>
<stop offset="0.192308" stop-color="#60FFC1"/>
<stop offset="0.8125" stop-color="#126630"/>
<stop offset="0.9375" stop-color="#126630"/>
</radialGradient>
<radialGradient id="paint5_radial_5588_372" cx="0" cy="0" r="1" gradientTransform="matrix(-12.2222 20.1796 -12.6524 -23.4825 115.396 167.422)" gradientUnits="userSpaceOnUse">
<stop stop-color="#60FFC1"/>
<stop offset="0.192308" stop-color="#60FFC1"/>
<stop offset="0.8125" stop-color="#126630"/>
<stop offset="0.9375" stop-color="#126630"/>
</radialGradient>
<radialGradient id="paint6_radial_5588_372" cx="0" cy="0" r="1" gradientTransform="matrix(-12.2222 19.278 -12.6524 -22.4335 94.2064 152.475)" gradientUnits="userSpaceOnUse">
<stop stop-color="#60FFC1"/>
<stop offset="0.192308" stop-color="#60FFC1"/>
<stop offset="0.8125" stop-color="#126630"/>
<stop offset="0.9375" stop-color="#126630"/>
</radialGradient>
<radialGradient id="paint7_radial_5588_372" cx="0" cy="0" r="1" gradientTransform="matrix(-12.2222 20.1796 -12.6524 -23.4825 91.6473 168.211)" gradientUnits="userSpaceOnUse">
<stop stop-color="#60FFC1"/>
<stop offset="0.192308" stop-color="#60FFC1"/>
<stop offset="0.8125" stop-color="#126630"/>
<stop offset="0.9375" stop-color="#126630"/>
</radialGradient>
</defs>
</svg>
