<svg width="190" height="191" viewBox="0 0 190 191" fill="none" xmlns="http://www.w3.org/2000/svg">
<ellipse cx="120.036" cy="108.299" rx="8.93227" ry="22.8666" transform="rotate(-29.5059 120.036 108.299)" fill="url(#paint0_radial_5536_320)"/>
<ellipse cx="142.997" cy="118.268" rx="8.93227" ry="22.8666" transform="rotate(-89.1542 142.997 118.268)" fill="url(#paint1_radial_5536_320)"/>
<ellipse cx="109.162" cy="143.599" rx="12.5" ry="19.0458" transform="rotate(-23.8039 109.162 143.599)" fill="url(#paint2_radial_5536_320)"/>
<ellipse cx="115.253" cy="170.398" rx="12.5" ry="19.9364" transform="rotate(2.19066 115.253 170.398)" fill="url(#paint3_radial_5536_320)"/>
<ellipse cx="94.924" cy="115.851" rx="26" ry="32" transform="rotate(9.49692 94.924 115.851)" fill="url(#paint4_radial_5536_320)"/>
<ellipse cx="79.0287" cy="141.384" rx="12.5" ry="19.0458" transform="rotate(24.0701 79.0287 141.384)" fill="url(#paint5_radial_5536_320)"/>
<ellipse cx="65.2275" cy="171.539" rx="12.5" ry="19.9364" transform="rotate(22.9838 65.2275 171.539)" fill="url(#paint6_radial_5536_320)"/>
<path d="M133.53 48.4344C137.33 70.757 125.635 89.3392 101.134 93.5093C76.6339 97.6795 48.6058 85.8585 44.8063 63.5359C40.6115 38.8903 51.3806 20.8272 75.881 16.6571C100.381 12.4869 129.731 26.1118 133.53 48.4344Z" fill="url(#paint7_radial_5536_320)"/>
<ellipse cx="84.9707" cy="48.5595" rx="14" ry="16.5" transform="rotate(-35.4023 84.9707 48.5595)" fill="black"/>
<ellipse cx="114.788" cy="43.6716" rx="11.6164" ry="14.6344" transform="rotate(5.34039 114.788 43.6716)" fill="black"/>
<circle cx="89.4579" cy="43.7959" r="3" transform="rotate(-9.65961 89.4579 43.7959)" fill="white"/>
<circle cx="116.558" cy="36.1396" r="3" transform="rotate(-9.65961 116.558 36.1396)" fill="white"/>
<ellipse cx="9.86958" cy="22.5314" rx="9.86958" ry="22.5314" transform="matrix(0.976768 -0.214298 0.348555 0.937288 88.6688 92.5801)" fill="url(#paint8_radial_5536_320)"/>
<ellipse cx="8.59705" cy="25.7229" rx="8.59705" ry="25.7229" transform="matrix(0.109901 -0.993943 0.999843 0.0177171 104.001 132.088)" fill="url(#paint9_radial_5536_320)"/>
<defs>
<radialGradient id="paint0_radial_5536_320" cx="0" cy="0" r="1" gradientTransform="matrix(-8.73377 23.1455 -9.0412 -26.9339 121.922 96.0287)" gradientUnits="userSpaceOnUse">
<stop stop-color="#D9FF60"/>
<stop offset="0.192308" stop-color="#D9FF60"/>
<stop offset="0.8125" stop-color="#126630"/>
<stop offset="0.9375" stop-color="#126630"/>
</radialGradient>
<radialGradient id="paint1_radial_5536_320" cx="0" cy="0" r="1" gradientTransform="matrix(-8.73377 23.1455 -9.0412 -26.9339 144.882 105.998)" gradientUnits="userSpaceOnUse">
<stop stop-color="#D9FF60"/>
<stop offset="0.192308" stop-color="#D9FF60"/>
<stop offset="0.8125" stop-color="#126630"/>
<stop offset="0.9375" stop-color="#126630"/>
</radialGradient>
<radialGradient id="paint2_radial_5536_320" cx="0" cy="0" r="1" gradientTransform="matrix(-12.2222 19.278 -12.6524 -22.4335 111.801 133.38)" gradientUnits="userSpaceOnUse">
<stop stop-color="#D9FF60"/>
<stop offset="0.192308" stop-color="#D9FF60"/>
<stop offset="0.8125" stop-color="#126630"/>
<stop offset="0.9375" stop-color="#126630"/>
</radialGradient>
<radialGradient id="paint3_radial_5536_320" cx="0" cy="0" r="1" gradientTransform="matrix(-12.2222 20.1796 -12.6524 -23.4825 117.892 159.7)" gradientUnits="userSpaceOnUse">
<stop stop-color="#D9FF60"/>
<stop offset="0.192308" stop-color="#D9FF60"/>
<stop offset="0.8125" stop-color="#126630"/>
<stop offset="0.9375" stop-color="#126630"/>
</radialGradient>
<radialGradient id="paint4_radial_5536_320" cx="0" cy="0" r="1" gradientTransform="matrix(-25.4222 32.3902 -26.3171 -37.6919 100.413 98.6805)" gradientUnits="userSpaceOnUse">
<stop stop-color="#D9FF60"/>
<stop offset="0.192308" stop-color="#D9FF60"/>
<stop offset="0.8125" stop-color="#126630"/>
<stop offset="0.9375" stop-color="#126630"/>
</radialGradient>
<radialGradient id="paint5_radial_5536_320" cx="0" cy="0" r="1" gradientTransform="matrix(-12.2222 19.278 -12.6524 -22.4335 81.6676 131.165)" gradientUnits="userSpaceOnUse">
<stop stop-color="#D9FF60"/>
<stop offset="0.192308" stop-color="#D9FF60"/>
<stop offset="0.8125" stop-color="#126630"/>
<stop offset="0.9375" stop-color="#126630"/>
</radialGradient>
<radialGradient id="paint6_radial_5536_320" cx="0" cy="0" r="1" gradientTransform="matrix(-12.2222 20.1796 -12.6524 -23.4825 67.8664 160.842)" gradientUnits="userSpaceOnUse">
<stop stop-color="#D9FF60"/>
<stop offset="0.192308" stop-color="#D9FF60"/>
<stop offset="0.8125" stop-color="#126630"/>
<stop offset="0.9375" stop-color="#126630"/>
</radialGradient>
<radialGradient id="paint7_radial_5536_320" cx="0" cy="0" r="1" gradientUnits="userSpaceOnUse" gradientTransform="translate(94.8422 32.703) rotate(127.015) scale(60.4835 66.3843)">
<stop stop-color="#D9FF60"/>
<stop offset="0.192308" stop-color="#D9FF60"/>
<stop offset="0.8125" stop-color="#126630"/>
<stop offset="0.9375" stop-color="#126630"/>
</radialGradient>
<radialGradient id="paint8_radial_5536_320" cx="0" cy="0" r="1" gradientTransform="matrix(-9.65026 22.8061 -9.98994 -26.539 11.9532 10.4414)" gradientUnits="userSpaceOnUse">
<stop stop-color="#D9FF60"/>
<stop offset="0.192308" stop-color="#D9FF60"/>
<stop offset="0.8125" stop-color="#126630"/>
<stop offset="0.9375" stop-color="#126630"/>
</radialGradient>
<radialGradient id="paint9_radial_5536_320" cx="0" cy="0" r="1" gradientTransform="matrix(-8.40601 26.0366 -8.70189 -30.2982 10.412 11.9204)" gradientUnits="userSpaceOnUse">
<stop stop-color="#D9FF60"/>
<stop offset="0.192308" stop-color="#D9FF60"/>
<stop offset="0.8125" stop-color="#126630"/>
<stop offset="0.9375" stop-color="#126630"/>
</radialGradient>
</defs>
</svg>
