<svg width="190" height="190" viewBox="0 0 190 190" fill="none" xmlns="http://www.w3.org/2000/svg">
<ellipse cx="105.658" cy="115.786" rx="8.93227" ry="22.8666" transform="rotate(-7.01447 105.658 115.786)" fill="url(#paint0_radial_5588_194)"/>
<ellipse cx="122.115" cy="130.59" rx="8.93227" ry="22.8666" transform="rotate(-91.6579 122.115 130.59)" fill="url(#paint1_radial_5588_194)"/>
<ellipse cx="106.565" cy="146.768" rx="12.5" ry="19.0458" transform="rotate(-31.2413 106.565 146.768)" fill="url(#paint2_radial_5588_194)"/>
<ellipse cx="107.058" cy="165.415" rx="12.5" ry="19.9364" transform="rotate(14.3732 107.058 165.415)" fill="url(#paint3_radial_5588_194)"/>
<ellipse cx="102.924" cy="115.851" rx="26" ry="32" transform="rotate(9.49692 102.924 115.851)" fill="url(#paint4_radial_5588_194)"/>
<ellipse cx="90.8866" cy="106.011" rx="8.93227" ry="22.8666" transform="rotate(41.7304 90.8866 106.011)" fill="url(#paint5_radial_5588_194)"/>
<ellipse cx="83.0827" cy="126.617" rx="8.93227" ry="22.8666" transform="rotate(5.49961 83.0827 126.617)" fill="url(#paint6_radial_5588_194)"/>
<ellipse cx="94.693" cy="148.483" rx="12.5" ry="19.0458" transform="rotate(13.8398 94.693 148.483)" fill="url(#paint7_radial_5588_194)"/>
<ellipse cx="78.2378" cy="159.703" rx="12.5" ry="19.9364" transform="rotate(96.5819 78.2378 159.703)" fill="url(#paint8_radial_5588_194)"/>
<path d="M152 50C152 72.6437 137.353 89 112.5 89C87.6472 89 62 72.6437 62 50C62 25 75.6473 9 100.5 9C125.353 9 152 27.3563 152 50Z" fill="url(#paint9_radial_5588_194)"/>
<ellipse cx="110.777" cy="46.94" rx="14" ry="16.5" transform="rotate(-25.7427 110.777 46.94)" fill="black"/>
<circle cx="116" cy="42.9961" r="3" fill="white"/>
<ellipse cx="140.46" cy="47.5222" rx="10.0959" ry="14.6344" transform="rotate(15 140.46 47.5222)" fill="black"/>
<circle cx="142" cy="40" r="3" fill="white"/>
<defs>
<radialGradient id="paint0_radial_5588_194" cx="0" cy="0" r="1" gradientTransform="matrix(-8.73377 23.1455 -9.0412 -26.9339 107.544 103.516)" gradientUnits="userSpaceOnUse">
<stop stop-color="#60FFC5"/>
<stop offset="0.192308" stop-color="#60FFBA"/>
<stop offset="0.8125" stop-color="#255F3A"/>
<stop offset="0.9375" stop-color="#126630"/>
</radialGradient>
<radialGradient id="paint1_radial_5588_194" cx="0" cy="0" r="1" gradientTransform="matrix(-8.73377 23.1455 -9.0412 -26.9339 124.001 118.32)" gradientUnits="userSpaceOnUse">
<stop stop-color="#60FFC5"/>
<stop offset="0.192308" stop-color="#60FFBA"/>
<stop offset="0.8125" stop-color="#255F3A"/>
<stop offset="0.9375" stop-color="#126630"/>
</radialGradient>
<radialGradient id="paint2_radial_5588_194" cx="0" cy="0" r="1" gradientTransform="matrix(-12.2222 19.278 -12.6524 -22.4335 109.204 136.548)" gradientUnits="userSpaceOnUse">
<stop stop-color="#60FFC5"/>
<stop offset="0.192308" stop-color="#60FFBA"/>
<stop offset="0.8125" stop-color="#255F3A"/>
<stop offset="0.9375" stop-color="#126630"/>
</radialGradient>
<radialGradient id="paint3_radial_5588_194" cx="0" cy="0" r="1" gradientTransform="matrix(-12.2222 20.1796 -12.6524 -23.4825 109.697 154.718)" gradientUnits="userSpaceOnUse">
<stop stop-color="#60FFC5"/>
<stop offset="0.192308" stop-color="#60FFBA"/>
<stop offset="0.8125" stop-color="#255F3A"/>
<stop offset="0.9375" stop-color="#126630"/>
</radialGradient>
<radialGradient id="paint4_radial_5588_194" cx="0" cy="0" r="1" gradientTransform="matrix(-25.4222 32.3902 -26.3171 -37.6919 108.412 98.6805)" gradientUnits="userSpaceOnUse">
<stop stop-color="#60FFC5"/>
<stop offset="0.192308" stop-color="#60FFBA"/>
<stop offset="0.8125" stop-color="#255F3A"/>
<stop offset="0.9375" stop-color="#126630"/>
</radialGradient>
<radialGradient id="paint5_radial_5588_194" cx="0" cy="0" r="1" gradientTransform="matrix(-8.73377 23.1455 -9.0412 -26.9339 92.7723 93.7407)" gradientUnits="userSpaceOnUse">
<stop stop-color="#60FFC5"/>
<stop offset="0.192308" stop-color="#60FFBA"/>
<stop offset="0.8125" stop-color="#255F3A"/>
<stop offset="0.9375" stop-color="#126630"/>
</radialGradient>
<radialGradient id="paint6_radial_5588_194" cx="0" cy="0" r="1" gradientTransform="matrix(-8.73377 23.1455 -9.0412 -26.9339 84.9684 114.348)" gradientUnits="userSpaceOnUse">
<stop stop-color="#60FFC5"/>
<stop offset="0.192308" stop-color="#60FFBA"/>
<stop offset="0.8125" stop-color="#255F3A"/>
<stop offset="0.9375" stop-color="#126630"/>
</radialGradient>
<radialGradient id="paint7_radial_5588_194" cx="0" cy="0" r="1" gradientTransform="matrix(-12.2222 19.278 -12.6524 -22.4335 97.3319 138.263)" gradientUnits="userSpaceOnUse">
<stop stop-color="#60FFC5"/>
<stop offset="0.192308" stop-color="#60FFBA"/>
<stop offset="0.8125" stop-color="#255F3A"/>
<stop offset="0.9375" stop-color="#126630"/>
</radialGradient>
<radialGradient id="paint8_radial_5588_194" cx="0" cy="0" r="1" gradientTransform="matrix(-12.2222 20.1796 -12.6524 -23.4825 80.8766 149.005)" gradientUnits="userSpaceOnUse">
<stop stop-color="#60FFC5"/>
<stop offset="0.192308" stop-color="#60FFBA"/>
<stop offset="0.8125" stop-color="#255F3A"/>
<stop offset="0.9375" stop-color="#126630"/>
</radialGradient>
<radialGradient id="paint9_radial_5588_194" cx="0" cy="0" r="1" gradientUnits="userSpaceOnUse" gradientTransform="translate(116.5 28) rotate(136.675) scale(60.4835 66.3843)">
<stop stop-color="#60FFC1"/>
<stop offset="0.192308" stop-color="#60FFC1"/>
<stop offset="0.8125" stop-color="#126630"/>
<stop offset="0.9375" stop-color="#126630"/>
</radialGradient>
</defs>
</svg>
