<svg width="190" height="190" viewBox="0 0 190 190" fill="none" xmlns="http://www.w3.org/2000/svg">
<path d="M152 50C152 72.6437 137.353 89 112.5 89C87.6471 89 61.9999 72.6437 61.9999 50C61.9999 25 75.6472 9 100.5 9C125.353 9 152 27.3563 152 50Z" fill="url(#paint0_radial_5588_213)"/>
<ellipse cx="105.658" cy="115.786" rx="8.93227" ry="22.8666" transform="rotate(-7.01447 105.658 115.786)" fill="url(#paint1_radial_5588_213)"/>
<ellipse cx="82.0577" cy="163.416" rx="12.5" ry="19.9364" transform="rotate(36.3276 82.0577 163.416)" fill="url(#paint2_radial_5588_213)"/>
<ellipse cx="95.5734" cy="143.424" rx="12.5" ry="19.0458" transform="rotate(13.3991 95.5734 143.424)" fill="url(#paint3_radial_5588_213)"/>
<ellipse cx="102.924" cy="115.851" rx="26" ry="32" transform="rotate(9.49692 102.924 115.851)" fill="url(#paint4_radial_5588_213)"/>
<ellipse cx="122.722" cy="126.726" rx="8.93227" ry="22.8666" transform="rotate(-53.7449 122.722 126.726)" fill="url(#paint5_radial_5588_213)"/>
<ellipse cx="108.161" cy="107.342" rx="8.93227" ry="22.8666" transform="rotate(-13.8913 108.161 107.342)" fill="url(#paint6_radial_5588_213)"/>
<ellipse cx="117.627" cy="157.22" rx="12.5" ry="19.9364" transform="rotate(12.8724 117.627 157.22)" fill="url(#paint7_radial_5588_213)"/>
<ellipse cx="111.331" cy="140.692" rx="12.5" ry="19.0458" transform="rotate(-68.1383 111.331 140.692)" fill="url(#paint8_radial_5588_213)"/>
<ellipse cx="112.777" cy="48.942" rx="14" ry="16.5" transform="rotate(-25.7427 112.777 48.942)" fill="black"/>
<circle cx="118" cy="44.998" r="3" fill="white"/>
<ellipse cx="8.34254" cy="14.4668" rx="8.34254" ry="14.4668" transform="matrix(0.949682 0.313217 -0.212708 0.977116 136.154 31.7734)" fill="black"/>
<ellipse cx="142.251" cy="41" rx="2.43729" ry="3" fill="white"/>
<defs>
<radialGradient id="paint0_radial_5588_213" cx="0" cy="0" r="1" gradientUnits="userSpaceOnUse" gradientTransform="translate(116.5 28) rotate(136.675) scale(60.4835 66.3843)">
<stop stop-color="#60FFC1"/>
<stop offset="0.192308" stop-color="#60FFC1"/>
<stop offset="0.8125" stop-color="#126630"/>
<stop offset="0.9375" stop-color="#126630"/>
</radialGradient>
<radialGradient id="paint1_radial_5588_213" cx="0" cy="0" r="1" gradientTransform="matrix(-8.73377 23.1455 -9.0412 -26.9339 107.544 103.516)" gradientUnits="userSpaceOnUse">
<stop stop-color="#60FFC5"/>
<stop offset="0.192308" stop-color="#60FFBA"/>
<stop offset="0.8125" stop-color="#255F3A"/>
<stop offset="0.9375" stop-color="#126630"/>
</radialGradient>
<radialGradient id="paint2_radial_5588_213" cx="0" cy="0" r="1" gradientTransform="matrix(-12.2222 20.1796 -12.6524 -23.4825 84.6966 152.718)" gradientUnits="userSpaceOnUse">
<stop stop-color="#60FFC5"/>
<stop offset="0.192308" stop-color="#60FFBA"/>
<stop offset="0.8125" stop-color="#255F3A"/>
<stop offset="0.9375" stop-color="#126630"/>
</radialGradient>
<radialGradient id="paint3_radial_5588_213" cx="0" cy="0" r="1" gradientTransform="matrix(-12.2222 19.278 -12.6524 -22.4335 98.2122 133.204)" gradientUnits="userSpaceOnUse">
<stop stop-color="#60FFC5"/>
<stop offset="0.192308" stop-color="#60FFBA"/>
<stop offset="0.8125" stop-color="#255F3A"/>
<stop offset="0.9375" stop-color="#126630"/>
</radialGradient>
<radialGradient id="paint4_radial_5588_213" cx="0" cy="0" r="1" gradientTransform="matrix(-25.4222 32.3902 -26.3171 -37.6919 108.412 98.6805)" gradientUnits="userSpaceOnUse">
<stop stop-color="#60FFC5"/>
<stop offset="0.192308" stop-color="#60FFBA"/>
<stop offset="0.8125" stop-color="#255F3A"/>
<stop offset="0.9375" stop-color="#126630"/>
</radialGradient>
<radialGradient id="paint5_radial_5588_213" cx="0" cy="0" r="1" gradientTransform="matrix(-8.73377 23.1455 -9.0412 -26.9339 124.608 114.456)" gradientUnits="userSpaceOnUse">
<stop stop-color="#60FFC5"/>
<stop offset="0.192308" stop-color="#60FFBA"/>
<stop offset="0.8125" stop-color="#255F3A"/>
<stop offset="0.9375" stop-color="#126630"/>
</radialGradient>
<radialGradient id="paint6_radial_5588_213" cx="0" cy="0" r="1" gradientTransform="matrix(-8.73377 23.1455 -9.0412 -26.9339 110.047 95.0725)" gradientUnits="userSpaceOnUse">
<stop stop-color="#60FFC5"/>
<stop offset="0.192308" stop-color="#60FFBA"/>
<stop offset="0.8125" stop-color="#255F3A"/>
<stop offset="0.9375" stop-color="#126630"/>
</radialGradient>
<radialGradient id="paint7_radial_5588_213" cx="0" cy="0" r="1" gradientTransform="matrix(-12.2222 20.1796 -12.6524 -23.4825 120.266 146.523)" gradientUnits="userSpaceOnUse">
<stop stop-color="#60FFC5"/>
<stop offset="0.192308" stop-color="#60FFBA"/>
<stop offset="0.8125" stop-color="#255F3A"/>
<stop offset="0.9375" stop-color="#126630"/>
</radialGradient>
<radialGradient id="paint8_radial_5588_213" cx="0" cy="0" r="1" gradientTransform="matrix(-12.2222 19.278 -12.6524 -22.4335 113.97 130.472)" gradientUnits="userSpaceOnUse">
<stop stop-color="#60FFC5"/>
<stop offset="0.192308" stop-color="#60FFBA"/>
<stop offset="0.8125" stop-color="#255F3A"/>
<stop offset="0.9375" stop-color="#126630"/>
</radialGradient>
</defs>
</svg>
