<svg width="190" height="194" viewBox="0 0 190 194" fill="none" xmlns="http://www.w3.org/2000/svg">
<ellipse cx="94.1532" cy="161.66" rx="26" ry="32" transform="rotate(-65.5031 94.1532 161.66)" fill="url(#paint0_radial_5588_444)"/>
<path d="M123.931 99.9719C135.253 119.582 130.746 141.07 109.223 153.497C87.6998 165.923 57.3105 164.582 45.9886 144.972C33.4886 123.321 37.3076 102.641 58.8307 90.2148C80.3539 77.7884 112.609 80.3619 123.931 99.9719Z" fill="url(#paint1_radial_5588_444)"/>
<ellipse cx="78.4428" cy="116.969" rx="14" ry="16.5" transform="rotate(-55.7427 78.4428 116.969)" fill="black"/>
<ellipse cx="104.702" cy="102.022" rx="11.6164" ry="14.6344" transform="rotate(-15 104.702 102.022)" fill="black"/>
<circle cx="80.9944" cy="110.942" r="3" transform="rotate(-30 80.9944 110.942)" fill="white"/>
<circle cx="103.743" cy="94.3442" r="3" transform="rotate(-30 103.743 94.3442)" fill="white"/>
<ellipse cx="9.86958" cy="22.5314" rx="9.86958" ry="22.5314" transform="matrix(0.620443 -0.784252 0.863185 0.504887 52.3081 163.922)" fill="url(#paint2_radial_5588_444)"/>
<ellipse cx="8.59705" cy="25.7229" rx="8.59705" ry="25.7229" transform="matrix(-0.95159 0.30737 -0.393865 -0.919168 105.01 180.703)" fill="url(#paint3_radial_5588_444)"/>
<ellipse cx="100.71" cy="145.753" rx="12.5" ry="19.0458" transform="rotate(-126.722 100.71 145.753)" fill="url(#paint4_radial_5588_444)"/>
<ellipse cx="117.846" cy="151.616" rx="12.5" ry="19.9364" transform="rotate(-23.3168 117.846 151.616)" fill="url(#paint5_radial_5588_444)"/>
<ellipse cx="97.4623" cy="168.093" rx="12.5" ry="19.0458" transform="rotate(-131.641 97.4623 168.093)" fill="url(#paint6_radial_5588_444)"/>
<ellipse cx="112.46" cy="174.76" rx="12.5" ry="19.9364" transform="rotate(-20.4189 112.46 174.76)" fill="url(#paint7_radial_5588_444)"/>
<defs>
<radialGradient id="paint0_radial_5588_444" cx="0" cy="0" r="1" gradientTransform="matrix(-25.4222 32.3902 -26.3171 -37.6919 99.642 144.489)" gradientUnits="userSpaceOnUse">
<stop stop-color="#60FFC1"/>
<stop offset="0.192308" stop-color="#60FFC1"/>
<stop offset="0.8125" stop-color="#126630"/>
<stop offset="0.9375" stop-color="#126630"/>
</radialGradient>
<radialGradient id="paint1_radial_5588_444" cx="0" cy="0" r="1" gradientUnits="userSpaceOnUse" gradientTransform="translate(82.187 98.6693) rotate(106.675) scale(60.4835 66.3843)">
<stop stop-color="#60FFC1"/>
<stop offset="0.192308" stop-color="#60FFC1"/>
<stop offset="0.8125" stop-color="#126630"/>
<stop offset="0.9375" stop-color="#126630"/>
</radialGradient>
<radialGradient id="paint2_radial_5588_444" cx="0" cy="0" r="1" gradientTransform="matrix(-9.65026 22.8061 -9.98994 -26.539 11.9532 10.4414)" gradientUnits="userSpaceOnUse">
<stop stop-color="#60FFC1"/>
<stop offset="0.192308" stop-color="#60FFC1"/>
<stop offset="0.8125" stop-color="#126630"/>
<stop offset="0.9375" stop-color="#126630"/>
</radialGradient>
<radialGradient id="paint3_radial_5588_444" cx="0" cy="0" r="1" gradientTransform="matrix(-8.40601 26.0366 -8.70189 -30.2982 10.412 11.9204)" gradientUnits="userSpaceOnUse">
<stop stop-color="#60FFC1"/>
<stop offset="0.192308" stop-color="#60FFC1"/>
<stop offset="0.8125" stop-color="#126630"/>
<stop offset="0.9375" stop-color="#126630"/>
</radialGradient>
<radialGradient id="paint4_radial_5588_444" cx="0" cy="0" r="1" gradientTransform="matrix(-12.2222 19.278 -12.6524 -22.4335 103.349 135.533)" gradientUnits="userSpaceOnUse">
<stop stop-color="#60FFC1"/>
<stop offset="0.192308" stop-color="#60FFC1"/>
<stop offset="0.8125" stop-color="#126630"/>
<stop offset="0.9375" stop-color="#126630"/>
</radialGradient>
<radialGradient id="paint5_radial_5588_444" cx="0" cy="0" r="1" gradientTransform="matrix(-12.2222 20.1796 -12.6524 -23.4825 120.484 140.919)" gradientUnits="userSpaceOnUse">
<stop stop-color="#60FFC1"/>
<stop offset="0.192308" stop-color="#60FFC1"/>
<stop offset="0.8125" stop-color="#126630"/>
<stop offset="0.9375" stop-color="#126630"/>
</radialGradient>
<radialGradient id="paint6_radial_5588_444" cx="0" cy="0" r="1" gradientTransform="matrix(-12.2222 19.278 -12.6524 -22.4335 100.101 157.873)" gradientUnits="userSpaceOnUse">
<stop stop-color="#60FFC1"/>
<stop offset="0.192308" stop-color="#60FFC1"/>
<stop offset="0.8125" stop-color="#126630"/>
<stop offset="0.9375" stop-color="#126630"/>
</radialGradient>
<radialGradient id="paint7_radial_5588_444" cx="0" cy="0" r="1" gradientTransform="matrix(-12.2222 20.1796 -12.6524 -23.4825 115.099 164.063)" gradientUnits="userSpaceOnUse">
<stop stop-color="#60FFC1"/>
<stop offset="0.192308" stop-color="#60FFC1"/>
<stop offset="0.8125" stop-color="#126630"/>
<stop offset="0.9375" stop-color="#126630"/>
</radialGradient>
</defs>
</svg>
