<svg width="190" height="190" viewBox="0 0 190 190" fill="none" xmlns="http://www.w3.org/2000/svg">
<ellipse cx="113.875" cy="104.487" rx="8.93227" ry="22.8666" transform="rotate(-25.3925 113.875 104.487)" fill="url(#paint0_radial_5588_67)"/>
<ellipse cx="137.848" cy="116.884" rx="8.93227" ry="22.8666" transform="rotate(-97.6144 137.848 116.884)" fill="url(#paint1_radial_5588_67)"/>
<ellipse cx="109.242" cy="143.367" rx="12.5" ry="19.0458" transform="rotate(-44.2313 109.242 143.367)" fill="url(#paint2_radial_5588_67)"/>
<ellipse cx="122.934" cy="165.803" rx="12.5" ry="19.9364" transform="rotate(-22.1318 122.934 165.803)" fill="url(#paint3_radial_5588_67)"/>
<ellipse cx="102.923" cy="115.851" rx="26" ry="32" transform="rotate(9.49692 102.923 115.851)" fill="url(#paint4_radial_5588_67)"/>
<ellipse cx="86.4129" cy="101.648" rx="8.93227" ry="22.8666" transform="rotate(74.7052 86.4129 101.648)" fill="url(#paint5_radial_5588_67)"/>
<ellipse cx="63.8309" cy="121.492" rx="8.93227" ry="22.8666" transform="rotate(25.2429 63.8309 121.492)" fill="url(#paint6_radial_5588_67)"/>
<ellipse cx="89.6893" cy="142.776" rx="12.5" ry="19.0458" transform="rotate(31.9757 89.6893 142.776)" fill="url(#paint7_radial_5588_67)"/>
<ellipse cx="69.4642" cy="167.893" rx="12.5" ry="19.9364" transform="rotate(53.5937 69.4642 167.893)" fill="url(#paint8_radial_5588_67)"/>
<path d="M152 56C152 78.6437 137.353 95 112.5 95C87.6472 95 62 78.6437 62 56C62 31 75.6473 15 100.5 15C125.353 15 152 33.3563 152 56Z" fill="url(#paint9_radial_5588_67)"/>
<path d="M116.388 46.8627C120.346 55.071 117.531 64.6295 110.101 68.2124C102.67 71.7952 93.4579 66.7083 89.5 58.5C85.5421 50.2917 88.3374 42.0703 95.7677 38.4875C103.198 34.9047 112.43 38.6544 116.388 46.8627Z" fill="black"/>
<ellipse cx="133.992" cy="53.1286" rx="11.6164" ry="14.6344" transform="rotate(15 133.992 53.1286)" fill="black"/>
<circle cx="109" cy="49" r="3" fill="white"/>
<circle cx="137" cy="46" r="3" fill="white"/>
<defs>
<radialGradient id="paint0_radial_5588_67" cx="0" cy="0" r="1" gradientTransform="matrix(-8.73377 23.1455 -9.0412 -26.9339 115.761 92.2175)" gradientUnits="userSpaceOnUse">
<stop stop-color="#60FFC5"/>
<stop offset="0.192308" stop-color="#60FFBA"/>
<stop offset="0.8125" stop-color="#255F3A"/>
<stop offset="0.9375" stop-color="#126630"/>
</radialGradient>
<radialGradient id="paint1_radial_5588_67" cx="0" cy="0" r="1" gradientTransform="matrix(-8.73377 23.1455 -9.0412 -26.9339 139.734 104.614)" gradientUnits="userSpaceOnUse">
<stop stop-color="#60FFC5"/>
<stop offset="0.192308" stop-color="#60FFBA"/>
<stop offset="0.8125" stop-color="#255F3A"/>
<stop offset="0.9375" stop-color="#126630"/>
</radialGradient>
<radialGradient id="paint2_radial_5588_67" cx="0" cy="0" r="1" gradientTransform="matrix(-12.2222 19.278 -12.6524 -22.4335 111.881 133.147)" gradientUnits="userSpaceOnUse">
<stop stop-color="#60FFC5"/>
<stop offset="0.192308" stop-color="#60FFBA"/>
<stop offset="0.8125" stop-color="#255F3A"/>
<stop offset="0.9375" stop-color="#126630"/>
</radialGradient>
<radialGradient id="paint3_radial_5588_67" cx="0" cy="0" r="1" gradientTransform="matrix(-12.2222 20.1796 -12.6524 -23.4825 125.573 155.106)" gradientUnits="userSpaceOnUse">
<stop stop-color="#60FFC5"/>
<stop offset="0.192308" stop-color="#60FFBA"/>
<stop offset="0.8125" stop-color="#255F3A"/>
<stop offset="0.9375" stop-color="#126630"/>
</radialGradient>
<radialGradient id="paint4_radial_5588_67" cx="0" cy="0" r="1" gradientTransform="matrix(-25.4222 32.3902 -26.3171 -37.6919 108.412 98.6805)" gradientUnits="userSpaceOnUse">
<stop stop-color="#60FFC5"/>
<stop offset="0.192308" stop-color="#60FFBA"/>
<stop offset="0.8125" stop-color="#255F3A"/>
<stop offset="0.9375" stop-color="#126630"/>
</radialGradient>
<radialGradient id="paint5_radial_5588_67" cx="0" cy="0" r="1" gradientTransform="matrix(-8.73377 23.1455 -9.0412 -26.9339 88.2986 89.3779)" gradientUnits="userSpaceOnUse">
<stop stop-color="#60FFC5"/>
<stop offset="0.192308" stop-color="#60FFBA"/>
<stop offset="0.8125" stop-color="#255F3A"/>
<stop offset="0.9375" stop-color="#126630"/>
</radialGradient>
<radialGradient id="paint6_radial_5588_67" cx="0" cy="0" r="1" gradientTransform="matrix(-8.73377 23.1455 -9.0412 -26.9339 65.7166 109.222)" gradientUnits="userSpaceOnUse">
<stop stop-color="#60FFC5"/>
<stop offset="0.192308" stop-color="#60FFBA"/>
<stop offset="0.8125" stop-color="#255F3A"/>
<stop offset="0.9375" stop-color="#126630"/>
</radialGradient>
<radialGradient id="paint7_radial_5588_67" cx="0" cy="0" r="1" gradientTransform="matrix(-12.2222 19.278 -12.6524 -22.4335 92.3282 132.556)" gradientUnits="userSpaceOnUse">
<stop stop-color="#60FFC5"/>
<stop offset="0.192308" stop-color="#60FFBA"/>
<stop offset="0.8125" stop-color="#255F3A"/>
<stop offset="0.9375" stop-color="#126630"/>
</radialGradient>
<radialGradient id="paint8_radial_5588_67" cx="0" cy="0" r="1" gradientTransform="matrix(-12.2222 20.1796 -12.6524 -23.4825 72.1031 157.195)" gradientUnits="userSpaceOnUse">
<stop stop-color="#60FFC5"/>
<stop offset="0.192308" stop-color="#60FFBA"/>
<stop offset="0.8125" stop-color="#255F3A"/>
<stop offset="0.9375" stop-color="#126630"/>
</radialGradient>
<radialGradient id="paint9_radial_5588_67" cx="0" cy="0" r="1" gradientUnits="userSpaceOnUse" gradientTransform="translate(116.5 34) rotate(136.675) scale(60.4835 66.3843)">
<stop stop-color="#60FFC1"/>
<stop offset="0.192308" stop-color="#60FFC1"/>
<stop offset="0.8125" stop-color="#126630"/>
<stop offset="0.9375" stop-color="#126630"/>
</radialGradient>
</defs>
</svg>
