<svg width="190" height="191" viewBox="0 0 190 191" fill="none" xmlns="http://www.w3.org/2000/svg">
<ellipse cx="82.7455" cy="114.294" rx="26" ry="32" transform="rotate(99.4969 82.7455 114.294)" fill="url(#paint0_radial_5542_465)"/>
<path d="M69.9484 181.588C53.937 165.576 52.7284 143.653 70.302 126.08C87.8756 108.506 117.577 101.937 133.588 117.948C151.266 135.626 152.929 156.59 135.356 174.163C117.782 191.737 85.9599 197.599 69.9484 181.588Z" fill="url(#paint1_radial_5542_465)"/>
<ellipse cx="109.488" cy="153.398" rx="14" ry="16.5" transform="rotate(109.257 109.488 153.398)" fill="black"/>
<ellipse cx="87.992" cy="174.632" rx="11.6164" ry="14.6344" transform="rotate(150 87.992 174.632)" fill="black"/>
<circle cx="108.583" cy="159.879" r="3" transform="rotate(135 108.583 159.879)" fill="white"/>
<circle cx="90.9053" cy="181.799" r="3" transform="rotate(135 90.9053 181.799)" fill="white"/>
<ellipse cx="9.86958" cy="22.5314" rx="9.86958" ry="22.5314" transform="matrix(-0.396322 0.918111 -0.964447 -0.264275 122.579 101.279)" fill="url(#paint2_radial_5542_465)"/>
<ellipse cx="8.59705" cy="25.7229" rx="8.59705" ry="25.7229" transform="matrix(0.839612 -0.543186 0.618343 0.785908 67.33 98.7109)" fill="url(#paint3_radial_5542_465)"/>
<ellipse cx="80.5287" cy="131.357" rx="12.5" ry="19.0458" transform="rotate(38.2784 80.5287 131.357)" fill="url(#paint4_radial_5542_465)"/>
<ellipse cx="62.4599" cy="130.128" rx="12.5" ry="19.9364" transform="rotate(141.683 62.4599 130.128)" fill="url(#paint5_radial_5542_465)"/>
<ellipse cx="77.8845" cy="108.938" rx="12.5" ry="19.0458" transform="rotate(33.3588 77.8845 108.938)" fill="url(#paint6_radial_5542_465)"/>
<ellipse cx="61.6716" cy="106.38" rx="12.5" ry="19.9364" transform="rotate(144.581 61.6716 106.38)" fill="url(#paint7_radial_5542_465)"/>
<defs>
<radialGradient id="paint0_radial_5542_465" cx="0" cy="0" r="1" gradientTransform="matrix(-25.4222 32.3902 -26.3171 -37.6919 88.2344 97.1228)" gradientUnits="userSpaceOnUse">
<stop stop-color="#D9FF60"/>
<stop offset="0.192308" stop-color="#D9FF60"/>
<stop offset="0.8125" stop-color="#126630"/>
<stop offset="0.9375" stop-color="#126630"/>
</radialGradient>
<radialGradient id="paint1_radial_5542_465" cx="0" cy="0" r="1" gradientUnits="userSpaceOnUse" gradientTransform="translate(110.607 172.042) rotate(-88.3251) scale(60.4835 66.3843)">
<stop stop-color="#D9FF60"/>
<stop offset="0.192308" stop-color="#D9FF60"/>
<stop offset="0.8125" stop-color="#126630"/>
<stop offset="0.9375" stop-color="#126630"/>
</radialGradient>
<radialGradient id="paint2_radial_5542_465" cx="0" cy="0" r="1" gradientTransform="matrix(-9.65026 22.8061 -9.98994 -26.539 11.9532 10.4414)" gradientUnits="userSpaceOnUse">
<stop stop-color="#D9FF60"/>
<stop offset="0.192308" stop-color="#D9FF60"/>
<stop offset="0.8125" stop-color="#126630"/>
<stop offset="0.9375" stop-color="#126630"/>
</radialGradient>
<radialGradient id="paint3_radial_5542_465" cx="0" cy="0" r="1" gradientTransform="matrix(-8.40601 26.0366 -8.70189 -30.2982 10.412 11.9204)" gradientUnits="userSpaceOnUse">
<stop stop-color="#D9FF60"/>
<stop offset="0.192308" stop-color="#D9FF60"/>
<stop offset="0.8125" stop-color="#126630"/>
<stop offset="0.9375" stop-color="#126630"/>
</radialGradient>
<radialGradient id="paint4_radial_5542_465" cx="0" cy="0" r="1" gradientTransform="matrix(-12.2222 19.278 -12.6524 -22.4335 83.1676 121.137)" gradientUnits="userSpaceOnUse">
<stop stop-color="#D9FF60"/>
<stop offset="0.192308" stop-color="#D9FF60"/>
<stop offset="0.8125" stop-color="#126630"/>
<stop offset="0.9375" stop-color="#126630"/>
</radialGradient>
<radialGradient id="paint5_radial_5542_465" cx="0" cy="0" r="1" gradientTransform="matrix(-12.2222 20.1796 -12.6524 -23.4825 65.0987 119.43)" gradientUnits="userSpaceOnUse">
<stop stop-color="#D9FF60"/>
<stop offset="0.192308" stop-color="#D9FF60"/>
<stop offset="0.8125" stop-color="#126630"/>
<stop offset="0.9375" stop-color="#126630"/>
</radialGradient>
<radialGradient id="paint6_radial_5542_465" cx="0" cy="0" r="1" gradientTransform="matrix(-12.2222 19.278 -12.6524 -22.4335 80.5234 98.7179)" gradientUnits="userSpaceOnUse">
<stop stop-color="#D9FF60"/>
<stop offset="0.192308" stop-color="#D9FF60"/>
<stop offset="0.8125" stop-color="#126630"/>
<stop offset="0.9375" stop-color="#126630"/>
</radialGradient>
<radialGradient id="paint7_radial_5542_465" cx="0" cy="0" r="1" gradientTransform="matrix(-12.2222 20.1796 -12.6524 -23.4825 64.3105 95.6827)" gradientUnits="userSpaceOnUse">
<stop stop-color="#D9FF60"/>
<stop offset="0.192308" stop-color="#D9FF60"/>
<stop offset="0.8125" stop-color="#126630"/>
<stop offset="0.9375" stop-color="#126630"/>
</radialGradient>
</defs>
</svg>
