<svg width="190" height="192" viewBox="0 0 190 192" fill="none" xmlns="http://www.w3.org/2000/svg">
<ellipse cx="129.284" cy="102.652" rx="8.93227" ry="22.8666" transform="rotate(-53.382 129.284 102.652)" fill="url(#paint0_radial_5560_823)"/>
<ellipse cx="144.729" cy="128.508" rx="8.93227" ry="22.8666" transform="rotate(-4.57948 144.729 128.508)" fill="url(#paint1_radial_5560_823)"/>
<ellipse cx="124.007" cy="147.78" rx="12.5" ry="19.0458" transform="rotate(-33.9572 124.007 147.78)" fill="url(#paint2_radial_5560_823)"/>
<ellipse cx="134.361" cy="167.468" rx="12.5" ry="19.9364" transform="rotate(-27.8272 134.361 167.468)" fill="url(#paint3_radial_5560_823)"/>
<ellipse cx="102.923" cy="115.851" rx="26" ry="32" transform="rotate(9.49692 102.923 115.851)" fill="url(#paint4_radial_5560_823)"/>
<ellipse cx="92.1972" cy="144.414" rx="12.5" ry="19.0458" transform="rotate(22.2085 92.1972 144.414)" fill="url(#paint5_radial_5560_823)"/>
<ellipse cx="82.0193" cy="172.4" rx="12.5" ry="19.9364" transform="rotate(14.2382 82.0193 172.4)" fill="url(#paint6_radial_5560_823)"/>
<path d="M126.883 37.6103C135.9 58.3814 128.977 79.2175 106.179 89.1136C83.3814 99.0097 53.3422 94.2185 44.3257 73.4473C34.371 50.5147 40.5187 30.4037 63.3163 20.5076C86.1139 10.6115 117.867 16.8392 126.883 37.6103Z" fill="url(#paint7_radial_5560_823)"/>
<ellipse cx="9.86958" cy="22.5314" rx="9.86958" ry="22.5314" transform="matrix(0.832163 0.554531 -0.432932 0.901427 89.6071 87.1367)" fill="url(#paint8_radial_5560_823)"/>
<ellipse cx="8.59705" cy="25.7229" rx="8.59705" ry="25.7229" transform="matrix(0.964839 0.262841 -0.17269 0.984976 75.8392 114.736)" fill="url(#paint9_radial_5560_823)"/>
<path d="M63.9856 56.9295C64.0815 56.7629 64.3076 56.7012 64.519 56.6886C64.5817 56.6868 64.6545 56.8306 64.7025 56.8347C64.7957 56.8431 64.8107 56.7354 64.9102 56.7538C64.9435 56.7606 65.0695 56.9805 65.1011 56.983C65.272 56.9957 65.3494 56.8593 65.4868 56.8247C66.1961 56.6311 66.7974 56.3044 67.4222 55.9835C67.6257 55.8792 67.9893 55.8937 68.1178 55.6732C68.133 55.6471 67.9876 55.4797 67.981 55.4619C67.8809 55.1886 68.1255 55.563 68.2047 55.5779C68.5168 55.6373 68.7165 55.5136 68.8333 55.3197C68.8802 55.2385 68.5478 54.9387 68.7651 55.084C68.7799 55.0937 68.903 55.2948 68.937 55.3006C69.0138 55.3135 69.0711 55.2182 69.1161 55.2078C69.2036 55.1885 69.2131 55.1785 69.2769 55.134C69.3671 55.0735 69.5332 55.0948 69.592 54.9841C69.604 54.9601 69.4341 54.7867 69.4401 54.7309C69.4462 54.6752 69.5401 54.6302 69.6018 54.6548C69.6636 54.6794 69.7655 54.8395 69.7964 54.8705C70.0569 55.1325 69.8465 54.6565 69.8505 54.6378C69.9395 54.3035 70.3075 54.3878 70.5106 54.2334C70.666 54.1145 70.7792 53.9093 70.9341 53.8084C71.1205 53.6879 71.3534 53.675 71.51 53.5278C71.5268 53.5123 71.3343 53.3032 71.3546 53.2839C71.5704 53.0785 71.8232 52.9246 72.1736 52.8974C72.2089 52.8948 72.3294 53.1155 72.3737 53.1247C72.6429 53.1761 73.1676 53.3921 72.5951 52.4678C72.718 52.4269 72.8639 52.3699 73.083 52.4765C73.2245 52.5448 73.3351 52.8012 73.3335 52.6568C73.3333 52.6245 73.1686 52.452 73.1793 52.4178C73.2243 52.2737 73.3785 52.2522 73.401 52.0803C73.4052 52.0449 73.2701 51.8808 73.2524 51.8462C73.1104 51.5645 73.5009 51.91 73.5407 51.9263C73.8396 52.0461 73.8676 51.8864 73.9926 51.7982C74.0217 51.7778 73.8139 51.5779 73.8356 51.5502C73.9507 51.4094 74.1095 51.3173 74.3239 51.311C74.372 51.3101 74.4931 51.5238 74.5238 51.5332C74.657 51.5723 74.3894 51.1989 74.5117 51.2294C74.5371 51.2353 74.6576 51.4052 74.674 51.4214C74.9314 51.6756 74.6513 51.2496 74.6539 51.2334C74.6796 51.0189 75.0827 51.3774 75.1526 51.2275C75.1606 51.2092 74.9673 51.0262 74.9997 50.9873C75.2146 50.7271 75.5332 50.5692 75.9198 50.5326C75.9797 50.5266 76.0736 50.7044 76.0912 50.7216C76.368 50.9884 76.0786 50.5667 76.0796 50.5414C76.0965 50.3519 76.4576 50.6121 76.1499 50.0804C76.6614 49.9195 76.8883 49.4034 77.4957 49.3702C77.561 49.3648 77.6304 49.3649 77.7043 49.3718C77.7139 49.3723 77.8591 49.5778 77.8775 49.578C78.1001 49.5831 77.8329 49.2963 77.6375 48.8442C77.5894 48.73 78.0089 49.1362 78.0399 49.1659C78.156 49.2736 78.3565 49.5906 78.3821 49.6091C78.5846 49.7538 77.8366 48.7686 77.9255 48.7029C77.9294 48.7025 78.0524 48.8946 78.0731 48.9075C78.1377 48.9482 78.107 48.8587 78.1753 48.906C78.333 49.0156 78.6997 49.492 78.5725 49.1533C78.556 49.1094 78.1347 48.548 78.2338 48.5188C78.2733 48.5076 78.4076 48.4001 78.4729 48.4109C78.538 48.4216 78.6378 48.6271 78.6462 48.6332C78.9184 48.8099 78.948 48.9396 79.245 49.2732C79.5395 49.6067 78.9434 48.7404 78.9001 48.6283C78.8572 48.5162 79.0701 48.6715 79.1354 48.7314C79.2009 48.7911 79.256 48.9266 79.299 48.9566C79.5801 49.1524 79.0639 48.487 79.0108 48.3227C78.8871 47.9325 79.3745 48.5471 79.4929 48.5635C79.5253 48.5676 79.414 48.4277 79.4246 48.4015C79.4686 48.2998 79.6409 48.4796 79.6134 48.2357C79.6085 48.1962 79.441 47.7499 79.6634 48.0182C79.6952 48.0571 79.7756 48.2353 79.8306 48.2534C79.9131 48.2805 80.0225 48.266 80.0432 48.1792C80.0586 48.115 79.8541 47.8631 79.9536 47.9208C79.9978 47.9467 80.0497 48.1327 80.1247 48.1681C80.1993 48.2035 80.3001 48.1374 80.3371 48.1096C80.3738 48.0816 80.2343 47.8813 80.2296 47.8652C80.2038 47.7722 80.226 47.6264 80.2332 47.6229C80.5724 47.404 81.083 47.6031 81.3681 47.3157C81.3909 47.2933 81.262 47.0711 81.2643 47.0653C81.3123 46.9234 81.532 47.5732 81.6939 47.7486C81.4616 47.2835 81.5402 47.3503 81.5815 47.2679C81.6013 47.2279 81.4988 47.0536 81.4929 47.0336C81.4111 46.7344 81.6111 47.0769 81.6532 47.1464C81.8089 47.4017 81.6957 47.0674 81.7998 47.2382C81.9027 47.4078 81.9767 47.6953 82.0367 47.6638C81.9771 47.4865 81.7284 47.0655 81.7439 46.9718C81.8059 46.6153 82.3049 46.8144 82.4666 46.7902C82.63 46.7647 82.6648 46.7136 82.7764 46.7409C82.9772 46.7909 82.7854 46.4793 82.8224 46.2868C82.8603 46.0943 83.1375 46.9392 83.2213 47.1112C83.3044 47.2835 83.2476 47.0949 83.3026 47.186C83.3574 47.2771 83.3687 47.412 83.422 47.4334C83.4749 47.4549 83.4596 47.0972 83.4028 46.9053C83.2818 46.4991 83.0738 46.1035 83.2371 46.2082C83.2465 46.2146 83.3092 46.4404 83.3411 46.4535C83.5905 46.5513 83.7874 46.4912 84.0269 46.5751C84.0598 46.5871 84.1235 46.8399 84.1435 46.8497C84.3513 46.9527 84.1514 46.559 84.0783 46.0696C84.2705 46.688 84.4459 47.0461 84.5617 47.0108C84.6325 46.9895 84.53 46.7258 84.5127 46.5215C84.5075 46.4599 84.619 46.6273 84.5861 46.4982C84.4796 46.0757 84.2788 45.6296 84.4641 45.7726C84.4724 45.7796 84.5291 46.0113 84.5523 46.0189C84.7021 46.0692 84.5766 45.6321 84.6921 45.5376C84.7839 45.463 85.0528 45.6698 85.1826 45.6779C85.3909 46.3751 85.4503 46.1832 85.3527 45.6889C85.4333 45.6865 85.5107 45.6343 85.6039 45.6797C85.636 45.6951 85.6774 45.9024 85.6869 45.9233C85.8342 46.2525 85.7329 45.7739 85.7443 45.7507C85.8734 45.5208 86.1141 45.8383 86.1938 45.4428C86.1965 45.4286 86.0767 44.9374 86.2178 45.2818C86.2272 45.3056 86.2294 45.5429 86.3147 45.5388C86.4011 45.5343 86.616 45.7585 86.672 45.5029C86.6853 45.4413 86.6561 45.0256 86.789 45.323C86.8068 45.3635 86.8336 45.5062 86.8636 45.5819C86.9592 45.823 86.8562 45.3222 86.9993 45.734C87.1425 46.1458 87.2988 46.4423 87.3384 46.1252C87.3397 46.116 87.2737 45.7155 87.3111 45.7133C87.3707 45.7101 87.4703 45.7737 87.5284 45.7577C87.5562 45.75 87.4824 45.5089 87.4862 45.5033C87.6448 45.3228 87.8307 45.5114 88.0553 45.5633C88.0961 45.5733 88.1339 45.2152 88.2597 45.4662C88.3978 45.7409 88.5638 46.9665 88.6842 46.6425C88.7312 46.5132 88.5267 44.9573 88.8098 45.7294C89.0349 45.4821 89.3362 45.8501 89.5497 45.5232C89.559 45.5087 89.5239 45.0715 89.5522 45.0729C89.5942 45.0757 89.649 45.2738 89.6794 45.2825C89.8123 45.3232 89.9 45.1326 90.0195 45.142C90.0647 45.1451 90.0811 45.3562 90.1342 45.3602C90.19 45.3637 90.187 45.0829 90.2792 45.2053C90.3491 45.2987 90.4825 45.854 90.5601 45.9101C90.4856 45.3543 90.5343 45.3591 90.6066 45.2001C90.6201 45.1693 90.5755 44.9783 90.5806 44.9538C90.601 44.8495 90.653 45.0058 90.67 44.8932C90.6741 44.8661 90.6497 44.6761 90.6517 44.6433C90.6692 44.3566 90.8082 44.7732 90.8326 44.8457C90.9283 45.1208 90.9249 44.8703 90.9832 44.9762C91.0407 45.0822 90.9919 45.2293 91.0511 45.2907C91.1697 45.4182 91.3053 45.3715 91.4113 45.369C91.453 45.3668 91.3974 45.1157 91.4027 45.1095C91.4761 45.0364 91.6065 45.2964 91.6019 44.7852C91.792 46.0896 91.6351 44.6534 91.7976 44.9031C91.8099 44.9234 91.8786 45.5423 91.8487 45.6368C91.8178 45.7314 91.7405 45.5432 91.7056 45.6898C91.697 45.7242 91.6852 46.3118 91.6791 46.3479C91.6309 46.6305 91.5233 45.7064 91.5143 45.6559C91.4136 45.112 91.3941 45.7463 91.3762 45.7921C91.2887 46.0021 91.1932 45.8815 91.1226 46.0331C91.0765 46.1312 91.1454 46.7368 91.0983 46.7239C90.948 46.6806 90.7889 45.8439 90.7449 46.5937C90.7366 46.7536 90.8526 47.4099 90.6816 46.9048C90.6711 46.8729 90.5278 46.4091 90.5252 46.7157C90.525 46.7544 90.5527 46.9465 90.5477 46.9637C90.5131 47.0753 90.4573 46.9271 90.4124 47.0086C90.3676 47.0901 90.3243 47.2083 90.253 47.1527C90.2107 47.1194 90.1071 46.7695 90.075 46.6849C89.984 46.441 89.9942 46.8629 89.9127 46.5632C89.8315 46.2618 89.8182 45.7863 89.7028 45.6018C89.7809 46.1001 89.8574 46.6122 89.9346 47.1135C89.7578 47.1244 89.544 46.9957 89.3728 47.0493C89.3512 47.0565 89.4221 47.3192 89.4003 47.3339C89.3091 47.3942 89.181 47.2214 89.0933 47.3164C89.0255 47.3911 88.9931 47.6898 88.9239 47.7773C88.7606 47.2213 88.67 47.4394 88.5722 47.4059C88.5372 47.3945 88.5079 47.2432 88.4751 47.1987C88.3518 47.0345 88.4966 47.5252 88.49 47.6086C88.4623 47.9647 88.2126 46.8375 88.0962 46.8921C88.089 46.8948 88.1453 47.5124 88.1438 47.552C88.1325 47.8105 88.0865 47.3454 88.0353 47.3102C87.9415 47.246 87.8552 47.1149 87.8054 47.3113C87.7908 47.3695 87.8153 47.7575 87.6964 47.4807C87.6807 47.4445 87.6378 47.2456 87.6296 47.2353C87.486 47.0653 87.6324 47.6875 87.6289 47.9109C87.626 48.1341 87.4376 47.7261 87.3894 47.607C87.2652 47.2989 87.3908 47.4619 87.3855 47.43C87.3232 47.0497 87.2762 47.1293 87.22 47.1098C87.0624 46.5033 87.0021 46.5571 87.1622 47.0921C87.1798 47.1505 87.2034 47.0844 87.22 47.1098C87.3252 47.7172 87.2734 47.8112 87.0497 47.2753C86.9455 47.024 86.9036 46.7105 86.8161 46.8517C86.7763 46.9156 86.9051 47.3279 86.889 47.4537C86.8532 47.7404 86.6124 47.3882 86.5196 47.4795C86.4869 47.5123 86.5872 47.7297 86.5672 47.76C86.5146 47.8409 86.4052 47.6875 86.3591 47.7949C86.355 47.8049 86.4378 48.0384 86.4169 48.0476C86.26 48.1219 86.0703 48.0123 85.8983 48.0596C85.8147 48.0827 85.7067 48.2586 85.6125 48.2597C85.452 48.2618 85.1588 47.9791 85.058 48.105C84.9927 48.1858 85.0898 48.4141 85.1087 48.5855C85.1468 48.9173 84.8404 48.4042 84.7936 48.3247C84.792 48.322 84.8434 48.2426 84.7643 48.1356C84.6557 47.8933 84.7939 48.3233 84.7936 48.3247C84.7639 48.2729 84.6043 48.2694 84.5921 48.324C84.5856 48.3538 84.6727 48.5715 84.6678 48.5828C84.5506 48.8472 84.3923 48.9691 84.1674 48.938C84.1624 48.9348 84.0736 48.6882 84.063 48.6838C83.9124 48.6168 83.9579 48.9433 83.9419 49.1544C83.9252 49.3658 83.8347 49.3337 83.6124 48.9385C83.5676 49.0179 83.3966 48.8736 83.2942 48.7857C83.1916 48.6979 83.383 49.1709 83.3823 49.1822C83.3615 49.5417 83.1628 49.3097 82.9907 49.3365C82.9087 49.3484 82.796 49.4809 82.7428 49.5673C82.701 49.6364 82.6134 49.5454 82.59 49.6411C82.5868 49.6539 82.6919 49.8555 82.6933 49.8645C82.7487 50.1391 82.5392 49.6238 82.4836 49.5405C82.2812 49.2376 82.1668 49.0794 82.1593 49.2717C82.1569 49.3162 82.4559 50.06 82.4449 50.1177C82.429 50.1918 82.3173 49.9273 82.3036 50.0117C82.3024 50.0187 82.3823 50.1764 82.3516 50.1831C82.2103 50.2162 82.0249 50.1962 81.9029 50.2813C81.886 50.2923 82.0405 50.5277 82.0187 50.5475C81.9161 50.64 81.7839 50.7008 81.6055 50.6509C81.5611 50.6378 81.4819 50.457 81.4471 50.4097C81.2346 50.1246 81.4344 50.6009 81.4312 50.6141C81.349 50.9457 80.9528 50.6427 80.8621 50.9605C80.8568 50.9791 81.0687 51.4953 80.7766 51.1231C80.7574 51.0981 80.4569 50.7183 80.6033 51.0164C80.6126 51.035 80.7712 51.2278 80.7171 51.2329C80.6626 51.2384 80.6909 51.4185 80.4838 51.2291C80.419 51.1693 80.1059 50.8003 80.2697 51.1528C80.28 51.1782 80.6965 51.944 80.3268 51.4729C80.266 51.3953 79.907 50.8738 80.0315 51.1832C80.0561 51.2429 80.1588 51.3431 80.1792 51.4367C80.2116 51.5803 80.0503 51.4875 80.1606 51.7563C80.1799 51.804 80.3949 52.1791 80.1683 51.9413C80.1327 51.9042 80.0164 51.7273 79.9847 51.7215C79.8329 51.6932 79.8324 51.8715 79.6594 51.8213C79.5982 51.8041 79.4023 51.5236 79.3137 51.4768C79.2612 51.4491 79.1977 51.4318 79.1683 51.4534C79.1454 51.4705 79.1386 51.5056 79.1628 51.5675C79.2223 51.7199 79.6047 52.1111 79.5746 52.1911C79.4431 52.539 78.9945 52.4883 78.7159 52.6499C78.6744 52.6739 78.8264 52.802 78.7738 52.8484C78.5803 53.0206 78.3454 53.4389 77.9134 53.252C77.5682 53.1017 77.5885 52.7646 77.3981 52.7427C77.3067 52.7327 77.6418 53.2743 77.6416 53.2998C77.6444 53.555 77.3864 53.401 77.3294 53.5549C77.3177 53.5867 77.4981 53.7713 77.4864 53.7962C77.4476 53.883 77.3076 53.8471 77.2573 53.913C77.2351 53.943 77.3609 54.0934 77.3255 54.1018C77.2421 54.1239 77.1362 54.1021 76.9624 54.0047C76.9466 53.9958 76.8341 53.7744 76.7824 53.8033C76.6991 53.8504 76.4951 53.7797 76.5239 53.9943C76.5329 54.0586 76.8067 54.4129 76.562 54.2114C76.5109 54.1694 76.1957 53.7333 76.4168 54.1499C76.4535 54.2191 76.7301 54.7977 76.4298 54.5194C76.3508 54.4462 76.0458 54.1259 76.0575 54.2043C76.0601 54.2162 76.2241 54.3934 76.213 54.4317C76.1711 54.5635 76.0612 54.6161 76.015 54.747C76.0029 54.7824 76.1918 54.9509 76.169 54.9973C76.1062 55.1254 75.9422 55.1719 75.795 55.187C75.7406 55.1921 75.64 55.0093 75.6236 54.9936C75.3581 54.7374 75.6335 55.1471 75.6369 55.1808C75.6536 55.385 75.4454 55.2532 75.4017 55.364C75.3893 55.3941 75.5483 55.5682 75.5566 55.5882C75.6351 55.7859 75.4124 55.425 75.3549 55.4106C75.1933 55.3688 75.1123 55.4547 75.0476 55.5422C75.0239 55.5747 75.224 55.7645 75.2009 55.7911C75.0668 55.953 74.8842 56.06 74.6333 56.0627C74.5859 56.0627 74.4774 55.8817 74.4421 55.8484C74.1958 55.6148 74.4105 56.026 74.4225 56.0716C74.4775 56.2798 74.3395 56.1517 74.3028 56.2233C74.123 56.5771 73.7002 56.7442 73.3847 56.888C72.9786 57.0732 72.5874 57.1187 72.283 57.4129C72.2636 57.4313 72.4529 57.638 72.4383 57.6567C72.2451 57.8864 71.9426 57.9774 71.7576 58.2169C71.7421 58.2361 71.9284 58.427 71.9089 58.465C71.8689 58.5453 71.7775 58.5958 71.6622 58.5767C71.6061 58.5678 71.5125 58.3544 71.4589 58.3492C71.3339 58.3365 71.2439 58.3803 71.1945 58.4702C71.1738 58.5089 71.384 58.6895 71.3442 58.7232C71.0701 58.9616 70.8159 59.2093 70.3206 59.1413C70.2873 59.1361 69.9404 58.7089 69.9606 58.8253C70.0484 58.9501 70.1557 59.094 70.2516 59.2259C69.8889 59.6051 69.3561 59.7627 68.9199 60.0481C68.9015 60.0603 69.1052 60.272 69.0703 60.2967C68.8742 60.4361 68.7262 60.6454 68.3492 60.5633C68.3121 60.5554 68.0185 60.1352 68.0054 60.2411C68.0028 60.2605 67.9573 60.3787 68 60.4854C68.0066 60.5014 68.1653 60.6816 68.1392 60.7094C67.9881 60.8654 67.7817 60.949 67.529 60.9529C67.4866 60.9541 67.3662 60.7266 67.3347 60.7256C67.1181 60.7166 67.0894 60.9774 66.8165 60.89C66.6381 60.8274 66.4062 60.4516 66.1084 60.1323C66.0712 60.0837 66.0011 60.1227 65.8541 59.9178C65.4748 59.4096 65.0907 58.8304 64.6834 58.291C64.5947 58.1755 64.6284 58.3447 64.4525 58.0377C64.4499 58.0105 64.4203 57.8877 64.3704 57.7764C64.3293 57.7043 64.165 57.5067 64.1181 57.4102C64.0718 57.3134 64.2166 57.4739 64.1774 57.3489C64.1381 57.2221 63.9467 57.0006 63.9856 56.9295ZM82.8323 48.3964C82.6824 48.1944 83.0341 49.02 83.0032 48.7993C83.0012 48.7876 82.8398 48.4062 82.8323 48.3964ZM89.4309 46.3289C89.2895 45.9519 89.341 46.5339 89.4456 46.8257C89.5486 47.1175 89.4742 46.4432 89.4309 46.3289ZM90.1609 45.9172C90.0274 45.6219 90.2073 46.8816 90.2586 46.6136C90.2616 46.5984 90.1686 45.9344 90.1609 45.9172ZM66.2534 59.8739C66.2483 59.8628 66.1969 59.8859 66.2036 59.8957C66.3492 60.1422 66.4466 60.0997 66.2534 59.8739ZM90.8942 45.4979C90.8462 45.3305 90.7932 45.5376 90.8542 45.7456C90.9031 45.9128 90.9538 45.7062 90.8942 45.4979ZM79.7261 48.9342C79.7183 48.9233 79.6829 48.9311 79.7235 48.9949C79.8543 49.2002 79.8577 49.1172 79.7261 48.9342ZM92.2233 45.3483C92.0266 45.3144 91.8212 44.2775 92.0467 44.3783C92.0886 44.3966 91.9904 44.7189 92.0464 44.8095C92.1527 44.9744 92.1742 44.3111 92.2897 44.6587C92.3177 44.7217 92.2331 45.3525 92.2231 45.3498C92.2232 45.3493 92.2233 45.3488 92.2233 45.3483ZM82.372 47.4213C82.3662 47.4109 82.3181 47.4196 82.3218 47.4309C82.4127 47.702 82.5086 47.685 82.372 47.4213ZM77.7534 49.646C77.7478 49.6403 77.7338 49.6416 77.7176 49.6466C77.683 49.657 77.6382 49.685 77.6463 49.6991C77.8037 49.9538 77.9438 50.005 77.9351 49.9175C77.9304 49.8678 77.8783 49.773 77.7534 49.646ZM85.19 45.6959C85.1578 45.4063 85.2101 45.3555 85.3524 45.6887C85.297 45.6852 85.2457 45.6976 85.19 45.6959Z" fill="black"/>
<path d="M74.4075 36.0339C74.5852 36.1174 74.6813 36.3583 74.7009 36.5603C74.7098 36.6263 74.5696 36.7065 74.5704 36.757C74.5701 36.853 74.6704 36.8517 74.6608 36.956C74.6569 36.9908 74.4432 37.1276 74.4435 37.1604C74.4455 37.338 74.5722 37.3922 74.6179 37.5345C74.8273 38.2175 75.1462 38.7953 75.4392 39.3999C75.5372 39.6007 75.5013 39.9467 75.7128 40.0772C75.7378 40.0925 75.9107 39.9538 75.9286 39.9477C76.2043 39.856 75.8209 40.0864 75.8008 40.1618C75.7204 40.4585 75.8322 40.661 76.0087 40.7733C76.0853 40.822 76.4058 40.5105 76.2464 40.7165C76.2357 40.7305 76.028 40.842 76.0196 40.8748C76.001 40.9489 76.0901 41.0085 76.0967 41.0527C76.1077 41.1375 76.116 41.146 76.153 41.2082C76.2018 41.2943 76.1671 41.4568 76.2696 41.5194C76.2922 41.5324 76.4792 41.3778 76.5336 41.3873C76.588 41.3968 76.6213 41.4882 76.5905 41.5459C76.5595 41.6035 76.3918 41.692 76.358 41.7198C76.0722 41.953 76.561 41.7793 76.5795 41.7855C76.9016 41.9007 76.7673 42.237 76.8945 42.4507C76.989 42.6083 77.1716 42.7332 77.2491 42.896C77.3384 43.0863 77.3121 43.3069 77.4305 43.4768C77.4426 43.4946 77.6789 43.3368 77.6943 43.3585C77.8576 43.589 77.9647 43.8573 77.9222 44.1929C77.9178 44.2268 77.6802 44.308 77.6624 44.3485C77.5601 44.596 77.2375 45.0481 78.2532 44.6629C78.2669 44.7864 78.2902 44.9351 78.138 45.1226C78.0399 45.243 77.7677 45.3009 77.9068 45.3247C77.938 45.3303 78.142 45.2073 78.1725 45.2235C78.301 45.2922 78.2852 45.441 78.4452 45.4961C78.4782 45.5072 78.6687 45.413 78.7063 45.4033C79.0122 45.3273 78.585 45.6253 78.5592 45.6587C78.3697 45.914 78.5148 45.9723 78.5666 46.1087C78.5785 46.1404 78.8244 45.9903 78.8453 46.017C78.9504 46.1571 78.9958 46.3278 78.9419 46.5297C78.9292 46.5747 78.6915 46.6357 78.6739 46.6619C78.5987 46.7755 79.0304 46.6184 78.9665 46.725C78.9535 46.7472 78.7572 46.8167 78.7371 46.8279C78.4208 47.0027 78.9066 46.8488 78.9214 46.8556C79.1177 46.9341 78.6573 47.2136 78.7768 47.3155C78.7917 47.3277 79.024 47.1983 79.0509 47.2386C79.231 47.5063 79.2774 47.8475 79.1774 48.2076C79.1622 48.2635 78.9639 48.2946 78.9418 48.3053C78.5966 48.4734 79.0901 48.3398 79.1134 48.3488C79.2841 48.4228 78.9124 48.6635 79.5169 48.5579C79.5159 48.5713 79.5153 48.5846 79.5149 48.5978C79.4864 49.105 79.9376 49.4468 79.6066 50.0783C79.6029 50.0864 79.3637 50.1642 79.3573 50.18C79.2785 50.3711 79.634 50.2066 80.1153 50.1276C80.236 50.1074 79.7249 50.3853 79.6881 50.4072C79.5517 50.4865 79.1937 50.5975 79.1685 50.6161C78.9728 50.7667 80.1215 50.3086 80.1546 50.3922C80.1537 50.3956 79.9374 50.4675 79.9191 50.4829C79.8617 50.531 79.9545 50.5198 79.8901 50.5702C79.7409 50.6861 79.1897 50.9262 79.5453 50.8737C79.5913 50.8665 80.2369 50.5919 80.2363 50.6794C80.2355 50.7146 80.3005 50.8431 80.2737 50.8976C80.2469 50.9521 80.0272 51.0121 80.0193 51.0184C79.7842 51.233 79.6538 51.2416 79.2658 51.4617C78.8798 51.6818 79.8455 51.2655 79.9625 51.2411C80.0791 51.2169 79.8822 51.3856 79.8108 51.4372C79.7394 51.4886 79.5973 51.5211 79.5594 51.5562C79.3126 51.7877 80.0605 51.4017 80.2292 51.3722C80.628 51.301 79.9374 51.6697 79.9002 51.7771C79.8902 51.806 80.0462 51.7191 80.0693 51.7309C80.1587 51.7784 79.9543 51.9189 80.1949 51.9126C80.2342 51.9119 80.6926 51.7902 80.3963 51.9712C80.3536 51.9972 80.168 52.0579 80.1417 52.1064C80.1022 52.1789 80.1003 52.2796 80.1818 52.303C80.242 52.3201 80.5159 52.148 80.4454 52.2343C80.414 52.2729 80.226 52.3112 80.1812 52.3774C80.1364 52.4434 80.188 52.5382 80.2107 52.5728C80.2336 52.6073 80.4457 52.4869 80.462 52.4831C80.5556 52.4627 80.6943 52.485 80.6969 52.4913C80.8664 52.7924 80.632 53.2574 80.9008 53.5049C80.9216 53.5245 81.1448 53.3977 81.1504 53.3995C81.2865 53.435 80.6415 53.6651 80.4639 53.8218C80.9282 53.588 80.8598 53.6628 80.9391 53.6959C80.9777 53.7116 81.1515 53.6088 81.1713 53.6023C81.4663 53.5101 81.1249 53.7109 81.0558 53.7537C80.8019 53.911 81.1321 53.7871 80.9626 53.8927C80.7946 53.9978 80.5109 54.0829 80.5416 54.137C80.7163 54.0709 81.1331 53.8164 81.2244 53.8236C81.5683 53.849 81.3728 54.3127 81.4014 54.4571C81.4296 54.6011 81.4806 54.6256 81.4584 54.7303C81.4181 54.9189 81.7145 54.7061 81.9035 54.7128C82.0925 54.7194 81.2826 55.0853 81.119 55.1844C80.9554 55.2834 81.1366 55.2064 81.0509 55.269C80.9652 55.3316 80.8336 55.3594 80.8163 55.4118C80.7992 55.4645 81.1491 55.4023 81.3324 55.3222C81.7207 55.1529 82.0929 54.9071 82.0007 55.0677C81.9952 55.0771 81.7795 55.1682 81.7688 55.1987C81.6917 55.4398 81.7678 55.6084 81.7102 55.8387C81.702 55.8705 81.4625 55.9732 81.4551 55.9932C81.3778 56.2014 81.74 55.95 82.207 55.792C81.6276 56.0811 81.2998 56.3079 81.3503 56.41C81.3804 56.4713 81.6237 56.3269 81.8198 56.2708C81.8789 56.2538 81.7309 56.3881 81.8519 56.3325C82.2476 56.1507 82.6542 55.8801 82.5383 56.0727C82.5326 56.0815 82.3159 56.1809 82.3115 56.203C82.282 56.3462 82.6882 56.1417 82.795 56.2222C82.8787 56.2853 82.7175 56.5672 82.7304 56.6834C82.0928 57.034 82.2886 57.0433 82.7477 56.8365C82.7644 56.9089 82.8266 56.9619 82.7996 57.0555C82.7905 57.0876 82.5992 57.1772 82.5808 57.1909C82.2917 57.4056 82.7324 57.1933 82.7565 57.1971C82.9986 57.2481 82.7445 57.55 83.1372 57.5086C83.1513 57.507 83.5946 57.2642 83.2951 57.4837C83.2743 57.4988 83.0488 57.5677 83.0702 57.6409C83.0919 57.7147 82.9247 57.9675 83.181 57.9429C83.2425 57.9367 83.6294 57.7861 83.3775 57.9907C83.3432 58.0185 83.2141 58.0848 83.1493 58.1338C82.9429 58.2903 83.3933 58.0485 83.0368 58.2987C82.6802 58.5489 82.4388 58.7803 82.7495 58.7183C82.7585 58.7165 83.1209 58.5339 83.1322 58.5659C83.1501 58.6173 83.1156 58.725 83.1459 58.7711C83.1605 58.7931 83.3685 58.6508 83.3747 58.6524C83.5856 58.7324 83.4551 58.9517 83.4705 59.1669C83.4728 59.2064 83.8178 59.1151 83.6195 59.3113C83.4032 59.5274 82.305 60.0966 82.6472 60.0944C82.7848 60.0947 84.1688 59.3568 83.5389 59.8823C83.8329 59.9783 83.5968 60.387 83.9679 60.4403C83.9845 60.4429 84.3739 60.2414 84.3822 60.266C84.3939 60.303 84.2314 60.4285 84.2341 60.4582C84.2404 60.5845 84.4427 60.5782 84.4787 60.6862C84.4924 60.7264 84.306 60.827 84.3222 60.8747C84.3384 60.9221 84.5906 60.8005 84.5114 60.9265C84.4511 61.0226 84.0007 61.3738 83.981 61.4663C84.4553 61.167 84.4707 61.2127 84.6382 61.1998C84.6706 61.1972 84.8262 61.0782 84.85 61.0715C84.9506 61.042 84.8284 61.1511 84.9357 61.1157C84.9618 61.1076 85.1232 61.0045 85.1535 60.992C85.4181 60.882 85.099 61.1822 85.0434 61.2343C84.8323 61.4326 85.0545 61.3174 84.9812 61.4108C84.908 61.504 84.759 61.532 84.7263 61.6066C84.6618 61.7661 84.7588 61.8583 84.8017 61.9399C84.823 61.9766 85.021 61.8123 85.029 61.8143C85.1308 61.8514 84.9479 62.068 85.3959 61.8223C84.3265 62.5923 85.5326 61.7977 85.3752 62.0371C85.3622 62.0561 84.8503 62.4107 84.755 62.4325C84.66 62.4546 84.7904 62.299 84.6432 62.3347C84.6097 62.3446 84.0873 62.6122 84.0525 62.6236C83.7823 62.7156 84.5536 62.1949 84.5943 62.1639C85.0301 61.8228 84.4607 62.1006 84.4132 62.1072C84.1953 62.1375 84.2535 61.9869 84.0918 61.9984C83.9865 62.0047 83.4716 62.331 83.4643 62.2852C83.4388 62.1319 84.1252 61.6273 83.4352 61.9166C83.2874 61.9772 82.7415 62.3601 83.1272 61.9908C83.1515 61.9675 83.5141 61.6448 83.2335 61.7683C83.1982 61.7839 83.0342 61.8879 83.0167 61.8908C82.9024 61.9074 83.016 61.7977 82.9252 61.7927C82.8344 61.7877 82.7065 61.7919 82.7289 61.7038C82.7423 61.6513 83.0218 61.4162 83.0884 61.3557C83.2792 61.1798 82.8971 61.3576 83.143 61.1681C83.3901 60.9778 83.8215 60.7784 83.9495 60.6047C83.52 60.8692 83.0772 61.1374 82.6442 61.4017C82.563 61.2378 82.6116 61.0065 82.4984 60.8649C82.4839 60.8475 82.2649 61.009 82.2433 60.9939C82.1526 60.9285 82.2723 60.7537 82.1532 60.7063C82.06 60.6697 81.7684 60.7427 81.6618 60.7062C82.1275 60.3611 81.897 60.3582 81.8956 60.2534C81.8949 60.2169 82.0282 60.1394 82.0597 60.0943C82.1755 59.9257 81.7585 60.2219 81.6775 60.243C81.3315 60.3317 82.3179 59.7319 82.2326 59.6445C82.2286 59.64 81.6612 59.8896 81.6228 59.9C81.374 59.9703 81.8015 59.7813 81.8194 59.7224C81.8522 59.6147 81.9519 59.4947 81.7508 59.5083C81.6915 59.5128 81.3285 59.652 81.5581 59.4572C81.5882 59.4316 81.7655 59.332 81.7731 59.3213C81.8954 59.1373 81.343 59.4586 81.1279 59.5196C80.913 59.5806 81.2508 59.2839 81.352 59.2049C81.6134 59.0001 81.4912 59.1647 81.5203 59.1506C81.867 58.9825 81.7785 58.9619 81.7825 58.9042C82.3211 58.5838 82.2551 58.545 81.7845 58.8455C81.7332 58.8785 81.8024 58.8815 81.7825 58.9042C81.2297 59.1764 81.1237 59.1506 81.5802 58.7921C81.7943 58.6243 82.0841 58.4984 81.9281 58.4576C81.8574 58.4387 81.4932 58.6709 81.3683 58.6896C81.0831 58.7318 81.3642 58.4123 81.2548 58.3479C81.215 58.3244 81.0288 58.4749 80.9945 58.4627C80.9027 58.4307 81.0268 58.2902 80.9123 58.2719C80.9017 58.2704 80.6941 58.4056 80.6803 58.3876C80.5721 58.2539 80.6358 58.0434 80.5539 57.8865C80.5143 57.811 80.3206 57.7421 80.3014 57.65C80.2663 57.4903 80.492 57.1527 80.3528 57.0786C80.2628 57.0295 80.054 57.1633 79.888 57.2104C79.5662 57.3017 80.0215 56.9126 80.0935 56.8551C80.096 56.8532 80.1826 56.8916 80.2757 56.7966C80.4981 56.6516 80.095 56.8553 80.0935 56.8551C80.1395 56.817 80.12 56.661 80.0646 56.6571C80.0343 56.6552 79.8315 56.7728 79.8196 56.7697C79.5418 56.6933 79.3943 56.5402 79.3989 56.3111C79.4015 56.3058 79.6366 56.1899 79.6397 56.1789C79.6898 56.0222 79.3707 56.1029 79.157 56.1032C78.9434 56.1036 78.9647 56.0049 79.3398 55.75C79.2562 55.7105 79.3868 55.5281 79.4678 55.4204C79.5488 55.3128 79.0891 55.5341 79.0777 55.5339C78.7149 55.5304 78.9328 55.3128 78.8977 55.139C78.8819 55.0561 78.7443 54.9431 78.6553 54.8875C78.5842 54.8439 78.6734 54.7538 78.5765 54.7286C78.5635 54.7252 78.3627 54.8317 78.3536 54.8331C78.0772 54.8853 78.5928 54.6762 78.6757 54.6198C78.9774 54.4149 79.1366 54.3028 78.9442 54.2933C78.9001 54.2911 78.1513 54.5783 78.0922 54.5626C78.0168 54.5419 78.2841 54.4368 78.1986 54.4184C78.1915 54.4167 78.032 54.493 78.025 54.4598C77.9905 54.3069 78.0133 54.1122 77.931 53.9754C77.9203 53.9564 77.6771 54.0988 77.6575 54.0732C77.5655 53.9525 77.5076 53.7997 77.5684 53.6142C77.5842 53.5683 77.7725 53.5084 77.8226 53.4775C78.1254 53.2908 77.6303 53.4387 77.6167 53.4323C77.284 53.2896 77.6287 52.9195 77.32 52.7583C77.3025 52.7503 76.7518 52.8589 77.1664 52.6291C77.1939 52.6136 77.6192 52.3814 77.2982 52.4679C77.2781 52.4733 77.0611 52.5979 77.0634 52.5377C77.0658 52.4778 76.8788 52.4595 77.1025 52.2865C77.1729 52.2318 77.5969 51.9982 77.2153 52.0776C77.189 52.084 76.3438 52.3064 76.8838 52.0462C76.9728 52.0035 77.5625 51.7738 77.2301 51.8165C77.1657 51.8249 77.0455 51.9046 76.9478 51.8976C76.7973 51.887 76.9231 51.7443 76.6312 51.7722C76.5796 51.7775 76.1574 51.8774 76.4436 51.7135C76.4884 51.6879 76.6906 51.6249 76.7034 51.5925C76.7654 51.4386 76.588 51.3703 76.6815 51.2036C76.7143 51.1449 77.0419 51.0455 77.1119 50.9716C77.1819 50.8976 77.2334 50.7833 77.0709 50.7935C76.9079 50.8029 76.4149 51.0396 76.3491 50.9868C76.063 50.7552 76.2617 50.3567 76.2066 50.0433C76.1985 49.9969 76.0258 50.0951 76.0006 50.0307C75.9698 49.9525 75.9156 49.8609 75.8691 49.7608C75.7875 49.5978 75.7338 49.4087 75.9567 49.2042C76.2222 48.9581 76.5212 49.0497 76.6115 48.8983C76.6538 48.8243 76.0372 48.9793 76.0142 48.9741C75.7812 48.923 76.0148 48.7452 75.8943 48.6676C75.8693 48.6517 75.6369 48.7627 75.6184 48.7485C75.5533 48.7011 75.635 48.5932 75.5921 48.5398C75.5723 48.5161 75.3913 48.5914 75.3959 48.5611C75.4046 48.4893 75.4609 48.407 75.6087 48.2811C75.6221 48.2696 75.8632 48.2166 75.8539 48.1683C75.8383 48.0909 75.9701 47.9325 75.7624 47.9186C75.7 47.9149 75.2854 48.0839 75.5497 47.9136C75.6049 47.878 76.1078 47.6868 75.6527 47.8023C75.5768 47.8205 74.9563 47.9608 75.3074 47.7541C75.3998 47.6997 75.7902 47.4934 75.7139 47.4906C75.702 47.4909 75.4876 47.6014 75.4557 47.5862C75.3466 47.5308 75.3308 47.4301 75.2231 47.3726C75.1939 47.3575 74.9816 47.4927 74.9455 47.4673C74.8459 47.3976 74.8513 47.2553 74.879 47.1288C74.8898 47.0823 75.0881 47.0201 75.1074 47.0082C75.4203 46.8151 74.9616 46.9969 74.9295 46.9959C74.7351 46.9854 74.9154 46.8247 74.8239 46.7746C74.7993 46.7606 74.5941 46.8761 74.5732 46.8809C74.368 46.9259 74.7642 46.7768 74.7932 46.7296C74.8756 46.5964 74.8163 46.5169 74.7514 46.4524C74.7272 46.4288 74.4982 46.5804 74.4794 46.558C74.3638 46.4285 74.31 46.2629 74.3683 46.0473C74.3797 46.0066 74.5753 45.9283 74.6149 45.9007C74.8924 45.7074 74.4557 45.858 74.4103 45.865C74.2024 45.8961 74.3548 45.7872 74.2962 45.75C74.0058 45.5669 73.9403 45.1911 73.868 44.9097C73.7725 44.5433 73.7985 44.194 73.5717 43.9202C73.5576 43.9029 73.3308 44.0669 73.3157 44.054C73.1285 43.876 73.0946 43.6159 72.8909 43.4472C72.8748 43.4334 72.6678 43.6006 72.6346 43.5834C72.5649 43.5492 72.532 43.4717 72.5666 43.3701C72.5825 43.3199 72.7972 43.2337 72.8092 43.1856C72.8374 43.0731 72.8069 42.9923 72.7276 42.9493C72.6934 42.9314 72.496 43.1231 72.4693 43.0885C72.2824 42.8552 72.08 42.641 72.1925 42.1914C72.2004 42.1609 72.6397 41.8297 72.528 41.8543C72.4014 41.9395 72.2548 42.0431 72.1208 42.1359C71.7959 41.8279 71.6936 41.3666 71.4491 40.9989C71.4389 40.9836 71.2269 41.1858 71.206 41.1573C71.086 40.9937 70.9011 40.8881 70.9941 40.5406C71.0034 40.5069 71.41 40.1948 71.3115 40.1958C71.2951 40.1979 71.1804 40.1645 71.0788 40.2159C71.0637 40.224 70.8886 40.3877 70.8642 40.3687C70.7296 40.2604 70.6574 40.0872 70.6566 39.8598C70.6577 39.8239 70.8706 39.6812 70.873 39.6541C70.8829 39.4564 70.6395 39.4706 70.726 39.2192C70.79 39.0567 71.1344 38.7816 71.426 38.4575C71.4683 38.413 71.4361 38.363 71.6211 38.1916C72.0839 37.7581 72.6188 37.3143 73.1099 36.8498C73.2182 36.7522 73.0289 36.7782 73.3323 36.5883C73.3545 36.5775 73.4935 36.5569 73.589 36.4846C73.6575 36.4374 73.8348 36.251 73.9285 36.1973C74.0215 36.1429 73.8848 36.3125 74.0022 36.2578C74.1208 36.2022 74.3262 35.9939 74.4075 36.0339ZM79.83 54.9388C80.0249 54.7805 79.2175 55.1721 79.4365 55.1304C79.4481 55.1279 79.8205 54.9467 79.83 54.9388ZM83.1873 60.6503C83.4872 60.3826 82.966 60.6461 82.7323 60.8494C82.4989 61.0527 83.0965 60.7316 83.1873 60.6503ZM83.8243 61.1254C84.0437 60.8882 82.9595 61.5542 83.2257 61.4942C83.2408 61.491 83.8116 61.1392 83.8243 61.1254ZM71.6708 38.5481C71.6791 38.5396 71.6617 38.502 71.6524 38.5093C71.4244 38.6814 71.4583 38.7552 71.6708 38.5481ZM84.4827 61.5731C84.6135 61.4582 84.4048 61.5011 84.2427 61.6448C84.1126 61.7607 84.3204 61.7165 84.4827 61.5731ZM79.4985 51.9516C79.5105 51.9456 79.5092 51.9119 79.4399 51.9422C79.2169 52.0399 79.2974 52.0533 79.4985 51.9516ZM85.1758 62.5984C85.1103 62.416 85.9305 61.7514 85.9377 61.975C85.9409 62.0181 85.6153 62.0962 85.5615 62.1861C85.4703 62.3597 86.0475 62.0352 85.797 62.2952C85.7574 62.3521 85.1827 62.6178 85.1744 62.5989C85.1748 62.5987 85.1753 62.5985 85.1758 62.5984ZM80.781 54.4308C80.7912 54.4245 80.7819 54.3806 80.7709 54.3849C80.5052 54.4903 80.5239 54.5792 80.781 54.4308ZM79.337 50.0576C79.3598 50.0466 79.3479 49.9461 79.3249 49.9508C78.8695 50.0625 78.8936 50.2697 79.337 50.0576ZM82.7143 56.6943C82.9873 56.5957 83.0438 56.6279 82.7479 56.8361C82.7416 56.7855 82.7213 56.7432 82.7143 56.6943Z" fill="black"/>
<path d="M97.7759 42.0066C97.9153 41.886 98.1237 41.9145 98.3132 41.9808C98.3737 42.0009 98.3892 42.1616 98.4295 42.1833C98.5066 42.2261 98.5449 42.1345 98.6301 42.1873C98.6585 42.2056 98.6987 42.4559 98.727 42.4694C98.8755 42.5438 98.969 42.4515 99.1082 42.4687C99.7686 42.5612 100.382 42.4934 101.014 42.444C101.229 42.4257 101.519 42.5855 101.704 42.4335C101.724 42.4158 101.654 42.2056 101.654 42.1868C101.654 41.8985 101.744 42.3364 101.805 42.3816C102.048 42.5599 102.263 42.5247 102.417 42.3966C102.484 42.3412 102.297 41.9358 102.436 42.1546C102.445 42.1693 102.485 42.4016 102.512 42.4204C102.574 42.4627 102.654 42.3986 102.695 42.407C102.776 42.4243 102.786 42.4195 102.853 42.405C102.944 42.3872 103.082 42.4724 103.167 42.3956C103.185 42.3785 103.098 42.1525 103.121 42.1042C103.145 42.0559 103.239 42.0529 103.282 42.1005C103.326 42.148 103.36 42.3345 103.376 42.3752C103.509 42.7189 103.485 42.2018 103.495 42.1863C103.684 41.918 103.959 42.1463 104.184 42.089C104.357 42.0444 104.514 41.9069 104.68 41.8791C104.879 41.8467 105.074 41.9329 105.257 41.865C105.276 41.8581 105.185 41.589 105.209 41.58C105.461 41.4842 105.723 41.4524 106.027 41.5758C106.057 41.5884 106.082 41.838 106.116 41.8651C106.322 42.0254 106.683 42.4437 106.527 41.3688C106.644 41.3843 106.785 41.396 106.93 41.5858C107.024 41.708 107.026 41.9855 107.075 41.8553C107.086 41.8262 107.01 41.6007 107.031 41.5746C107.119 41.4647 107.255 41.5121 107.334 41.3679C107.35 41.338 107.296 41.1325 107.294 41.0938C107.276 40.78 107.478 41.2588 107.505 41.2907C107.71 41.528 107.79 41.3976 107.926 41.3735C107.957 41.3681 107.857 41.0984 107.885 41.0831C108.031 41.0078 108.196 40.9953 108.376 41.0847C108.416 41.1052 108.438 41.3493 108.46 41.3712C108.556 41.4652 108.471 41.0138 108.561 41.0953C108.58 41.1119 108.617 41.3167 108.625 41.3384C108.744 41.6793 108.669 41.1754 108.677 41.162C108.777 40.9826 108.978 41.4816 109.09 41.3799C109.104 41.3672 109.012 41.1178 109.053 41.0978C109.327 40.9632 109.649 40.9673 109.979 41.1123C110.031 41.1345 110.04 41.3347 110.048 41.358C110.173 41.7209 110.096 41.2154 110.107 41.1935C110.193 41.0338 110.388 41.4303 110.341 40.819C110.87 40.924 111.291 40.4908 111.878 40.9319C111.885 40.9369 111.922 41.1858 111.936 41.1947C112.111 41.3048 112.008 40.9267 112.017 40.4387C112.019 40.316 112.202 40.8685 112.216 40.9088C112.269 41.0574 112.314 41.4295 112.328 41.4576C112.438 41.678 112.198 40.4648 112.288 40.4474C112.291 40.4489 112.321 40.6749 112.333 40.6957C112.341 40.7105 112.348 40.7172 112.354 40.7195C112.374 40.7275 112.384 40.6845 112.412 40.7408C112.497 40.9093 112.628 41.4961 112.642 41.1374C112.644 41.0909 112.497 40.4048 112.582 40.4223C112.615 40.4299 112.752 40.3912 112.799 40.4281C112.847 40.465 112.864 40.692 112.868 40.7011C113.031 40.9737 113.015 41.103 113.155 41.5265C113.295 41.9482 113.074 40.92 113.072 40.8006C113.071 40.6816 113.197 40.9079 113.233 40.988C113.269 41.0682 113.273 41.2138 113.3 41.258C113.476 41.5459 113.245 40.7365 113.249 40.5655C113.256 40.1607 113.48 40.9107 113.575 40.9689C113.601 40.9846 113.547 40.8144 113.563 40.7942C113.626 40.7163 113.722 40.9447 113.762 40.7082C113.769 40.6696 113.74 40.1963 113.857 40.5232C113.874 40.5703 113.896 40.7642 113.938 40.7999C114 40.8534 114.096 40.8761 114.134 40.8013C114.162 40.746 114.05 40.4427 114.119 40.5294C114.15 40.5682 114.15 40.7598 114.205 40.8173C114.259 40.8747 114.36 40.844 114.398 40.829C114.436 40.8139 114.361 40.5816 114.361 40.5649C114.36 40.4692 114.408 40.3383 114.415 40.3371C114.737 40.2346 115.136 40.5623 115.427 40.3535C115.45 40.3374 115.374 40.0924 115.377 40.0873C115.438 39.9623 115.529 40.6409 115.643 40.848C115.512 40.3447 115.57 40.4276 115.618 40.3575C115.641 40.3232 115.577 40.1315 115.575 40.1108C115.547 39.8032 115.67 40.1796 115.697 40.2562C115.796 40.5379 115.744 40.1892 115.811 40.3774C115.877 40.5641 115.901 40.859 115.959 40.841C115.931 40.6563 115.772 40.1946 115.797 40.1072C115.893 39.777 116.296 40.0696 116.44 40.0739C116.584 40.0781 116.619 40.0337 116.714 40.0787C116.885 40.1601 116.743 39.8241 116.789 39.6418C116.834 39.4594 117.015 40.3294 117.076 40.5108C117.136 40.6921 117.1 40.4986 117.142 40.596C117.184 40.6934 117.183 40.8277 117.23 40.8562C117.277 40.8847 117.291 40.5301 117.253 40.3338C117.172 39.9179 117.015 39.5007 117.15 39.6262C117.158 39.6337 117.199 39.8641 117.226 39.8813C117.44 40.0108 117.615 39.9754 117.825 40.0831C117.854 40.0983 117.901 40.3545 117.919 40.3661C118.102 40.4884 117.937 40.0795 117.885 39.5897C118.038 40.2186 118.185 40.589 118.292 40.5637C118.356 40.5485 118.27 40.2789 118.259 40.0755C118.255 40.0142 118.352 40.1887 118.325 40.0583C118.236 39.6321 118.063 39.1751 118.223 39.3316C118.231 39.3392 118.279 39.5725 118.3 39.5818C118.431 39.643 118.321 39.2017 118.42 39.1169C118.496 39.0505 118.734 39.2712 118.848 39.2855C119.046 39.9857 119.097 39.7977 118.997 39.3045C119.067 39.3056 119.133 39.2571 119.216 39.305C119.245 39.3213 119.289 39.5279 119.299 39.5489C119.441 39.8793 119.334 39.4022 119.343 39.3797C119.446 39.1559 119.674 39.4742 119.722 39.0831C119.723 39.069 119.588 38.582 119.732 38.924C119.742 38.9477 119.759 39.1826 119.834 39.179C119.909 39.1752 120.114 39.3967 120.145 39.1426C120.153 39.0814 120.094 38.6707 120.234 38.9632C120.253 39.003 120.288 39.1438 120.32 39.2183C120.425 39.4553 120.292 38.9615 120.453 39.3663C120.614 39.771 120.78 40.0602 120.791 39.7438C120.791 39.7345 120.696 39.3402 120.729 39.3368C120.782 39.3317 120.876 39.3908 120.927 39.3725C120.951 39.3636 120.861 39.1282 120.864 39.1225C120.983 38.9379 121.17 39.1146 121.374 39.1523C121.413 39.1594 121.399 38.8044 121.544 39.0426C121.704 39.3033 122.006 40.5026 122.077 40.1712C122.107 40.0382 121.706 38.5222 122.069 39.2577C122.232 38.9941 122.565 39.3225 122.696 38.9769C122.702 38.9616 122.596 38.5364 122.62 38.5346C122.658 38.5321 122.742 38.7194 122.772 38.7239C122.898 38.7469 122.933 38.5508 123.042 38.5429C123.084 38.5392 123.138 38.7439 123.188 38.7396C123.238 38.7352 123.179 38.4614 123.282 38.5683C123.36 38.65 123.588 39.1732 123.674 39.2139C123.495 38.6822 123.543 38.6783 123.569 38.5129C123.574 38.4808 123.496 38.3014 123.495 38.2767C123.489 38.1722 123.567 38.3167 123.556 38.2045C123.554 38.1775 123.492 37.9962 123.486 37.964C123.44 37.6816 123.655 38.0632 123.692 38.1298C123.833 38.3824 123.774 38.1394 123.846 38.233C123.918 38.3267 123.911 38.4776 123.975 38.5275C124.116 38.6275 124.215 38.5604 124.312 38.5355C124.35 38.5244 124.239 38.2924 124.243 38.2852C124.3 38.1963 124.456 38.4297 124.333 37.9328C124.828 39.1541 124.338 37.7957 124.528 38.0073C124.545 38.024 124.766 38.6061 124.763 38.7044C124.764 38.8011 124.651 38.6349 124.652 38.7858C124.652 38.8211 124.782 39.3941 124.788 39.4296C124.816 39.7125 124.496 38.8389 124.476 38.7918C124.254 38.2852 124.381 38.907 124.379 38.9535C124.359 39.1713 124.233 39.0767 124.205 39.237C124.187 39.3403 124.382 39.9179 124.337 39.9138C124.184 39.9012 123.863 39.1126 123.98 39.8514C124.005 40.0092 124.247 40.6305 123.981 40.1677C123.964 40.1385 123.738 39.7094 123.797 40.0094C123.804 40.0473 123.867 40.2311 123.865 40.2488C123.855 40.3637 123.775 40.2272 123.75 40.3141C123.724 40.4007 123.695 40.527 123.621 40.4826C123.575 40.4563 123.418 40.1275 123.374 40.0488C123.248 39.8219 123.331 40.2351 123.205 39.9515C123.078 39.6664 122.986 39.2003 122.847 39.0349C123.003 39.5146 123.159 40.0082 123.314 40.4912C123.146 40.528 122.93 40.4275 122.774 40.5016C122.755 40.5113 122.859 40.7625 122.841 40.7795C122.762 40.8503 122.621 40.6927 122.547 40.7976C122.49 40.8794 122.499 41.1782 122.442 41.2723C122.219 40.7374 122.16 40.9621 122.061 40.9379C122.026 40.9297 121.982 40.7821 121.946 40.7406C121.812 40.5878 122.002 41.0628 122.005 41.1461C122.014 41.5022 121.661 40.4032 121.559 40.4649C121.554 40.4676 121.664 41.0779 121.667 41.1172C121.679 41.3749 121.593 40.9159 121.541 40.8843C121.446 40.8267 121.354 40.7014 121.324 40.8994C121.315 40.9579 121.369 41.3426 121.234 41.0737C121.216 41.0385 121.16 40.843 121.152 40.8332C121.001 40.6716 121.188 41.2827 121.199 41.5056C121.211 41.7283 121.002 41.3305 120.949 41.2138C120.811 40.9119 120.941 41.0693 120.934 41.0378C120.849 40.662 120.811 40.7429 120.757 40.7253C120.569 40.1275 120.518 40.1822 120.702 40.7095C120.722 40.7671 120.74 40.7006 120.757 40.7253C120.896 41.3256 120.849 41.4221 120.607 40.8949C120.494 40.6476 120.437 40.3369 120.364 40.4786C120.331 40.5426 120.473 40.9505 120.464 41.076C120.443 41.3624 120.199 41.015 120.115 41.1058C120.085 41.1386 120.187 41.3548 120.169 41.385C120.12 41.466 120.012 41.3131 119.97 41.4199C119.966 41.4298 120.051 41.6628 120.03 41.672C119.879 41.7461 119.695 41.6344 119.529 41.6773C119.448 41.6983 119.341 41.8705 119.249 41.868C119.093 41.8642 118.819 41.5674 118.719 41.6858C118.652 41.7621 118.736 41.9956 118.746 42.1677C118.766 42.5009 118.493 41.969 118.454 41.8859C118.452 41.8831 118.506 41.808 118.436 41.6956C118.345 41.4463 118.454 41.8845 118.454 41.8859C118.428 41.8323 118.275 41.8158 118.259 41.8689C118.251 41.8979 118.321 42.1218 118.315 42.1326C118.181 42.386 118.013 42.4926 117.794 42.4369C117.789 42.4332 117.728 42.1785 117.718 42.1729C117.578 42.0892 117.59 42.4175 117.547 42.6252C117.505 42.8328 117.416 42.7898 117.251 42.3678C117.196 42.4402 117.049 42.2726 116.962 42.17C116.877 42.0671 116.994 42.5637 116.992 42.5747C116.916 42.9267 116.755 42.6661 116.582 42.6619C116.499 42.6593 116.366 42.7681 116.296 42.8425C116.241 42.9021 116.173 42.7955 116.13 42.8844C116.124 42.8963 116.186 43.1152 116.185 43.1243C116.18 43.4049 116.084 42.857 116.047 42.764C115.912 42.4254 115.837 42.2459 115.789 42.4315C115.779 42.474 115.904 43.2658 115.878 43.32C115.844 43.3889 115.797 43.1057 115.763 43.185C115.76 43.1915 115.801 43.3634 115.768 43.363C115.618 43.3635 115.437 43.2995 115.293 43.3505C115.273 43.3568 115.361 43.6243 115.333 43.638C115.202 43.7017 115.047 43.7257 114.883 43.6273C114.843 43.6022 114.822 43.4058 114.802 43.3505C114.682 43.0156 114.729 43.5299 114.721 43.5418C114.525 43.8363 114.238 43.423 114.031 43.6914C114.02 43.7069 114.023 44.2671 113.882 43.8151C113.872 43.785 113.73 43.322 113.753 43.6535C113.755 43.6742 113.833 43.9116 113.777 43.8971C113.721 43.8827 113.671 44.0618 113.547 43.8082C113.508 43.7284 113.363 43.2668 113.371 43.656C113.372 43.683 113.434 44.5541 113.284 43.9739C113.259 43.8784 113.146 43.2558 113.128 43.5896C113.124 43.6543 113.179 43.7877 113.155 43.8819C113.122 44.0168 113.022 43.8957 112.989 44.1119C112.987 44.1282 112.985 44.1464 112.984 44.1669C112.981 44.2182 113.009 44.65 112.908 44.3374C112.892 44.2884 112.865 44.0785 112.839 44.0594C112.713 43.9676 112.63 44.1274 112.496 44.0045C112.448 43.9614 112.403 43.6223 112.345 43.5401C112.288 43.458 112.192 43.3871 112.18 43.5483C112.169 43.7097 112.319 44.2351 112.266 44.2899C112.036 44.5279 111.708 44.2682 111.43 44.2775C111.389 44.2788 111.461 44.4629 111.403 44.4786C111.189 44.5373 110.857 44.7938 110.582 44.4294C110.363 44.1374 110.499 43.85 110.356 43.7427C110.286 43.6918 110.359 44.3235 110.35 44.3459C110.262 44.5719 110.112 44.3177 110.012 44.4275C109.991 44.4503 110.07 44.6957 110.052 44.7123C109.991 44.7712 109.892 44.6756 109.829 44.7109C109.801 44.7274 109.849 44.9175 109.818 44.9088C109.744 44.8904 109.667 44.823 109.562 44.6582C109.552 44.6432 109.54 44.3964 109.488 44.3985C109.405 44.4027 109.266 44.2482 109.215 44.4514C109.2 44.5125 109.297 44.9496 109.17 44.6611C109.144 44.6009 109.041 44.0728 109.075 44.5414C109.08 44.6194 109.104 45.2565 108.959 44.8753C108.92 44.775 108.785 44.3546 108.767 44.4295C108.765 44.4413 108.836 44.6718 108.814 44.7008C108.736 44.7992 108.629 44.7973 108.548 44.8933C108.526 44.9195 108.621 45.153 108.587 45.1842C108.493 45.2703 108.345 45.2395 108.222 45.1881C108.177 45.1687 108.157 44.9617 108.149 44.9405C108.021 44.5956 108.105 45.0817 108.097 45.1132C108.042 45.3026 107.918 45.094 107.845 45.1739C107.825 45.1954 107.896 45.42 107.896 45.4415C107.894 45.6523 107.834 45.2331 107.792 45.1951C107.675 45.0875 107.582 45.1288 107.5 45.1791C107.47 45.1979 107.569 45.4542 107.542 45.468C107.38 45.5547 107.196 45.5717 106.993 45.4663C106.954 45.446 106.925 45.2372 106.907 45.1923C106.783 44.8775 106.823 45.338 106.818 45.3841C106.795 45.5942 106.724 45.4205 106.671 45.469C106.412 45.709 106.011 45.6808 105.708 45.6779C105.315 45.6746 104.977 45.5538 104.638 45.693C104.616 45.7017 104.708 45.9663 104.69 45.9773C104.454 46.1063 104.185 46.0624 103.953 46.2053C103.934 46.2165 104.03 46.465 104.002 46.4916C103.944 46.5479 103.857 46.5555 103.768 46.4914C103.724 46.4607 103.712 46.2292 103.669 46.2029C103.569 46.141 103.48 46.1446 103.41 46.2064C103.381 46.2332 103.5 46.4817 103.457 46.4962C103.164 46.6 102.883 46.7217 102.484 46.465C102.457 46.4473 102.298 45.9207 102.281 46.0343C102.316 46.1827 102.362 46.3561 102.403 46.5141C101.983 46.7161 101.509 46.6458 101.056 46.738C101.038 46.7417 101.145 47.0144 101.11 47.0231C100.896 47.0765 100.722 47.2078 100.431 46.9874C100.403 46.9657 100.277 46.4688 100.238 46.56C100.234 46.5757 100.152 46.6691 100.158 46.7829C100.159 46.8 100.24 47.0258 100.212 47.0409C100.05 47.1232 99.8532 47.121 99.6355 47.03C99.6007 47.0147 99.5623 46.761 99.5371 46.748C99.3703 46.6541 99.2526 46.8883 99.0618 46.7019C98.9238 46.5791 98.8377 46.1459 98.675 45.7415C98.6587 45.6826 98.5854 45.6933 98.5192 45.45C98.3385 44.8422 98.173 44.1674 97.9775 43.5203C97.9363 43.3807 97.9092 43.5515 97.8489 43.2029C97.8598 43.1753 97.8642 43.0526 97.8569 42.9306C97.8458 42.848 97.7585 42.6062 97.7472 42.4996C97.7353 42.3933 97.8134 42.5946 97.8153 42.4651C97.8176 42.3338 97.7242 42.0571 97.7759 42.0066ZM116.579 41.7102C116.468 41.4855 116.678 42.358 116.682 42.1356C116.682 42.1239 116.585 41.7212 116.579 41.7102ZM122.723 39.783C122.533 39.4288 122.666 39.9973 122.809 40.2721C122.952 40.5466 122.78 39.8903 122.723 39.783ZM123.314 39.2825C123.136 39.0131 123.527 40.224 123.531 39.9513C123.532 39.9359 123.325 39.2981 123.314 39.2825ZM98.8668 45.5591C98.8625 45.5479 98.816 45.5489 98.8186 45.5605C98.873 45.8412 98.9653 45.8391 98.8668 45.5591ZM123.888 38.7548C123.808 38.6003 123.802 38.8126 123.902 39.0044C123.983 39.1586 123.988 38.9468 123.888 38.7548ZM113.667 41.3973C113.663 41.3843 113.631 41.3788 113.647 41.4526C113.698 41.6906 113.726 41.6146 113.667 41.3973ZM125.023 38.3366C124.84 38.3528 124.377 37.4022 124.599 37.4478C124.637 37.4568 124.647 37.7871 124.719 37.8616C124.846 37.9991 124.683 37.3562 124.873 37.6625C124.921 37.7139 125.025 38.3412 125.023 38.338C125.023 38.3376 125.023 38.3371 125.023 38.3366ZM116.288 40.672C116.284 40.6608 116.241 40.6601 116.243 40.6718C116.289 40.9537 116.378 40.9552 116.288 40.672ZM111.813 41.1945C111.805 41.1701 111.705 41.1657 111.706 41.1892C111.746 41.6561 111.949 41.6666 111.813 41.1945ZM118.855 39.3037C118.82 39.0156 118.862 38.9683 118.996 39.3042C118.948 39.2983 118.903 39.3081 118.855 39.3037Z" fill="black"/>
<path d="M110.724 27.2792C110.887 27.4113 110.924 27.6589 110.904 27.8698C110.897 27.9349 110.743 27.9829 110.732 28.0313C110.713 28.1284 110.812 28.1518 110.778 28.2493C110.767 28.282 110.528 28.3681 110.521 28.3997C110.485 28.5778 110.593 28.6531 110.608 28.8064C110.656 29.5194 110.825 30.1485 110.96 30.8032C111.007 31.0237 110.886 31.3466 111.056 31.5195C111.076 31.5396 111.278 31.4488 111.297 31.4472C111.586 31.4243 111.158 31.5536 111.119 31.6214C110.969 31.8945 111.021 32.1018 111.165 32.2606C111.227 32.3274 111.616 32.1079 111.409 32.2648C111.395 32.2755 111.166 32.3313 111.149 32.3603C111.112 32.4256 111.182 32.503 111.177 32.5464C111.166 32.6301 111.172 32.6413 111.192 32.711C111.218 32.8091 111.14 32.9503 111.223 33.0351C111.241 33.0529 111.461 32.9524 111.511 32.9745C111.561 32.9967 111.57 33.0948 111.526 33.1426C111.481 33.1904 111.296 33.2325 111.256 33.2507C110.92 33.4026 111.436 33.3569 111.452 33.3677C111.731 33.5535 111.515 33.8478 111.579 34.0788C111.63 34.2582 111.771 34.4178 111.802 34.5924C111.839 34.8023 111.752 34.9974 111.821 35.1905C111.828 35.2109 112.098 35.1214 112.107 35.1464C112.202 35.4083 112.233 35.6901 112.101 35.996C112.088 36.0269 111.837 36.0426 111.809 36.0763C111.643 36.2821 111.211 36.6302 112.292 36.5261C112.272 36.6459 112.254 36.7914 112.057 36.9302C111.93 37.0195 111.653 37.0031 111.78 37.0626C111.809 37.076 112.038 37.0125 112.063 37.0355C112.168 37.1328 112.113 37.2686 112.252 37.3617C112.28 37.3806 112.489 37.3408 112.528 37.3413C112.843 37.3481 112.351 37.5202 112.318 37.5454C112.066 37.7381 112.19 37.8288 112.203 37.9707C112.206 38.0035 112.483 37.9253 112.496 37.9557C112.56 38.1151 112.558 38.2885 112.452 38.4636C112.427 38.5026 112.182 38.4994 112.158 38.5195C112.055 38.6071 112.513 38.5694 112.423 38.6534C112.404 38.671 112.197 38.6863 112.174 38.6918C111.823 38.7758 112.332 38.7554 112.345 38.7656C112.513 38.8912 111.995 39.0348 112.083 39.1612C112.094 39.1764 112.352 39.1136 112.368 39.1582C112.402 39.2592 112.42 39.3647 112.421 39.4727C112.422 39.6693 112.361 39.8759 112.24 40.0815C112.212 40.1299 112.012 40.1153 111.988 40.1204C111.613 40.2015 112.124 40.1843 112.145 40.1973C112.293 40.2995 111.877 40.4468 112.489 40.4699C112.325 40.9816 112.71 41.4351 112.215 41.9748C112.21 41.9816 111.958 41.9946 111.948 42.0081C111.822 42.1713 112.208 42.1046 112.693 42.1565C112.815 42.1695 112.248 42.3006 112.207 42.3114C112.054 42.3508 111.679 42.3619 111.65 42.3729C111.421 42.4633 112.651 42.3322 112.66 42.4229C112.658 42.4259 112.431 42.4362 112.409 42.446C112.34 42.4766 112.433 42.4913 112.357 42.5221C112.182 42.5929 111.586 42.6706 111.942 42.7178C111.988 42.7236 112.684 42.6393 112.659 42.7238C112.649 42.7573 112.675 42.8988 112.634 42.9434C112.592 42.9879 112.365 42.9827 112.355 42.9865C112.068 43.1239 111.941 43.0952 111.506 43.1931C111.073 43.2909 112.118 43.1719 112.237 43.1823C112.355 43.1928 112.118 43.2965 112.034 43.3245C111.951 43.3525 111.806 43.3425 111.759 43.3646C111.455 43.5111 112.284 43.3632 112.453 43.3844C112.856 43.4342 112.087 43.581 112.019 43.6702C112 43.6944 112.175 43.6586 112.194 43.6766C112.265 43.748 112.027 43.8192 112.258 43.8854C112.296 43.8962 112.77 43.9206 112.432 44.0015C112.383 44.0131 112.188 44.014 112.148 44.0516C112.088 44.1078 112.055 44.2014 112.125 44.2481C112.177 44.2825 112.491 44.2051 112.397 44.2646C112.355 44.2911 112.164 44.2693 112.101 44.3175C112.038 44.3655 112.057 44.4698 112.067 44.5091C112.078 44.5484 112.317 44.5018 112.334 44.5034C112.429 44.5134 112.554 44.578 112.554 44.5848C112.618 44.9229 112.244 45.2798 112.413 45.5984C112.426 45.6235 112.679 45.5796 112.684 45.5831C112.8 45.6614 112.115 45.6615 111.895 45.7477C112.411 45.6847 112.321 45.7314 112.384 45.7884C112.415 45.8158 112.614 45.7783 112.634 45.779C112.943 45.7921 112.554 45.8644 112.474 45.8809C112.182 45.9416 112.534 45.9374 112.339 45.9783C112.145 46.0191 111.85 46.003 111.86 46.0628C112.046 46.0603 112.525 45.9649 112.609 46.0024C112.923 46.1429 112.578 46.5075 112.553 46.6497C112.528 46.7919 112.567 46.8331 112.509 46.9215C112.404 47.0809 112.757 46.989 112.93 47.0622C113.104 47.1356 112.217 47.1855 112.029 47.2188C111.84 47.2519 112.037 47.2451 111.935 47.2721C111.832 47.2991 111.699 47.2785 111.664 47.3201C111.629 47.3617 111.977 47.4276 112.177 47.4196C112.6 47.4025 113.037 47.3095 112.892 47.4244C112.884 47.431 112.65 47.4375 112.628 47.4617C112.468 47.6555 112.477 47.837 112.337 48.026C112.318 48.052 112.057 48.0587 112.043 48.0742C111.893 48.2351 112.323 48.1371 112.815 48.1643C112.17 48.2159 111.781 48.3027 111.789 48.4132C111.794 48.4795 112.073 48.4377 112.276 48.4588C112.337 48.4651 112.149 48.5326 112.282 48.5267C112.717 48.5075 113.196 48.4115 113.016 48.5446C113.007 48.5505 112.769 48.5605 112.757 48.5791C112.675 48.6995 113.128 48.6615 113.196 48.7769C113.249 48.8668 112.992 49.0637 112.959 49.1745C112.235 49.2514 112.412 49.3333 112.915 49.319C112.902 49.3898 112.938 49.4634 112.877 49.538C112.856 49.5637 112.645 49.5715 112.623 49.5769C112.272 49.6607 112.761 49.6375 112.782 49.6503C112.984 49.7928 112.631 49.9597 113.008 50.0785C113.021 50.0826 113.524 50.0361 113.162 50.1182C113.137 50.1237 112.903 50.0976 112.893 50.1727C112.884 50.2477 112.63 50.4143 112.873 50.4878C112.932 50.5055 113.347 50.5216 113.034 50.6077C112.991 50.6192 112.846 50.6279 112.767 50.6465C112.515 50.7062 113.025 50.6667 112.598 50.7512C112.17 50.8357 111.856 50.9477 112.165 51.0156C112.174 51.0179 112.579 50.997 112.576 51.0293C112.571 51.0813 112.495 51.1605 112.504 51.2158C112.508 51.2416 112.756 51.197 112.761 51.201C112.921 51.3599 112.712 51.506 112.635 51.698C112.621 51.7347 112.973 51.7951 112.711 51.8909C112.424 51.9958 111.189 52.061 111.5 52.1918C111.624 52.2444 113.19 52.1503 112.397 52.3643C112.623 52.5744 112.235 52.8355 112.547 53.0347C112.56 53.0436 112.998 53.0265 112.995 53.0511C112.99 53.0878 112.789 53.1294 112.779 53.1586C112.73 53.2784 112.915 53.3588 112.9 53.4645C112.895 53.5044 112.683 53.5149 112.677 53.5622C112.671 53.6122 112.951 53.6142 112.825 53.6948C112.729 53.7558 112.17 53.8693 112.111 53.94C112.669 53.8797 112.662 53.9187 112.818 53.9851C112.849 53.9976 113.041 53.9583 113.065 53.9631C113.168 53.9819 113.011 54.0282 113.123 54.0437C113.15 54.0475 113.34 54.0259 113.373 54.0278C113.659 54.0431 113.239 54.1679 113.166 54.1891C112.889 54.2704 113.139 54.2648 113.032 54.3193C112.926 54.3727 112.779 54.3283 112.717 54.3834C112.589 54.5009 112.632 54.6 112.635 54.709C112.638 54.7485 112.888 54.6922 112.895 54.6972C112.969 54.7726 112.706 54.8711 113.218 54.8627C111.917 55.0723 113.351 54.9015 113.102 55.0391C113.082 55.0498 112.464 55.1327 112.37 55.1113C112.275 55.0899 112.463 55.0162 112.315 54.9822C112.281 54.9731 111.694 54.9753 111.658 54.9725C111.376 54.9389 112.299 54.8206 112.349 54.8114C112.892 54.7073 112.258 54.6974 112.212 54.6797C112.004 54.6131 112.125 54.5184 111.975 54.4522C111.877 54.4086 111.271 54.4722 111.285 54.4318C111.331 54.294 112.17 54.1485 111.423 54.0997C111.263 54.0914 110.605 54.1942 111.114 54.0391C111.146 54.0294 111.614 53.9031 111.308 53.8952C111.269 53.8942 111.077 53.9165 111.06 53.9113C110.949 53.8761 111.099 53.8266 111.02 53.7822C110.94 53.7379 110.824 53.694 110.883 53.6285C110.918 53.5894 111.272 53.5034 111.358 53.4765C111.606 53.4 111.185 53.3956 111.488 53.3303C111.793 53.2647 112.268 53.271 112.459 53.1681C111.957 53.2224 111.442 53.2747 110.938 53.3277C110.937 53.163 111.079 52.9698 111.038 52.8039C111.032 52.7836 110.765 52.8353 110.752 52.8143C110.699 52.7253 110.881 52.6203 110.793 52.5283C110.724 52.4563 110.429 52.4047 110.349 52.3343C110.917 52.2214 110.709 52.1249 110.751 52.0312C110.766 51.9985 110.919 51.9833 110.967 51.9557C111.142 51.8521 110.64 51.9479 110.558 51.934C110.207 51.8772 111.353 51.7416 111.312 51.6328C111.31 51.6271 110.691 51.6228 110.651 51.6169C110.396 51.5807 110.863 51.5825 110.904 51.5373C110.978 51.4548 111.118 51.3863 110.93 51.3199C110.874 51.3014 110.486 51.285 110.775 51.2041C110.813 51.1935 111.016 51.1744 111.027 51.168C111.214 51.0538 110.579 51.122 110.358 51.0928C110.137 51.0636 110.566 50.9319 110.691 50.901C111.013 50.8204 110.834 50.9193 110.866 50.9181C111.251 50.9037 111.179 50.8507 111.206 50.8007C111.828 50.7248 111.783 50.6639 111.231 50.749C111.171 50.7585 111.233 50.7882 111.206 50.8007C110.59 50.8272 110.504 50.7664 111.067 50.6265C111.33 50.5608 111.646 50.5604 111.52 50.4634C111.463 50.4192 111.036 50.486 110.914 50.4547C110.637 50.3839 111.022 50.204 110.947 50.1091C110.92 50.0743 110.69 50.1366 110.663 50.1136C110.592 50.0529 110.761 49.9734 110.664 49.9145C110.654 49.9092 110.41 49.9515 110.405 49.9304C110.358 49.7716 110.5 49.6092 110.486 49.4421C110.479 49.3606 110.328 49.2289 110.346 49.1404C110.375 48.9853 110.713 48.7698 110.613 48.6529C110.548 48.577 110.304 48.6216 110.133 48.6045C109.801 48.5717 110.37 48.3878 110.458 48.3618C110.461 48.361 110.526 48.4258 110.649 48.3743C110.909 48.3238 110.459 48.3625 110.458 48.3618C110.515 48.3445 110.556 48.1991 110.506 48.1762C110.478 48.1638 110.246 48.1974 110.236 48.1905C110.008 48.0258 109.928 47.8402 110.017 47.6388C110.021 47.6349 110.282 47.6121 110.289 47.6034C110.393 47.4809 110.067 47.4442 109.868 47.373C109.669 47.3018 109.725 47.2223 110.166 47.1204C110.102 47.0566 110.29 46.9382 110.404 46.8686C110.518 46.7993 110.01 46.845 109.999 46.8411C109.662 46.7192 109.943 46.5981 109.971 46.4308C109.985 46.3513 109.895 46.2071 109.831 46.1295C109.78 46.0683 109.894 46.0161 109.812 45.9633C109.801 45.9561 109.576 45.988 109.567 45.9864C109.29 45.9467 109.845 45.9218 109.942 45.8975C110.296 45.8093 110.484 45.758 110.306 45.6886C110.265 45.6727 109.464 45.6972 109.413 45.6655C109.35 45.6242 109.636 45.6125 109.562 45.5701C109.556 45.5664 109.38 45.5855 109.385 45.5541C109.404 45.4082 109.49 45.2423 109.457 45.0959C109.454 45.0758 109.177 45.1304 109.167 45.1019C109.12 44.9683 109.115 44.8169 109.232 44.6699C109.262 44.6337 109.459 44.6344 109.516 44.6213C109.863 44.5418 109.347 44.5316 109.336 44.5223C109.066 44.3024 109.508 44.0682 109.264 43.8412C109.249 43.8289 108.692 43.7793 109.156 43.6855C109.187 43.6792 109.662 43.5851 109.33 43.5769C109.31 43.5764 109.065 43.6299 109.086 43.5771C109.106 43.5244 108.933 43.4599 109.197 43.3639C109.281 43.3336 109.754 43.2346 109.366 43.2074C109.339 43.2058 108.467 43.1905 109.058 43.096C109.156 43.0804 109.786 43.0247 109.455 42.9784C109.391 42.9697 109.254 43.0106 109.162 42.9799C109.021 42.933 109.182 42.8368 108.894 42.7904C108.843 42.7824 108.41 42.7693 108.73 42.6937C108.78 42.6818 108.992 42.6744 109.013 42.6489C109.115 42.5274 108.964 42.4271 109.098 42.2997C109.145 42.2549 109.487 42.2425 109.575 42.1922C109.662 42.1419 109.741 42.0501 109.582 42.0218C109.422 41.9934 108.885 42.0927 108.835 42.032C108.62 41.7695 108.911 41.4557 108.931 41.1713C108.934 41.129 108.744 41.1816 108.734 41.1207C108.698 40.8919 108.481 40.5193 108.875 40.2816C109.191 40.0927 109.46 40.2701 109.584 40.1367C109.643 40.0725 109.006 40.0659 108.985 40.0536C108.82 39.961 108.945 39.8683 108.965 39.7779C108.971 39.7535 108.968 39.7293 108.946 39.7056C108.926 39.6838 108.673 39.7301 108.659 39.7115C108.608 39.6485 108.716 39.5673 108.688 39.5054C108.676 39.4777 108.481 39.5026 108.494 39.475C108.521 39.4091 108.597 39.3455 108.773 39.2644C108.789 39.2569 109.035 39.2686 109.039 39.2206C109.045 39.1427 109.214 39.0249 109.017 38.9587C108.958 38.9391 108.514 38.9922 108.814 38.8992C108.877 38.8797 109.412 38.8284 108.943 38.8205C108.865 38.8182 108.23 38.7914 108.623 38.6863C108.727 38.6584 109.158 38.5636 109.085 38.5409C109.074 38.5381 108.838 38.5874 108.811 38.5645C108.721 38.4835 108.733 38.3846 108.644 38.3027C108.62 38.2811 108.38 38.3539 108.352 38.3207C108.275 38.2306 108.318 38.0945 108.379 37.9832C108.402 37.9421 108.61 37.9345 108.631 37.9283C108.985 37.8268 108.494 37.8802 108.464 37.871C108.279 37.8112 108.496 37.7069 108.422 37.6361C108.402 37.6163 108.173 37.6726 108.152 37.6717C107.942 37.6608 108.364 37.6226 108.405 37.5851C108.52 37.4796 108.484 37.3905 108.439 37.3134C108.423 37.2851 108.161 37.369 108.149 37.3433C108.074 37.1939 108.066 37.0208 108.181 36.8349C108.203 36.7997 108.412 36.7758 108.458 36.7599C108.777 36.649 108.317 36.6799 108.271 36.6752C108.063 36.6523 108.239 36.5871 108.193 36.5367C107.964 36.2935 108.002 35.9235 108.009 35.6428C108.017 35.2754 108.136 34.9552 107.991 34.6428C107.982 34.6227 107.721 34.7219 107.71 34.7057C107.578 34.4966 107.613 34.239 107.465 34.0386C107.453 34.0222 107.21 34.1293 107.182 34.1059C107.125 34.058 107.113 33.9754 107.173 33.8879C107.202 33.8452 107.43 33.8142 107.455 33.7724C107.512 33.6746 107.505 33.5946 107.44 33.535C107.412 33.5097 107.172 33.6441 107.155 33.6048C107.036 33.3404 106.9 33.0994 107.124 32.7022C107.139 32.6751 107.647 32.4629 107.533 32.4602C107.389 32.5117 107.222 32.576 107.069 32.633C106.838 32.2743 106.858 31.8213 106.715 31.4254C106.709 31.4089 106.455 31.5543 106.442 31.5231C106.368 31.3468 106.217 31.2087 106.392 30.9041C106.41 30.8745 106.877 30.663 106.782 30.6445C106.765 30.6416 106.663 30.5876 106.553 30.6164C106.537 30.6211 106.329 30.7399 106.31 30.7178C106.208 30.5909 106.178 30.4093 106.236 30.2048C106.244 30.1694 106.484 30.0774 106.492 30.051C106.549 29.8692 106.311 29.8354 106.455 29.6204C106.549 29.4703 106.952 29.2883 107.302 29.0263C107.35 28.9883 107.335 28.9426 107.549 28.8092C108.09 28.4779 108.706 28.1561 109.281 27.8003C109.407 27.727 109.206 27.6971 109.551 27.5884C109.571 27.5753 109.715 27.5899 109.824 27.5403C109.902 27.5096 110.112 27.361 110.217 27.3308C110.322 27.3029 110.15 27.4352 110.277 27.4072C110.406 27.3797 110.655 27.2267 110.724 27.2792ZM110.913 46.5564C111.151 46.4781 110.258 46.5643 110.478 46.5988C110.489 46.6004 110.902 46.5604 110.913 46.5564ZM111.752 52.8972C112.137 52.7826 111.553 52.7994 111.255 52.8839C110.958 52.9682 111.635 52.932 111.752 52.8972ZM112.12 53.5751C112.421 53.4615 111.155 53.5936 111.421 53.6484C111.436 53.6516 112.102 53.5818 112.12 53.5751ZM107.517 29.1581C107.527 29.1514 107.517 29.1091 107.507 29.1143C107.247 29.2334 107.266 29.3158 107.517 29.1581ZM112.514 54.2464C112.682 54.2026 112.476 54.1538 112.267 54.2091C112.099 54.254 112.304 54.3012 112.514 54.2464ZM111.583 43.7163C111.596 43.7141 111.605 43.6825 111.53 43.6906C111.288 43.717 111.361 43.7525 111.583 43.7163ZM112.668 55.4428C112.695 55.2617 113.726 55.0316 113.631 55.2401C113.614 55.2808 113.288 55.1954 113.2 55.2564C113.039 55.3633 113.701 55.3425 113.358 55.4575C113.297 55.4883 112.664 55.4597 112.666 55.4426C112.667 55.4427 112.667 55.4427 112.668 55.4428ZM111.982 46.4131C111.994 46.4108 112 46.3674 111.989 46.3676C111.703 46.3746 111.689 46.4621 111.982 46.4131ZM111.96 41.8854C111.985 41.8806 111.999 41.7805 111.976 41.7796C111.507 41.773 111.477 41.9757 111.96 41.8854ZM112.939 49.1783C113.229 49.1927 113.269 49.2434 112.915 49.3187C112.929 49.2716 112.927 49.2258 112.939 49.1783Z" fill="black"/>
<defs>
<radialGradient id="paint0_radial_5560_823" cx="0" cy="0" r="1" gradientTransform="matrix(-8.73377 23.1455 -9.0412 -26.9339 131.17 90.3819)" gradientUnits="userSpaceOnUse">
<stop stop-color="#D9FF60"/>
<stop offset="0.192308" stop-color="#D9FF60"/>
<stop offset="0.8125" stop-color="#126630"/>
<stop offset="0.9375" stop-color="#126630"/>
</radialGradient>
<radialGradient id="paint1_radial_5560_823" cx="0" cy="0" r="1" gradientTransform="matrix(-8.73377 23.1455 -9.0412 -26.9339 146.615 116.238)" gradientUnits="userSpaceOnUse">
<stop stop-color="#D9FF60"/>
<stop offset="0.192308" stop-color="#D9FF60"/>
<stop offset="0.8125" stop-color="#126630"/>
<stop offset="0.9375" stop-color="#126630"/>
</radialGradient>
<radialGradient id="paint2_radial_5560_823" cx="0" cy="0" r="1" gradientTransform="matrix(-12.2222 19.278 -12.6524 -22.4335 126.646 137.561)" gradientUnits="userSpaceOnUse">
<stop stop-color="#D9FF60"/>
<stop offset="0.192308" stop-color="#D9FF60"/>
<stop offset="0.8125" stop-color="#126630"/>
<stop offset="0.9375" stop-color="#126630"/>
</radialGradient>
<radialGradient id="paint3_radial_5560_823" cx="0" cy="0" r="1" gradientTransform="matrix(-12.2222 20.1796 -12.6524 -23.4825 137 156.77)" gradientUnits="userSpaceOnUse">
<stop stop-color="#D9FF60"/>
<stop offset="0.192308" stop-color="#D9FF60"/>
<stop offset="0.8125" stop-color="#126630"/>
<stop offset="0.9375" stop-color="#126630"/>
</radialGradient>
<radialGradient id="paint4_radial_5560_823" cx="0" cy="0" r="1" gradientTransform="matrix(-25.4222 32.3902 -26.3171 -37.6919 108.412 98.6805)" gradientUnits="userSpaceOnUse">
<stop stop-color="#D9FF60"/>
<stop offset="0.192308" stop-color="#D9FF60"/>
<stop offset="0.8125" stop-color="#126630"/>
<stop offset="0.9375" stop-color="#126630"/>
</radialGradient>
<radialGradient id="paint5_radial_5560_823" cx="0" cy="0" r="1" gradientTransform="matrix(-12.2222 19.278 -12.6524 -22.4335 94.8361 134.195)" gradientUnits="userSpaceOnUse">
<stop stop-color="#D9FF60"/>
<stop offset="0.192308" stop-color="#D9FF60"/>
<stop offset="0.8125" stop-color="#126630"/>
<stop offset="0.9375" stop-color="#126630"/>
</radialGradient>
<radialGradient id="paint6_radial_5560_823" cx="0" cy="0" r="1" gradientTransform="matrix(-12.2222 20.1796 -12.6524 -23.4825 84.6582 161.703)" gradientUnits="userSpaceOnUse">
<stop stop-color="#D9FF60"/>
<stop offset="0.192308" stop-color="#D9FF60"/>
<stop offset="0.8125" stop-color="#126630"/>
<stop offset="0.9375" stop-color="#126630"/>
</radialGradient>
<radialGradient id="paint7_radial_5560_823" cx="0" cy="0" r="1" gradientUnits="userSpaceOnUse" gradientTransform="translate(85.5586 31.5654) rotate(113.21) scale(60.4835 66.3843)">
<stop stop-color="#D9FF60"/>
<stop offset="0.192308" stop-color="#D9FF60"/>
<stop offset="0.8125" stop-color="#126630"/>
<stop offset="0.9375" stop-color="#126630"/>
</radialGradient>
<radialGradient id="paint8_radial_5560_823" cx="0" cy="0" r="1" gradientTransform="matrix(-9.65026 22.8061 -9.98994 -26.539 11.9532 10.4414)" gradientUnits="userSpaceOnUse">
<stop stop-color="#D9FF60"/>
<stop offset="0.192308" stop-color="#D9FF60"/>
<stop offset="0.8125" stop-color="#126630"/>
<stop offset="0.9375" stop-color="#126630"/>
</radialGradient>
<radialGradient id="paint9_radial_5560_823" cx="0" cy="0" r="1" gradientTransform="matrix(-8.40601 26.0366 -8.70189 -30.2982 10.412 11.9204)" gradientUnits="userSpaceOnUse">
<stop stop-color="#D9FF60"/>
<stop offset="0.192308" stop-color="#D9FF60"/>
<stop offset="0.8125" stop-color="#126630"/>
<stop offset="0.9375" stop-color="#126630"/>
</radialGradient>
</defs>
</svg>
