<svg width="190" height="190" viewBox="0 0 190 190" fill="none" xmlns="http://www.w3.org/2000/svg">
<ellipse cx="110.875" cy="116.487" rx="8.93227" ry="22.8666" transform="rotate(-25.3925 110.875 116.487)" fill="url(#paint0_radial_5588_175)"/>
<ellipse cx="135.51" cy="125.598" rx="8.93227" ry="22.8666" transform="rotate(-108.113 135.51 125.598)" fill="url(#paint1_radial_5588_175)"/>
<ellipse cx="109.242" cy="143.367" rx="12.5" ry="19.0458" transform="rotate(-44.2313 109.242 143.367)" fill="url(#paint2_radial_5588_175)"/>
<ellipse cx="113.058" cy="163.415" rx="12.5" ry="19.9364" transform="rotate(14.3732 113.058 163.415)" fill="url(#paint3_radial_5588_175)"/>
<ellipse cx="102.924" cy="115.851" rx="26" ry="32" transform="rotate(9.49692 102.924 115.851)" fill="url(#paint4_radial_5588_175)"/>
<ellipse cx="86.3575" cy="106.761" rx="8.93227" ry="22.8666" transform="rotate(61.4979 86.3575 106.761)" fill="url(#paint5_radial_5588_175)"/>
<ellipse cx="69.9196" cy="127.302" rx="8.93227" ry="22.8666" transform="rotate(13.2047 69.9196 127.302)" fill="url(#paint6_radial_5588_175)"/>
<ellipse cx="87.8849" cy="148.395" rx="12.5" ry="19.0458" transform="rotate(22.7146 87.8849 148.395)" fill="url(#paint7_radial_5588_175)"/>
<ellipse cx="67.4189" cy="163.066" rx="12.5" ry="19.9364" transform="rotate(75.5987 67.4189 163.066)" fill="url(#paint8_radial_5588_175)"/>
<path d="M148 58C148 80.6437 133.353 97 108.5 97C83.6473 97 58.0001 80.6437 58.0001 58C58.0001 33 71.6474 17 96.5002 17C121.353 17 148 35.3563 148 58Z" fill="url(#paint9_radial_5588_175)"/>
<ellipse cx="103.777" cy="54.94" rx="14" ry="16.5" transform="rotate(-25.7427 103.777 54.94)" fill="black"/>
<circle cx="109" cy="50.9961" r="3" fill="white"/>
<ellipse cx="133.992" cy="55.1286" rx="11.6164" ry="14.6344" transform="rotate(15 133.992 55.1286)" fill="black"/>
<circle cx="137" cy="48" r="3" fill="white"/>
<defs>
<radialGradient id="paint0_radial_5588_175" cx="0" cy="0" r="1" gradientTransform="matrix(-8.73377 23.1455 -9.0412 -26.9339 112.761 104.217)" gradientUnits="userSpaceOnUse">
<stop stop-color="#60FFC5"/>
<stop offset="0.192308" stop-color="#60FFBA"/>
<stop offset="0.8125" stop-color="#255F3A"/>
<stop offset="0.9375" stop-color="#126630"/>
</radialGradient>
<radialGradient id="paint1_radial_5588_175" cx="0" cy="0" r="1" gradientTransform="matrix(-8.73377 23.1455 -9.0412 -26.9339 137.396 113.329)" gradientUnits="userSpaceOnUse">
<stop stop-color="#60FFC5"/>
<stop offset="0.192308" stop-color="#60FFBA"/>
<stop offset="0.8125" stop-color="#255F3A"/>
<stop offset="0.9375" stop-color="#126630"/>
</radialGradient>
<radialGradient id="paint2_radial_5588_175" cx="0" cy="0" r="1" gradientTransform="matrix(-12.2222 19.278 -12.6524 -22.4335 111.881 133.147)" gradientUnits="userSpaceOnUse">
<stop stop-color="#60FFC5"/>
<stop offset="0.192308" stop-color="#60FFBA"/>
<stop offset="0.8125" stop-color="#255F3A"/>
<stop offset="0.9375" stop-color="#126630"/>
</radialGradient>
<radialGradient id="paint3_radial_5588_175" cx="0" cy="0" r="1" gradientTransform="matrix(-12.2222 20.1796 -12.6524 -23.4825 115.697 152.718)" gradientUnits="userSpaceOnUse">
<stop stop-color="#60FFC5"/>
<stop offset="0.192308" stop-color="#60FFBA"/>
<stop offset="0.8125" stop-color="#255F3A"/>
<stop offset="0.9375" stop-color="#126630"/>
</radialGradient>
<radialGradient id="paint4_radial_5588_175" cx="0" cy="0" r="1" gradientTransform="matrix(-25.4222 32.3902 -26.3171 -37.6919 108.412 98.6805)" gradientUnits="userSpaceOnUse">
<stop stop-color="#60FFC5"/>
<stop offset="0.192308" stop-color="#60FFBA"/>
<stop offset="0.8125" stop-color="#255F3A"/>
<stop offset="0.9375" stop-color="#126630"/>
</radialGradient>
<radialGradient id="paint5_radial_5588_175" cx="0" cy="0" r="1" gradientTransform="matrix(-8.73377 23.1455 -9.0412 -26.9339 88.2432 94.4915)" gradientUnits="userSpaceOnUse">
<stop stop-color="#60FFC5"/>
<stop offset="0.192308" stop-color="#60FFBA"/>
<stop offset="0.8125" stop-color="#255F3A"/>
<stop offset="0.9375" stop-color="#126630"/>
</radialGradient>
<radialGradient id="paint6_radial_5588_175" cx="0" cy="0" r="1" gradientTransform="matrix(-8.73377 23.1455 -9.0412 -26.9339 71.8053 115.033)" gradientUnits="userSpaceOnUse">
<stop stop-color="#60FFC5"/>
<stop offset="0.192308" stop-color="#60FFBA"/>
<stop offset="0.8125" stop-color="#255F3A"/>
<stop offset="0.9375" stop-color="#126630"/>
</radialGradient>
<radialGradient id="paint7_radial_5588_175" cx="0" cy="0" r="1" gradientTransform="matrix(-12.2222 19.278 -12.6524 -22.4335 90.5238 138.176)" gradientUnits="userSpaceOnUse">
<stop stop-color="#60FFC5"/>
<stop offset="0.192308" stop-color="#60FFBA"/>
<stop offset="0.8125" stop-color="#255F3A"/>
<stop offset="0.9375" stop-color="#126630"/>
</radialGradient>
<radialGradient id="paint8_radial_5588_175" cx="0" cy="0" r="1" gradientTransform="matrix(-12.2222 20.1796 -12.6524 -23.4825 70.0578 152.368)" gradientUnits="userSpaceOnUse">
<stop stop-color="#60FFC5"/>
<stop offset="0.192308" stop-color="#60FFBA"/>
<stop offset="0.8125" stop-color="#255F3A"/>
<stop offset="0.9375" stop-color="#126630"/>
</radialGradient>
<radialGradient id="paint9_radial_5588_175" cx="0" cy="0" r="1" gradientUnits="userSpaceOnUse" gradientTransform="translate(112.5 36) rotate(136.675) scale(60.4835 66.3843)">
<stop stop-color="#60FFC1"/>
<stop offset="0.192308" stop-color="#60FFC1"/>
<stop offset="0.8125" stop-color="#126630"/>
<stop offset="0.9375" stop-color="#126630"/>
</radialGradient>
</defs>
</svg>
