<svg width="190" height="195" viewBox="0 0 190 195" fill="none" xmlns="http://www.w3.org/2000/svg">
<ellipse cx="67.925" cy="157.834" rx="26" ry="32" transform="rotate(9.49692 67.925 157.834)" fill="url(#paint0_radial_5542_411)"/>
<path d="M135.218 170.631C119.207 186.642 97.2839 187.851 79.7104 170.277C62.1368 152.704 55.5671 123.003 71.5786 106.991C89.2563 89.3137 110.22 87.6501 127.794 105.224C145.367 122.797 151.23 154.619 135.218 170.631Z" fill="url(#paint1_radial_5542_411)"/>
<ellipse cx="107.028" cy="131.093" rx="14" ry="16.5" transform="rotate(19.2573 107.028 131.093)" fill="black"/>
<ellipse cx="128.262" cy="152.588" rx="11.6164" ry="14.6344" transform="rotate(60 128.262 152.588)" fill="black"/>
<circle cx="113.509" cy="131.997" r="3" transform="rotate(45 113.509 131.997)" fill="white"/>
<circle cx="135.43" cy="149.674" r="3" transform="rotate(45 135.43 149.674)" fill="white"/>
<ellipse cx="9.86958" cy="22.5314" rx="9.86958" ry="22.5314" transform="matrix(0.918111 0.396322 -0.264275 0.964447 54.9104 118)" fill="url(#paint2_radial_5542_411)"/>
<ellipse cx="8.59705" cy="25.7229" rx="8.59705" ry="25.7229" transform="matrix(-0.543186 -0.839612 0.785908 -0.618343 52.3411 173.25)" fill="url(#paint3_radial_5542_411)"/>
<ellipse cx="84.9867" cy="160.05" rx="12.5" ry="19.0458" transform="rotate(-51.7216 84.9867 160.05)" fill="url(#paint4_radial_5542_411)"/>
<ellipse cx="83.7587" cy="178.119" rx="12.5" ry="19.9364" transform="rotate(51.6832 83.7587 178.119)" fill="url(#paint5_radial_5542_411)"/>
<ellipse cx="62.5689" cy="162.694" rx="12.5" ry="19.0458" transform="rotate(-56.6412 62.5689 162.694)" fill="url(#paint6_radial_5542_411)"/>
<ellipse cx="60.0099" cy="178.909" rx="12.5" ry="19.9364" transform="rotate(54.5811 60.0099 178.909)" fill="url(#paint7_radial_5542_411)"/>
<defs>
<radialGradient id="paint0_radial_5542_411" cx="0" cy="0" r="1" gradientTransform="matrix(-25.4222 32.3902 -26.3171 -37.6919 73.4139 140.663)" gradientUnits="userSpaceOnUse">
<stop stop-color="#D9FF60"/>
<stop offset="0.192308" stop-color="#D9FF60"/>
<stop offset="0.8125" stop-color="#126630"/>
<stop offset="0.9375" stop-color="#126630"/>
</radialGradient>
<radialGradient id="paint1_radial_5542_411" cx="0" cy="0" r="1" gradientUnits="userSpaceOnUse" gradientTransform="translate(125.672 129.972) rotate(-178.325) scale(60.4835 66.3843)">
<stop stop-color="#D9FF60"/>
<stop offset="0.192308" stop-color="#D9FF60"/>
<stop offset="0.8125" stop-color="#126630"/>
<stop offset="0.9375" stop-color="#126630"/>
</radialGradient>
<radialGradient id="paint2_radial_5542_411" cx="0" cy="0" r="1" gradientTransform="matrix(-9.65026 22.8061 -9.98994 -26.539 11.9532 10.4414)" gradientUnits="userSpaceOnUse">
<stop stop-color="#D9FF60"/>
<stop offset="0.192308" stop-color="#D9FF60"/>
<stop offset="0.8125" stop-color="#126630"/>
<stop offset="0.9375" stop-color="#126630"/>
</radialGradient>
<radialGradient id="paint3_radial_5542_411" cx="0" cy="0" r="1" gradientTransform="matrix(-8.40601 26.0366 -8.70189 -30.2982 10.412 11.9204)" gradientUnits="userSpaceOnUse">
<stop stop-color="#D9FF60"/>
<stop offset="0.192308" stop-color="#D9FF60"/>
<stop offset="0.8125" stop-color="#126630"/>
<stop offset="0.9375" stop-color="#126630"/>
</radialGradient>
<radialGradient id="paint4_radial_5542_411" cx="0" cy="0" r="1" gradientTransform="matrix(-12.2222 19.278 -12.6524 -22.4335 87.6255 149.831)" gradientUnits="userSpaceOnUse">
<stop stop-color="#D9FF60"/>
<stop offset="0.192308" stop-color="#D9FF60"/>
<stop offset="0.8125" stop-color="#126630"/>
<stop offset="0.9375" stop-color="#126630"/>
</radialGradient>
<radialGradient id="paint5_radial_5542_411" cx="0" cy="0" r="1" gradientTransform="matrix(-12.2222 20.1796 -12.6524 -23.4825 86.3976 167.422)" gradientUnits="userSpaceOnUse">
<stop stop-color="#D9FF60"/>
<stop offset="0.192308" stop-color="#D9FF60"/>
<stop offset="0.8125" stop-color="#126630"/>
<stop offset="0.9375" stop-color="#126630"/>
</radialGradient>
<radialGradient id="paint6_radial_5542_411" cx="0" cy="0" r="1" gradientTransform="matrix(-12.2222 19.278 -12.6524 -22.4335 65.2078 152.475)" gradientUnits="userSpaceOnUse">
<stop stop-color="#D9FF60"/>
<stop offset="0.192308" stop-color="#D9FF60"/>
<stop offset="0.8125" stop-color="#126630"/>
<stop offset="0.9375" stop-color="#126630"/>
</radialGradient>
<radialGradient id="paint7_radial_5542_411" cx="0" cy="0" r="1" gradientTransform="matrix(-12.2222 20.1796 -12.6524 -23.4825 62.6488 168.211)" gradientUnits="userSpaceOnUse">
<stop stop-color="#D9FF60"/>
<stop offset="0.192308" stop-color="#D9FF60"/>
<stop offset="0.8125" stop-color="#126630"/>
<stop offset="0.9375" stop-color="#126630"/>
</radialGradient>
</defs>
</svg>
