<svg width="196" height="193" viewBox="0 0 196 193" fill="none" xmlns="http://www.w3.org/2000/svg">
<ellipse cx="138.799" cy="100.144" rx="8.93227" ry="22.8666" transform="rotate(-81.6484 138.799 100.144)" fill="url(#paint0_radial_5536_300)"/>
<ellipse cx="172.838" cy="102.07" rx="8.93227" ry="22.8666" transform="rotate(-92.7122 172.838 102.07)" fill="url(#paint1_radial_5536_300)"/>
<ellipse cx="116.648" cy="148.944" rx="12.5" ry="19.0458" transform="rotate(-10.1045 116.648 148.944)" fill="url(#paint2_radial_5536_300)"/>
<ellipse cx="123.656" cy="172.04" rx="12.5" ry="19.9364" transform="rotate(-8.06581 123.656 172.04)" fill="url(#paint3_radial_5536_300)"/>
<ellipse cx="102.923" cy="115.851" rx="26" ry="32" transform="rotate(9.49692 102.923 115.851)" fill="url(#paint4_radial_5536_300)"/>
<ellipse cx="81.9937" cy="146.778" rx="12.5" ry="19.0458" transform="rotate(33.8732 81.9937 146.778)" fill="url(#paint5_radial_5536_300)"/>
<ellipse cx="63.26" cy="174.143" rx="12.5" ry="19.9364" transform="rotate(32.787 63.26 174.143)" fill="url(#paint6_radial_5536_300)"/>
<path d="M151.53 48.4363C155.329 70.759 143.634 89.3411 119.134 93.5113C94.6333 97.6814 66.6053 85.8605 62.8058 63.5378C58.6109 38.8923 69.38 20.8292 93.8805 16.659C118.381 12.4889 147.73 26.1137 151.53 48.4363Z" fill="url(#paint7_radial_5536_300)"/>
<ellipse cx="102.97" cy="48.5615" rx="14" ry="16.5" transform="rotate(-35.4023 102.97 48.5615)" fill="black"/>
<ellipse cx="132.787" cy="43.6735" rx="11.6164" ry="14.6344" transform="rotate(5.34039 132.787 43.6735)" fill="black"/>
<circle cx="107.457" cy="43.7978" r="3" transform="rotate(-9.65961 107.457 43.7978)" fill="white"/>
<circle cx="134.557" cy="36.1416" r="3" transform="rotate(-9.65961 134.557 36.1416)" fill="white"/>
<ellipse cx="9.86958" cy="22.5314" rx="9.86958" ry="22.5314" transform="matrix(0.463096 -0.886308 0.942277 0.334834 94.8802 110.072)" fill="url(#paint8_radial_5536_300)"/>
<ellipse cx="8.59705" cy="25.7229" rx="8.59705" ry="25.7229" transform="matrix(-0.0682605 -0.997668 0.987113 -0.160028 123.431 123.127)" fill="url(#paint9_radial_5536_300)"/>
<defs>
<radialGradient id="paint0_radial_5536_300" cx="0" cy="0" r="1" gradientTransform="matrix(-8.73377 23.1455 -9.0412 -26.9339 140.685 87.8741)" gradientUnits="userSpaceOnUse">
<stop stop-color="#D9FF60"/>
<stop offset="0.192308" stop-color="#D9FF60"/>
<stop offset="0.8125" stop-color="#126630"/>
<stop offset="0.9375" stop-color="#126630"/>
</radialGradient>
<radialGradient id="paint1_radial_5536_300" cx="0" cy="0" r="1" gradientTransform="matrix(-8.73377 23.1455 -9.0412 -26.9339 174.724 89.8)" gradientUnits="userSpaceOnUse">
<stop stop-color="#D9FF60"/>
<stop offset="0.192308" stop-color="#D9FF60"/>
<stop offset="0.8125" stop-color="#126630"/>
<stop offset="0.9375" stop-color="#126630"/>
</radialGradient>
<radialGradient id="paint2_radial_5536_300" cx="0" cy="0" r="1" gradientTransform="matrix(-12.2222 19.278 -12.6524 -22.4335 119.286 138.724)" gradientUnits="userSpaceOnUse">
<stop stop-color="#D9FF60"/>
<stop offset="0.192308" stop-color="#D9FF60"/>
<stop offset="0.8125" stop-color="#126630"/>
<stop offset="0.9375" stop-color="#126630"/>
</radialGradient>
<radialGradient id="paint3_radial_5536_300" cx="0" cy="0" r="1" gradientTransform="matrix(-12.2222 20.1796 -12.6524 -23.4825 126.295 161.342)" gradientUnits="userSpaceOnUse">
<stop stop-color="#D9FF60"/>
<stop offset="0.192308" stop-color="#D9FF60"/>
<stop offset="0.8125" stop-color="#126630"/>
<stop offset="0.9375" stop-color="#126630"/>
</radialGradient>
<radialGradient id="paint4_radial_5536_300" cx="0" cy="0" r="1" gradientTransform="matrix(-25.4222 32.3902 -26.3171 -37.6919 108.412 98.6805)" gradientUnits="userSpaceOnUse">
<stop stop-color="#D9FF60"/>
<stop offset="0.192308" stop-color="#D9FF60"/>
<stop offset="0.8125" stop-color="#126630"/>
<stop offset="0.9375" stop-color="#126630"/>
</radialGradient>
<radialGradient id="paint5_radial_5536_300" cx="0" cy="0" r="1" gradientTransform="matrix(-12.2222 19.278 -12.6524 -22.4335 84.6326 136.559)" gradientUnits="userSpaceOnUse">
<stop stop-color="#D9FF60"/>
<stop offset="0.192308" stop-color="#D9FF60"/>
<stop offset="0.8125" stop-color="#126630"/>
<stop offset="0.9375" stop-color="#126630"/>
</radialGradient>
<radialGradient id="paint6_radial_5536_300" cx="0" cy="0" r="1" gradientTransform="matrix(-12.2222 20.1796 -12.6524 -23.4825 65.8989 163.445)" gradientUnits="userSpaceOnUse">
<stop stop-color="#D9FF60"/>
<stop offset="0.192308" stop-color="#D9FF60"/>
<stop offset="0.8125" stop-color="#126630"/>
<stop offset="0.9375" stop-color="#126630"/>
</radialGradient>
<radialGradient id="paint7_radial_5536_300" cx="0" cy="0" r="1" gradientUnits="userSpaceOnUse" gradientTransform="translate(112.842 32.705) rotate(127.015) scale(60.4835 66.3843)">
<stop stop-color="#D9FF60"/>
<stop offset="0.192308" stop-color="#D9FF60"/>
<stop offset="0.8125" stop-color="#126630"/>
<stop offset="0.9375" stop-color="#126630"/>
</radialGradient>
<radialGradient id="paint8_radial_5536_300" cx="0" cy="0" r="1" gradientTransform="matrix(-9.65026 22.8061 -9.98994 -26.539 11.9532 10.4414)" gradientUnits="userSpaceOnUse">
<stop stop-color="#D9FF60"/>
<stop offset="0.192308" stop-color="#D9FF60"/>
<stop offset="0.8125" stop-color="#126630"/>
<stop offset="0.9375" stop-color="#126630"/>
</radialGradient>
<radialGradient id="paint9_radial_5536_300" cx="0" cy="0" r="1" gradientTransform="matrix(-8.40601 26.0366 -8.70189 -30.2982 10.412 11.9204)" gradientUnits="userSpaceOnUse">
<stop stop-color="#D9FF60"/>
<stop offset="0.192308" stop-color="#D9FF60"/>
<stop offset="0.8125" stop-color="#126630"/>
<stop offset="0.9375" stop-color="#126630"/>
</radialGradient>
</defs>
</svg>
