<svg width="178" height="178" viewBox="0 0 178 178" fill="none" xmlns="http://www.w3.org/2000/svg">
<g clip-path="url(#clip0_5553_679)">
<mask id="path-1-inside-1_5553_679" fill="white">
<path d="M32 20H146V-5H164V20H178V38H164V78H178V96H164V140H178V158H164V182H146V158H32V182H14V158H0V140H14V96H0V78H14V38H0V20H14V-5H32V20ZM32 96V140H146V96H32ZM32 38V78H146V38H32Z"/>
</mask>
<path d="M32 20H146V-5H164V20H178V38H164V78H178V96H164V140H178V158H164V182H146V158H32V182H14V158H0V140H14V96H0V78H14V38H0V20H14V-5H32V20ZM32 96V140H146V96H32ZM32 38V78H146V38H32Z" fill="#F4B626"/>
<path d="M32 20H31V21H32V20ZM146 20V21H147V20H146ZM146 -5V-6H145V-5H146ZM164 -5H165V-6H164V-5ZM164 20H163V21H164V20ZM178 20H179V19H178V20ZM178 38V39H179V38H178ZM164 38V37H163V38H164ZM164 78H163V79H164V78ZM178 78H179V77H178V78ZM178 96V97H179V96H178ZM164 96V95H163V96H164ZM164 140H163V141H164V140ZM178 140H179V139H178V140ZM178 158V159H179V158H178ZM164 158V157H163V158H164ZM164 182V183H165V182H164ZM146 182H145V183H146V182ZM146 158H147V157H146V158ZM32 158V157H31V158H32ZM32 182V183H33V182H32ZM14 182H13V183H14V182ZM14 158H15V157H14V158ZM0 158H-1V159H0V158ZM0 140V139H-1V140H0ZM14 140V141H15V140H14ZM14 96H15V95H14V96ZM0 96H-1V97H0V96ZM0 78V77H-1V78H0ZM14 78V79H15V78H14ZM14 38H15V37H14V38ZM0 38H-1V39H0V38ZM0 20V19H-1V20H0ZM14 20V21H15V20H14ZM14 -5V-6H13V-5H14ZM32 -5H33V-6H32V-5ZM32 96V95H31V96H32ZM32 140H31V141H32V140ZM146 140V141H147V140H146ZM146 96H147V95H146V96ZM32 38V37H31V38H32ZM32 78H31V79H32V78ZM146 78V79H147V78H146ZM146 38H147V37H146V38ZM32 20V21H146V20V19H32V20ZM146 20H147V-5H146H145V20H146ZM146 -5V-4H164V-5V-6H146V-5ZM164 -5H163V20H164H165V-5H164ZM164 20V21H178V20V19H164V20ZM178 20H177V38H178H179V20H178ZM178 38V37H164V38V39H178V38ZM164 38H163V78H164H165V38H164ZM164 78V79H178V78V77H164V78ZM178 78H177V96H178H179V78H178ZM178 96V95H164V96V97H178V96ZM164 96H163V140H164H165V96H164ZM164 140V141H178V140V139H164V140ZM178 140H177V158H178H179V140H178ZM178 158V157H164V158V159H178V158ZM164 158H163V182H164H165V158H164ZM164 182V181H146V182V183H164V182ZM146 182H147V158H146H145V182H146ZM146 158V157H32V158V159H146V158ZM32 158H31V182H32H33V158H32ZM32 182V181H14V182V183H32V182ZM14 182H15V158H14H13V182H14ZM14 158V157H0V158V159H14V158ZM0 158H1V140H0H-1V158H0ZM0 140V141H14V140V139H0V140ZM14 140H15V96H14H13V140H14ZM14 96V95H0V96V97H14V96ZM0 96H1V78H0H-1V96H0ZM0 78V79H14V78V77H0V78ZM14 78H15V38H14H13V78H14ZM14 38V37H0V38V39H14V38ZM0 38H1V20H0H-1V38H0ZM0 20V21H14V20V19H0V20ZM14 20H15V-5H14H13V20H14ZM14 -5V-4H32V-5V-6H14V-5ZM32 -5H31V20H32H33V-5H32ZM32 96H31V140H32H33V96H32ZM32 140V141H146V140V139H32V140ZM146 140H147V96H146H145V140H146ZM146 96V95H32V96V97H146V96ZM32 38H31V78H32H33V38H32ZM32 78V79H146V78V77H32V78ZM146 78H147V38H146H145V78H146ZM146 38V37H32V38V39H146V38Z" fill="black" mask="url(#path-1-inside-1_5553_679)"/>
</g>
<defs>
<clipPath id="clip0_5553_679">
<rect width="178" height="178" fill="white"/>
</clipPath>
</defs>
</svg>
