<svg width="49" height="49" viewBox="0 0 49 49" fill="none" xmlns="http://www.w3.org/2000/svg">
<g clip-path="url(#clip0_1910:175)">
<path d="M20.5669 13.9189C20.2739 16.0869 20.0396 17.7715 19.8638 18.9727C19.688 20.1738 19.5562 21.0674 19.4683 21.6533C19.4097 22.2393 19.3657 22.6055 19.3364 22.752C19.3364 22.8691 19.3364 22.9424 19.3364 22.9717C19.5415 22.7666 19.8784 22.5908 20.3472 22.4443C20.8159 22.2979 21.314 22.1807 21.8413 22.0928C22.3687 22.0049 22.8813 21.9463 23.3794 21.917C23.9067 21.8877 24.3169 21.873 24.6099 21.873C26.1333 21.873 27.4956 22.1514 28.6968 22.708C29.9272 23.2354 30.9673 23.9531 31.8169 24.8613C32.6665 25.7695 33.311 26.7949 33.7505 27.9375C34.1899 29.0801 34.4097 30.2666 34.4097 31.4971C34.4097 33.8994 34.0142 35.8184 33.2231 37.2539C32.4321 38.6602 31.4507 39.7441 30.2788 40.5059C29.1362 41.2383 27.9351 41.707 26.6753 41.9121C25.4155 42.1172 24.3315 42.2197 23.4233 42.2197C22.4272 42.2197 21.4751 42.1465 20.5669 42C19.6587 41.8242 18.8237 41.6191 18.062 41.3848C17.3296 41.1211 16.6851 40.8721 16.1284 40.6377C15.5718 40.374 15.147 40.1689 14.854 40.0225V35.6279C15.2642 35.8916 15.7769 36.1846 16.3921 36.5068C17.0366 36.7998 17.7104 37.0928 18.4136 37.3857C19.1167 37.6494 19.8491 37.8691 20.6108 38.0449C21.4019 38.2207 22.1343 38.3086 22.8081 38.3086C24.9761 38.3086 26.6753 37.752 27.9058 36.6387C29.1362 35.5254 29.7515 33.8115 29.7515 31.4971C29.7515 29.8271 29.2095 28.5088 28.1255 27.542C27.0708 26.5752 25.6792 26.0918 23.9507 26.0918C22.896 26.0918 21.8853 26.2236 20.9185 26.4873C19.9517 26.7217 19.1167 27.1172 18.4136 27.6738H14.6343C14.6343 27.4395 14.6636 27 14.7222 26.3555C14.7808 25.7109 14.854 24.9492 14.9419 24.0703C15.0298 23.1621 15.1323 22.1807 15.2495 21.126C15.3667 20.0713 15.4839 19.002 15.6011 17.918C15.894 15.3984 16.231 12.6299 16.6118 9.6123H32.6519V13.9189H20.5669Z" fill="white"/>
</g>
<defs>
<clipPath id="clip0_1910:175">
<rect width="49" height="49" fill="white"/>
</clipPath>
</defs>
</svg>
