<svg width="49" height="49" viewBox="0 0 49 49" fill="none" xmlns="http://www.w3.org/2000/svg">
<g clip-path="url(#clip0_1910:175)">
<path d="M23.4233 31.541C21.8999 31.541 20.5083 31.2334 19.2485 30.6182C18.0181 30.0029 16.9634 29.2119 16.0845 28.2451C15.2056 27.249 14.5317 26.1357 14.063 24.9053C13.6235 23.6748 13.4038 22.4443 13.4038 21.2139C13.4038 18.9287 13.77 17.0391 14.5024 15.5449C15.2349 14.0215 16.1431 12.8057 17.2271 11.8975C18.3403 10.96 19.5269 10.3154 20.7866 9.96387C22.0464 9.58301 23.189 9.39258 24.2144 9.39258C26.1479 9.39258 27.8179 9.71484 29.2241 10.3594C30.6304 11.0039 31.8022 11.9121 32.7397 13.084C33.6772 14.2559 34.3657 15.6328 34.8052 17.2148C35.2446 18.7969 35.4644 20.54 35.4644 22.4443C35.4644 26.3115 35.1128 29.5195 34.4097 32.0684C33.7065 34.6172 32.7837 36.6533 31.6411 38.1768C30.5278 39.6709 29.2681 40.7256 27.8618 41.3408C26.4849 41.9268 25.1079 42.2197 23.731 42.2197C22.0903 42.2197 20.5522 42.1172 19.1167 41.9121C17.6812 41.6777 16.436 41.209 15.3813 40.5059L17.0952 36.8584C17.9155 37.3857 18.8091 37.7227 19.7759 37.8691C20.772 38.0156 21.9292 38.0889 23.2476 38.0889C24.4487 38.0889 25.4888 37.8252 26.3677 37.2979C27.2466 36.7705 27.9644 36.082 28.521 35.2324C29.1069 34.3535 29.5464 33.3574 29.8394 32.2441C30.1323 31.1016 30.2788 29.915 30.2788 28.6846C30.2495 28.7139 30.1909 28.7285 30.103 28.7285C30.0151 28.7285 29.9565 28.7432 29.9272 28.7725C29.5464 29.5635 28.7407 30.2227 27.5103 30.75C26.3091 31.2773 24.9468 31.541 23.4233 31.541ZM24.1704 13.6553C23.2915 13.6553 22.4712 13.8311 21.7095 14.1826C20.9771 14.5342 20.3325 15.0322 19.7759 15.6768C19.2485 16.292 18.8237 17.0391 18.5015 17.918C18.1792 18.7969 18.0181 19.749 18.0181 20.7744C18.0181 21.7998 18.1792 22.7373 18.5015 23.5869C18.8237 24.4072 19.2485 25.125 19.7759 25.7402C20.3325 26.3555 20.9917 26.8242 21.7534 27.1465C22.5151 27.4688 23.3208 27.6299 24.1704 27.6299C25.0786 27.6299 25.9136 27.4688 26.6753 27.1465C27.437 26.8242 28.0962 26.3555 28.6528 25.7402C29.2095 25.125 29.6489 24.3926 29.9712 23.543C30.3228 22.6934 30.4985 21.7705 30.4985 20.7744C30.4985 19.749 30.3228 18.7969 29.9712 17.918C29.6489 17.0391 29.2095 16.292 28.6528 15.6768C28.0962 15.0322 27.437 14.5342 26.6753 14.1826C25.9136 13.8311 25.0786 13.6553 24.1704 13.6553Z" fill="#212121"/>
</g>
<defs>
<clipPath id="clip0_1910:175">
<rect width="49" height="49" fill="white"/>
</clipPath>
</defs>
</svg>
