<svg width="49" height="49" viewBox="0 0 49 49" fill="none" xmlns="http://www.w3.org/2000/svg">
<g clip-path="url(#clip0_1910:175)">
<path d="M41.4756 19.2363C41.4756 20.3789 41.2266 21.5654 40.7285 22.7959C40.2305 23.9971 39.5713 25.1982 38.751 26.3994C37.9307 27.5713 37.0225 28.7139 36.0264 29.8271C35.0596 30.9404 34.0781 31.9951 33.082 32.9912C32.1152 33.9873 31.1924 34.8955 30.3135 35.7158C29.4639 36.5068 28.7607 37.1807 28.2041 37.7373H41.959V42H21.832V37.0781C22.3594 36.6094 23.0918 35.9795 24.0293 35.1885C24.9668 34.3682 25.9775 33.46 27.0615 32.4639C28.1455 31.4678 29.2295 30.4131 30.3135 29.2998C31.3975 28.1572 32.3789 27.0146 33.2578 25.8721C34.166 24.7002 34.8984 23.5576 35.4551 22.4443C36.041 21.3311 36.334 20.2764 36.334 19.2803C36.334 18.2549 36.1436 17.4053 35.7627 16.7314C35.4111 16.0283 34.957 15.457 34.4004 15.0176C33.8438 14.5781 33.2285 14.2705 32.5547 14.0947C31.9102 13.9189 31.2949 13.8311 30.709 13.8311C29.5664 13.8311 28.6143 13.875 27.8525 13.9629C27.1201 14.0215 26.4756 14.124 25.9189 14.2705C25.3623 14.3877 24.8643 14.5635 24.4248 14.7979C23.9854 15.0322 23.5166 15.2959 23.0186 15.5889L21.4805 12.3369C22.0078 11.8682 22.6523 11.4434 23.4141 11.0625C24.2051 10.6816 25.0107 10.374 25.8311 10.1396C26.6807 9.90527 27.5156 9.72949 28.3359 9.6123C29.1562 9.46582 29.918 9.39258 30.6211 9.39258C32.5254 9.39258 34.1514 9.7002 35.499 10.3154C36.876 10.9307 38.0039 11.7217 38.8828 12.6885C39.7617 13.626 40.4062 14.6807 40.8164 15.8525C41.2559 17.0244 41.4756 18.1523 41.4756 19.2363Z" fill="white"/>
<path d="M22.7617 29.2324H15.9941V36H13.0059V29.2324H6.23828V26.2441H13.0059V19.4766H15.9941V26.2441H22.7617V29.2324Z" fill="white"/>
</g>
<defs>
<clipPath id="clip0_1910:175">
<rect width="49" height="49" fill="white"/>
</clipPath>
</defs>
</svg>
