<svg width="181" height="243" viewBox="0 0 181 243" fill="none" xmlns="http://www.w3.org/2000/svg">
<path fill-rule="evenodd" clip-rule="evenodd" d="M25 8C15.616 8 8 15.616 8 25C8 34.384 15.616 42 25 42C34.384 42 42 34.384 42 25C42 15.616 34.384 8 25 8ZM11.4 25C11.4 17.486 17.486 11.4 25 11.4C28.145 11.4 31.035 12.471 33.33 14.273L14.273 33.33C12.471 31.035 11.4 28.145 11.4 25ZM25 38.6C21.855 38.6 18.965 37.529 16.67 35.727L35.727 16.67C37.529 18.965 38.6 21.855 38.6 25C38.6 32.514 32.514 38.6 25 38.6ZM92.4082 75.5305C65.9798 75.5305 44.5306 96.9797 44.5306 123.408C44.5306 149.836 65.9798 171.286 92.4082 171.286C118.837 171.286 140.286 149.836 140.286 123.408C140.286 96.9797 118.837 75.5305 92.4082 75.5305ZM54.1061 123.408C54.1061 102.246 71.2463 85.106 92.4082 85.106C101.266 85.106 109.405 88.1223 115.868 93.1973L62.1974 146.868C57.1224 140.405 54.1061 132.265 54.1061 123.408ZM92.4082 161.71C83.5508 161.71 75.4116 158.694 68.9482 153.619L122.619 99.9481C127.694 106.412 130.71 114.551 130.71 123.408C130.71 144.57 113.57 161.71 92.4082 161.71ZM140 219C140 209.616 147.616 202 157 202C166.384 202 174 209.616 174 219C174 228.384 166.384 236 157 236C147.616 236 140 228.384 140 219ZM157 205.4C149.486 205.4 143.4 211.486 143.4 219C143.4 222.145 144.471 225.035 146.273 227.33L165.33 208.273C163.035 206.471 160.145 205.4 157 205.4ZM148.67 229.727C150.965 231.529 153.855 232.6 157 232.6C164.514 232.6 170.6 226.514 170.6 219C170.6 215.855 169.529 212.965 167.727 210.67L148.67 229.727Z" fill="black"/>
</svg>
