<svg width="49" height="49" viewBox="0 0 49 49" fill="none" xmlns="http://www.w3.org/2000/svg">
<g clip-path="url(#clip0_2048:243)">
<path d="M11.0092 22.6196L13.2581 29.3845C13.6401 30.5336 13.8472 31.5899 13.8794 32.5534C13.9239 33.5128 13.8141 34.3589 13.55 35.0916C13.2859 35.8243 12.8757 36.4478 12.3195 36.9621C11.7632 37.4763 11.0835 37.8669 10.2803 38.1339C9.46484 38.405 8.68037 38.5012 7.92692 38.4223C7.18583 38.3394 6.48399 38.0856 5.8214 37.661C5.17117 37.2322 4.5705 36.6224 4.01938 35.8313C3.48061 35.0362 3.02022 34.0641 2.63821 32.915L0.389251 26.1501L2.65039 25.3984L4.82541 31.9409C5.16224 32.9541 5.51362 33.7841 5.87957 34.4308C6.25787 35.0734 6.64659 35.5617 7.04572 35.8955C7.44075 36.217 7.85441 36.4088 8.28671 36.4709C8.719 36.533 9.16373 36.4881 9.6209 36.3361C10.0904 36.18 10.488 35.9518 10.8135 35.6515C11.139 35.3512 11.3699 34.9519 11.5062 34.4538C11.6425 33.9557 11.6697 33.336 11.588 32.5948C11.5062 31.8536 11.2907 30.9579 10.9416 29.9076L8.76657 23.3651L11.0092 22.6196ZM24.1126 18.2634L28.6537 31.9229L26.3925 32.6746L17.9062 25.04L21.0363 34.4553L18.7751 35.207L14.2341 21.5475L16.4952 20.7958L24.9816 28.4303L21.8515 19.0151L24.1126 18.2634ZM40.8551 20.2099C41.2371 21.359 41.4257 22.4215 41.4208 23.3974C41.4282 24.3691 41.269 25.2316 40.9431 25.9849C40.6296 26.734 40.1762 27.3719 39.5828 27.8985C39.0018 28.4209 38.3036 28.8177 37.4881 29.0888C36.6726 29.3599 35.8696 29.4622 35.0791 29.3957C34.3009 29.3251 33.5558 29.0857 32.8438 28.6775C32.1442 28.2652 31.5002 27.6697 30.9121 26.891C30.3362 26.1082 29.8573 25.1422 29.4753 23.9931C29.0933 22.844 28.9006 21.7898 28.8972 20.8304C28.9021 19.8545 29.0614 18.992 29.3749 18.2429C29.7008 17.4896 30.1542 16.8518 30.7352 16.3293C31.3244 15.7904 32.0268 15.3854 32.8423 15.1143C33.6578 14.8431 34.4567 14.7491 35.2389 14.8321C36.0295 14.8986 36.7745 15.138 37.4742 15.5503C38.1862 15.9585 38.8301 16.554 39.406 17.3368C39.99 18.1031 40.4731 19.0608 40.8551 20.2099ZM36.8287 27.291C37.2858 27.139 37.6895 26.9087 38.0398 26.6002C38.3983 26.2752 38.6704 25.8554 38.8561 25.3409C39.0541 24.8222 39.137 24.2047 39.1046 23.4882C39.0681 22.7593 38.8979 21.9172 38.594 20.9617C38.2735 20.0391 37.9138 19.2873 37.5149 18.7064C37.1242 18.1091 36.6984 17.6537 36.2375 17.3404C35.7889 17.023 35.33 16.8394 34.8606 16.7897C34.4036 16.7358 33.9527 16.7828 33.5079 16.9306C33.0507 17.0826 32.6408 17.3149 32.2782 17.6276C31.928 17.9361 31.6559 18.3559 31.462 18.8869C31.2763 19.4014 31.1996 20.0169 31.232 20.7334C31.2643 21.4499 31.4325 22.2859 31.7364 23.2414C32.0569 24.164 32.4124 24.924 32.8031 25.5213C33.2062 26.1146 33.632 26.5699 34.0805 26.8873C34.5373 27.1883 34.9963 27.3719 35.4574 27.4381C35.9268 27.4879 36.3838 27.4389 36.8287 27.291ZM46.8388 21.6785L45.1893 22.2269L41.6086 12.4469L43.8698 11.6952L46.8388 21.6785ZM48.1957 24.0266C48.3189 24.3973 48.2939 24.7555 48.1207 25.1012C47.9475 25.447 47.6756 25.6814 47.3049 25.8047C46.9342 25.9279 46.576 25.9029 46.2303 25.7297C45.8969 25.5524 45.6686 25.2784 45.5454 24.9077C45.4221 24.537 45.4492 24.185 45.6265 23.8516C45.7997 23.5059 46.0655 23.2734 46.4238 23.1543C46.7945 23.0311 47.1527 23.0561 47.4984 23.2293C47.84 23.3902 48.0725 23.6559 48.1957 24.0266Z" fill="white"/>
</g>
<defs>
<clipPath id="clip0_2048:243">
<rect width="49" height="49" fill="white"/>
</clipPath>
</defs>
</svg>
