<svg width="1000" height="133" viewBox="0 0 1000 133" fill="none" xmlns="http://www.w3.org/2000/svg">
<g clip-path="url(#clip0)">
<path d="M50.9757 126.992H0V122.699H0.447155C10.7317 122.699 15.7399 118.925 15.7399 111.163V23.2519C15.7399 19.46 14.774 16.6877 12.8423 14.9885C10.5707 12.9673 6.38538 11.9836 0.447155 11.9836H0V7.69092H96.0489V34.1625H91.3091V33.8048C89.8961 27.3657 88.0717 22.8584 85.9432 20.408C83.1351 17.421 78.9318 15.9186 73.3335 15.9186H42.9269C40.9893 15.7484 39.041 16.0875 37.2749 16.9023C35.7366 17.9039 34.9675 19.943 34.9675 22.9836V60.4552H60.3659C73.4229 60.4552 79.7725 54.9821 79.7725 43.7316V43.2845H84.4229V86.0325H79.7725V85.5854C79.9251 83.0054 79.4327 80.428 78.3398 78.0859C77.2468 75.7439 75.5877 73.711 73.5123 72.1707C69.5952 69.6708 65.0097 68.423 60.3659 68.5935H34.8781V112.057C34.8781 119.211 39.9936 122.699 50.5285 122.699H50.9757V126.992Z" fill="#508A7B"/>
<path d="M224.025 122.699C218.051 122.699 213.437 119.122 210.306 111.968L163.981 5.4553L163.856 5.18701H159.51L117.37 105.529C112.576 116.976 106.871 122.789 100.432 122.789H99.9844V126.992H136.472V122.699H136.025C127.905 122.699 123.952 120.142 123.952 114.937C124.316 112.141 125.044 109.406 126.116 106.799L133.485 88.3579H180.168L189.111 110.161C189.978 112.173 190.515 114.311 190.703 116.493C190.743 117.125 190.65 117.758 190.432 118.353C190.213 118.947 189.873 119.489 189.433 119.945C187.645 121.734 183.96 122.699 178.451 122.699H177.968V126.992H224.472V122.699H224.025ZM135.399 81.0245L156.863 29.8879L178.326 81.0245H135.399Z" fill="#508A7B"/>
<path d="M344.22 122.699C338.299 122.699 332.397 119.122 326.673 112.128L292.457 69.9707C313.688 66.1788 324.455 56.0016 324.455 39.7967C324.455 28.2243 319.555 19.6031 309.914 14.1836C302.276 9.87303 292.135 7.69092 279.829 7.69092H228.228V11.9836H228.675C234.613 11.9836 238.78 12.9673 241.07 14.8991C242.984 16.5982 243.967 19.3706 243.967 23.1625V111.163C243.967 118.925 238.959 122.699 228.675 122.699H228.228V126.992H279.024V122.699H278.577C268.167 122.699 263.106 119.211 263.106 112.057V72.439H272.8L314.797 126.992H344.667V122.699H344.22ZM262.658 65.4634H262.211V21.4633C262.211 17.8861 263.696 15.6503 266.629 14.756C268.952 14.3798 271.306 14.2301 273.658 14.3088C293.798 14.3088 304.065 23.0373 304.065 40.2438C304.065 56.9674 290.132 65.4634 262.658 65.4634Z" fill="#508A7B"/>
<path d="M502.603 126.992H451.985V122.699H452.521C462.806 122.699 467.814 118.925 467.814 111.163V27.0975L422.49 126.992H419.593L419.468 126.724L375.432 31.2828V112.057C375.432 119.211 380.959 122.699 392.334 122.699H392.781V126.992H348.781V122.699H349.228C360.962 122.699 366.667 118.925 366.667 111.163V23.2519C366.667 15.7218 360.962 12.073 349.228 12.073H348.781V7.69092H385.824L385.931 7.94132L426.729 97.6228L466.079 7.69092H502.603V11.9836H502.155C491.853 11.9836 486.863 15.5608 486.863 23.1625V111.163C486.863 118.925 491.853 122.699 502.155 122.699H502.603V126.992Z" fill="#508A7B"/>
<path d="M631.472 122.699C625.481 122.699 620.866 119.122 617.754 111.968L571.429 5.54466L571.303 5.27637H566.993L524.817 105.529C520.024 116.976 514.318 122.789 507.879 122.789H507.432V126.992H543.919V122.699H543.472C535.334 122.699 531.399 120.142 531.399 114.937C531.755 112.142 532.477 109.406 533.545 106.798L540.915 88.3578H587.598L596.541 110.161C597.407 112.173 597.945 114.311 598.133 116.493C598.172 117.125 598.08 117.758 597.861 118.353C597.642 118.947 597.302 119.489 596.863 119.945C595.074 121.733 591.372 122.699 585.881 122.699H585.433V126.992H631.938V122.699H631.472ZM542.828 81.0245L564.292 29.8878L585.755 81.0245H542.828Z" fill="#508A7B"/>
<path d="M737.377 126.992H635.301V124.255L635.39 124.13L713.231 15.2032H673.309C664.366 15.2032 657.676 17.1349 653.312 20.9447C648.948 24.7544 646.158 30.7642 645.138 38.8309V39.2244H639.593L643.278 7.74463H738.522V10.4276V10.5349L661.146 119.48H708.67C717.452 119.48 724.213 116.922 728.774 111.878C731.922 108.301 734.605 102.649 736.733 94.9399L736.823 94.6179H741.795L737.377 126.992Z" fill="#74C9B4"/>
<path d="M982.65 129.496H979.52L979.377 129.335L900.552 31.9804V112.057C900.552 119.211 906.079 122.699 917.455 122.699H917.902V126.992H874.438V122.699H874.886C886.261 122.699 891.788 118.693 891.788 110.447V21.6958C890.127 19.5086 888.335 17.424 886.422 15.4535C883.098 13.0016 879.029 11.7756 874.903 11.9836H874.456V7.69092H905.882L906.025 7.85189L973.904 92.8829V22.6259C973.904 15.4714 968.377 11.9836 957.001 11.9836H956.554V7.69092H1000.02V11.9836H999.57C988.195 11.9836 982.668 15.7576 982.668 23.5202L982.65 129.496Z" fill="#74C9B4"/>
<path d="M807.974 132.215C797.814 132.224 787.789 129.894 778.674 125.405C769.559 120.916 761.601 114.389 755.415 106.329C749.229 98.2692 744.981 88.8933 743.002 78.9279C741.023 68.9624 741.365 58.6751 744.001 48.863C746.638 39.051 751.498 29.9777 758.205 22.3463C764.913 14.7149 773.287 8.7304 782.68 4.85645C792.072 0.982491 802.231 -0.676844 812.368 0.00702819C822.505 0.6909 832.348 3.69962 841.135 8.80002C853.719 16.1041 863.545 27.3517 869.093 40.8024C874.641 54.2532 875.601 69.1573 871.825 83.2088C868.05 97.2603 859.749 109.676 848.207 118.535C836.664 127.393 822.524 132.201 807.974 132.215Z" fill="#508A7B"/>
<path d="M869.913 33.483C863.468 22.317 853.856 13.3129 842.293 7.6091C830.73 1.90533 817.736 -0.241989 804.953 1.43862C792.17 3.11922 780.172 8.5523 770.477 17.0509C760.781 25.5496 753.823 36.7321 750.482 49.1848C747.142 61.6375 747.568 74.8011 751.708 87.0114C755.848 99.2217 763.515 109.93 773.741 117.784C783.966 125.637 796.29 130.282 809.155 131.131C822.02 131.981 834.848 128.997 846.017 122.556C853.438 118.28 859.944 112.583 865.162 105.791C870.38 98.9987 874.208 91.2448 876.427 82.9723C878.646 74.6999 879.213 66.0711 878.096 57.5794C876.978 49.0877 874.198 40.8995 869.913 33.483ZM798.637 48.7399C798.143 48.4587 797.768 48.0073 797.582 47.47C797.435 47.1949 797.358 46.8877 797.358 46.5757C797.358 46.2637 797.435 45.9565 797.582 45.6814C797.852 45.1838 798.246 44.7647 798.726 44.4651C799.038 44.3191 799.309 44.0978 799.513 43.8212C799.764 43.4277 799.513 43.0163 798.798 42.5871C798.439 42.3101 797.987 42.18 797.536 42.2232C797.084 42.2663 796.666 42.4795 796.365 42.8196C795.92 43.2869 795.547 43.8172 795.256 44.3936L792.806 48.6326L795.829 50.4212L794.881 52.0846L791.858 50.296L784.865 62.3871C784.45 62.9621 784.253 63.6658 784.31 64.3725C784.483 64.8028 784.817 65.1491 785.24 65.3383L784.793 66.0895L776.798 61.4749L777.245 60.7237C778.282 61.3139 779.177 60.9383 779.982 59.5611L786.957 47.47L785.008 46.3432L785.974 44.6976L787.905 45.8066L789.694 42.8196C790.131 42.0949 790.733 41.4838 791.451 41.0362C792.169 40.5886 792.983 40.3171 793.826 40.244C795.682 39.9707 797.576 40.3432 799.191 41.2993C799.95 41.6483 800.617 42.1697 801.138 42.8217C801.66 43.4738 802.022 44.2386 802.196 45.0554C802.378 45.9664 802.226 46.9126 801.767 47.7204C801.658 48.0182 801.483 48.2873 801.255 48.5074C801.027 48.7276 800.751 48.893 800.45 48.9912C800.148 49.0894 799.829 49.1178 799.514 49.0742C799.2 49.0307 798.9 48.9164 798.637 48.7399ZM800.121 95.2441C798.347 98.3068 796.262 101.178 793.897 103.812L790.856 107.192C790.724 107.429 790.502 107.604 790.24 107.678C789.979 107.752 789.699 107.718 789.461 107.586C789.224 107.453 789.049 107.231 788.976 106.969C788.902 106.708 788.935 106.428 789.068 106.19L790.57 101.951C791.671 98.5863 793.115 95.3437 794.881 92.2749L825.949 38.4732C827.723 35.4005 829.815 32.5229 832.191 29.8878L835.214 26.5252C835.28 26.4078 835.368 26.3045 835.474 26.2211C835.58 26.1378 835.701 26.0761 835.83 26.0396C835.96 26.003 836.095 25.9924 836.229 26.0082C836.363 26.024 836.492 26.066 836.609 26.1317C836.727 26.1975 836.83 26.2858 836.913 26.3915C836.997 26.4972 837.058 26.6183 837.095 26.7478C837.132 26.8774 837.142 27.0128 837.126 27.1465C837.111 27.2802 837.069 27.4094 837.003 27.5269L835.608 31.8196C834.515 35.1933 833.07 38.4427 831.297 41.5139L800.121 95.2441ZM838.434 90.8798L825.609 83.4749L826.003 82.7953L841.85 73.3335L840.151 72.3497C839.555 71.9208 838.878 71.6185 838.162 71.4616C837.445 71.3047 836.703 71.2965 835.983 71.4375C834.983 71.8959 834.079 72.5392 833.318 73.3335L832.567 72.9042L835.482 68.4863L847.574 75.4619L847.037 76.3741L831.404 85.7286L833.104 86.7123C834.359 87.4878 835.843 87.8098 837.307 87.6245C838.062 87.5045 838.784 87.2317 839.43 86.8226C840.076 86.4136 840.632 85.877 841.063 85.2457L841.904 85.7465L838.434 90.8798Z" fill="#74C9B4"/>
</g>
<defs>
<clipPath id="clip0">
<rect width="1000" height="132.215" fill="white"/>
</clipPath>
</defs>
</svg>
