<svg width="500" height="480" viewBox="0 0 500 480" fill="none" xmlns="http://www.w3.org/2000/svg">
<g clip-path="url(#clip0)">
<path d="M407.218 294.347C395.147 294.337 383.191 296.697 372.03 301.294L352.371 264.972L376.843 219.886H396.139C400.956 219.886 405.575 221.8 408.981 225.206C412.387 228.612 414.3 233.231 414.3 238.048C414.3 240.703 415.355 243.249 417.233 245.127C419.11 247.004 421.657 248.059 424.312 248.059C426.967 248.059 429.513 247.004 431.391 245.127C433.268 243.249 434.323 240.703 434.323 238.048C434.311 227.932 430.286 218.235 423.131 211.085C415.977 203.935 406.277 199.915 396.162 199.909H373.347L313.846 169.58C314.329 166.646 314.572 163.677 314.573 160.704C314.414 135.732 294.3 123.314 279.204 116.05C267.081 110.216 256.752 107.378 247.581 107.378C217.706 107.378 203.472 137.003 187.013 171.283C170.555 205.562 166.378 226.152 172.371 243.246C176.003 253.598 183.29 261.93 195.072 269.035L177.524 301.294C159.515 293.911 139.641 292.378 120.713 296.913C101.785 301.448 84.7631 311.82 72.055 326.562C59.347 341.304 51.597 359.669 49.9016 379.059C48.2062 398.448 52.6513 417.88 62.608 434.604C72.5646 451.327 87.5285 464.497 105.382 472.247C123.235 479.998 143.074 481.938 162.091 477.793C181.108 473.647 198.339 463.626 211.347 449.148C224.355 434.67 232.48 416.467 234.573 397.117H273.165L285.697 401.521C286.761 401.898 287.882 402.09 289.011 402.088C291.371 402.081 293.653 401.24 295.453 399.714C297.254 398.188 298.457 396.074 298.851 393.747C299.245 391.42 298.804 389.029 297.605 386.995C296.407 384.962 294.529 383.417 292.303 382.633L289.261 381.566L340.997 286.039L354.459 310.851C336.233 323.477 323.133 342.216 317.536 363.67C311.938 385.124 314.212 407.874 323.946 427.795C333.68 447.717 350.229 463.491 370.595 472.259C390.96 481.027 413.792 482.209 434.954 475.589C456.115 468.969 474.204 454.987 485.942 436.176C497.68 417.365 502.289 394.972 498.935 373.055C495.581 351.137 484.485 331.147 467.659 316.708C450.833 302.268 429.39 294.336 407.218 294.347ZM212.916 278.002C234.868 289.035 248.353 301.839 253.983 316.958C259.953 333.031 257.388 352.894 246.355 375.982C246.184 376.344 246.032 376.716 245.901 377.094H234.55C233.105 363.864 228.831 351.1 222.02 339.667C215.209 328.233 206.018 318.398 195.072 310.829L212.916 278.002ZM214.414 377.117H159.136L185.492 328.558C193.304 334.318 199.886 341.581 204.853 349.92C209.819 358.258 213.07 367.505 214.414 377.117ZM142.337 459.909C131.679 459.903 121.152 457.555 111.501 453.033C101.85 448.511 93.31 441.924 86.4843 433.739C79.6587 425.553 74.7141 415.968 72.0001 405.662C69.286 395.355 68.8687 384.578 70.7777 374.093C72.6866 363.607 76.8752 353.668 83.0475 344.98C89.2197 336.291 97.2249 329.063 106.497 323.809C115.77 318.554 126.083 315.399 136.709 314.569C147.335 313.738 158.013 315.251 167.989 319.001L133.551 382.361C132.725 383.883 132.308 385.594 132.342 387.325C132.376 389.057 132.86 390.75 133.746 392.238C134.632 393.726 135.89 394.959 137.396 395.814C138.902 396.669 140.605 397.118 142.337 397.117H214.414C211.98 414.51 203.348 430.441 190.105 441.977C176.863 453.514 159.9 459.882 142.337 459.909ZM270.146 374.869L268.943 374.438C278.477 350.375 279.794 328.717 272.825 309.989C267.944 297.412 259.869 286.325 249.397 277.821C251.262 277.037 253.068 276.119 254.8 275.074H324.289L270.146 374.869ZM335.14 255.074H275.208C282.251 244.752 288.396 233.846 293.574 222.474C299.567 210.034 304.698 199.069 308.375 189.149L357.252 214.12L335.14 255.074ZM407.308 459.909C391.947 459.982 376.958 455.184 364.495 446.204C352.032 437.224 342.737 424.524 337.944 409.93C333.152 395.335 333.109 379.597 337.822 364.977C342.535 350.356 351.762 337.606 364.176 328.558L398.523 391.896C399.837 394.135 401.969 395.776 404.47 396.473C406.971 397.17 409.645 396.868 411.928 395.631C414.21 394.394 415.923 392.319 416.705 389.843C417.486 387.367 417.275 384.684 416.117 382.361L381.747 319.001C391.727 315.25 402.409 313.737 413.038 314.57C423.668 315.402 433.984 318.56 443.258 323.82C452.532 329.079 460.538 336.312 466.708 345.007C472.879 353.702 477.063 363.647 478.966 374.137C480.869 384.628 480.444 395.408 477.721 405.717C474.998 416.025 470.044 425.609 463.208 433.791C456.372 441.973 447.822 448.554 438.163 453.067C428.503 457.58 417.97 459.916 407.308 459.909Z" fill="#508A7B"/>
<path d="M241.997 49.5121L247.468 51.2374C245.628 64.7868 248.632 78.5508 255.95 90.1014C263.268 101.652 274.431 110.247 287.468 114.37C293.132 116.189 299.045 117.116 304.994 117.117C314.964 117.122 324.767 114.561 333.46 109.678C342.153 104.796 349.443 97.7579 354.627 89.2415C359.811 80.7251 362.715 71.0174 363.06 61.0532C363.404 51.089 361.178 41.2039 356.594 32.3498C353.103 25.5511 348.295 19.5148 342.449 14.5923C336.603 9.6699 329.836 5.95972 322.542 3.67783C314.695 1.22235 306.519 -0.0178814 298.297 0.000194769C268.217 0.000194769 242.406 15.1875 235.482 36.9582C234.684 39.487 234.922 42.229 236.143 44.5826C237.365 46.9362 239.47 48.709 241.997 49.5121ZM293.507 95.3464C285.541 92.8094 278.631 87.7241 273.839 80.8736C269.048 74.0231 266.642 65.7874 266.991 57.4349L337.003 79.6597C332.471 86.6769 325.761 92.0123 317.903 94.8462C310.045 97.6802 301.474 97.8559 293.507 95.3464Z" fill="#508A7B"/>
<path d="M221.293 83.9958L55.9811 9.60309C54.9843 9.15768 53.8517 9.12495 52.8308 9.51204C51.8099 9.89913 50.9837 10.6746 50.5328 11.6689L33.6429 49.2399C33.4161 49.7326 33.2898 50.2654 33.2711 50.8075C33.2524 51.3495 33.3418 51.8898 33.5341 52.3969C33.7264 52.9041 34.0177 53.3678 34.391 53.7612C34.7644 54.1546 35.2123 54.4697 35.7087 54.6882L43.1321 58.0707L0.498735 153.054C-0.123645 154.454 -0.167494 156.044 0.376737 157.477C0.920968 158.91 2.00921 160.07 3.40452 160.704L143.155 223.519C143.846 223.833 144.592 224.007 145.351 224.03C146.11 224.054 146.865 223.927 147.575 223.657C148.284 223.387 148.933 222.979 149.483 222.456C150.034 221.934 150.475 221.307 150.783 220.613L193.507 125.653L201.021 129.013C201.514 129.236 202.047 129.36 202.588 129.378C203.129 129.395 203.668 129.305 204.175 129.113C204.681 128.921 205.144 128.631 205.538 128.259C205.932 127.887 206.248 127.441 206.469 126.947L223.359 89.3761C223.783 88.3869 223.805 87.2711 223.419 86.2663C223.033 85.2615 222.271 84.4468 221.293 83.9958Z" fill="#EAB063"/>
<path d="M81.7252 169.058C76.6962 166.808 72.2532 163.429 68.7409 159.185C65.2285 154.94 62.7412 149.943 61.4718 144.582C60.2024 139.221 60.1852 133.639 61.4214 128.27C62.6575 122.901 65.1139 117.889 68.5999 113.623C72.086 109.356 76.508 105.951 81.5229 103.669C86.5379 101.388 92.0109 100.292 97.5176 100.468C103.024 100.643 108.416 102.085 113.276 104.681C118.136 107.277 122.332 110.958 125.539 115.437C130.126 121.845 132.476 129.584 132.225 137.46C131.974 145.337 129.136 152.911 124.15 159.013C119.164 165.115 112.307 169.406 104.639 171.221C96.9709 173.037 88.9181 172.277 81.7252 169.058Z" fill="#508A7B"/>
<path d="M134.233 133.939C133.512 126.995 130.749 120.42 126.293 115.045C121.838 109.671 115.889 105.737 109.2 103.741C102.51 101.744 95.3785 101.775 88.7062 103.829C82.0338 105.883 76.1198 109.868 71.7108 115.281C67.3019 120.694 64.5958 127.292 63.9343 134.242C63.2728 141.192 64.6856 148.182 67.9942 154.33C71.3028 160.477 76.3589 165.507 82.524 168.782C88.689 172.058 95.6865 173.434 102.633 172.735C107.257 172.267 111.743 170.892 115.835 168.688C119.927 166.484 123.544 163.495 126.48 159.891C129.415 156.287 131.611 152.14 132.941 147.687C134.271 143.234 134.711 138.562 134.233 133.939ZM95.6408 125.63C95.4508 125.418 95.3457 125.143 95.3456 124.858C95.3339 124.69 95.3629 124.522 95.4301 124.368C95.4973 124.214 95.6007 124.078 95.7316 123.973C95.9805 123.794 96.2685 123.677 96.5715 123.632C96.7545 123.633 96.9345 123.586 97.0937 123.496C97.3207 123.36 97.2753 123.087 97.0937 122.724C96.9774 122.509 96.7846 122.345 96.5534 122.265C96.3222 122.185 96.0694 122.195 95.8451 122.293C95.5153 122.425 95.2088 122.609 94.937 122.838L92.6669 124.381L93.7792 125.925L92.9393 126.538L91.8269 124.994L85.7883 129.398C85.4517 129.58 85.1933 129.879 85.0619 130.238C85.0611 130.488 85.1496 130.729 85.3116 130.919L84.9257 131.192L81.9972 127.128L82.3831 126.856C82.769 127.378 83.2912 127.378 83.9949 126.856L90.1243 122.588L89.4206 121.612L90.2605 120.999L90.9643 121.975L92.508 120.908C92.8871 120.644 93.3234 120.473 93.781 120.41C94.2387 120.347 94.7049 120.393 95.1413 120.545C96.1194 120.823 96.9701 121.433 97.5477 122.27C97.8474 122.609 98.0632 123.014 98.1776 123.451C98.292 123.889 98.3017 124.348 98.206 124.79C98.0775 125.278 97.7899 125.709 97.3888 126.016C97.1766 126.224 96.8913 126.34 96.5942 126.34C96.2971 126.34 96.0118 126.224 95.7997 126.016C95.727 125.951 95.6657 125.874 95.6181 125.789L95.6408 125.63ZM86.0153 149.035C84.4669 150.166 82.7999 151.125 81.0437 151.895L78.7736 152.894C78.7139 152.939 78.6461 152.972 78.5739 152.99C78.5017 153.009 78.4266 153.013 78.3528 153.002C78.2038 152.981 78.0693 152.901 77.979 152.781C77.8887 152.66 77.8499 152.509 77.8712 152.36C77.8925 152.211 77.9721 152.077 78.0925 151.986L79.7951 150.238C81.0636 148.822 82.4705 147.537 83.9949 146.402L111.237 126.72C112.801 125.601 114.475 124.643 116.231 123.859L118.501 122.883C118.559 122.84 118.625 122.808 118.696 122.791C118.766 122.773 118.839 122.769 118.911 122.78C118.982 122.79 119.051 122.815 119.113 122.852C119.176 122.889 119.23 122.938 119.273 122.996C119.316 123.055 119.348 123.121 119.365 123.191C119.383 123.261 119.387 123.334 119.376 123.406C119.366 123.478 119.341 123.546 119.304 123.609C119.267 123.671 119.218 123.725 119.159 123.768L117.525 125.584C116.274 126.994 114.882 128.272 113.371 129.398L86.0153 149.035ZM105.925 155.391L101.225 148.876L101.589 148.649L111.509 147.559L110.896 146.697C110.694 146.338 110.417 146.027 110.084 145.784C109.751 145.541 109.37 145.372 108.967 145.289C108.367 145.29 107.774 145.406 107.219 145.63L107.014 145.289L109.443 143.768L113.87 149.83L113.393 150.17L103.586 151.305L104.222 152.168C104.663 152.832 105.321 153.321 106.083 153.553C106.486 153.667 106.908 153.696 107.323 153.637C107.737 153.579 108.135 153.434 108.49 153.212L108.785 153.643L105.925 155.391Z" fill="#74C9B4"/>
<path d="M71.532 50.738L65.2891 47.923L65.5161 47.4008C66.7874 47.9684 67.6046 47.7868 68.0359 46.8333L72.8941 36.0501C72.9753 35.8639 73.0172 35.663 73.0172 35.4599C73.0172 35.2567 72.9753 35.0558 72.8941 34.8696C72.5734 34.3755 72.0924 34.0067 71.532 33.8254L71.759 33.3032L83.6319 38.5927L82.179 41.839L81.5887 41.5666C81.7303 40.9235 81.7303 40.2573 81.5887 39.6142C81.4669 39.3268 81.2871 39.0675 81.0605 38.8527C80.834 38.6378 80.5656 38.472 80.272 38.3657L76.549 36.6857C76.317 36.5672 76.0604 36.5049 75.7998 36.5041C75.6565 36.5506 75.5262 36.6304 75.4197 36.7369C75.3131 36.8435 75.2334 36.9737 75.1869 37.1171L73.1211 41.6574L76.2312 43.0422C77.843 43.7686 78.9099 43.4508 79.5456 42.066L80.1131 42.3157L77.843 47.5598L77.2754 47.31C77.4384 47.0064 77.5237 46.6671 77.5237 46.3225C77.5237 45.9779 77.4384 45.6387 77.2754 45.335C76.9267 44.8081 76.4287 44.3971 75.8452 44.1545L72.7351 42.747L70.3742 48.0138C69.9883 48.8991 70.3742 49.6029 71.7136 50.2839L71.532 50.738Z" fill="#508A7B"/>
<path d="M93.0752 59.7503C92.702 59.5612 92.3968 59.2609 92.2016 58.8908C92.0064 58.5208 91.9309 58.0993 91.9855 57.6845L92.1898 42.0659L91.645 41.8389L80.8618 51.7594C79.6359 52.8945 78.5916 53.3031 77.8198 52.9399L77.5928 53.462L82.1331 55.4825L82.3601 54.9376C81.3612 54.5063 81.0207 53.9615 81.2931 53.3258C81.5031 53.0057 81.7466 52.7089 82.0196 52.4405L83.9265 50.6016L89.67 53.1669V56.3451C89.6736 56.6403 89.6196 56.9333 89.5111 57.2078C89.4827 57.286 89.4376 57.3571 89.3787 57.4159C89.3199 57.4748 89.2488 57.52 89.1705 57.5483C88.6547 57.6589 88.1161 57.5609 87.6722 57.2759L87.4452 57.798L93.1433 60.3633L93.393 59.8411L93.0752 59.7503ZM84.5167 49.7617L89.9651 44.6766L89.6927 52.2134L84.5167 49.7617Z" fill="#508A7B"/>
<path d="M107.741 66.3793C107.323 66.1442 106.963 65.8181 106.688 65.4251C106.413 65.0322 106.23 64.5825 106.152 64.1092L104.29 57.049C107.105 57.7755 108.989 57.049 109.875 55.1194C110.195 54.4944 110.332 53.7911 110.267 53.0916C110.203 52.3921 109.941 51.7254 109.512 51.1693C108.616 50.0919 107.47 49.2501 106.174 48.7176L99.8862 45.8799L99.6592 46.402C100.212 46.5985 100.688 46.9638 101.021 47.4463C101.103 47.6325 101.144 47.8334 101.144 48.0365C101.144 48.2397 101.103 48.4406 101.021 48.6268L96.1631 59.41C95.7318 60.3634 94.9146 60.545 93.6433 59.9775L93.3936 60.4996L99.6365 63.3146L99.8635 62.7925C98.5922 62.2022 98.1609 61.4985 98.5468 60.6358L100.817 55.7777L102.02 56.2999L104.154 65.3805L107.809 67.015L108.059 66.4928L107.741 66.3793ZM100.93 54.8697L103.337 49.4667C103.402 49.2776 103.53 49.1163 103.699 49.0091C103.868 48.9019 104.069 48.8552 104.268 48.8765C104.57 48.9701 104.866 49.0838 105.153 49.217C107.605 50.3294 108.399 51.9639 107.423 54.0751C106.447 56.1864 104.245 56.368 100.885 54.8697H100.93Z" fill="#508A7B"/>
<path d="M126.924 75.6416L120.703 72.8493L120.953 72.3272C122.202 72.8947 123.019 72.7131 123.45 71.7597L127.99 61.4532L116.935 71.1921L116.572 71.0332L116.435 56.8902L111.895 66.788C111.509 67.6734 111.895 68.3998 113.371 69.0582L113.121 69.5803L108.059 67.1513L108.286 66.6291C109.716 67.2875 110.556 67.1286 111.055 66.1751L115.891 55.3919C116.322 54.4838 115.891 53.712 114.37 53.1217L114.597 52.5996L119.137 54.6427V67.9004L129.012 59.0241L133.552 61.0219L133.325 61.5667C132.054 60.9992 131.237 61.1581 130.828 62.0888L125.97 72.872C125.539 73.8255 125.97 74.5746 127.219 75.1422L126.924 75.6416Z" fill="#508A7B"/>
<path d="M143.018 82.2249C142.645 82.0293 142.341 81.7245 142.147 81.3512C141.952 80.9779 141.876 80.5541 141.929 80.1364L142.11 64.5405L141.588 64.3135L130.828 74.234C129.602 75.3691 128.557 75.7777 127.786 75.4145L127.559 75.9366L132.099 77.9344L132.326 77.4122C131.327 76.9582 130.987 76.4361 131.282 75.8004C131.465 75.4677 131.702 75.1683 131.985 74.9151L133.892 73.0535L139.636 75.6415V78.797C139.639 79.0922 139.585 79.3852 139.477 79.6597C139.45 79.7414 139.406 79.8162 139.347 79.8789C139.288 79.9417 139.216 79.9908 139.136 80.0229C138.62 80.1073 138.091 80.0111 137.638 79.7505L137.388 80.2726L143.086 82.8379L143.336 82.3157L143.018 82.2249ZM134.392 72.2136L139.84 67.1285L139.658 74.5972L134.392 72.2136Z" fill="#508A7B"/>
<path d="M155.71 88.5361L143.201 82.9062L143.337 82.5657L158.888 73.4851L153.984 71.2149C153.141 70.7472 152.157 70.6019 151.215 70.8063C150.366 71.1303 149.664 71.7515 149.24 72.5543L148.559 72.2592L150.829 68.5815L162.52 73.8483L162.361 74.1661L146.856 83.2467L152.69 85.8801C153.131 86.1126 153.615 86.2491 154.112 86.2804C154.609 86.3117 155.107 86.2372 155.573 86.0617C156.324 85.6577 156.976 85.0916 157.48 84.4045L158.071 84.6769L155.71 88.5361Z" fill="#74C9B4"/>
<path d="M185.653 102.406L185.267 102.157L180.953 85.857L176.549 95.6867C176.141 96.5494 176.549 97.2985 178.025 97.9569L177.775 98.5017L172.531 96.1407L172.781 95.6186C174.188 96.2543 175.051 96.0499 175.528 95.0511L180.431 84.1544C180.346 83.8002 180.24 83.4515 180.114 83.1101C179.851 82.6154 179.414 82.2353 178.888 82.0431L179.115 81.521L182.974 83.2463L186.629 97.412L190.488 88.8082C190.897 87.9228 190.488 87.1964 189.013 86.538L189.262 86.0159L194.506 88.5358L194.257 89.0579C192.849 88.4222 191.986 88.5812 191.532 89.5346L185.653 102.406Z" fill="#74C9B4"/>
<path d="M164.086 93.0762C162.972 92.6316 161.959 91.9663 161.109 91.1205C160.259 90.2747 159.588 89.2657 159.138 88.1542C158.687 87.0427 158.466 85.8516 158.488 84.6525C158.509 83.4534 158.773 82.271 159.263 81.1763C159.753 80.0816 160.459 79.0973 161.339 78.2824C162.219 77.4675 163.254 76.8388 164.383 76.4343C165.512 76.0297 166.711 75.8575 167.909 75.928C169.106 75.9985 170.277 76.3103 171.35 76.8447C172.796 77.4762 174.044 78.4883 174.96 79.7732C176.099 81.3631 176.682 83.2839 176.62 85.2387C176.558 87.1935 175.853 89.0734 174.616 90.5876C173.378 92.1019 171.676 93.1662 169.772 93.6161C167.869 94.0659 165.87 93.8762 164.086 93.0762Z" fill="#508A7B"/>
<path d="M177.072 84.4267C176.897 82.7024 176.214 81.0688 175.111 79.7323C174.007 78.3959 172.532 77.4167 170.872 76.9185C169.212 76.4204 167.442 76.4258 165.785 76.9339C164.128 77.442 162.658 78.4301 161.563 79.7732C160.468 81.1163 159.795 82.754 159.63 84.4794C159.466 86.2047 159.817 87.9401 160.638 89.4661C161.46 90.992 162.716 92.2401 164.247 93.0524C165.778 93.8647 167.515 94.2047 169.24 94.0295C170.385 93.916 171.498 93.5773 172.512 93.0326C173.527 92.488 174.424 91.7483 175.151 90.856C175.879 89.9636 176.424 88.9363 176.753 87.833C177.083 86.7296 177.191 85.572 177.072 84.4267ZM167.492 82.3609C167.472 82.2942 167.472 82.2233 167.492 82.1566C167.475 82.121 167.467 82.0823 167.467 82.0431C167.467 82.0039 167.475 81.9652 167.492 81.9296C167.559 81.9172 167.628 81.9172 167.696 81.9296H167.991C167.991 81.9296 167.991 81.9296 167.991 81.7253C167.949 81.6837 167.891 81.6604 167.832 81.6604C167.773 81.6604 167.716 81.6837 167.673 81.7253C167.588 81.7536 167.511 81.8001 167.446 81.8615L166.924 82.2247L167.196 82.6106L166.992 82.7695L166.72 82.3836L165.176 83.4733C165.104 83.5333 165.049 83.6117 165.017 83.7003C165 83.7234 164.992 83.7512 164.992 83.7797C164.992 83.8082 165 83.836 165.017 83.8592L164.291 82.8603C164.381 82.9965 164.518 82.9965 164.699 82.8603L166.22 81.7707L166.039 81.5209L166.243 81.3847L166.425 81.6118L166.811 81.3393C166.913 81.2892 167.026 81.2631 167.14 81.2631C167.254 81.2631 167.366 81.2892 167.469 81.3393C167.706 81.405 167.914 81.549 168.059 81.748C168.134 81.8341 168.187 81.9364 168.214 82.0468C168.242 82.1573 168.243 82.2726 168.218 82.3836C168.206 82.4441 168.181 82.5015 168.146 82.5522C168.111 82.603 168.066 82.646 168.014 82.6787C167.988 82.7041 167.958 82.7243 167.925 82.738C167.892 82.7518 167.857 82.7588 167.821 82.7588C167.785 82.7588 167.749 82.7518 167.716 82.738C167.683 82.7243 167.653 82.7041 167.628 82.6787L167.492 82.3609ZM165.221 88.1498C164.839 88.4277 164.428 88.6636 163.996 88.8535L163.428 89.1032C163.415 89.1177 163.399 89.1293 163.382 89.1373C163.364 89.1452 163.345 89.1494 163.326 89.1494C163.307 89.1494 163.287 89.1452 163.27 89.1373C163.252 89.1293 163.236 89.1177 163.224 89.1032C163.2 89.0746 163.186 89.0385 163.186 89.0011C163.186 88.9637 163.2 88.9275 163.224 88.8989L163.632 88.4676C163.961 88.1208 164.318 87.8019 164.699 87.5141L171.51 82.6333C171.903 82.36 172.321 82.1243 172.758 81.9296L173.326 81.6799C173.351 81.6575 173.383 81.6452 173.417 81.6452C173.45 81.6452 173.482 81.6575 173.507 81.6799C173.531 81.7085 173.545 81.7447 173.545 81.782C173.545 81.8194 173.531 81.8555 173.507 81.8842L173.099 82.3382C172.776 82.6839 172.418 82.9957 172.032 83.269L165.221 88.1498ZM170.17 89.7389L168.99 88.1044L171.464 87.8093L171.305 87.6049C171.205 87.4363 171.042 87.314 170.851 87.2644C170.709 87.2407 170.563 87.2407 170.42 87.2644L171.01 86.8785L172.1 88.3995H171.986L169.557 88.6946L169.716 88.8989C169.824 89.0617 169.984 89.1821 170.17 89.2395C170.262 89.2837 170.363 89.3067 170.465 89.3067C170.568 89.3067 170.668 89.2837 170.761 89.2395L170.17 89.7389Z" fill="#74C9B4"/>
</g>
<defs>
<clipPath id="clip0">
<rect width="500" height="479.909" fill="white"/>
</clipPath>
</defs>
</svg>
