<svg width="250" height="167" viewBox="0 0 250 167" fill="none" xmlns="http://www.w3.org/2000/svg">
<g clip-path="url(#clip0)">
<path d="M0 15.2207V151.56C0 155.597 1.60361 159.468 4.45804 162.323C7.31248 165.177 11.1839 166.781 15.2207 166.781H234.779C238.816 166.781 242.688 165.177 245.542 162.323C248.396 159.468 250 155.597 250 151.56V15.2207C250 11.1839 248.396 7.31248 245.542 4.45804C242.688 1.60361 238.816 0 234.779 0L15.2207 0C11.1839 0 7.31248 1.60361 4.45804 4.45804C1.60361 7.31248 0 11.1839 0 15.2207H0Z" fill="#EAB063"/>
<path d="M123.174 137.804C114.821 137.81 106.58 135.892 99.0872 132.201C91.5948 128.509 85.0529 123.142 79.9682 116.516C74.8835 109.889 71.3925 102.181 69.7657 93.9885C68.1389 85.796 68.4199 77.3389 70.587 69.2724C72.7541 61.2059 76.7491 53.7466 82.2625 47.4723C87.7759 41.198 94.6596 36.2772 102.381 33.091C110.101 29.9048 118.452 28.5388 126.786 29.0988C135.12 29.6588 143.213 32.1298 150.438 36.3203C160.789 42.3238 168.872 51.572 173.437 62.6332C178.002 73.6945 178.793 85.9519 175.688 97.5083C172.584 109.065 165.756 119.275 156.263 126.56C146.77 133.844 135.14 137.796 123.174 137.804Z" fill="#508A7B"/>
<path d="M174.106 56.6211C168.807 47.442 160.906 40.0401 151.401 35.351C141.896 30.6619 131.214 28.8963 120.705 30.2773C110.197 31.6582 100.334 36.1238 92.3632 43.1095C84.3925 50.0952 78.6719 59.2873 75.9246 69.5237C73.1773 79.7602 73.5268 90.5814 76.9287 100.619C80.3306 110.657 86.6323 119.461 95.0371 125.918C103.442 132.375 113.572 136.195 124.148 136.895C134.724 137.595 145.269 135.144 154.452 129.852C166.769 122.747 175.759 111.04 179.445 97.3067C183.131 83.5734 181.21 68.9383 174.106 56.6211ZM115.506 69.1591C115.098 68.9351 114.787 68.5696 114.631 68.1317C114.509 67.9033 114.446 67.6485 114.446 67.3897C114.446 67.1309 114.509 66.8761 114.631 66.6477C114.859 66.249 115.179 65.9099 115.563 65.6583C115.821 65.5399 116.044 65.3563 116.21 65.1256C116.419 64.8022 116.21 64.4597 115.639 64.1173C115.341 63.8876 114.968 63.7795 114.593 63.8148C114.219 63.8501 113.872 64.0262 113.622 64.3075C113.259 64.6895 112.957 65.1261 112.728 65.6013L110.711 69.083L113.185 70.548L112.405 71.9179L109.931 70.3958L104.224 80.3273C103.893 80.8064 103.732 81.3824 103.767 81.9635C103.911 82.3224 104.192 82.6097 104.547 82.7626L104.167 83.3714L97.6026 79.5663L97.9641 78.9384C98.8203 79.4331 99.5623 79.1287 100.209 77.9871L105.917 68.0556L104.319 67.1233L105.099 65.7725L106.697 66.6857L108.162 64.2314C108.522 63.6331 109.018 63.1283 109.61 62.758C110.201 62.3877 110.872 62.1624 111.568 62.1005C113.096 61.8807 114.653 62.1895 115.982 62.9757C116.602 63.263 117.147 63.6913 117.574 64.2264C118 64.7614 118.295 65.3886 118.436 66.0579C118.593 66.8046 118.471 67.5829 118.093 68.2459C118.017 68.459 117.899 68.6548 117.746 68.822C117.594 68.9892 117.41 69.1245 117.204 69.2201C116.999 69.3156 116.777 69.3695 116.551 69.3787C116.325 69.3878 116.099 69.352 115.886 69.2733C115.757 69.2291 115.635 69.1649 115.525 69.083L115.506 69.1591ZM116.724 107.401C115.264 109.917 113.549 112.276 111.606 114.441L109.094 117.218C109.043 117.317 108.972 117.403 108.885 117.473C108.799 117.543 108.7 117.595 108.593 117.625C108.486 117.656 108.374 117.664 108.264 117.649C108.154 117.635 108.048 117.599 107.953 117.542C107.856 117.488 107.771 117.416 107.703 117.33C107.635 117.243 107.584 117.144 107.554 117.038C107.524 116.932 107.515 116.821 107.528 116.712C107.541 116.602 107.575 116.496 107.629 116.4L108.866 112.919C109.774 110.155 110.96 107.491 112.405 104.966L137.957 60.7306C139.416 58.204 141.138 55.8381 143.093 53.672L145.567 50.8943C145.615 50.7848 145.686 50.6866 145.774 50.606C145.862 50.5254 145.967 50.4643 146.08 50.4264C146.194 50.3886 146.314 50.375 146.433 50.3865C146.552 50.398 146.667 50.4343 146.771 50.493C146.875 50.5518 146.966 50.6317 147.038 50.7277C147.109 50.8237 147.159 50.9335 147.186 51.0502C147.212 51.1669 147.214 51.2878 147.191 51.4051C147.167 51.5224 147.12 51.6336 147.051 51.7314L145.89 55.1751C144.998 57.9509 143.812 60.6234 142.351 63.1469L116.724 107.401ZM148.211 103.824L137.671 97.736L137.995 97.1652L151.027 89.4217L149.638 88.6226C149.15 88.2684 148.594 88.0181 148.005 87.8872C147.416 87.7563 146.806 87.7476 146.214 87.8615C145.387 88.239 144.638 88.7682 144.007 89.4217L143.398 89.0792L145.795 85.4453L155.727 91.153L155.289 91.9141L142.447 99.5244L143.835 100.323C144.867 100.971 146.091 101.24 147.298 101.085C147.913 100.989 148.502 100.772 149.032 100.445C149.561 100.118 150.02 99.6887 150.38 99.1819L151.065 99.6005L148.211 103.824Z" fill="#74C9B4"/>
</g>
<defs>
<clipPath id="clip0">
<rect width="250" height="166.781" fill="white"/>
</clipPath>
</defs>
</svg>
