<svg width="959" height="204" viewBox="0 0 959 204" fill="none" xmlns="http://www.w3.org/2000/svg">
<g clip-path="url(#clip0)">
<g filter="url(#filter0_bd)">
<circle cx="669" cy="99" r="80" fill="#00BFC7"/>
</g>
<rect x="652" y="53" width="34" height="92" fill="white"/>
<rect x="715" y="82" width="34" height="92" transform="rotate(90 715 82)" fill="white"/>
<path d="M87.6 41.1V54.96H40.8V92.22H76.08V105.9H40.8V159H25.5V41.1H87.6ZM144.826 41.1L181.006 159H164.446L156.706 131.64H113.326L105.586 159H89.9259L125.926 41.1H144.826ZM135.106 55.14L117.106 117.96H152.926L135.106 55.14ZM228.207 38.94C242.367 38.94 252.807 41.7 259.527 47.22C266.247 52.74 269.607 60.48 269.607 70.44V74.94C269.607 81.9 267.687 88.08 263.847 93.48C260.007 98.76 254.487 102.48 247.287 104.64L277.887 159H260.787L232.167 107.88C231.207 108 229.287 108.06 226.407 108.06C221.607 108.06 216.867 107.88 212.187 107.52V159H196.887V39.66C210.327 39.18 220.767 38.94 228.207 38.94ZM227.847 51.9C223.887 51.9 218.667 52.02 212.187 52.26V94.74C218.667 95.34 224.067 95.64 228.387 95.64C245.667 95.64 254.307 88.62 254.307 74.58V70.98C254.307 64.5 252.207 59.7 248.007 56.58C243.807 53.46 237.087 51.9 227.847 51.9ZM378.874 159L377.974 62.16L352.954 146.76H334.054L309.034 62.16L308.134 159H293.194L294.274 41.1H316.954L343.594 133.08L370.054 41.1H392.734L393.814 159H378.874ZM463.693 41.1L499.873 159H483.313L475.573 131.64H432.193L424.453 159H408.793L444.793 41.1H463.693ZM453.973 55.14L435.973 117.96H471.793L453.973 55.14Z" fill="black"/>
<path d="M580.554 41.1V53.16L527.274 145.14H580.554V159H509.454V146.94L562.734 54.96H510.534V41.1H580.554ZM817.957 159L779.077 59.46V159H763.957V41.1H788.437L826.597 140.64V41.1H841.717V159H817.957ZM930.823 41.1V54.96H884.023V92.22H927.223V105.9H884.023V145.14H930.823V159H868.723V41.1H930.823Z" fill="white"/>
</g>
<defs>
<filter id="filter0_bd" x="585" y="18" width="168" height="169" filterUnits="userSpaceOnUse" color-interpolation-filters="sRGB">
<feFlood flood-opacity="0" result="BackgroundImageFix"/>
<feGaussianBlur in="BackgroundImage" stdDeviation="0.5"/>
<feComposite in2="SourceAlpha" operator="in" result="effect1_backgroundBlur"/>
<feColorMatrix in="SourceAlpha" type="matrix" values="0 0 0 0 0 0 0 0 0 0 0 0 0 0 0 0 0 0 127 0"/>
<feOffset dy="4"/>
<feGaussianBlur stdDeviation="2"/>
<feColorMatrix type="matrix" values="0 0 0 0 0 0 0 0 0 0 0 0 0 0 0 0 0 0 0.25 0"/>
<feBlend mode="normal" in2="effect1_backgroundBlur" result="effect2_dropShadow"/>
<feBlend mode="normal" in="SourceGraphic" in2="effect2_dropShadow" result="shape"/>
</filter>
<clipPath id="clip0">
<rect width="959" height="204" fill="white"/>
</clipPath>
</defs>
</svg>
