<svg width="202" height="95" viewBox="0 0 202 95" fill="none" xmlns="http://www.w3.org/2000/svg">
<path d="M29.0127 77.612L24.0352 60.8822L35.3082 57.5283L36.1759 60.4445L28.44 62.7461L29.626 66.7325L36.7819 64.6035L37.6496 67.5198L30.4937 69.6488L31.6821 73.6434L39.4507 71.3321L40.3184 74.2483L29.0127 77.612ZM54.6241 58.1569L51.0461 59.2215C50.843 58.778 50.5873 58.4065 50.2788 58.107C49.9688 57.8021 49.6178 57.5687 49.2257 57.4067C48.8337 57.2447 48.4105 57.1572 47.9561 57.1442C47.5072 57.1296 47.0431 57.1935 46.5638 57.3361C45.6979 57.5938 45.0077 58.0333 44.4931 58.6547C43.9768 59.2707 43.6632 60.0397 43.5523 60.9619C43.4397 61.8787 43.556 62.9171 43.9011 64.077C44.256 65.2697 44.7311 66.2191 45.3265 66.9252C45.9273 67.6297 46.6106 68.0933 47.3764 68.316C48.1422 68.5387 48.9471 68.5245 49.7912 68.2733C50.265 68.1324 50.6848 67.9393 51.0505 67.6942C51.4217 67.4474 51.7295 67.1572 51.9741 66.8236C52.2171 66.4846 52.3902 66.11 52.4934 65.6999C52.6021 65.2882 52.6309 64.8469 52.5797 64.376L56.1625 63.3278C56.2984 64.1232 56.2873 64.9327 56.1292 65.7563C55.975 66.5729 55.6709 67.3539 55.2169 68.0996C54.7668 68.8381 54.1629 69.498 53.4051 70.0791C52.6511 70.6532 51.7377 71.0998 50.6649 71.419C49.1727 71.863 47.738 71.9223 46.3608 71.597C44.989 71.27 43.7723 70.5679 42.7108 69.4907C41.6548 68.4118 40.8562 66.9629 40.315 65.144C39.7722 63.3196 39.6535 61.6655 39.959 60.1815C40.2644 58.6976 40.9056 57.4457 41.8826 56.4259C42.858 55.4006 44.0809 54.6692 45.5513 54.2318C46.5207 53.9434 47.4598 53.8122 48.3686 53.8382C49.2828 53.8626 50.139 54.0406 50.9372 54.3722C51.7337 54.6984 52.4453 55.1773 53.0719 55.8089C53.7039 56.4389 54.2213 57.2216 54.6241 58.1569ZM73.2804 55.3362C73.8232 57.1605 73.9391 58.8155 73.6283 60.3011C73.3229 61.785 72.677 63.0412 71.6907 64.0697C70.7082 65.0912 69.4791 65.8214 68.0032 66.2605C66.5165 66.7029 65.0818 66.7622 63.6991 66.4385C62.3165 66.1148 61.0917 65.4151 60.0247 64.3395C58.9578 63.2638 58.1537 61.8166 57.6125 59.9976C57.0698 58.1733 56.9511 56.5191 57.2565 55.0352C57.5619 53.5512 58.2059 52.2985 59.1883 51.2771C60.1692 50.2502 61.403 49.5156 62.8897 49.0733C64.3655 48.6342 65.7948 48.5765 67.1775 48.9002C68.564 49.2168 69.7907 49.9129 70.8576 50.9886C71.93 52.0626 72.7376 53.5118 73.2804 55.3362ZM69.6943 56.4031C69.3427 55.2213 68.8692 54.2774 68.2738 53.5713C67.6838 52.8635 67.0079 52.3948 66.2459 52.165C65.484 51.9352 64.6755 51.9476 63.8205 52.2019C62.9655 52.4563 62.2818 52.888 61.7694 53.4969C61.257 54.1058 60.9445 54.8686 60.832 55.7854C60.7248 56.7005 60.8471 57.7489 61.1987 58.9307C61.5503 60.1125 62.021 61.0572 62.611 61.7649C63.2064 62.4711 63.8851 62.939 64.647 63.1688C65.4089 63.3985 66.2174 63.3862 67.0724 63.1319C67.9274 62.8775 68.6111 62.4458 69.1235 61.8369C69.6359 61.228 69.9457 60.466 70.0528 59.5509C70.1654 58.6341 70.0459 57.5849 69.6943 56.4031ZM73.4118 46.1917L77.774 44.8939L85.7254 54.7635L85.9215 54.7051L87.1845 42.0941L91.5467 40.7962L96.5241 57.526L93.0932 58.5468L89.8535 47.6577L89.7146 47.699L88.6005 59.7945L86.2642 60.4896L78.7072 50.9295L78.5683 50.9708L81.8202 61.9007L78.3893 62.9215L73.4118 46.1917ZM94.4609 39.9292L98.8231 38.6314L106.775 48.501L106.971 48.4426L108.234 35.8316L112.596 34.5337L117.573 51.2635L114.142 52.2843L110.903 41.3952L110.764 41.4365L109.65 53.532L107.314 54.2271L99.7563 44.667L99.6174 44.7083L102.869 55.6382L99.4384 56.659L94.4609 39.9292ZM120.488 50.3965L115.51 33.6667L126.783 30.3128L127.651 33.229L119.915 35.5306L121.101 39.517L128.257 37.388L129.125 40.3043L121.969 42.4333L123.157 46.4279L130.926 44.1166L131.793 47.0328L120.488 50.3965ZM134.573 46.2059L129.595 29.4761L136.196 27.5123C137.459 27.1364 138.605 27.0416 139.632 27.2279C140.664 27.4071 141.536 27.8382 142.249 28.5212C142.966 29.1972 143.489 30.0879 143.818 31.1934C144.148 32.3044 144.193 33.3314 143.952 34.2745C143.709 35.2122 143.196 36.0287 142.413 36.7241C141.636 37.4178 140.604 37.9559 139.319 38.3383L134.9 39.6531L134.054 36.8104L137.901 35.6657C138.577 35.4647 139.11 35.2053 139.501 34.8873C139.893 34.5692 140.142 34.1927 140.25 33.7575C140.363 33.3208 140.338 32.8274 140.174 32.2773C140.009 31.7219 139.758 31.2867 139.421 30.972C139.09 30.6555 138.669 30.4666 138.159 30.405C137.652 30.3364 137.059 30.4033 136.378 30.6058L133.993 31.3155L138.11 45.1535L134.573 46.2059ZM141.342 35.9045L147.765 42.2808L143.861 43.4425L137.528 37.0395L141.342 35.9045ZM161.195 26.4501L157.617 27.5146C157.414 27.0711 157.158 26.6997 156.85 26.4002C156.54 26.0953 156.189 25.8618 155.797 25.6998C155.405 25.5378 154.982 25.4504 154.527 25.4373C154.078 25.4227 153.614 25.4867 153.135 25.6293C152.269 25.8869 151.579 26.3264 151.064 26.9478C150.548 27.5638 150.234 28.3329 150.123 29.2551C150.011 30.1718 150.127 31.2102 150.472 32.3702C150.827 33.5628 151.302 34.5122 151.897 35.2184C152.498 35.9229 153.182 36.3865 153.947 36.6092C154.713 36.8318 155.518 36.8176 156.362 36.5665C156.836 36.4255 157.256 36.2325 157.621 35.9873C157.993 35.7405 158.301 35.4504 158.545 35.1168C158.788 34.7777 158.961 34.4031 159.064 33.993C159.173 33.5813 159.202 33.14 159.151 32.6691L162.734 31.621C162.869 32.4164 162.858 33.2259 162.7 34.0495C162.546 34.866 162.242 35.6471 161.788 36.3927C161.338 37.1313 160.734 37.7911 159.976 38.3723C159.222 38.9463 158.309 39.393 157.236 39.7122C155.744 40.1561 154.309 40.2154 152.932 39.8901C151.56 39.5632 150.343 38.8611 149.282 37.7838C148.226 36.705 147.427 35.2561 146.886 33.4371C146.343 31.6128 146.225 29.9586 146.53 28.4747C146.835 26.9907 147.477 25.7388 148.454 24.719C149.429 23.6937 150.652 22.9624 152.122 22.5249C153.092 22.2365 154.031 22.1053 154.94 22.1313C155.854 22.1557 156.71 22.3337 157.508 22.6653C158.305 22.9915 159.016 23.4704 159.643 24.102C160.275 24.7321 160.792 25.5147 161.195 26.4501ZM166.966 36.5682L161.989 19.8384L173.262 16.4844L174.13 19.4007L166.394 21.7023L167.58 25.6887L174.736 23.5597L175.603 26.476L168.447 28.605L169.636 32.5996L177.404 30.2883L178.272 33.2045L166.966 36.5682Z" fill="white"/>
<path d="M12 43V95" stroke="white" stroke-width="4"/>
<path d="M62 93H10" stroke="white" stroke-width="4"/>
<path d="M189 52V0" stroke="white" stroke-width="4"/>
<path d="M139 2L191 2.00001" stroke="white" stroke-width="4"/>
</svg>
