<svg width="82" height="65" viewBox="0 0 82 65" fill="none" xmlns="http://www.w3.org/2000/svg">
<path d="M30.2181 36.1693C30.6667 37.5186 30.9029 38.7244 30.9267 39.7867C30.9605 40.8293 30.8634 41.7507 30.6355 42.551C30.4026 43.3365 30.0661 44.0082 29.6259 44.5662C29.2005 45.1192 28.7604 45.5784 28.3055 45.9437C27.8457 46.2941 27.4107 46.5705 27.0004 46.7727C26.5852 46.9601 26.2738 47.0884 26.0662 47.1574L19.8611 49.2203L14.4118 32.8289L19.3493 31.1874C20.7282 30.729 22.0105 30.5497 23.1963 30.6495C24.392 30.7295 25.4516 31.0194 26.3752 31.5192C27.3136 32.014 28.1086 32.6718 28.7601 33.4926C29.4068 34.2985 29.8928 35.1907 30.2181 36.1693ZM24.526 45.496C26.3349 44.8946 27.4474 43.8826 27.8636 42.4599C28.2798 41.0372 28.1231 39.2286 27.3936 37.0342C27.1668 36.3522 26.861 35.7046 26.4761 35.0916C26.0912 34.4786 25.5728 33.9841 24.9209 33.6081C24.2788 33.2123 23.5033 32.9844 22.5942 32.9244C21.6801 32.8495 20.5855 33.024 19.3104 33.448L17.7536 33.9655L21.8793 46.3758L24.526 45.496ZM47.4691 30.8541C47.9275 32.2331 48.1538 33.508 48.1479 34.6791C48.1569 35.8452 47.9658 36.8802 47.5747 37.7841C47.1985 38.683 46.6544 39.4485 45.9424 40.0804C45.2452 40.7073 44.4073 41.1835 43.4287 41.5088C42.4501 41.8341 41.4865 41.9569 40.5379 41.8771C39.6041 41.7923 38.71 41.505 37.8556 41.0152C37.016 40.5204 36.2433 39.8058 35.5375 38.8714C34.8465 37.932 34.2718 36.7729 33.8133 35.394C33.3549 34.015 33.1237 32.7499 33.1197 31.5987C33.1255 30.4276 33.3166 29.3926 33.6928 28.4937C34.0839 27.5898 34.628 26.8243 35.3252 26.1974C36.0323 25.5507 36.8752 25.0646 37.8537 24.7393C38.8323 24.414 39.791 24.3011 40.7297 24.4007C41.6783 24.4805 42.5724 24.7678 43.412 25.2626C44.2664 25.7524 45.0391 26.467 45.7301 27.4064C46.431 28.326 47.0107 29.4752 47.4691 30.8541ZM42.6374 39.3514C43.186 39.169 43.6704 38.8927 44.0907 38.5224C44.5209 38.1324 44.8474 37.6287 45.0702 37.0113C45.3079 36.3889 45.4073 35.6478 45.3685 34.788C45.3247 33.9134 45.1205 32.9028 44.7557 31.7562C44.3712 30.6491 43.9396 29.747 43.4609 29.0499C42.992 28.3331 42.4811 27.7867 41.928 27.4107C41.3897 27.0299 40.839 26.8095 40.2757 26.7498C39.7273 26.6851 39.1862 26.7415 38.6525 26.919C38.1039 27.1013 37.612 27.3801 37.1769 27.7553C36.7566 28.1255 36.4301 28.6293 36.1973 29.2665C35.9745 29.8839 35.8825 30.6225 35.9213 31.4823C35.9602 32.3421 36.162 33.3453 36.5267 34.4919C36.9112 35.599 37.3379 36.511 37.8067 37.2278C38.2904 37.9397 38.8013 38.4861 39.3396 38.867C39.8878 39.2281 40.4385 39.4484 40.9919 39.5279C41.5551 39.5877 42.1036 39.5288 42.6374 39.3514ZM61.7591 30.3023C61.9563 30.8954 62.0225 31.5155 61.9577 32.1627C61.9029 32.7902 61.7245 33.3929 61.4226 33.9707C61.1158 34.5338 60.6782 35.0498 60.1096 35.5187C59.541 35.9877 58.8415 36.3602 58.0112 36.6362C57.6553 36.7545 57.2773 36.8555 56.877 36.9392C56.4964 37.0327 56.0986 37.0991 55.6835 37.1383C55.2685 37.1775 54.8584 37.1821 54.4532 37.1522C54.058 37.1024 53.6973 37.0083 53.3713 36.8697L53.2025 34.8017C53.4495 34.8513 53.7484 34.8837 54.0993 34.8988C54.46 34.8941 54.8281 34.887 55.2036 34.8774C55.5742 34.853 55.9399 34.8138 56.3006 34.7597C56.6613 34.7056 56.99 34.6293 57.2865 34.5307C58.191 34.23 58.8114 33.7932 59.1479 33.2204C59.4942 32.6277 59.5294 31.9162 59.2534 31.0859C59.0858 30.5818 58.7723 30.2085 58.313 29.966C57.8536 29.7235 57.3177 29.5477 56.7051 29.4385C56.1024 29.3095 55.4576 29.2028 54.7709 29.1182C54.0792 29.0189 53.4099 28.8627 52.7627 28.6497C52.1107 28.4219 51.5254 28.0978 51.007 27.6774C50.4885 27.257 50.0962 26.6465 49.83 25.8458C49.5885 25.1193 49.5075 24.4299 49.5871 23.7778C49.6666 23.1256 49.8648 22.5328 50.1814 21.9995C50.508 21.4463 50.9333 20.9674 51.4573 20.5626C51.9963 20.153 52.5993 19.8372 53.2665 19.6154C53.9486 19.3886 54.6602 19.2262 55.4015 19.1279C56.1378 19.0149 56.7677 19.0277 57.2914 19.1665C57.2665 19.3888 57.2342 19.6383 57.1944 19.915C57.1498 20.1768 57.11 20.4288 57.0752 20.6709C57.0355 20.8981 57.0008 21.0908 56.971 21.2489C56.9413 21.407 56.9214 21.4959 56.9115 21.5157C56.8078 21.5008 56.6843 21.476 56.541 21.4413C56.4126 21.4016 56.2322 21.3792 56 21.3741C55.7678 21.369 55.4762 21.4083 55.1253 21.492C54.7745 21.5757 54.3395 21.7285 53.8205 21.9505C53.5339 22.0787 53.2817 22.2613 53.0641 22.4983C52.8416 22.7205 52.661 22.9699 52.5225 23.2465C52.3839 23.5231 52.2997 23.8145 52.2698 24.1208C52.235 24.4123 52.257 24.6767 52.3359 24.9139C52.533 25.507 52.8637 25.9322 53.328 26.1895C53.7873 26.432 54.3159 26.6103 54.9136 26.7244C55.5065 26.8237 56.1438 26.9082 56.8256 26.9779C57.5025 27.0328 58.1546 27.1618 58.782 27.3649C59.4242 27.5631 60.0094 27.8872 60.5378 28.3372C61.0612 28.7725 61.4683 29.4275 61.7591 30.3023ZM66.704 28.609L64.7246 29.267L60.4278 17.531L63.1412 16.629L66.704 28.609ZM68.3323 31.4267C68.4802 31.8715 68.4502 32.3013 68.2423 32.7162C68.0345 33.1311 67.7081 33.4125 67.2633 33.5604C66.8185 33.7082 66.3886 33.6782 65.9738 33.4704C65.5737 33.2576 65.2997 32.9288 65.1519 32.484C65.004 32.0392 65.0364 31.6167 65.2492 31.2167C65.4571 30.8018 65.776 30.5229 66.206 30.3799C66.6508 30.2321 67.0806 30.2621 67.4955 30.4699C67.9055 30.6629 68.1844 30.9819 68.3323 31.4267Z" fill="white"/>
</svg>
