<svg width="49" height="49" viewBox="0 0 49 49" fill="none" xmlns="http://www.w3.org/2000/svg">
<g clip-path="url(#clip0_1910:175)">
<path d="M24.7856 9.39258C26.3677 9.39258 27.7153 9.62695 28.8286 10.0957C29.9419 10.5352 30.8354 11.1504 31.5093 11.9414C32.2124 12.7031 32.7251 13.582 33.0474 14.5781C33.3696 15.5742 33.5308 16.6143 33.5308 17.6982C33.5308 18.4014 33.3843 19.0898 33.0913 19.7637C32.8276 20.4082 32.4761 21.0381 32.0366 21.6533C31.5972 22.2686 31.0991 22.8545 30.5425 23.4111C29.9858 23.9678 29.4146 24.4805 28.8286 24.9492C29.6196 25.4473 30.3667 25.9893 31.0698 26.5752C31.8022 27.1318 32.4321 27.7617 32.9595 28.4648C33.5161 29.1387 33.9556 29.8857 34.2778 30.7061C34.6001 31.5264 34.7612 32.4199 34.7612 33.3867C34.7612 34.793 34.4829 36.0527 33.9263 37.166C33.3989 38.2793 32.6812 39.2314 31.7729 40.0225C30.8647 40.7842 29.8101 41.3701 28.6089 41.7803C27.4077 42.1904 26.1333 42.3955 24.7856 42.3955C21.4165 42.3955 18.8237 41.6191 17.0073 40.0664C15.2202 38.5137 14.3267 36.3604 14.3267 33.6064C14.3267 31.4385 14.8247 29.6221 15.8208 28.1572C16.8462 26.6631 18.1792 25.5498 19.8198 24.8174C18.5601 23.9092 17.4907 22.8984 16.6118 21.7852C15.7622 20.6426 15.3374 19.3096 15.3374 17.7861C15.3374 16.4385 15.5864 15.2373 16.0845 14.1826C16.5825 13.1279 17.2563 12.249 18.106 11.5459C18.9556 10.8135 19.9517 10.2715 21.0942 9.91992C22.2661 9.56836 23.4966 9.39258 24.7856 9.39258ZM30.0151 34.002C30.0151 33.2402 29.8101 32.5371 29.3999 31.8926C28.9897 31.248 28.4478 30.6475 27.7739 30.0908C27.1294 29.5049 26.3823 28.9482 25.5327 28.4209C24.7124 27.8936 23.8481 27.3662 22.9399 26.8389C22.5591 27.1611 22.1343 27.5273 21.6655 27.9375C21.2261 28.3477 20.8159 28.8164 20.4351 29.3438C20.0542 29.8711 19.7173 30.4717 19.4243 31.1455C19.1606 31.8193 19.0288 32.5518 19.0288 33.3428C19.0288 34.0459 19.1753 34.7051 19.4683 35.3203C19.7612 35.9062 20.1567 36.4189 20.6548 36.8584C21.1821 37.2979 21.7974 37.6494 22.5005 37.9131C23.2329 38.1475 23.9946 38.2646 24.7856 38.2646C25.5181 38.2646 26.2065 38.1475 26.8511 37.9131C27.4956 37.6787 28.0522 37.3564 28.521 36.9463C28.9897 36.5361 29.356 36.082 29.6196 35.584C29.8833 35.0566 30.0151 34.5293 30.0151 34.002ZM19.8638 17.874C19.8638 18.3721 20.0249 18.8555 20.3472 19.3242C20.6694 19.793 21.1089 20.2471 21.6655 20.6865C22.2515 21.0967 22.9106 21.5215 23.6431 21.9609C24.3755 22.3711 25.1519 22.7959 25.9722 23.2354C26.7339 22.5908 27.437 21.8291 28.0815 20.9502C28.7261 20.0713 29.0483 19.0166 29.0483 17.7861C29.0483 16.9365 28.9312 16.248 28.6968 15.7207C28.4624 15.1934 28.1548 14.7686 27.7739 14.4463C27.4224 14.124 26.9829 13.9043 26.4556 13.7871C25.9575 13.6699 25.4155 13.6113 24.8296 13.6113C23.394 13.6113 22.2075 13.9629 21.27 14.666C20.3325 15.3691 19.8638 16.4385 19.8638 17.874Z" fill="#212121"/>
</g>
<defs>
<clipPath id="clip0_1910:175">
<rect width="49" height="49" fill="white"/>
</clipPath>
</defs>
</svg>
