<svg width="149" height="149" viewBox="0 0 149 149" fill="none" xmlns="http://www.w3.org/2000/svg">
<rect x="17.3734" y="45.9155" width="57.3217" height="81.4006" rx="12.5" transform="rotate(-27.5832 17.3734 45.9155)" fill="#9F2467" stroke="white" stroke-width="5"/>
<rect x="48.7423" y="30.792" width="57.3217" height="81.4006" rx="12.5" transform="rotate(-2.80227 48.7423 30.792)" fill="#9F2467" stroke="white" stroke-width="5"/>
<rect x="77.789" y="37.4752" width="57.3217" height="81.4006" rx="12.5" transform="rotate(15 77.789 37.4752)" fill="#9F2467" stroke="white" stroke-width="5"/>
<path d="M85.8624 84.3257C85.94 85.508 85.8766 86.53 85.6722 87.3916C85.4799 88.2393 85.2076 88.9619 84.8554 89.5591C84.5022 90.1434 84.0895 90.6141 83.6171 90.9714C83.1576 91.3277 82.7061 91.6053 82.2624 91.8041C81.8179 91.9898 81.409 92.1211 81.0356 92.1978C80.6613 92.2615 80.3833 92.2993 80.2014 92.3112L74.7639 92.6681L73.8212 78.3045L78.1478 78.0205C79.3561 77.9412 80.4278 78.0666 81.3629 78.3967C82.3101 78.7129 83.1035 79.1698 83.7429 79.7672C84.3954 80.3638 84.8979 81.0615 85.2504 81.8605C85.6022 82.6464 85.8061 83.4681 85.8624 84.3257ZM79.3092 90.6473C80.8944 90.5433 82.0045 89.9615 82.6396 88.902C83.2747 87.8425 83.5291 86.3513 83.4029 84.4284C83.3637 83.8307 83.2534 83.2442 83.0722 82.6689C82.8909 82.0936 82.577 81.5857 82.1305 81.1453C81.6962 80.691 81.1188 80.3439 80.3984 80.1041C79.6772 79.8514 78.7579 79.7616 77.6405 79.835L76.2763 79.9245L76.99 90.7995L79.3092 90.6473ZM100.891 83.6721C100.97 84.8804 100.884 85.9561 100.633 86.899C100.395 87.8411 100.023 88.6354 99.5171 89.2819C99.0245 89.9275 98.4246 90.4301 97.7175 90.7897C97.0233 91.1485 96.2475 91.356 95.39 91.4122C94.5324 91.4685 93.7296 91.3646 92.9816 91.1005C92.2465 90.8356 91.5861 90.4157 91.0003 89.8409C90.4275 89.2652 89.9549 88.5263 89.5825 87.6243C89.2232 86.7214 89.0038 85.6658 88.9245 84.4575C88.8452 83.2491 88.9251 82.1804 89.1643 81.2513C89.4155 80.3083 89.7875 79.514 90.2801 78.8684C90.7858 78.2219 91.3856 77.7193 92.0798 77.3606C92.7861 76.988 93.568 76.7736 94.4255 76.7173C95.283 76.661 96.0798 76.7718 96.8157 77.0498C97.5638 77.3138 98.2242 77.7337 98.797 78.3094C99.3827 78.8843 99.8553 79.6231 100.215 80.526C100.586 81.4151 100.812 82.4637 100.891 83.6721ZM95.2061 89.5061C95.6869 89.4746 96.1357 89.3538 96.5525 89.1437C96.9814 88.9198 97.3508 88.5824 97.6604 88.1315C97.9831 87.6797 98.2193 87.1031 98.369 86.4017C98.5178 85.6873 98.5659 84.8294 98.5133 83.8281C98.4363 82.8545 98.2782 82.0363 98.039 81.3735C97.8119 80.6968 97.5149 80.1486 97.1481 79.729C96.7943 79.3086 96.3966 79.015 95.9551 78.8483C95.5265 78.6807 95.0783 78.6122 94.6106 78.6429C94.1299 78.6745 93.6746 78.7957 93.2448 79.0066C92.8279 79.2166 92.4586 79.554 92.1368 80.0188C91.8271 80.4697 91.5974 81.0459 91.4477 81.7473C91.298 82.4487 91.2495 83.3001 91.3022 84.3014C91.3792 85.275 91.5312 86.1002 91.7583 86.7769C91.9984 87.4527 92.2953 88.0008 92.6491 88.4213C93.0151 88.8278 93.4128 89.1214 93.8422 89.302C94.2837 89.4688 94.7384 89.5368 95.2061 89.5061ZM112.529 86.2357C112.563 86.7554 112.486 87.2694 112.298 87.7776C112.121 88.272 111.851 88.7204 111.486 89.1227C111.12 89.5121 110.658 89.836 110.101 90.0944C109.544 90.3528 108.901 90.5059 108.174 90.5537C107.862 90.5741 107.536 90.5759 107.195 90.5591C106.869 90.5545 106.534 90.5242 106.191 90.4685C105.848 90.4127 105.517 90.33 105.196 90.2206C104.888 90.0973 104.617 89.9454 104.383 89.765L104.683 88.0621C104.871 88.1541 105.106 88.2431 105.385 88.3291C105.677 88.4013 105.975 88.4731 106.28 88.5444C106.584 88.6028 106.887 88.6481 107.19 88.6805C107.492 88.7128 107.773 88.7205 108.033 88.7034C108.825 88.6514 109.417 88.4299 109.809 88.0388C110.213 87.6339 110.392 87.0676 110.344 86.34C110.315 85.8982 110.141 85.5312 109.821 85.239C109.502 84.9468 109.107 84.6922 108.636 84.4752C108.177 84.2443 107.68 84.0225 107.144 83.8097C106.607 83.584 106.1 83.3171 105.623 83.0092C105.146 82.6882 104.742 82.3037 104.412 81.8555C104.083 81.4074 103.895 80.8325 103.849 80.1309C103.807 79.4943 103.887 78.9214 104.089 78.4123C104.29 77.9032 104.575 77.467 104.942 77.1036C105.322 76.7264 105.766 76.4297 106.273 76.2137C106.794 75.9969 107.347 75.8692 107.932 75.8309C108.529 75.7916 109.137 75.8105 109.756 75.8873C110.373 75.9512 110.878 76.0942 111.271 76.3163C111.204 76.4903 111.126 76.6847 111.036 76.8994C110.944 77.1011 110.859 77.2959 110.78 77.4838C110.7 77.6587 110.632 77.8067 110.575 77.9279C110.517 78.0491 110.483 78.1166 110.47 78.1305C110.39 78.0966 110.296 78.0506 110.187 77.9925C110.092 77.9335 109.951 77.8775 109.765 77.8244C109.579 77.7714 109.336 77.7417 109.035 77.7353C108.735 77.729 108.352 77.7606 107.887 77.8303C107.629 77.8733 107.387 77.9675 107.161 78.1128C106.935 78.2451 106.737 78.4081 106.567 78.602C106.397 78.7958 106.268 79.0131 106.179 79.2538C106.09 79.4815 106.052 79.6992 106.066 79.9071C106.1 80.4268 106.277 80.8393 106.597 81.1445C106.916 81.4367 107.305 81.6918 107.763 81.9096C108.22 82.1145 108.716 82.3168 109.251 82.5166C109.785 82.7034 110.284 82.9447 110.747 83.2405C111.223 83.5355 111.627 83.92 111.958 84.3941C112.288 84.8553 112.479 85.4691 112.529 86.2357ZM116.873 85.9115L115.138 86.0253L114.145 75.658L116.522 75.5019L116.873 85.9115ZM117.592 88.5262C117.618 88.916 117.503 89.2563 117.248 89.547C116.993 89.8378 116.671 89.996 116.281 90.0215C115.891 90.0471 115.551 89.9324 115.26 89.6775C114.983 89.4217 114.831 89.0989 114.805 88.7091C114.78 88.3193 114.895 87.9856 115.151 87.7078C115.406 87.417 115.722 87.2593 116.098 87.2346C116.488 87.209 116.828 87.3237 117.119 87.5786C117.409 87.8206 117.567 88.1364 117.592 88.5262Z" fill="white"/>
</svg>
