<svg width="125" height="125" viewBox="0 0 125 125" fill="none" xmlns="http://www.w3.org/2000/svg">
<path d="M106.651 81.6641L101.672 46.6698C100.393 37.6699 92.672 31 83.5808 31H42.1907C33.0995 31 25.3788 37.6699 24.0996 46.6698L19.12 81.6641C18.1149 88.6995 23.5514 94.9583 30.6325 94.9583C33.739 94.9583 36.6628 93.7248 38.8557 91.532L49.1804 81.253H76.5911L86.8701 91.532C89.063 93.7248 92.0325 94.9583 95.0933 94.9583C102.22 94.9583 107.657 88.6995 106.651 81.6641ZM97.0577 84.9534C96.6923 85.3646 96.0984 85.8214 95.139 85.8214C94.4537 85.8214 93.8142 85.5473 93.3573 85.0905L80.3829 72.1161H45.3886L32.4142 85.0905C31.9573 85.5473 31.3178 85.8214 30.6325 85.8214C29.6731 85.8214 29.0792 85.3646 28.7137 84.9534C28.3483 84.5422 27.9828 83.9027 28.1198 82.9433L33.0995 47.949C33.7847 43.5176 37.6679 40.1369 42.1907 40.1369H83.5808C88.1036 40.1369 91.9868 43.5176 92.6264 47.9946L97.606 82.989C97.743 83.9027 97.3775 84.5422 97.0577 84.9534Z" fill="#212121"/>
<path d="M49.1805 44.7053H44.612V53.8422H35.4751V58.4107H44.612V67.5476H49.1805V58.4107H58.3174V53.8422H49.1805V44.7053Z" fill="#212121"/>
<path d="M85.7279 67.5476C88.251 67.5476 90.2963 65.5022 90.2963 62.9792C90.2963 60.4561 88.251 58.4107 85.7279 58.4107C83.2048 58.4107 81.1594 60.4561 81.1594 62.9792C81.1594 65.5022 83.2048 67.5476 85.7279 67.5476Z" fill="#212121"/>
<path d="M76.5912 53.8422C79.1142 53.8422 81.1596 51.7969 81.1596 49.2738C81.1596 46.7507 79.1142 44.7053 76.5912 44.7053C74.0681 44.7053 72.0227 46.7507 72.0227 49.2738C72.0227 51.7969 74.0681 53.8422 76.5912 53.8422Z" fill="#212121"/>
</svg>
