<svg width="49" height="49" viewBox="0 0 49 49" fill="none" xmlns="http://www.w3.org/2000/svg">
<g clip-path="url(#clip0_1910:175)">
<path d="M25.5547 20.0713C27.0781 20.0713 28.4551 20.3789 29.6855 20.9941C30.9453 21.6094 32.0146 22.415 32.8936 23.4111C33.7725 24.4072 34.4316 25.5205 34.8711 26.751C35.3398 27.9814 35.5742 29.2119 35.5742 30.4424C35.5742 32.7275 35.208 34.6318 34.4756 36.1553C33.7432 37.6494 32.835 38.8652 31.751 39.8027C30.667 40.7109 29.4951 41.3555 28.2354 41.7363C26.9756 42.0879 25.8184 42.2637 24.7637 42.2637C22.8301 42.2637 21.1602 41.9414 19.7539 41.2969C18.3477 40.6523 17.1758 39.7441 16.2383 38.5723C15.3008 37.4004 14.6123 36.0234 14.1729 34.4414C13.7334 32.8594 13.5137 31.1162 13.5137 29.2119C13.5137 25.3447 13.8652 22.1367 14.5684 19.5879C15.2715 17.0098 16.1797 14.9736 17.293 13.4795C18.4355 11.9854 19.6953 10.9307 21.0723 10.3154C22.4785 9.7002 23.8701 9.39258 25.2471 9.39258C26.8877 9.39258 28.4258 9.49512 29.8613 9.7002C31.3262 9.90527 32.5713 10.3447 33.5967 11.0186L31.9268 14.666C31.1064 14.1387 30.1982 13.8164 29.2021 13.6992C28.2061 13.5527 27.0488 13.4795 25.7305 13.4795C24.5293 13.4795 23.4893 13.7432 22.6104 14.2705C21.7314 14.7979 20.999 15.501 20.4131 16.3799C19.8564 17.2588 19.4316 18.2695 19.1387 19.4121C18.8457 20.5547 18.6992 21.7412 18.6992 22.9717C18.7285 22.9424 18.7871 22.9277 18.875 22.9277C18.9629 22.9277 19.0215 22.9131 19.0508 22.8838C19.4316 22.0928 20.2227 21.4336 21.4238 20.9062C22.6543 20.3496 24.0312 20.0713 25.5547 20.0713ZM24.8076 38.001C25.6865 38.001 26.4922 37.8252 27.2246 37.4736C27.9863 37.0928 28.6455 36.5947 29.2021 35.9795C29.7588 35.335 30.1836 34.5879 30.4766 33.7383C30.7988 32.8594 30.96 31.9072 30.96 30.8818C30.96 29.8564 30.7988 28.9336 30.4766 28.1133C30.1836 27.2637 29.7588 26.5459 29.2021 25.96C28.6455 25.3447 27.9863 24.8613 27.2246 24.5098C26.4629 24.1582 25.6572 23.9824 24.8076 23.9824C23.8994 23.9824 23.0645 24.1582 22.3027 24.5098C21.541 24.8613 20.8818 25.3447 20.3252 25.96C19.7686 26.5459 19.3145 27.2637 18.9629 28.1133C18.6406 28.9336 18.4795 29.8564 18.4795 30.8818C18.4795 31.9072 18.6406 32.8594 18.9629 33.7383C19.3145 34.5879 19.7686 35.335 20.3252 35.9795C20.8818 36.5947 21.541 37.0928 22.3027 37.4736C23.0645 37.8252 23.8994 38.001 24.8076 38.001Z" fill="#212121"/>
</g>
<defs>
<clipPath id="clip0_1910:175">
<rect width="49" height="49" fill="white"/>
</clipPath>
</defs>
</svg>
