<svg width="49" height="49" viewBox="0 0 49 49" fill="none" xmlns="http://www.w3.org/2000/svg">
<g clip-path="url(#clip0_1910:175)">
<path d="M27.9277 24.9492C28.6016 25.0371 29.29 25.2568 29.9932 25.6084C30.7256 25.96 31.3994 26.458 32.0146 27.1025C32.6299 27.7471 33.1426 28.5381 33.5527 29.4756C33.9629 30.3838 34.168 31.4385 34.168 32.6396C34.168 34.1045 33.9482 35.3789 33.5088 36.4629C33.0986 37.5176 32.5713 38.3965 31.9268 39.0996C31.2822 39.8027 30.5498 40.374 29.7295 40.8135C28.9385 41.2236 28.1621 41.5312 27.4004 41.7363C26.6387 41.9414 25.9355 42.0732 25.291 42.1318C24.6758 42.1904 24.1924 42.2197 23.8408 42.2197C21.3799 42.2197 19.4316 42.0586 17.9961 41.7363C16.5898 41.3848 15.6084 41.0332 15.0518 40.6816L16.2383 36.9023C16.502 37.0488 16.751 37.21 16.9854 37.3857C17.2197 37.5615 17.5566 37.7373 17.9961 37.9131C18.4355 38.0596 19.0508 38.1914 19.8418 38.3086C20.6328 38.3965 21.7168 38.4404 23.0938 38.4404C25.1152 38.4404 26.624 37.8984 27.6201 36.8145C28.6162 35.7012 29.1143 34.3096 29.1143 32.6396C29.1143 31.0576 28.6602 29.7246 27.752 28.6406C26.8438 27.5566 25.5107 27.0146 23.7529 27.0146H19.2705H19.3145L19.2705 23.4551H22.2588C22.9033 23.4551 23.5479 23.4404 24.1924 23.4111C24.8662 23.3818 25.4961 23.2207 26.082 22.9277C26.668 22.6348 27.1514 22.1367 27.5322 21.4336C27.9131 20.7305 28.1035 19.7197 28.1035 18.4014C28.1035 17.874 28.0596 17.3174 27.9717 16.7314C27.8838 16.1455 27.6348 15.6035 27.2246 15.1055C26.8438 14.6074 26.2725 14.2119 25.5107 13.9189C24.749 13.5967 23.6943 13.4355 22.3467 13.4355C20.999 13.4355 19.915 13.5674 19.0947 13.8311C18.3037 14.0654 17.7031 14.2559 17.293 14.4023L15.7549 10.4473C16.458 10.2422 17.3223 10.0225 18.3477 9.78809C19.4023 9.55371 20.9111 9.43652 22.874 9.43652C24.251 9.43652 25.5547 9.6123 26.7852 9.96387C28.0156 10.2861 29.085 10.8135 29.9932 11.5459C30.9307 12.2783 31.6631 13.2158 32.1904 14.3584C32.7471 15.501 33.0254 16.8486 33.0254 18.4014C33.0254 19.3096 32.8643 20.1445 32.542 20.9062C32.2197 21.6387 31.8096 22.2832 31.3115 22.8398C30.8135 23.3965 30.2568 23.8652 29.6416 24.2461C29.0264 24.5977 28.4551 24.832 27.9277 24.9492Z" fill="#212121"/>
</g>
<defs>
<clipPath id="clip0_1910:175">
<rect width="49" height="49" fill="white"/>
</clipPath>
</defs>
</svg>
