<svg width="49" height="49" viewBox="0 0 49 49" fill="none" xmlns="http://www.w3.org/2000/svg">
<g clip-path="url(#clip0_1910:175)">
<path d="M34.4756 19.2363C34.4756 20.3789 34.2266 21.5654 33.7285 22.7959C33.2305 23.9971 32.5713 25.1982 31.751 26.3994C30.9307 27.5713 30.0225 28.7139 29.0264 29.8271C28.0596 30.9404 27.0781 31.9951 26.082 32.9912C25.1152 33.9873 24.1924 34.8955 23.3135 35.7158C22.4639 36.5068 21.7607 37.1807 21.2041 37.7373H34.959V42H14.832V37.0781C15.3594 36.6094 16.0918 35.9795 17.0293 35.1885C17.9668 34.3682 18.9775 33.46 20.0615 32.4639C21.1455 31.4678 22.2295 30.4131 23.3135 29.2998C24.3975 28.1572 25.3789 27.0146 26.2578 25.8721C27.166 24.7002 27.8984 23.5576 28.4551 22.4443C29.041 21.3311 29.334 20.2764 29.334 19.2803C29.334 18.2549 29.1436 17.4053 28.7627 16.7314C28.4111 16.0283 27.957 15.457 27.4004 15.0176C26.8438 14.5781 26.2285 14.2705 25.5547 14.0947C24.9102 13.9189 24.2949 13.8311 23.709 13.8311C22.5664 13.8311 21.6143 13.875 20.8525 13.9629C20.1201 14.0215 19.4756 14.124 18.9189 14.2705C18.3623 14.3877 17.8643 14.5635 17.4248 14.7979C16.9854 15.0322 16.5166 15.2959 16.0186 15.5889L14.4805 12.3369C15.0078 11.8682 15.6523 11.4434 16.4141 11.0625C17.2051 10.6816 18.0107 10.374 18.8311 10.1396C19.6807 9.90527 20.5156 9.72949 21.3359 9.6123C22.1562 9.46582 22.918 9.39258 23.6211 9.39258C25.5254 9.39258 27.1514 9.7002 28.499 10.3154C29.876 10.9307 31.0039 11.7217 31.8828 12.6885C32.7617 13.626 33.4062 14.6807 33.8164 15.8525C34.2559 17.0244 34.4756 18.1523 34.4756 19.2363Z" fill="white"/>
</g>
<defs>
<clipPath id="clip0_1910:175">
<rect width="49" height="49" fill="white"/>
</clipPath>
</defs>
</svg>
