<svg width="125" height="125" viewBox="0 0 125 125" fill="none" xmlns="http://www.w3.org/2000/svg">
<path d="M93.4444 22H30.9306C26.0187 22 22 26.0187 22 30.9306V93.4444C22 98.3562 26.0187 102.375 30.9306 102.375H93.4444C98.3562 102.375 102.375 98.3562 102.375 93.4444V30.9306C102.375 26.0187 98.3562 22 93.4444 22ZM93.4444 93.4444H30.9306V30.9306H93.4444V93.4444Z" fill="white"/>
<path d="M58.8386 43.076H36.5122V49.7739H58.8386V43.076Z" fill="white"/>
<path d="M88.9792 78.9323H66.6528V85.6302H88.9792V78.9323Z" fill="white"/>
<path d="M88.9792 67.7691H66.6528V74.467H88.9792V67.7691Z" fill="white"/>
<path d="M44.3263 88.9792H51.0242V80.0486H59.9548V73.3507H51.0242V64.4202H44.3263V73.3507H35.3958V80.0486H44.3263V88.9792Z" fill="white"/>
<path d="M71.5198 57.4989L77.8159 51.2029L84.1119 57.4989L88.8451 52.7657L82.5491 46.425L88.8451 40.129L84.1119 35.3958L77.8159 41.6919L71.5198 35.3958L66.7866 40.129L73.0827 46.425L66.7866 52.7657L71.5198 57.4989Z" fill="white"/>
</svg>
