<svg width="49" height="49" viewBox="0 0 49 49" fill="none" xmlns="http://www.w3.org/2000/svg">
<path fill-rule="evenodd" clip-rule="evenodd" d="M29.6855 10.1836C28.1621 9.45117 26.4336 9.08496 24.5 9.08496C22.5664 9.08496 20.8379 9.45117 19.3145 10.1836C17.791 10.8867 16.4873 11.9268 15.4033 13.3037C14.3486 14.6807 13.5283 16.4092 12.9424 18.4893C12.3857 20.54 12.1074 22.9277 12.1074 25.6523C12.1074 28.377 12.3857 30.7793 12.9424 32.8594C13.5283 34.9395 14.3486 36.668 15.4033 38.0449C16.4873 39.4219 17.791 40.4619 19.3145 41.165C20.8379 41.8682 22.5664 42.2197 24.5 42.2197C26.4336 42.2197 28.1621 41.8682 29.6855 41.165C31.209 40.4619 32.5127 39.4219 33.5967 38.0449C34.6807 36.668 35.501 34.9395 36.0576 32.8594C36.6436 30.7793 36.9365 28.377 36.9365 25.6523C36.9365 22.9277 36.6436 20.54 36.0576 18.4893C35.501 16.4092 34.6807 14.6807 33.5967 13.3037C32.5127 11.9268 31.209 10.8867 29.6855 10.1836ZM21.6875 14.0508C22.5664 13.6406 23.5479 13.4355 24.6318 13.4355C25.5861 13.4355 26.4665 13.6297 27.2729 14.0181C29.1265 14.829 30.1965 16.5646 30.796 19.029C31.2942 20.7905 31.554 22.9983 31.5752 25.6523C31.5659 26.3644 31.5406 27.0429 31.4993 27.6878C31.4478 34.4688 28.6044 38 24.5 38C20.3579 38 17.5 34.4036 17.5 27.5C17.5 27.2813 17.5009 27.0634 17.5027 26.8465C17.4868 26.4592 17.4755 26.0611 17.4688 25.6523C17.498 23.3965 17.6738 21.4922 17.9961 19.9395C18.3477 18.3867 18.8311 17.127 19.4463 16.1602C20.0615 15.1641 20.8086 14.4609 21.6875 14.0508Z" fill="white"/>
</svg>
