<svg width="26" height="26" viewBox="0 0 26 26" fill="none" xmlns="http://www.w3.org/2000/svg">
<path d="M3.54885e-09 5.6875C3.54885e-09 5.04103 0.256807 4.42105 0.713927 3.96393C1.17105 3.50681 1.79103 3.25 2.4375 3.25H17.0625C17.709 3.25 18.329 3.50681 18.7861 3.96393C19.2432 4.42105 19.5 5.04103 19.5 5.6875V8.125H21.1575C21.5227 8.12533 21.8832 8.20771 22.2122 8.36606C22.5413 8.52442 22.8306 8.75469 23.0588 9.03988L25.4654 12.0461C25.8116 12.4787 26.0002 13.0163 26 13.5704V17.0625C26 17.709 25.7432 18.329 25.2861 18.7861C24.829 19.2432 24.209 19.5 23.5625 19.5H22.75C22.75 20.362 22.4076 21.1886 21.7981 21.7981C21.1886 22.4076 20.362 22.75 19.5 22.75C18.638 22.75 17.8114 22.4076 17.2019 21.7981C16.5924 21.1886 16.25 20.362 16.25 19.5H8.125C8.12593 19.9332 8.04026 20.3622 7.873 20.7618C7.70574 21.1614 7.46028 21.5236 7.15105 21.827C6.84182 22.1303 6.47506 22.3688 6.07233 22.5284C5.6696 22.688 5.23903 22.7655 4.80593 22.7563C4.37282 22.7471 3.94593 22.6514 3.55035 22.4748C3.15476 22.2982 2.79847 22.0444 2.50242 21.7281C2.20636 21.4119 1.97651 21.0396 1.82639 20.6333C1.67627 20.2269 1.6089 19.7946 1.62825 19.3619C1.1522 19.1943 0.7399 18.8831 0.448247 18.4713C0.156594 18.0594 -2.72219e-05 17.5672 3.54885e-09 17.0625L3.54885e-09 5.6875ZM2.10275 17.8035C2.39686 17.3229 2.81087 16.927 3.30416 16.6547C3.79744 16.3824 4.35305 16.243 4.91646 16.2502C5.47988 16.2574 6.03173 16.411 6.51789 16.6958C7.00404 16.9807 7.40778 17.387 7.6895 17.875H16.6855C16.9707 17.381 17.381 16.9707 17.875 16.6855V5.6875C17.875 5.47201 17.7894 5.26535 17.637 5.11298C17.4847 4.9606 17.278 4.875 17.0625 4.875H2.4375C2.22201 4.875 2.01535 4.9606 1.86298 5.11298C1.7106 5.26535 1.625 5.47201 1.625 5.6875V17.0625C1.62487 17.2189 1.66988 17.372 1.75463 17.5034C1.83937 17.6349 1.96025 17.7391 2.10275 17.8035ZM19.5 16.25C20.0705 16.25 20.6309 16.4002 21.125 16.6854C21.619 16.9707 22.0293 17.3809 22.3145 17.875H23.5625C23.778 17.875 23.9847 17.7894 24.137 17.637C24.2894 17.4847 24.375 17.278 24.375 17.0625V13.5688C24.3747 13.3844 24.3116 13.2056 24.1963 13.0618L21.7913 10.0555C21.7153 9.96034 21.6189 9.88348 21.5092 9.8306C21.3995 9.77772 21.2793 9.75017 21.1575 9.75H19.5V16.25ZM4.875 17.875C4.44402 17.875 4.0307 18.0462 3.72595 18.351C3.4212 18.6557 3.25 19.069 3.25 19.5C3.25 19.931 3.4212 20.3443 3.72595 20.649C4.0307 20.9538 4.44402 21.125 4.875 21.125C5.30598 21.125 5.7193 20.9538 6.02405 20.649C6.3288 20.3443 6.5 19.931 6.5 19.5C6.5 19.069 6.3288 18.6557 6.02405 18.351C5.7193 18.0462 5.30598 17.875 4.875 17.875ZM19.5 17.875C19.069 17.875 18.6557 18.0462 18.351 18.351C18.0462 18.6557 17.875 19.069 17.875 19.5C17.875 19.931 18.0462 20.3443 18.351 20.649C18.6557 20.9538 19.069 21.125 19.5 21.125C19.931 21.125 20.3443 20.9538 20.649 20.649C20.9538 20.3443 21.125 19.931 21.125 19.5C21.125 19.069 20.9538 18.6557 20.649 18.351C20.3443 18.0462 19.931 17.875 19.5 17.875Z" fill="black"/>
</svg>
