<svg width="30" height="30" viewBox="0 0 30 30" fill="none" xmlns="http://www.w3.org/2000/svg">
<path d="M2 7.4375C2 6.79103 2.25681 6.17105 2.71393 5.71393C3.17105 5.25681 3.79103 5 4.4375 5H19.0625C19.709 5 20.329 5.25681 20.7861 5.71393C21.2432 6.17105 21.5 6.79103 21.5 7.4375V9.875H23.1575C23.5227 9.87533 23.8832 9.95771 24.2122 10.1161C24.5413 10.2744 24.8306 10.5047 25.0588 10.7899L27.4654 13.7961C27.8116 14.2287 28.0002 14.7663 28 15.3204V18.8125C28 19.459 27.7432 20.079 27.2861 20.5361C26.829 20.9932 26.209 21.25 25.5625 21.25H24.75C24.75 22.112 24.4076 22.9386 23.7981 23.5481C23.1886 24.1576 22.362 24.5 21.5 24.5C20.638 24.5 19.8114 24.1576 19.2019 23.5481C18.5924 22.9386 18.25 22.112 18.25 21.25H10.125C10.1259 21.6832 10.0403 22.1122 9.873 22.5118C9.70574 22.9114 9.46028 23.2736 9.15105 23.577C8.84182 23.8803 8.47506 24.1188 8.07233 24.2784C7.6696 24.438 7.23903 24.5155 6.80593 24.5063C6.37282 24.4971 5.94593 24.4014 5.55035 24.2248C5.15476 24.0482 4.79847 23.7944 4.50242 23.4781C4.20636 23.1619 3.97651 22.7896 3.82639 22.3833C3.67627 21.9769 3.6089 21.5446 3.62825 21.1119C3.1522 20.9443 2.7399 20.6331 2.44825 20.2213C2.15659 19.8094 1.99997 19.3172 2 18.8125V7.4375ZM4.10275 19.5535C4.39686 19.0729 4.81087 18.677 5.30416 18.4047C5.79744 18.1324 6.35305 17.993 6.91646 18.0002C7.47987 18.0074 8.03173 18.161 8.51789 18.4458C9.00404 18.7307 9.40778 19.137 9.6895 19.625H18.6855C18.9707 19.131 19.381 18.7207 19.875 18.4355V7.4375C19.875 7.22201 19.7894 7.01535 19.637 6.86298C19.4847 6.7106 19.278 6.625 19.0625 6.625H4.4375C4.22201 6.625 4.01535 6.7106 3.86298 6.86298C3.7106 7.01535 3.625 7.22201 3.625 7.4375V18.8125C3.62487 18.9689 3.66988 19.122 3.75463 19.2534C3.83937 19.3849 3.96025 19.4891 4.10275 19.5535ZM21.5 18C22.0705 18 22.6309 18.1502 23.125 18.4354C23.619 18.7207 24.0293 19.1309 24.3145 19.625H25.5625C25.778 19.625 25.9847 19.5394 26.137 19.387C26.2894 19.2347 26.375 19.028 26.375 18.8125V15.3188C26.3747 15.1344 26.3116 14.9556 26.1963 14.8118L23.7913 11.8055C23.7153 11.7103 23.6189 11.6335 23.5092 11.5806C23.3995 11.5277 23.2793 11.5002 23.1575 11.5H21.5V18ZM6.875 19.625C6.44402 19.625 6.0307 19.7962 5.72595 20.101C5.4212 20.4057 5.25 20.819 5.25 21.25C5.25 21.681 5.4212 22.0943 5.72595 22.399C6.0307 22.7038 6.44402 22.875 6.875 22.875C7.30598 22.875 7.7193 22.7038 8.02405 22.399C8.3288 22.0943 8.5 21.681 8.5 21.25C8.5 20.819 8.3288 20.4057 8.02405 20.101C7.7193 19.7962 7.30598 19.625 6.875 19.625ZM21.5 19.625C21.069 19.625 20.6557 19.7962 20.351 20.101C20.0462 20.4057 19.875 20.819 19.875 21.25C19.875 21.681 20.0462 22.0943 20.351 22.399C20.6557 22.7038 21.069 22.875 21.5 22.875C21.931 22.875 22.3443 22.7038 22.649 22.399C22.9538 22.0943 23.125 21.681 23.125 21.25C23.125 20.819 22.9538 20.4057 22.649 20.101C22.3443 19.7962 21.931 19.625 21.5 19.625Z" stroke="#DDE11A" stroke-width="2"/>
</svg>
