<svg width="359" height="359" viewBox="0 0 359 359" fill="none" xmlns="http://www.w3.org/2000/svg">
<path d="M155.837 182.676C155.837 181.45 157.872 180.907 158.959 180C172.565 184.283 187.435 186.422 200.445 180.006C200.508 180.879 202.885 181.233 202.924 182.144C206.022 254.331 237 280 237 280H123C123 280 155.837 248.985 155.837 182.676Z" fill="black"/>
<path d="M254 305C254 312.732 247.732 319 240 319C239.832 319 120.666 318.997 120.5 318.991C112.999 318.727 107 312.564 107 305C107 297.435 112.999 291.272 120.5 291.008C120.666 291.002 239.832 291 240 291C247.732 291 254 297.268 254 305Z" fill="black"/>
<path d="M180 173.5C203.906 173.633 218.131 161.905 223 138.5C225.618 125.915 218.413 111.451 210 98.5C210 98.5 188 133 182.5 132C176.349 130.882 176.296 130.591 173.5 125C171 120 199.5 84 199.5 84L189 71H171C171 71 131.372 111.518 137 138.5C141.852 161.762 156.238 173.368 180 173.5Z" fill="black"/>
<circle cx="180" cy="58" r="17" fill="black"/>
</svg>
