<svg width="359" height="359" viewBox="0 0 359 359" fill="none" xmlns="http://www.w3.org/2000/svg">
<path d="M239 267.63C245.351 267.63 250.5 272.779 250.5 279.13C250.5 285.481 245.351 290.63 239 290.63C238.916 290.63 209.082 290.63 179.249 290.628C164.332 290.627 149.415 290.626 138.218 290.625C126.975 290.624 119.587 290.621 119.587 290.622C113.428 290.406 108.5 285.343 108.5 279.13C108.5 272.917 113.428 267.853 119.587 267.637C119.587 267.637 126.975 267.636 138.218 267.635C149.415 267.634 164.332 267.633 179.249 267.632C209.082 267.63 238.916 267.63 239 267.63Z" fill="white" stroke="black" stroke-width="5"/>
<path d="M125.001 256.125H233.501C233.501 256.125 269.723 144.625 246.501 106.625C219.001 61.6254 193.501 66.125 193.501 66.125H145.501C145.501 66.125 145.501 71.6255 148.001 74.6255C153.323 81.0124 151.518 88.0161 149.001 94.6255C145.001 105.125 119.5 129.125 119.5 147.625C119.5 159.125 125.161 162.714 133 165.125C146 169.125 178.893 141.125 186 141.125C189.5 141.125 191.922 142.247 193 146.125C198 164.125 176.5 185.125 160 200.625C137.113 222.125 125.001 256.125 125.001 256.125Z" fill="white" stroke="black" stroke-width="5"/>
</svg>
