<svg width="359" height="359" viewBox="0 0 359 359" fill="none" xmlns="http://www.w3.org/2000/svg">
<path d="M172 67.4993C154 71.9995 151 85.4993 151 85.4993L208.5 85.4995C208.5 85.4995 205 70.9995 189 67.4993C188.5 67.3899 189 51.9993 189 51.9993H200.5C200.5 51.9993 207.5 50.9995 207.5 43.4995C207.5 35.9995 200.5 34.9995 200.5 34.9995H189V21.4995C189 21.4995 186.508 15.9999 180.5 16C175 16.0001 172 21.4995 172 21.4995V34.9995H160C160 34.9995 153 36.4993 153 43.4995C153 50.4997 160 51.9993 160 51.9993H172C172 51.9993 172.5 67.3743 172 67.4993Z" fill="black"/>
<path d="M155.837 208.675C155.837 207.45 157.872 206.906 158.959 206C172.5 206 187 206.005 200.445 206.005C200.508 206.879 202.885 207.233 202.924 208.143C206.022 280.33 237 306 237 306H123C123 306 155.837 274.985 155.837 208.675Z" fill="black"/>
<path d="M254 331C254 338.731 247.732 345 240 345C239.832 345 120.666 344.996 120.5 344.99C112.999 344.727 107 338.564 107 330.999C107 323.434 112.999 317.271 120.5 317.008C120.666 317.002 239.832 317 240 317C247.732 317 254 323.268 254 331Z" fill="black"/>
<path d="M226 185C226 190.522 222.162 195 217.429 195C217.326 195 144.367 194.997 144.265 194.993C139.673 194.805 136 190.402 136 184.999C136 179.596 139.673 175.193 144.265 175.005C144.367 175.001 217.326 175 217.429 175C222.162 175 226 179.477 226 185Z" fill="black"/>
<path d="M136.5 108.5C141.838 131.181 150 164.498 150 164.498H211.5C211.5 164.498 220 132 225.5 108.5C226.929 102.394 222.203 94.9977 216.5 94.998C196.5 94.9994 175.923 94.998 148 94.998C139.5 94.998 134.265 98.9995 136.5 108.5Z" fill="black"/>
</svg>
