<svg width="359" height="359" viewBox="0 0 359 359" fill="none" xmlns="http://www.w3.org/2000/svg">
<path d="M155.837 193.676C155.837 192.45 157.872 191.907 158.959 191C173 191 186 191 200.445 191.006C200.508 191.879 202.885 192.233 202.924 193.144C206.022 265.331 237 291 237 291H123C123 291 155.837 259.985 155.837 193.676Z" fill="black"/>
<path d="M254 316C254 323.732 247.732 330 240 330C239.832 330 120.666 329.997 120.5 329.991C112.999 329.727 107 323.564 107 316C107 308.435 112.999 302.272 120.5 302.008C120.666 302.002 239.832 302 240 302C247.732 302 254 308.268 254 316Z" fill="black"/>
<path d="M226 170C226 175.523 222.162 180 217.429 180C217.326 180 144.367 179.998 144.265 179.993C139.673 179.805 136 175.403 136 170C136 164.596 139.673 160.194 144.265 160.006C144.367 160.002 217.326 160 217.429 160C222.162 160 226 164.477 226 170Z" fill="black"/>
<path d="M181.5 85.0225C182.074 85.0628 183.064 85.1772 184.055 85.5039C187.477 86.6332 191.181 94.1705 197.29 99.6123C199.359 101.455 200.922 101.056 202.89 99.1084C204.926 97.0929 206.125 94.9348 208.489 93.0625C213.58 89.0315 223.253 89.0313 224.78 89.5352C227.305 90.3687 225.289 93.566 224.27 97.0928C222.094 104.632 221.528 104.983 220.197 112.713C218.561 122.218 220.199 128.334 219.689 136.396C219.368 141.483 216.647 149.963 216.635 150H146.5C146.491 149.972 143.816 141.051 143.5 136C142.999 128 144.608 121.932 143.001 112.5C141.694 104.83 141.139 104.482 139.001 97C138.001 93.5002 136.02 90.3271 138.5 89.5C140 89 149.501 89 154.501 93C156.823 94.8579 158.001 96.9999 160.001 99C161.934 100.933 163.469 101.329 165.501 99.5C171.501 94.1 175.139 86.6205 178.501 85.5C179.468 85.1777 180.435 85.0632 181 85.0225V85C181 85 181.092 84.9995 181.252 85.0068C181.409 84.9995 181.499 85 181.501 85L181.5 85.0225Z" fill="black"/>
<path d="M181 52.5C181 52.5 214.972 52.0004 218.969 78.0723L218.971 78.0869C219.025 78.4411 219.125 79.0938 217.969 79.0938C209.476 79.0939 204.48 82.6731 200.483 85.7393C199.881 86.2016 199.639 85.951 199.484 85.7393C190.492 73.4706 181 75.0039 181 75.0039V74.999C181 74.999 171.5 73.4992 162.5 85.499C162.344 85.7062 162.103 85.9514 161.5 85.499C157.5 82.4999 152.5 78.9991 144 78.999C142.842 78.999 142.942 78.361 142.997 78.0146L143 78C147 52.4991 181 52.499 181 52.499V52.5Z" fill="black"/>
<circle cx="181" cy="44" r="14" fill="black"/>
</svg>
