<svg width="359" height="359" viewBox="0 0 359 359" fill="none" xmlns="http://www.w3.org/2000/svg">
<path d="M157 146.003C157 144.857 158 146.003 172.5 146.003C180.5 146.003 180 146.002 189 146.002C202.5 146.003 203.468 144.651 203.5 145.503C206 213.001 230.5 252.504 230.5 252.504H129.5C129.5 252.504 157 208.005 157 146.003Z" fill="black"/>
<path d="M254 278.004C254 285.736 247.732 292.004 240 292.004C239.832 292.004 120.666 292.001 120.5 291.995C112.999 291.732 107 285.569 107 278.004C107 270.439 112.999 264.276 120.5 264.013C120.666 264.007 239.832 264.004 240 264.004C247.732 264.004 254 270.272 254 278.004Z" fill="black"/>
<path d="M180.28 67.0029C180.42 67.0018 180.496 67.001 180.501 67.001V67.0059C182.187 67.0275 187.788 67.1609 191.98 68.0059C196.971 69.0124 191.98 94.1675 195.474 97.6924C198.968 101.217 205.955 101.214 208.95 98.6982C211.944 96.1819 210.448 71.5275 212.444 69.0117C214.004 67.0473 231.911 65.9939 233.907 70.0186C235.903 74.0451 235.404 129.39 230.413 133.416C226.646 136.454 185.518 136.004 180.501 135.938V136C180.392 136 134.014 136.212 130 133C125 128.998 124.5 74.001 126.5 70C128.499 66.0004 146.439 67.0477 148.001 69C150 71.5007 148.5 95.9983 151.5 98.5C154.499 101.001 161.5 101.003 165 97.5C168.5 93.9972 163.5 69.0009 168.5 68C172.699 67.1603 178.311 67.0283 180 67.0068L180.001 67C180.008 67 180.106 67.0013 180.28 67.0029Z" fill="black"/>
</svg>
