<svg width="359" height="359" viewBox="0 0 359 359" fill="none" xmlns="http://www.w3.org/2000/svg">
<path d="M201.1 147.971C202.581 180.888 209.223 207.062 215.579 225.144C218.833 234.402 222.013 241.54 224.389 246.378C225.078 247.782 225.7 248.991 226.236 250.003H133.791C134.428 248.827 135.185 247.389 136.031 245.703C138.646 240.488 142.124 232.9 145.599 223.36C152.391 204.712 159.189 178.562 159.488 148.089C161.66 148.24 165.559 148.502 172.5 148.502C180.501 148.502 180 148.502 189 148.502C195.318 148.503 198.97 148.208 201.1 147.971Z" fill="white" stroke="black" stroke-width="5"/>
<path d="M240 266.504C246.351 266.505 251.5 271.653 251.5 278.004C251.5 284.356 246.351 289.504 240 289.504C239.916 289.504 210.082 289.504 180.249 289.502C165.332 289.502 150.415 289.501 139.218 289.5C127.975 289.498 120.587 289.496 120.587 289.497C114.428 289.28 109.5 284.217 109.5 278.004C109.5 271.791 114.428 266.728 120.587 266.511C120.587 266.512 127.975 266.51 139.218 266.509C150.415 266.508 165.332 266.507 180.249 266.506C210.082 266.505 239.916 266.504 240 266.504Z" fill="white" stroke="black" stroke-width="5"/>
<path d="M180.279 67.0029C180.423 67.0018 180.501 67.001 180.501 67.001V67.0059C182.188 67.0275 187.788 67.161 191.979 68.0059C196.971 69.0119 191.98 94.1674 195.474 97.6924C198.968 101.217 205.956 101.215 208.95 98.6982C211.944 96.1811 210.447 71.5274 212.443 69.0117C214.003 67.0472 231.91 65.9938 233.906 70.0186C235.903 74.0441 235.403 129.39 230.412 133.416C226.645 136.454 185.521 136.004 180.501 135.938V136C180.501 136 134.02 136.215 130 133C125 129 124.5 73.9996 126.5 70C128.5 66.0005 146.438 67.0477 148 69C150 71.5 148.5 95.9994 151.5 98.5C154.5 101 161.5 101.003 165 97.5C168.5 93.9967 163.5 68.9997 168.5 68C172.7 67.1603 178.312 67.0283 180 67.0068V67C180.005 67 180.103 67.0013 180.279 67.0029Z" fill="white"/>
<path d="M180.279 67.0029L180.256 69.5028L180.278 69.503L180.299 69.5028L180.279 67.0029ZM180.501 67.001H183.001V64.4752L180.475 64.5011L180.501 67.001ZM180.501 67.0059H178.001V69.474L180.469 69.5057L180.501 67.0059ZM191.979 68.0059L192.473 65.5551L192.473 65.5551L191.979 68.0059ZM195.474 97.6924L193.698 99.4523L193.698 99.4524L195.474 97.6924ZM208.95 98.6982L210.559 100.612L210.559 100.612L208.95 98.6982ZM212.443 69.0117L210.485 67.4572L210.485 67.4578L212.443 69.0117ZM233.906 70.0186L236.146 68.9079L236.146 68.9077L233.906 70.0186ZM230.412 133.416L231.981 135.362L231.982 135.362L230.412 133.416ZM180.501 135.938L180.534 133.438L178.001 133.404V135.938H180.501ZM180.501 136L180.513 138.5L183.001 138.488V136H180.501ZM130 133L128.438 134.952L128.438 134.952L130 133ZM126.5 70L124.264 68.8818L124.264 68.8819L126.5 70ZM148 69L149.952 67.4384L149.952 67.4384L148 69ZM151.5 98.5L149.899 100.42L149.899 100.42L151.5 98.5ZM165 97.5L166.768 99.267L166.769 99.2669L165 97.5ZM168.5 68L168.01 65.5485L168.01 65.5485L168.5 68ZM180 67.0068L180.032 69.5066L182.5 69.4752V67.0068H180ZM180 67L180.001 64.5L177.5 64.4995V67H180ZM180.279 67.0029L180.299 69.5028C180.372 69.5023 180.429 69.5018 180.467 69.5014C180.486 69.5012 180.501 69.5011 180.511 69.501C180.516 69.501 180.52 69.5009 180.522 69.5009C180.524 69.5009 180.525 69.5009 180.525 69.5009C180.526 69.5009 180.526 69.5009 180.526 69.5008C180.526 69.5008 180.526 69.5008 180.526 69.5008C180.527 69.5008 180.527 69.5008 180.527 69.5008C180.527 69.5008 180.527 69.5008 180.527 69.5008C180.527 69.5008 180.527 69.5008 180.527 69.5008C180.527 69.5008 180.527 69.5008 180.501 67.001C180.475 64.5011 180.475 64.5011 180.475 64.5011C180.475 64.5011 180.475 64.5011 180.475 64.5011C180.475 64.5011 180.475 64.5011 180.475 64.5011C180.475 64.5011 180.475 64.5011 180.475 64.5011C180.475 64.5011 180.475 64.5011 180.475 64.5011C180.475 64.5011 180.475 64.5011 180.475 64.5011C180.474 64.5011 180.473 64.5011 180.472 64.5011C180.47 64.5012 180.467 64.5012 180.462 64.5012C180.453 64.5013 180.439 64.5015 180.421 64.5016C180.385 64.502 180.33 64.5024 180.259 64.503L180.279 67.0029ZM180.501 67.001H178.001V67.0059H180.501H183.001V67.001H180.501ZM180.501 67.0059L180.469 69.5057C182.161 69.5274 187.548 69.663 191.486 70.4566L191.979 68.0059L192.473 65.5551C188.027 64.6591 182.214 64.5277 180.533 64.5061L180.501 67.0059ZM191.979 68.0059L191.486 70.4566C190.946 70.3478 190.924 69.9614 191.131 70.4325C191.328 70.8795 191.521 71.6637 191.656 72.8537C191.921 75.2063 191.883 78.3811 191.789 81.8363C191.697 85.2024 191.552 88.8249 191.657 91.7965C191.71 93.2856 191.827 94.718 192.075 95.9414C192.301 97.0603 192.718 98.4636 193.698 99.4523L195.474 97.6924L197.249 95.9325C197.356 96.0399 197.165 95.886 196.976 94.9506C196.808 94.1197 196.703 93.0006 196.654 91.62C196.556 88.8521 196.692 85.4619 196.787 81.9727C196.88 78.5727 196.935 75.0496 196.624 72.2925C196.47 70.9276 196.207 69.554 195.708 68.4189C195.219 67.308 194.261 65.9154 192.473 65.5551L191.979 68.0059ZM195.474 97.6924L193.698 99.4524C196.012 101.786 199.302 102.812 202.277 102.958C205.207 103.101 208.412 102.416 210.559 100.612L208.95 98.6982L207.342 96.7843C206.494 97.4968 204.707 98.0708 202.522 97.9637C200.38 97.8587 198.429 97.123 197.249 95.9324L195.474 97.6924ZM208.95 98.6982L210.559 100.612C211.124 100.137 211.481 99.5445 211.713 99.0633C211.956 98.5592 212.142 98.0065 212.291 97.4576C212.588 96.3616 212.8 95.0403 212.962 93.638C213.287 90.8232 213.445 87.3348 213.569 83.9462C213.696 80.5087 213.787 77.1811 213.971 74.5302C214.062 73.2049 214.172 72.1221 214.308 71.3243C214.376 70.9246 214.441 70.6487 214.495 70.4751C214.563 70.2559 214.564 70.3614 214.402 70.5657L212.443 69.0117L210.485 67.4578C210.073 67.9765 209.852 68.5694 209.721 68.989C209.576 69.4542 209.466 69.9683 209.378 70.4885C209.201 71.5302 209.078 72.8059 208.982 74.185C208.792 76.9428 208.696 80.4076 208.573 83.7627C208.448 87.1666 208.294 90.4708 207.995 93.0652C207.845 94.3674 207.667 95.4048 207.465 96.1487C207.365 96.5197 207.274 96.7572 207.209 96.892C207.133 97.0498 207.151 96.9449 207.341 96.7846L208.95 98.6982ZM212.443 69.0117L214.401 70.5662C214.188 70.835 214.002 70.9107 214.086 70.8662C214.136 70.8399 214.266 70.781 214.504 70.7034C214.98 70.5488 215.678 70.3871 216.573 70.2422C218.353 69.9544 220.665 69.772 223.014 69.7692C225.376 69.7664 227.652 69.9457 229.393 70.3286C230.266 70.5208 230.907 70.7437 231.329 70.9612C231.781 71.194 231.751 71.3004 231.667 71.1294L233.906 70.0186L236.146 68.9077C235.562 67.7305 234.536 66.9894 233.621 66.5172C232.675 66.0296 231.577 65.6898 230.467 65.4455C228.24 64.9553 225.567 64.7662 223.008 64.7692C220.436 64.7722 217.854 64.9699 215.775 65.3064C214.741 65.4736 213.769 65.685 212.959 65.9483C212.555 66.0797 212.138 66.2409 211.753 66.4439C211.403 66.6287 210.894 66.9429 210.485 67.4572L212.443 69.0117ZM233.906 70.0186L231.667 71.1293C231.61 71.0146 231.68 71.1341 231.785 71.7615C231.875 72.2999 231.963 73.0319 232.044 73.9523C232.205 75.7878 232.328 78.2397 232.405 81.1236C232.56 86.884 232.529 94.2546 232.281 101.633C232.033 109.02 231.568 116.359 230.863 122.072C230.51 124.937 230.104 127.325 229.655 129.082C229.43 129.963 229.21 130.621 229.009 131.074C228.781 131.59 228.684 131.598 228.843 131.47L230.412 133.416L231.982 135.362C232.764 134.731 233.256 133.835 233.582 133.096C233.937 132.294 234.237 131.346 234.499 130.32C235.025 128.265 235.461 125.637 235.826 122.684C236.556 116.762 237.027 109.258 237.278 101.801C237.529 94.3369 237.561 86.8645 237.403 80.9896C237.325 78.0557 237.198 75.4918 237.024 73.5143C236.938 72.5283 236.836 71.6545 236.717 70.9379C236.612 70.3103 236.452 69.5257 236.146 68.9079L233.906 70.0186ZM230.412 133.416L228.843 131.47C228.974 131.364 228.949 131.428 228.522 131.565C228.15 131.685 227.625 131.813 226.934 131.941C225.556 132.198 223.714 132.421 221.516 132.61C217.131 132.987 211.542 133.212 205.869 133.341C194.536 133.599 183.036 133.471 180.534 133.438L180.501 135.938L180.468 138.437C182.986 138.471 194.558 138.6 205.983 138.34C211.69 138.21 217.402 137.982 221.944 137.592C224.21 137.397 226.238 137.157 227.849 136.857C228.653 136.707 229.403 136.534 230.05 136.326C230.641 136.136 231.38 135.847 231.981 135.362L230.412 133.416ZM180.501 135.938H178.001V136H180.501H183.001V135.938H180.501ZM180.501 136C180.489 133.5 180.489 133.5 180.489 133.5C180.489 133.5 180.488 133.5 180.488 133.5C180.486 133.5 180.484 133.5 180.482 133.5C180.476 133.5 180.468 133.5 180.457 133.5C180.435 133.5 180.402 133.5 180.359 133.501C180.272 133.501 180.142 133.501 179.972 133.502C179.633 133.502 179.134 133.503 178.497 133.503C177.222 133.503 175.397 133.498 173.192 133.483C168.783 133.453 162.867 133.38 156.83 133.207C150.784 133.033 144.655 132.76 139.805 132.335C137.375 132.122 135.317 131.874 133.772 131.593C132.998 131.451 132.401 131.31 131.974 131.177C131.482 131.024 131.435 130.947 131.562 131.048L130 133L128.438 134.952C129.067 135.455 129.854 135.753 130.485 135.95C131.18 136.167 131.995 136.351 132.876 136.512C134.642 136.834 136.875 137.097 139.368 137.316C144.364 137.754 150.609 138.03 156.686 138.205C162.772 138.379 168.727 138.453 173.158 138.483C175.375 138.498 177.212 138.503 178.495 138.503C179.137 138.503 179.64 138.502 179.984 138.502C180.156 138.501 180.287 138.501 180.376 138.501C180.421 138.5 180.455 138.5 180.477 138.5C180.489 138.5 180.498 138.5 180.503 138.5C180.506 138.5 180.509 138.5 180.51 138.5C180.511 138.5 180.511 138.5 180.512 138.5C180.512 138.5 180.513 138.5 180.501 136ZM130 133L131.562 131.048C131.722 131.176 131.625 131.169 131.398 130.66C131.198 130.211 130.978 129.559 130.753 128.685C130.303 126.94 129.897 124.569 129.543 121.723C128.838 116.046 128.372 108.755 128.124 101.415C127.875 94.0832 127.844 86.7595 127.999 81.0361C128.077 78.1707 128.2 75.735 128.361 73.912C128.442 72.9979 128.53 72.2715 128.62 71.7377C128.725 71.1147 128.795 71.0001 128.736 71.1181L126.5 70L124.264 68.8819C123.955 69.4999 123.795 70.2837 123.69 70.9076C123.569 71.6209 123.468 72.4902 123.381 73.4705C123.207 75.4365 123.08 77.9852 123.001 80.901C122.843 86.7399 122.875 94.1661 123.126 101.584C123.378 108.995 123.85 116.453 124.582 122.339C124.947 125.275 125.384 127.887 125.911 129.932C126.174 130.952 126.475 131.896 126.831 132.695C127.16 133.432 127.653 134.324 128.438 134.952L130 133ZM126.5 70L128.736 71.1182C128.649 71.2931 128.617 71.1872 129.072 70.9545C129.496 70.7376 130.14 70.5157 131.017 70.3244C132.762 69.9435 135.044 69.7653 137.411 69.7681C139.765 69.7709 142.083 69.9523 143.867 70.2386C144.765 70.3827 145.465 70.5437 145.942 70.6977C146.182 70.775 146.313 70.8339 146.364 70.8605C146.45 70.9054 146.263 70.8302 146.048 70.5616L148 69L149.952 67.4384C149.542 66.9257 149.032 66.6136 148.683 66.4307C148.298 66.2294 147.881 66.0695 147.477 65.9391C146.667 65.6778 145.694 65.4679 144.659 65.3018C142.578 64.9677 139.993 64.7712 137.417 64.7681C134.855 64.765 132.18 64.9529 129.95 65.4394C128.839 65.6819 127.742 66.0191 126.796 66.5029C125.881 66.9707 124.851 67.7071 124.264 68.8818L126.5 70ZM148 69L146.048 70.5616C145.883 70.3563 145.883 70.2484 145.951 70.4644C146.004 70.635 146.069 70.9077 146.137 71.304C146.272 72.0952 146.383 73.1698 146.475 74.4864C146.658 77.12 146.75 80.4258 146.877 83.8423C147.001 87.2096 147.16 90.6774 147.486 93.476C147.648 94.8703 147.86 96.1851 148.159 97.2765C148.308 97.8232 148.495 98.3742 148.74 98.877C148.973 99.3574 149.332 99.9478 149.899 100.42L151.5 98.5L153.101 96.5797C153.293 96.7396 153.312 96.8456 153.237 96.6912C153.173 96.5592 153.082 96.3249 152.982 95.9575C152.78 95.2207 152.602 94.1918 152.452 92.8985C152.152 90.322 151.999 87.0399 151.873 83.6572C151.75 80.3238 151.654 76.8797 151.463 74.1384C151.367 72.7676 151.243 71.4985 151.066 70.4616C150.977 69.9439 150.867 69.4313 150.721 68.9673C150.59 68.5485 150.367 67.9562 149.952 67.4384L148 69ZM151.5 98.5L149.899 100.42C152.048 102.211 155.254 102.891 158.184 102.748C161.158 102.604 164.451 101.587 166.768 99.267L165 97.5L163.232 95.733C162.049 96.9163 160.092 97.6495 157.941 97.7542C155.746 97.861 153.952 97.2891 153.101 96.5796L151.5 98.5ZM165 97.5L166.769 99.2669C167.753 98.2814 168.173 96.8816 168.4 95.7667C168.648 94.5484 168.766 93.1227 168.819 91.6422C168.924 88.6878 168.779 85.0864 168.686 81.7424C168.592 78.3085 168.554 75.1562 168.82 72.8213C168.954 71.6403 169.148 70.8647 169.343 70.4245C169.547 69.9642 169.523 70.345 168.99 70.4515L168.5 68L168.01 65.5485C166.227 65.9049 165.265 67.2855 164.772 68.3973C164.27 69.5291 164.007 70.8978 163.852 72.2556C163.54 74.9983 163.595 78.5016 163.688 81.8799C163.784 85.348 163.92 88.7152 163.822 91.4643C163.773 92.8355 163.668 93.9453 163.5 94.7684C163.312 95.695 163.122 95.8427 163.231 95.7331L165 97.5ZM168.5 68L168.99 70.4515C172.938 69.6623 178.338 69.5282 180.032 69.5066L180 67.0068L179.968 64.507C178.286 64.5284 172.463 64.6583 168.01 65.5485L168.5 68ZM180 67.0068H182.5V67H180H177.5V67.0068H180ZM180 67L179.999 69.5C179.99 69.5 179.982 69.4999 179.982 69.4999C179.98 69.4999 179.978 69.4999 179.978 69.4999C179.977 69.4999 179.977 69.4999 179.978 69.4999C179.981 69.4999 179.985 69.5 179.992 69.5001C180.004 69.5002 180.023 69.5004 180.047 69.5007C180.096 69.5012 180.166 69.502 180.256 69.5028L180.279 67.0029L180.302 64.503C180.216 64.5022 180.149 64.5015 180.103 64.501C180.08 64.5008 180.063 64.5005 180.05 64.5004C180.044 64.5003 180.038 64.5003 180.034 64.5002C180.032 64.5002 180.029 64.5002 180.026 64.5001C180.025 64.5001 180.023 64.5001 180.02 64.5001C180.019 64.5001 180.011 64.5 180.001 64.5L180 67Z" fill="black"/>
</svg>
